<svg width="341" height="260" viewBox="0 0 341 260" fill="none" xmlns="http://www.w3.org/2000/svg">
<path d="M336 72.9062C333.354 70.0677 330.641 67.2969 327.849 64.599C325.063 61.8958 322.208 59.2708 319.286 56.7188C316.365 54.1615 313.38 51.6875 310.333 49.2865C307.281 46.8854 304.172 44.5625 301.005 42.3229C297.839 40.0833 294.615 37.9219 291.339 35.849C288.057 33.7708 284.729 31.7813 281.349 29.8802C277.969 27.974 274.542 26.1563 271.068 24.4271C267.599 22.6979 264.083 21.0625 260.526 19.5104C256.969 17.9635 253.375 16.5104 249.74 15.1458C246.109 13.7813 242.448 12.5104 238.75 11.3333C235.052 10.1615 231.328 9.07813 227.578 8.09375C223.823 7.10938 220.052 6.22396 216.255 5.43229C212.453 4.64062 208.641 3.94792 204.807 3.35417C200.974 2.76042 197.13 2.26042 193.271 1.86458C189.411 1.46875 185.547 1.17188 181.672 0.96875C177.802 0.770834 173.922 0.671875 170.047 0.671875C166.167 0.671875 162.292 0.770834 158.417 0.96875C154.542 1.17188 150.677 1.46875 146.818 1.86458C142.958 2.26042 139.115 2.76042 135.281 3.35417C131.448 3.94792 127.635 4.64062 123.839 5.43229C120.042 6.22396 116.266 7.10938 112.51 8.09375C108.76 9.07813 105.036 10.1615 101.339 11.3333C97.6458 12.5104 93.9792 13.7813 90.349 15.1458C86.7188 16.5104 83.1198 17.9635 79.5625 19.5104C76.0052 21.0625 72.4948 22.6979 69.0208 24.4271C65.5469 26.1563 62.1198 27.974 58.7396 29.8802C55.3594 31.7813 52.0313 33.7708 48.75 35.849C45.474 37.9219 42.25 40.0833 39.0833 42.3229C35.9167 44.5625 32.8073 46.8854 29.7604 49.2865C26.7083 51.6875 23.724 54.1615 20.8021 56.7188C17.8802 59.2708 15.026 61.8958 12.2396 64.599C9.45313 67.2969 6.73438 70.0677 4.08855 72.9062C3.42188 73.6146 2.82813 74.375 2.3073 75.1979C1.78647 76.0208 1.35417 76.8854 1.00522 77.7917C0.656259 78.6979 0.401049 79.6302 0.234383 80.5885C0.0677161 81.5469 7.74488e-06 82.5156 0.0208411 83.4844C0.0468824 84.4583 0.166675 85.4167 0.380216 86.3646C0.593757 87.3177 0.895841 88.2344 1.29167 89.125C1.6823 90.0104 2.16147 90.8542 2.71876 91.651C3.28126 92.4427 3.91147 93.1771 4.61459 93.849C5.31772 94.5156 6.07813 95.1094 6.90105 95.6302C7.71876 96.151 8.58334 96.5885 9.48959 96.9375C10.3958 97.2865 11.3281 97.5469 12.2865 97.7135C13.2396 97.8802 14.2031 97.9479 15.1771 97.9271C16.1458 97.901 17.1042 97.7812 18.0521 97.5729C19 97.3594 19.9167 97.0521 20.8073 96.6615C21.6927 96.2656 22.5365 95.7917 23.3281 95.2292C24.125 94.6719 24.8542 94.0417 25.5261 93.3333C27.8281 90.8594 30.1927 88.4427 32.6146 86.0885C35.0417 83.7292 37.5261 81.4375 40.0677 79.2135C42.6094 76.9844 45.2083 74.8229 47.8646 72.7292C50.5156 70.6354 53.224 68.6094 55.9792 66.6562C58.7396 64.6979 61.5417 62.8177 64.3958 61.0052C67.25 59.1927 70.1511 57.4583 73.0938 55.7969C76.0365 54.1354 79.0208 52.5469 82.0469 51.0417C85.0677 49.5313 88.1302 48.1042 91.2292 46.75C94.3281 45.401 97.4583 44.1302 100.62 42.9427C103.781 41.75 106.974 40.6406 110.193 39.6146C113.417 38.5885 116.656 37.651 119.927 36.7917C123.193 35.9323 126.484 35.1563 129.792 34.4635C133.099 33.776 136.422 33.1719 139.76 32.651C143.099 32.1354 146.448 31.6979 149.813 31.3542C153.172 31.0052 156.542 30.7448 159.917 30.5729C163.292 30.401 166.667 30.3125 170.047 30.3125C173.422 30.3125 176.802 30.401 180.177 30.5729C183.552 30.7448 186.917 31.0052 190.276 31.3542C193.641 31.6979 196.99 32.1354 200.328 32.651C203.667 33.1719 206.99 33.776 210.297 34.4635C213.609 35.1563 216.896 35.9323 220.161 36.7917C223.432 37.651 226.677 38.5885 229.896 39.6146C233.115 40.6406 236.307 41.75 239.469 42.9427C242.63 44.1302 245.76 45.401 248.859 46.75C251.958 48.1042 255.021 49.5313 258.047 51.0417C261.068 52.5469 264.052 54.1354 266.995 55.7969C269.938 57.4583 272.839 59.1927 275.693 61.0052C278.547 62.8177 281.354 64.6979 284.109 66.6562C286.865 68.6094 289.573 70.6354 292.224 72.7292C294.88 74.8229 297.479 76.9844 300.021 79.2135C302.563 81.4375 305.047 83.7292 307.474 86.0885C309.901 88.4427 312.26 90.8594 314.563 93.3333C315.234 94.0417 315.964 94.6719 316.76 95.2344C317.552 95.7917 318.396 96.2708 319.281 96.6667C320.172 97.0573 321.089 97.3646 322.036 97.5781C322.984 97.7917 323.943 97.9062 324.917 97.9323C325.885 97.9583 326.854 97.8854 327.807 97.7188C328.766 97.5521 329.698 97.2969 330.604 96.9479C331.51 96.5938 332.375 96.1615 333.198 95.6406C334.016 95.1198 334.781 94.526 335.484 93.8542C336.188 93.1823 336.818 92.4479 337.38 91.6562C337.938 90.8594 338.417 90.0156 338.807 89.1302C339.203 88.2396 339.505 87.3177 339.719 86.3698C339.932 85.4219 340.052 84.4583 340.073 83.4896C340.099 82.5156 340.026 81.5521 339.859 80.5938C339.698 79.6354 339.438 78.6979 339.089 77.7917C338.74 76.8854 338.302 76.0208 337.786 75.1979C337.266 74.375 336.672 73.6146 336 72.9062Z" fill="white"/>
<path d="M170.047 57.0676C163.917 57.078 157.807 57.3958 151.708 58.026C145.615 58.6614 139.568 59.5989 133.568 60.8541C127.568 62.1041 121.646 63.6562 115.807 65.5155C109.969 67.3697 104.234 69.5208 98.6146 71.9687C92.9948 74.4114 87.5104 77.1353 82.1719 80.1405C76.8281 83.1458 71.6511 86.4166 66.6406 89.953C61.6354 93.4895 56.8177 97.2708 52.1979 101.297C47.5729 105.328 43.1667 109.578 38.9792 114.057C38.3125 114.766 37.7188 115.526 37.1979 116.349C36.6771 117.172 36.2448 118.036 35.8958 118.943C35.5469 119.849 35.2917 120.781 35.125 121.74C34.9583 122.698 34.8906 123.667 34.9115 124.635C34.9375 125.609 35.0573 126.568 35.2708 127.516C35.4844 128.469 35.7865 129.385 36.1823 130.276C36.5729 131.161 37.0521 132.005 37.6094 132.802C38.1719 133.594 38.8021 134.328 39.5052 135C40.2083 135.667 40.9688 136.266 41.7917 136.781C42.6094 137.302 43.474 137.74 44.3802 138.088C45.2865 138.437 46.2188 138.698 47.1771 138.865C48.1302 139.031 49.0938 139.099 50.0677 139.078C51.0365 139.052 51.9948 138.932 52.9427 138.724C53.8906 138.51 54.8125 138.208 55.6979 137.812C56.5886 137.417 57.4271 136.943 58.224 136.38C59.0156 135.823 59.75 135.193 60.4167 134.484C62.1615 132.604 63.9531 130.771 65.7917 128.984C67.6302 127.193 69.5156 125.453 71.4427 123.76C73.3698 122.073 75.3438 120.432 77.3542 118.838C79.3698 117.25 81.4219 115.713 83.5104 114.229C85.6042 112.745 87.7292 111.312 89.8959 109.937C92.0625 108.562 94.2604 107.245 96.4896 105.984C98.724 104.724 100.99 103.516 103.281 102.375C105.578 101.229 107.896 100.141 110.25 99.1145C112.599 98.0885 114.974 97.1249 117.375 96.2239C119.771 95.3176 122.193 94.4739 124.635 93.6978C127.078 92.9166 129.542 92.203 132.021 91.552C134.5 90.8958 136.995 90.3072 139.505 89.7864C142.016 89.2603 144.536 88.802 147.068 88.4062C149.599 88.0155 152.141 87.6874 154.693 87.4218C157.245 87.1614 159.797 86.9635 162.359 86.828C164.917 86.6978 167.479 86.6301 170.047 86.6301C172.609 86.6301 175.172 86.6978 177.729 86.828C180.292 86.9635 182.849 87.1614 185.396 87.4218C187.948 87.6874 190.49 88.0155 193.021 88.4062C195.557 88.802 198.078 89.2603 200.589 89.7864C203.094 90.3072 205.589 90.8958 208.068 91.552C210.552 92.203 213.01 92.9166 215.453 93.6978C217.896 94.4739 220.318 95.3176 222.719 96.2239C225.115 97.1249 227.49 98.0885 229.844 99.1145C232.193 100.141 234.516 101.229 236.807 102.375C239.104 103.516 241.365 104.724 243.599 105.984C245.833 107.245 248.031 108.562 250.193 109.937C252.359 111.312 254.49 112.745 256.578 114.229C258.672 115.713 260.724 117.25 262.734 118.838C264.745 120.432 266.719 122.073 268.646 123.76C270.573 125.453 272.458 127.193 274.297 128.984C276.135 130.771 277.927 132.604 279.672 134.484C280.344 135.193 281.073 135.823 281.87 136.385C282.661 136.943 283.505 137.422 284.391 137.818C285.281 138.208 286.198 138.516 287.146 138.729C288.094 138.943 289.052 139.057 290.026 139.083C290.995 139.109 291.958 139.036 292.917 138.87C293.875 138.703 294.807 138.448 295.714 138.099C296.62 137.745 297.484 137.312 298.307 136.792C299.125 136.271 299.891 135.677 300.594 135.005C301.297 134.333 301.927 133.599 302.49 132.807C303.047 132.01 303.521 131.167 303.917 130.281C304.313 129.391 304.615 128.469 304.828 127.521C305.042 126.573 305.161 125.609 305.182 124.641C305.208 123.667 305.135 122.703 304.969 121.745C304.802 120.786 304.547 119.849 304.198 118.943C303.849 118.036 303.411 117.172 302.896 116.349C302.375 115.526 301.781 114.766 301.109 114.057C296.922 109.578 292.516 105.328 287.896 101.297C283.271 97.2708 278.458 93.4895 273.448 89.953C268.438 86.4166 263.266 83.1458 257.922 80.1405C252.578 77.1353 247.094 74.4114 241.474 71.9687C235.854 69.5208 230.125 67.3697 224.281 65.5155C218.443 63.6562 212.521 62.1041 206.521 60.8541C200.526 59.5989 194.474 58.6614 188.38 58.026C182.286 57.3958 176.172 57.078 170.047 57.0676Z" fill="white"/>
<path d="M170.047 113.245C165.578 113.25 161.125 113.484 156.682 113.943C152.245 114.406 147.839 115.094 143.464 116.005C139.094 116.917 134.781 118.047 130.526 119.401C126.266 120.755 122.094 122.323 117.995 124.104C113.901 125.885 109.906 127.87 106.01 130.057C102.12 132.245 98.3489 134.63 94.6979 137.203C91.0469 139.781 87.5364 142.537 84.1667 145.469C80.8021 148.406 77.5885 151.505 74.5364 154.766C73.8646 155.474 73.2708 156.245 72.7448 157.073C72.2239 157.901 71.7917 158.771 71.4427 159.682C71.0885 160.594 70.8333 161.531 70.6667 162.5C70.5052 163.464 70.4323 164.432 70.4583 165.412C70.4844 166.385 70.6042 167.354 70.8229 168.307C71.0364 169.26 71.3437 170.182 71.7396 171.078C72.1406 171.969 72.6198 172.818 73.1823 173.615C73.7448 174.417 74.3854 175.151 75.0937 175.823C75.8021 176.495 76.5677 177.094 77.3958 177.615C78.2187 178.135 79.0885 178.573 80 178.922C80.9114 179.276 81.8489 179.531 82.8125 179.698C83.776 179.865 84.7448 179.932 85.7239 179.906C86.6979 179.88 87.6614 179.76 88.6146 179.542C89.5677 179.328 90.4896 179.021 91.3854 178.625C92.276 178.224 93.1198 177.745 93.9167 177.177C94.7135 176.615 95.4479 175.979 96.125 175.266C97.3021 174.005 98.5104 172.771 99.7552 171.568C100.995 170.365 102.266 169.198 103.568 168.057C104.87 166.922 106.203 165.818 107.557 164.75C108.917 163.682 110.302 162.651 111.714 161.651C113.125 160.656 114.562 159.693 116.021 158.771C117.479 157.844 118.964 156.958 120.469 156.109C121.974 155.266 123.5 154.453 125.047 153.682C126.594 152.917 128.161 152.188 129.745 151.495C131.328 150.807 132.932 150.162 134.547 149.552C136.167 148.943 137.797 148.38 139.443 147.854C141.089 147.333 142.75 146.854 144.422 146.412C146.094 145.974 147.771 145.578 149.464 145.229C151.156 144.875 152.854 144.568 154.562 144.302C156.271 144.037 157.984 143.818 159.698 143.641C161.417 143.464 163.141 143.333 164.865 143.245C166.589 143.156 168.318 143.109 170.047 143.109C171.771 143.109 173.5 143.156 175.224 143.245C176.948 143.333 178.672 143.464 180.391 143.641C182.109 143.818 183.823 144.037 185.526 144.302C187.234 144.568 188.932 144.875 190.625 145.229C192.318 145.578 194 145.974 195.667 146.412C197.339 146.854 199 147.333 200.646 147.854C202.292 148.38 203.922 148.943 205.542 149.552C207.161 150.162 208.76 150.807 210.344 151.495C211.927 152.188 213.495 152.917 215.042 153.682C216.589 154.453 218.115 155.266 219.62 156.109C221.125 156.958 222.609 157.844 224.068 158.771C225.531 159.693 226.964 160.656 228.375 161.651C229.786 162.651 231.172 163.682 232.531 164.75C233.891 165.818 235.219 166.922 236.521 168.057C237.823 169.198 239.094 170.365 240.339 171.568C241.578 172.771 242.786 174.005 243.969 175.266C244.635 175.974 245.37 176.604 246.161 177.167C246.958 177.724 247.797 178.203 248.688 178.599C249.573 178.99 250.495 179.297 251.443 179.51C252.391 179.724 253.349 179.839 254.318 179.865C255.292 179.891 256.255 179.818 257.214 179.651C258.172 179.484 259.104 179.229 260.01 178.88C260.917 178.526 261.781 178.094 262.599 177.573C263.422 177.052 264.182 176.458 264.885 175.787C265.594 175.115 266.224 174.38 266.781 173.589C267.344 172.792 267.818 171.948 268.214 171.063C268.604 170.172 268.911 169.25 269.125 168.302C269.339 167.354 269.453 166.391 269.479 165.422C269.505 164.448 269.432 163.484 269.266 162.526C269.099 161.568 268.844 160.63 268.495 159.724C268.146 158.818 267.708 157.953 267.188 157.13C266.672 156.307 266.073 155.547 265.406 154.839C262.359 151.578 259.151 148.479 255.792 145.547C252.427 142.609 248.927 139.854 245.281 137.281C241.641 134.703 237.875 132.318 233.984 130.13C230.099 127.938 226.115 125.948 222.021 124.167C217.932 122.38 213.766 120.813 209.516 119.453C205.266 118.094 200.958 116.958 196.594 116.042C192.229 115.125 187.828 114.432 183.391 113.964C178.953 113.5 174.505 113.255 170.047 113.245Z" fill="white"/>
<path d="M170.047 164.094C164.917 164.094 159.844 164.62 154.823 165.667C149.802 166.708 144.937 168.255 140.234 170.297C135.531 172.339 131.083 174.839 126.891 177.797C122.698 180.75 118.849 184.104 115.344 187.849C114.672 188.557 114.078 189.318 113.557 190.141C113.036 190.964 112.604 191.828 112.255 192.734C111.906 193.641 111.646 194.573 111.479 195.536C111.318 196.495 111.245 197.458 111.271 198.432C111.292 199.401 111.411 200.365 111.625 201.312C111.839 202.26 112.141 203.182 112.536 204.073C112.927 204.958 113.406 205.802 113.964 206.599C114.526 207.391 115.156 208.125 115.859 208.797C116.562 209.469 117.328 210.062 118.146 210.583C118.969 211.104 119.833 211.536 120.74 211.885C121.646 212.24 122.578 212.495 123.536 212.661C124.49 212.828 125.453 212.901 126.427 212.875C127.396 212.849 128.359 212.734 129.307 212.521C130.255 212.307 131.172 212 132.062 211.609C132.948 211.214 133.792 210.734 134.583 210.177C135.38 209.615 136.109 208.984 136.781 208.276C137.839 207.135 138.953 206.052 140.125 205.021C141.297 203.995 142.516 203.031 143.786 202.13C145.057 201.224 146.37 200.391 147.724 199.625C149.078 198.859 150.474 198.167 151.901 197.542C153.328 196.917 154.781 196.37 156.266 195.896C157.75 195.422 159.25 195.026 160.776 194.708C162.302 194.391 163.839 194.151 165.385 193.99C166.937 193.833 168.49 193.75 170.047 193.75C171.604 193.75 173.156 193.833 174.703 193.99C176.25 194.151 177.786 194.391 179.312 194.708C180.839 195.026 182.344 195.422 183.823 195.896C185.307 196.37 186.766 196.917 188.193 197.542C189.62 198.167 191.01 198.859 192.365 199.625C193.719 200.391 195.031 201.224 196.302 202.13C197.573 203.031 198.792 203.995 199.964 205.021C201.135 206.052 202.25 207.135 203.312 208.276C203.979 208.984 204.714 209.615 205.505 210.177C206.302 210.74 207.141 211.219 208.031 211.615C208.917 212.005 209.839 212.312 210.786 212.526C211.734 212.74 212.693 212.859 213.667 212.885C214.635 212.906 215.604 212.839 216.557 212.672C217.516 212.505 218.448 212.245 219.359 211.896C220.266 211.547 221.13 211.109 221.948 210.594C222.771 210.073 223.531 209.474 224.24 208.802C224.943 208.135 225.573 207.401 226.135 206.604C226.693 205.807 227.172 204.964 227.562 204.078C227.958 203.188 228.26 202.266 228.474 201.318C228.687 200.37 228.807 199.406 228.828 198.432C228.854 197.458 228.781 196.495 228.615 195.536C228.448 194.578 228.193 193.641 227.839 192.734C227.49 191.828 227.052 190.964 226.536 190.141C226.016 189.318 225.417 188.557 224.75 187.849C221.24 184.104 217.391 180.75 213.198 177.797C209.005 174.839 204.557 172.339 199.854 170.297C195.151 168.255 190.286 166.708 185.266 165.667C180.245 164.62 175.172 164.094 170.047 164.094Z" fill="white"/>
<path d="M192.224 237.51C192.224 238.24 192.187 238.964 192.115 239.688C192.042 240.412 191.937 241.13 191.797 241.844C191.656 242.557 191.479 243.26 191.266 243.958C191.057 244.656 190.812 245.339 190.531 246.01C190.255 246.682 189.948 247.339 189.604 247.979C189.26 248.62 188.885 249.245 188.484 249.849C188.078 250.453 187.651 251.037 187.187 251.599C186.729 252.162 186.24 252.698 185.724 253.214C185.214 253.729 184.677 254.214 184.115 254.677C183.552 255.141 182.969 255.573 182.365 255.974C181.76 256.38 181.141 256.75 180.5 257.094C179.859 257.438 179.203 257.75 178.531 258.026C177.859 258.307 177.177 258.552 176.484 258.76C175.786 258.974 175.083 259.146 174.37 259.292C173.661 259.432 172.943 259.537 172.219 259.609C171.495 259.682 170.771 259.719 170.047 259.719C169.318 259.719 168.594 259.682 167.87 259.609C167.146 259.537 166.432 259.432 165.719 259.292C165.005 259.146 164.302 258.974 163.609 258.76C162.911 258.552 162.229 258.307 161.557 258.026C160.885 257.75 160.229 257.438 159.589 257.094C158.948 256.75 158.328 256.38 157.724 255.974C157.12 255.573 156.536 255.141 155.974 254.677C155.417 254.214 154.875 253.729 154.365 253.214C153.849 252.698 153.365 252.162 152.901 251.599C152.443 251.037 152.01 250.453 151.604 249.849C151.203 249.245 150.828 248.62 150.484 247.979C150.146 247.339 149.833 246.682 149.557 246.01C149.276 245.339 149.036 244.656 148.823 243.958C148.615 243.26 148.437 242.557 148.297 241.844C148.151 241.13 148.047 240.412 147.974 239.688C147.906 238.964 147.87 238.24 147.87 237.51C147.87 236.787 147.906 236.063 147.974 235.339C148.047 234.615 148.151 233.896 148.297 233.182C148.437 232.469 148.615 231.766 148.823 231.068C149.036 230.37 149.276 229.688 149.557 229.016C149.833 228.344 150.146 227.688 150.484 227.047C150.828 226.406 151.203 225.781 151.604 225.177C152.01 224.573 152.443 223.99 152.901 223.427C153.365 222.865 153.849 222.328 154.365 221.813C154.875 221.297 155.417 220.813 155.974 220.349C156.536 219.885 157.12 219.453 157.724 219.052C158.328 218.646 158.948 218.276 159.589 217.932C160.229 217.589 160.885 217.276 161.557 217C162.229 216.719 162.911 216.474 163.609 216.266C164.302 216.052 165.005 215.875 165.719 215.734C166.432 215.594 167.146 215.49 167.87 215.417C168.594 215.344 169.318 215.307 170.047 215.307C170.771 215.307 171.495 215.344 172.219 215.417C172.943 215.49 173.661 215.594 174.37 215.734C175.083 215.875 175.786 216.052 176.484 216.266C177.177 216.474 177.859 216.719 178.531 217C179.203 217.276 179.859 217.589 180.5 217.932C181.141 218.276 181.76 218.646 182.365 219.052C182.969 219.453 183.552 219.885 184.115 220.349C184.677 220.813 185.214 221.297 185.724 221.813C186.24 222.328 186.729 222.865 187.187 223.427C187.651 223.99 188.078 224.573 188.484 225.177C188.885 225.781 189.26 226.406 189.604 227.047C189.948 227.688 190.255 228.344 190.531 229.016C190.812 229.688 191.057 230.37 191.266 231.068C191.479 231.766 191.656 232.469 191.797 233.182C191.937 233.896 192.042 234.615 192.115 235.339C192.187 236.063 192.224 236.787 192.224 237.51Z" fill="white"/>
</svg>
