<svg width="473" height="473" viewBox="0 0 473 473" fill="none" xmlns="http://www.w3.org/2000/svg">
<mask id="mask0_36_4" style="mask-type:luminance" maskUnits="userSpaceOnUse" x="0" y="146" width="473" height="327">
<path d="M0.28125 146.667H473V472.281H0.28125V146.667Z" fill="white"/>
</mask>
<g mask="url(#mask0_36_4)">
<mask id="mask1_36_4" style="mask-type:luminance" maskUnits="userSpaceOnUse" x="0" y="147" width="473" height="326">
<path d="M437.146 329.167H358.432V154.609C358.432 154.141 358.385 153.677 358.292 153.214C358.203 152.755 358.068 152.307 357.885 151.87C357.708 151.437 357.484 151.026 357.224 150.635C356.964 150.245 356.667 149.88 356.333 149.552C356.005 149.219 355.641 148.922 355.25 148.661C354.859 148.401 354.448 148.177 354.016 148C353.578 147.818 353.13 147.682 352.672 147.594C352.208 147.5 351.745 147.453 351.276 147.453C350.807 147.453 350.339 147.5 349.88 147.594C349.417 147.682 348.969 147.818 348.536 148C348.104 148.177 347.693 148.401 347.302 148.661C346.911 148.922 346.547 149.219 346.214 149.552C345.885 149.88 345.589 150.245 345.328 150.635C345.062 151.026 344.844 151.437 344.667 151.87C344.484 152.307 344.349 152.755 344.255 153.214C344.167 153.677 344.12 154.141 344.12 154.609V329.167H36.4167C35.25 329.167 34.0781 329.224 32.9115 329.344C31.75 329.458 30.5885 329.63 29.4427 329.859C28.2917 330.089 27.1563 330.375 26.0365 330.714C24.9167 331.057 23.8177 331.453 22.7344 331.901C21.651 332.349 20.5938 332.849 19.5625 333.401C18.526 333.958 17.526 334.557 16.5521 335.208C15.5781 335.859 14.6354 336.557 13.7344 337.302C12.8281 338.042 11.9583 338.828 11.1302 339.656C10.3021 340.484 9.51563 341.354 8.77604 342.26C8.03125 343.161 7.33333 344.104 6.68229 345.078C6.03125 346.052 5.43229 347.052 4.875 348.089C4.32292 349.12 3.82292 350.177 3.375 351.26C2.92708 352.344 2.53125 353.443 2.19271 354.562C1.84896 355.682 1.5625 356.818 1.33333 357.969C1.10417 359.115 0.932292 360.276 0.817708 361.438C0.697918 362.604 0.640625 363.776 0.640625 364.943V407.88C0.640625 409.052 0.697918 410.219 0.817708 411.385C0.932292 412.552 1.10417 413.708 1.33333 414.859C1.5625 416.005 1.84896 417.141 2.19271 418.26C2.53125 419.38 2.92708 420.484 3.375 421.568C3.82292 422.646 4.32292 423.703 4.875 424.74C5.43229 425.771 6.03125 426.776 6.68229 427.75C7.33333 428.724 8.03125 429.661 8.77604 430.568C9.51563 431.474 10.3021 432.339 11.1302 433.167C11.9583 433.995 12.8281 434.781 13.7344 435.526C14.6354 436.266 15.5781 436.964 16.5521 437.615C17.526 438.266 18.526 438.87 19.5625 439.422C20.5938 439.974 21.651 440.474 22.7344 440.922C23.8177 441.375 24.9167 441.766 26.0365 442.109C27.1563 442.448 28.2917 442.734 29.4427 442.964C30.5885 443.193 31.75 443.365 32.9115 443.484C34.0781 443.599 35.25 443.656 36.4167 443.661H43.5729V465.125C43.5729 465.599 43.6198 466.062 43.7135 466.521C43.8021 466.984 43.9375 467.432 44.1198 467.865C44.2969 468.297 44.5208 468.714 44.7812 469.104C45.0417 469.495 45.3385 469.854 45.6719 470.188C46.0052 470.521 46.3646 470.818 46.7552 471.078C47.1458 471.339 47.5573 471.557 47.9896 471.74C48.4271 471.917 48.875 472.052 49.3333 472.146C49.7969 472.234 50.2604 472.281 50.7292 472.281H93.6667C94.1354 472.281 94.599 472.234 95.0625 472.146C95.5208 472.052 95.9688 471.917 96.4062 471.74C96.8385 471.557 97.25 471.339 97.6406 471.078C98.0312 470.818 98.3958 470.521 98.724 470.188C99.0573 469.854 99.3542 469.495 99.6146 469.104C99.875 468.714 100.099 468.297 100.276 467.865C100.458 467.432 100.594 466.984 100.682 466.521C100.776 466.062 100.823 465.599 100.823 465.125V443.661H372.745V465.125C372.745 465.599 372.786 466.062 372.88 466.521C372.974 466.984 373.109 467.432 373.286 467.865C373.469 468.297 373.688 468.714 373.948 469.104C374.208 469.495 374.505 469.854 374.839 470.188C375.172 470.521 375.531 470.818 375.922 471.078C376.312 471.339 376.724 471.557 377.161 471.74C377.594 471.917 378.042 472.052 378.505 472.146C378.964 472.234 379.427 472.281 379.901 472.281H422.833C423.302 472.281 423.771 472.234 424.229 472.146C424.693 472.052 425.141 471.917 425.573 471.74C426.005 471.557 426.417 471.339 426.807 471.078C427.198 470.818 427.562 470.521 427.896 470.188C428.224 469.854 428.521 469.495 428.786 469.104C429.047 468.714 429.266 468.297 429.448 467.865C429.625 467.432 429.76 466.984 429.854 466.521C429.943 466.062 429.99 465.599 429.99 465.125V443.661H437.146C438.318 443.656 439.484 443.599 440.651 443.484C441.818 443.365 442.974 443.193 444.125 442.964C445.271 442.734 446.406 442.448 447.526 442.109C448.646 441.766 449.75 441.375 450.833 440.922C451.911 440.474 452.969 439.974 454.005 439.422C455.036 438.87 456.042 438.266 457.016 437.615C457.99 436.964 458.927 436.266 459.833 435.526C460.74 434.781 461.604 433.995 462.432 433.167C463.26 432.339 464.047 431.474 464.792 430.568C465.531 429.661 466.229 428.724 466.88 427.75C467.531 426.776 468.135 425.771 468.688 424.74C469.24 423.703 469.74 422.646 470.188 421.568C470.641 420.484 471.031 419.38 471.375 418.26C471.714 417.141 472 416.005 472.229 414.859C472.458 413.708 472.63 412.552 472.75 411.385C472.865 410.219 472.922 409.052 472.927 407.88V364.943C472.922 363.776 472.865 362.604 472.75 361.438C472.63 360.276 472.458 359.115 472.229 357.969C472 356.818 471.714 355.682 471.375 354.562C471.031 353.443 470.641 352.344 470.188 351.26C469.74 350.177 469.24 349.12 468.688 348.089C468.135 347.052 467.531 346.052 466.88 345.078C466.229 344.104 465.531 343.161 464.792 342.26C464.047 341.354 463.26 340.484 462.432 339.656C461.604 338.828 460.74 338.042 459.833 337.302C458.927 336.557 457.99 335.859 457.016 335.208C456.042 334.557 455.036 333.958 454.005 333.401C452.969 332.849 451.911 332.349 450.833 331.901C449.75 331.453 448.646 331.057 447.526 330.714C446.406 330.375 445.271 330.089 444.125 329.859C442.974 329.63 441.818 329.458 440.651 329.344C439.484 329.224 438.318 329.167 437.146 329.167ZM86.5104 457.969H57.8854V443.661H86.5104V457.969ZM415.677 457.969H387.052V443.661H415.677V457.969ZM458.615 407.88C458.615 408.583 458.578 409.286 458.505 409.984C458.438 410.682 458.333 411.375 458.198 412.068C458.057 412.755 457.885 413.438 457.682 414.109C457.479 414.781 457.24 415.443 456.974 416.094C456.703 416.74 456.401 417.375 456.073 417.995C455.74 418.615 455.38 419.219 454.99 419.802C454.599 420.385 454.177 420.948 453.734 421.495C453.286 422.036 452.818 422.557 452.318 423.052C451.823 423.552 451.302 424.021 450.76 424.469C450.214 424.911 449.651 425.333 449.068 425.724C448.484 426.115 447.88 426.474 447.26 426.807C446.641 427.135 446.005 427.438 445.359 427.708C444.708 427.974 444.047 428.214 443.375 428.417C442.703 428.62 442.021 428.792 441.333 428.932C440.641 429.068 439.948 429.172 439.25 429.24C438.547 429.312 437.849 429.349 437.146 429.349H36.4167C35.7188 429.349 35.0156 429.312 34.3177 429.24C33.6146 429.172 32.9219 429.068 32.2344 428.932C31.5417 428.792 30.8646 428.62 30.1927 428.417C29.5156 428.214 28.8594 427.974 28.2083 427.708C27.5573 427.438 26.9219 427.135 26.3021 426.807C25.6823 426.474 25.0833 426.115 24.5 425.724C23.9115 425.333 23.349 424.911 22.8073 424.469C22.2656 424.021 21.7448 423.552 21.2448 423.052C20.75 422.557 20.276 422.036 19.8333 421.495C19.3854 420.948 18.9688 420.385 18.5781 419.802C18.1875 419.219 17.8229 418.615 17.4948 417.995C17.1615 417.375 16.8594 416.74 16.5938 416.094C16.3229 415.443 16.0833 414.781 15.8802 414.109C15.6771 413.438 15.5052 412.755 15.3698 412.068C15.2292 411.375 15.125 410.682 15.0573 409.984C14.9896 409.286 14.9531 408.583 14.9531 407.88V364.943C14.9531 364.24 14.9896 363.542 15.0573 362.844C15.125 362.141 15.2292 361.448 15.3698 360.76C15.5052 360.068 15.6771 359.391 15.8802 358.714C16.0833 358.042 16.3229 357.38 16.5938 356.734C16.8594 356.083 17.1615 355.448 17.4948 354.828C17.8229 354.208 18.1875 353.609 18.5781 353.026C18.9688 352.438 19.3854 351.875 19.8333 351.333C20.276 350.792 20.75 350.271 21.2448 349.771C21.7448 349.276 22.2656 348.802 22.8073 348.359C23.349 347.911 23.9115 347.495 24.5 347.104C25.0833 346.714 25.6823 346.349 26.3021 346.021C26.9219 345.688 27.5573 345.385 28.2083 345.12C28.8594 344.849 29.5156 344.609 30.1927 344.406C30.8646 344.203 31.5417 344.031 32.2344 343.896C32.9219 343.755 33.6146 343.651 34.3177 343.583C35.0156 343.516 35.7188 343.479 36.4167 343.479H437.146C437.849 343.479 438.547 343.516 439.25 343.583C439.948 343.651 440.641 343.755 441.333 343.896C442.021 344.031 442.703 344.203 443.375 344.406C444.047 344.609 444.708 344.849 445.359 345.12C446.005 345.385 446.641 345.688 447.26 346.021C447.88 346.349 448.484 346.714 449.068 347.104C449.651 347.495 450.214 347.911 450.76 348.359C451.302 348.802 451.823 349.276 452.318 349.771C452.818 350.271 453.286 350.792 453.734 351.333C454.177 351.875 454.599 352.438 454.99 353.026C455.38 353.609 455.74 354.208 456.073 354.828C456.401 355.448 456.703 356.083 456.974 356.734C457.24 357.38 457.479 358.042 457.682 358.714C457.885 359.391 458.057 360.068 458.198 360.76C458.333 361.448 458.438 362.141 458.505 362.844C458.578 363.542 458.615 364.24 458.615 364.943V407.88Z" fill="white"/>
</mask>
<g mask="url(#mask1_36_4)">
<path d="M0.640625 147.453V472.281H472.927V147.453H0.640625Z" fill="url(#paint0_linear_36_4)"/>
</g>
</g>
<mask id="mask2_36_4" style="mask-type:luminance" maskUnits="userSpaceOnUse" x="35" y="364" width="45" height="44">
<path d="M35.6666 364H79.6666V408H35.6666V364Z" fill="white"/>
</mask>
<g mask="url(#mask2_36_4)">
<mask id="mask3_36_4" style="mask-type:luminance" maskUnits="userSpaceOnUse" x="36" y="364" width="44" height="44">
<path d="M57.8854 364.943C57.1823 364.943 56.4843 364.979 55.7812 365.047C55.0833 365.12 54.3906 365.219 53.6979 365.359C53.0104 365.495 52.3281 365.667 51.6562 365.87C50.9843 366.073 50.3229 366.312 49.6718 366.578C49.0208 366.849 48.3854 367.146 47.7656 367.479C47.1458 367.812 46.5468 368.172 45.9583 368.562C45.375 368.953 44.8125 369.37 44.2656 369.818C43.7239 370.266 43.2031 370.734 42.7083 371.234C42.2083 371.729 41.7395 372.25 41.2916 372.792C40.8437 373.338 40.427 373.901 40.0364 374.484C39.6458 375.068 39.2864 375.672 38.9531 376.292C38.625 376.911 38.3229 377.547 38.052 378.198C37.7864 378.849 37.5468 379.51 37.3437 380.182C37.1406 380.854 36.9687 381.536 36.8333 382.224C36.6927 382.911 36.5937 383.609 36.5208 384.307C36.4531 385.01 36.4166 385.708 36.4166 386.411C36.4166 387.115 36.4531 387.818 36.5208 388.516C36.5937 389.219 36.6927 389.911 36.8333 390.599C36.9687 391.292 37.1406 391.969 37.3437 392.646C37.5468 393.318 37.7864 393.979 38.052 394.63C38.3229 395.276 38.625 395.911 38.9531 396.531C39.2864 397.151 39.6458 397.755 40.0364 398.338C40.427 398.922 40.8437 399.49 41.2916 400.031C41.7395 400.573 42.2083 401.094 42.7083 401.594C43.2031 402.088 43.7239 402.562 44.2656 403.005C44.8125 403.453 45.375 403.87 45.9583 404.26C46.5468 404.651 47.1458 405.016 47.7656 405.344C48.3854 405.677 49.0208 405.979 49.6718 406.245C50.3229 406.516 50.9843 406.75 51.6562 406.953C52.3281 407.161 53.0104 407.328 53.6979 407.469C54.3906 407.604 55.0833 407.708 55.7812 407.776C56.4843 407.844 57.1823 407.88 57.8854 407.88C58.5885 407.88 59.2916 407.844 59.9895 407.776C60.6927 407.708 61.3854 407.604 62.0729 407.469C62.7656 407.328 63.4479 407.161 64.1198 406.953C64.7916 406.75 65.4531 406.516 66.1041 406.245C66.75 405.979 67.3854 405.677 68.0052 405.344C68.625 405.016 69.2291 404.651 69.8125 404.26C70.3958 403.87 70.9635 403.453 71.5052 403.005C72.0468 402.562 72.5677 402.088 73.0677 401.594C73.5625 401.094 74.0364 400.573 74.4791 400.031C74.927 399.49 75.3437 398.922 75.7343 398.338C76.125 397.755 76.4895 397.151 76.8177 396.531C77.151 395.911 77.4531 395.276 77.7187 394.63C77.9895 393.979 78.2239 393.318 78.4323 392.646C78.6354 391.969 78.802 391.292 78.9427 390.599C79.0781 389.911 79.1823 389.219 79.25 388.516C79.3177 387.818 79.3541 387.115 79.3541 386.411C79.3541 385.708 79.3177 385.01 79.25 384.307C79.177 383.609 79.0729 382.917 78.9375 382.224C78.802 381.536 78.6302 380.854 78.427 380.182C78.2187 379.51 77.9843 378.849 77.7135 378.203C77.4427 377.552 77.1458 376.917 76.8125 376.297C76.4791 375.677 76.1198 375.078 75.7291 374.49C75.3385 373.906 74.9218 373.344 74.4739 372.802C74.026 372.255 73.5573 371.734 73.0573 371.24C72.5625 370.745 72.0416 370.271 71.5 369.823C70.9583 369.38 70.3906 368.958 69.8073 368.568C69.2239 368.177 68.6198 367.818 68 367.484C67.3802 367.156 66.75 366.854 66.0989 366.583C65.4479 366.318 64.7864 366.078 64.1145 365.875C63.4427 365.672 62.7604 365.5 62.0729 365.359C61.3854 365.224 60.6875 365.12 59.9895 365.052C59.2916 364.979 58.5885 364.948 57.8854 364.943ZM57.8854 393.568C57.4166 393.568 56.9531 393.521 56.4895 393.432C56.0312 393.338 55.5833 393.203 55.1458 393.026C54.7135 392.844 54.302 392.625 53.9114 392.365C53.5208 392.099 53.1614 391.802 52.8281 391.474C52.4948 391.141 52.1979 390.776 51.9375 390.385C51.677 389.995 51.4531 389.583 51.276 389.151C51.0937 388.719 50.9583 388.271 50.8698 387.807C50.776 387.349 50.7291 386.88 50.7291 386.411C50.7291 385.943 50.776 385.479 50.8698 385.016C50.9583 384.557 51.0937 384.109 51.276 383.672C51.4531 383.24 51.677 382.828 51.9375 382.437C52.1979 382.047 52.4948 381.682 52.8281 381.354C53.1614 381.021 53.5208 380.724 53.9114 380.463C54.302 380.203 54.7135 379.979 55.1458 379.802C55.5833 379.62 56.0312 379.484 56.4895 379.396C56.9531 379.302 57.4166 379.255 57.8854 379.255C58.3541 379.255 58.8229 379.302 59.2812 379.396C59.7448 379.484 60.1927 379.62 60.625 379.802C61.0573 379.979 61.4739 380.203 61.8645 380.463C62.2552 380.724 62.6145 381.021 62.9479 381.354C63.2812 381.682 63.5729 382.047 63.8385 382.437C64.0989 382.828 64.3177 383.24 64.5 383.672C64.677 384.109 64.8125 384.557 64.9062 385.016C64.9948 385.479 65.0416 385.943 65.0416 386.411C65.0416 386.88 64.9948 387.349 64.9062 387.807C64.8125 388.271 64.677 388.713 64.4948 389.151C64.3177 389.583 64.0937 389.995 63.8333 390.385C63.5729 390.776 63.276 391.141 62.9427 391.469C62.6145 391.802 62.25 392.099 61.8593 392.359C61.4687 392.62 61.0573 392.844 60.625 393.021C60.1927 393.203 59.7448 393.338 59.2812 393.427C58.8229 393.521 58.3541 393.568 57.8854 393.568Z" fill="white"/>
</mask>
<g mask="url(#mask3_36_4)">
<path d="M36.4166 364.943V407.88H79.3541V364.943H36.4166Z" fill="url(#paint1_linear_36_4)"/>
</g>
</g>
<mask id="mask4_36_4" style="mask-type:luminance" maskUnits="userSpaceOnUse" x="93" y="378" width="30" height="17">
<path d="M93 378.667H122.333V394.667H93V378.667Z" fill="white"/>
</mask>
<g mask="url(#mask4_36_4)">
<mask id="mask5_36_4" style="mask-type:luminance" maskUnits="userSpaceOnUse" x="93" y="379" width="30" height="15">
<path d="M115.135 379.255H100.823C100.354 379.255 99.8854 379.302 99.427 379.396C98.9635 379.484 98.5156 379.62 98.0833 379.802C97.651 379.979 97.2343 380.203 96.8437 380.464C96.4531 380.724 96.0937 381.021 95.7604 381.354C95.427 381.682 95.1354 382.047 94.8698 382.438C94.6093 382.828 94.3906 383.24 94.2083 383.672C94.0312 384.109 93.8958 384.557 93.802 385.016C93.7135 385.479 93.6666 385.943 93.6666 386.411C93.6666 386.88 93.7135 387.349 93.802 387.807C93.8958 388.271 94.0312 388.719 94.2083 389.151C94.3906 389.583 94.6093 389.995 94.8698 390.385C95.1354 390.776 95.427 391.141 95.7604 391.474C96.0937 391.802 96.4531 392.099 96.8437 392.365C97.2343 392.625 97.651 392.844 98.0833 393.026C98.5156 393.203 98.9635 393.339 99.427 393.432C99.8854 393.521 100.354 393.568 100.823 393.568H115.135C115.604 393.568 116.068 393.521 116.531 393.432C116.99 393.339 117.437 393.203 117.87 393.026C118.307 392.844 118.719 392.625 119.109 392.365C119.5 392.099 119.859 391.802 120.193 391.474C120.526 391.141 120.823 390.776 121.083 390.385C121.344 389.995 121.562 389.583 121.745 389.151C121.922 388.719 122.062 388.271 122.151 387.807C122.245 387.349 122.292 386.88 122.292 386.411C122.292 385.943 122.245 385.479 122.151 385.016C122.062 384.557 121.922 384.109 121.745 383.672C121.562 383.24 121.344 382.828 121.083 382.438C120.823 382.047 120.526 381.682 120.193 381.354C119.859 381.021 119.5 380.724 119.109 380.464C118.719 380.203 118.307 379.979 117.87 379.802C117.437 379.62 116.99 379.484 116.531 379.396C116.068 379.302 115.604 379.255 115.135 379.255Z" fill="white"/>
</mask>
<g mask="url(#mask5_36_4)">
<path d="M93.6666 379.255V393.568H122.292V379.255H93.6666Z" fill="url(#paint2_linear_36_4)"/>
</g>
</g>
<mask id="mask6_36_4" style="mask-type:luminance" maskUnits="userSpaceOnUse" x="165" y="378" width="30" height="17">
<path d="M165 378.667H194.333V394.667H165V378.667Z" fill="white"/>
</mask>
<g mask="url(#mask6_36_4)">
<mask id="mask7_36_4" style="mask-type:luminance" maskUnits="userSpaceOnUse" x="165" y="379" width="29" height="15">
<path d="M186.693 379.255H172.38C171.911 379.255 171.443 379.302 170.984 379.396C170.521 379.484 170.078 379.62 169.641 379.802C169.208 379.979 168.797 380.203 168.406 380.464C168.016 380.724 167.651 381.021 167.318 381.354C166.99 381.682 166.693 382.047 166.432 382.438C166.167 382.828 165.948 383.24 165.771 383.672C165.589 384.109 165.453 384.557 165.359 385.016C165.271 385.479 165.224 385.943 165.224 386.411C165.224 386.88 165.271 387.349 165.359 387.807C165.453 388.271 165.589 388.719 165.771 389.151C165.948 389.583 166.167 389.995 166.432 390.385C166.693 390.776 166.99 391.141 167.318 391.474C167.651 391.802 168.016 392.099 168.406 392.365C168.797 392.625 169.208 392.844 169.641 393.026C170.078 393.203 170.521 393.339 170.984 393.432C171.443 393.521 171.911 393.568 172.38 393.568H186.693C187.162 393.568 187.625 393.521 188.089 393.432C188.547 393.339 188.995 393.203 189.432 393.026C189.865 392.844 190.276 392.625 190.667 392.365C191.057 392.099 191.417 391.802 191.75 391.474C192.083 391.141 192.38 390.776 192.641 390.385C192.901 389.995 193.125 389.583 193.302 389.151C193.484 388.719 193.62 388.271 193.708 387.807C193.802 387.349 193.849 386.88 193.849 386.411C193.849 385.943 193.802 385.479 193.708 385.016C193.62 384.557 193.484 384.109 193.302 383.672C193.125 383.24 192.901 382.828 192.641 382.438C192.38 382.047 192.083 381.682 191.75 381.354C191.417 381.021 191.057 380.724 190.667 380.464C190.276 380.203 189.865 379.979 189.432 379.802C188.995 379.62 188.547 379.484 188.089 379.396C187.625 379.302 187.162 379.255 186.693 379.255Z" fill="white"/>
</mask>
<g mask="url(#mask7_36_4)">
<path d="M165.224 379.255V393.568H193.849V379.255H165.224Z" fill="url(#paint3_linear_36_4)"/>
</g>
</g>
<mask id="mask8_36_4" style="mask-type:luminance" maskUnits="userSpaceOnUse" x="207" y="378" width="30" height="17">
<path d="M207.667 378.667H237V394.667H207.667V378.667Z" fill="white"/>
</mask>
<g mask="url(#mask8_36_4)">
<mask id="mask9_36_4" style="mask-type:luminance" maskUnits="userSpaceOnUse" x="208" y="379" width="29" height="15">
<path d="M229.625 379.255H215.312C214.844 379.255 214.38 379.302 213.917 379.396C213.458 379.484 213.01 379.62 212.578 379.802C212.141 379.979 211.729 380.203 211.338 380.464C210.948 380.724 210.588 381.021 210.255 381.354C209.922 381.682 209.625 382.047 209.365 382.438C209.104 382.828 208.885 383.24 208.703 383.672C208.526 384.109 208.391 384.557 208.297 385.016C208.203 385.479 208.161 385.943 208.161 386.411C208.161 386.88 208.203 387.349 208.297 387.807C208.391 388.271 208.526 388.719 208.703 389.151C208.885 389.583 209.104 389.995 209.365 390.385C209.625 390.776 209.922 391.141 210.255 391.474C210.588 391.802 210.948 392.099 211.338 392.365C211.729 392.625 212.141 392.844 212.578 393.026C213.01 393.203 213.458 393.339 213.917 393.432C214.38 393.521 214.844 393.568 215.312 393.568H229.625C230.099 393.568 230.562 393.521 231.021 393.432C231.484 393.339 231.932 393.203 232.365 393.026C232.797 392.844 233.213 392.625 233.604 392.365C233.995 392.099 234.354 391.802 234.687 391.474C235.021 391.141 235.318 390.776 235.578 390.385C235.838 389.995 236.057 389.583 236.24 389.151C236.417 388.719 236.552 388.271 236.646 387.807C236.734 387.349 236.781 386.88 236.781 386.411C236.781 385.943 236.734 385.479 236.646 385.016C236.552 384.557 236.417 384.109 236.24 383.672C236.057 383.24 235.838 382.828 235.578 382.438C235.318 382.047 235.021 381.682 234.687 381.354C234.354 381.021 233.995 380.724 233.604 380.464C233.213 380.203 232.797 379.979 232.365 379.802C231.932 379.62 231.484 379.484 231.021 379.396C230.562 379.302 230.099 379.255 229.625 379.255Z" fill="white"/>
</mask>
<g mask="url(#mask9_36_4)">
<path d="M208.161 379.255V393.568H236.781V379.255H208.161Z" fill="url(#paint4_linear_36_4)"/>
</g>
</g>
<mask id="mask10_36_4" style="mask-type:luminance" maskUnits="userSpaceOnUse" x="250" y="378" width="31" height="17">
<path d="M250.333 378.667H281V394.667H250.333V378.667Z" fill="white"/>
</mask>
<g mask="url(#mask10_36_4)">
<mask id="mask11_36_4" style="mask-type:luminance" maskUnits="userSpaceOnUse" x="251" y="379" width="29" height="15">
<path d="M272.562 379.255H258.25C257.781 379.255 257.312 379.302 256.854 379.396C256.391 379.484 255.948 379.62 255.51 379.802C255.078 379.979 254.667 380.203 254.276 380.464C253.885 380.724 253.521 381.021 253.188 381.354C252.859 381.682 252.563 382.047 252.302 382.438C252.036 382.828 251.818 383.24 251.641 383.672C251.458 384.109 251.323 384.557 251.229 385.016C251.141 385.479 251.094 385.943 251.094 386.411C251.094 386.88 251.141 387.349 251.229 387.807C251.323 388.271 251.458 388.719 251.641 389.151C251.818 389.583 252.036 389.995 252.302 390.385C252.563 390.776 252.859 391.141 253.188 391.474C253.521 391.802 253.885 392.099 254.276 392.365C254.667 392.625 255.078 392.844 255.51 393.026C255.948 393.203 256.391 393.339 256.854 393.432C257.312 393.521 257.781 393.568 258.25 393.568H272.562C273.031 393.568 273.495 393.521 273.958 393.432C274.417 393.339 274.865 393.203 275.302 393.026C275.734 392.844 276.146 392.625 276.536 392.365C276.927 392.099 277.292 391.802 277.62 391.474C277.953 391.141 278.25 390.776 278.51 390.385C278.771 389.995 278.995 389.583 279.172 389.151C279.354 388.719 279.49 388.271 279.578 387.807C279.672 387.349 279.719 386.88 279.719 386.411C279.719 385.943 279.672 385.479 279.578 385.016C279.49 384.557 279.354 384.109 279.172 383.672C278.995 383.24 278.771 382.828 278.51 382.438C278.25 382.047 277.953 381.682 277.62 381.354C277.292 381.021 276.927 380.724 276.536 380.464C276.146 380.203 275.734 379.979 275.302 379.802C274.865 379.62 274.417 379.484 273.958 379.396C273.495 379.302 273.031 379.255 272.562 379.255Z" fill="white"/>
</mask>
<g mask="url(#mask11_36_4)">
<path d="M251.094 379.255V393.568H279.719V379.255H251.094Z" fill="url(#paint5_linear_36_4)"/>
</g>
</g>
<mask id="mask12_36_4" style="mask-type:luminance" maskUnits="userSpaceOnUse" x="293" y="378" width="31" height="17">
<path d="M293 378.667H323.667V394.667H293V378.667Z" fill="white"/>
</mask>
<g mask="url(#mask12_36_4)">
<mask id="mask13_36_4" style="mask-type:luminance" maskUnits="userSpaceOnUse" x="294" y="379" width="29" height="15">
<path d="M315.495 379.255H301.182C300.714 379.255 300.25 379.302 299.786 379.396C299.328 379.484 298.88 379.62 298.448 379.802C298.01 379.979 297.599 380.203 297.208 380.464C296.818 380.724 296.458 381.021 296.125 381.354C295.792 381.682 295.495 382.047 295.234 382.438C294.974 382.828 294.755 383.24 294.573 383.672C294.396 384.109 294.26 384.557 294.167 385.016C294.073 385.479 294.031 385.943 294.031 386.411C294.031 386.88 294.073 387.349 294.167 387.807C294.26 388.271 294.396 388.719 294.573 389.151C294.755 389.583 294.974 389.995 295.234 390.385C295.495 390.776 295.792 391.141 296.125 391.474C296.458 391.802 296.818 392.099 297.208 392.365C297.599 392.625 298.01 392.844 298.448 393.026C298.88 393.203 299.328 393.339 299.786 393.432C300.25 393.521 300.714 393.568 301.182 393.568H315.495C315.969 393.568 316.432 393.521 316.891 393.432C317.354 393.339 317.802 393.203 318.234 393.026C318.667 392.844 319.083 392.625 319.474 392.365C319.865 392.099 320.224 391.802 320.557 391.474C320.891 391.141 321.188 390.776 321.448 390.385C321.708 389.995 321.927 389.583 322.109 389.151C322.286 388.719 322.422 388.271 322.516 387.807C322.604 387.349 322.651 386.88 322.651 386.411C322.651 385.943 322.604 385.479 322.516 385.016C322.422 384.557 322.286 384.109 322.109 383.672C321.927 383.24 321.708 382.828 321.448 382.438C321.188 382.047 320.891 381.682 320.557 381.354C320.224 381.021 319.865 380.724 319.474 380.464C319.083 380.203 318.667 379.979 318.234 379.802C317.802 379.62 317.354 379.484 316.891 379.396C316.432 379.302 315.969 379.255 315.495 379.255Z" fill="white"/>
</mask>
<g mask="url(#mask13_36_4)">
<path d="M294.031 379.255V393.568H322.651V379.255H294.031Z" fill="url(#paint6_linear_36_4)"/>
</g>
</g>
<mask id="mask14_36_4" style="mask-type:luminance" maskUnits="userSpaceOnUse" x="322" y="61" width="59" height="59">
<path d="M322.333 61.3333H381V120H322.333V61.3333Z" fill="white"/>
</mask>
<g mask="url(#mask14_36_4)">
<mask id="mask15_36_4" style="mask-type:luminance" maskUnits="userSpaceOnUse" x="322" y="61" width="58" height="58">
<path d="M351.276 118.833C352.214 118.833 353.146 118.786 354.083 118.693C355.016 118.599 355.943 118.463 356.859 118.281C357.781 118.099 358.687 117.87 359.583 117.599C360.479 117.328 361.365 117.01 362.229 116.651C363.094 116.292 363.943 115.891 364.771 115.453C365.594 115.01 366.396 114.526 367.177 114.005C367.958 113.484 368.708 112.927 369.432 112.333C370.156 111.74 370.854 111.109 371.516 110.448C372.177 109.786 372.807 109.088 373.401 108.365C373.995 107.641 374.552 106.891 375.073 106.109C375.594 105.328 376.078 104.526 376.521 103.698C376.958 102.875 377.359 102.026 377.719 101.161C378.078 100.297 378.396 99.4114 378.667 98.5155C378.937 97.6197 379.167 96.7135 379.349 95.7916C379.531 94.8697 379.667 93.9478 379.76 93.0155C379.854 92.078 379.901 91.1458 379.901 90.2083C379.901 89.2708 379.854 88.3333 379.76 87.401C379.667 86.4687 379.531 85.5416 379.349 84.6249C379.167 83.703 378.937 82.7968 378.667 81.901C378.396 80.9999 378.078 80.1197 377.719 79.2551C377.359 78.3853 376.958 77.5416 376.521 76.7135C376.078 75.8853 375.594 75.0833 375.073 74.3072C374.552 73.526 373.995 72.776 373.401 72.0468C372.807 71.3228 372.177 70.6301 371.516 69.9687C370.854 69.3072 370.156 68.677 369.432 68.0833C368.708 67.4843 367.958 66.927 367.177 66.4062C366.396 65.8853 365.594 65.4062 364.771 64.9635C363.943 64.5208 363.094 64.1197 362.229 63.7603C361.365 63.4062 360.479 63.0885 359.583 62.8176C358.687 62.5468 357.781 62.3176 356.859 62.1353C355.943 61.953 355.016 61.8124 354.083 61.7239C353.146 61.6301 352.214 61.5833 351.276 61.5833C350.339 61.5833 349.401 61.6301 348.469 61.7239C347.536 61.8124 346.609 61.953 345.693 62.1353C344.771 62.3176 343.865 62.5468 342.969 62.8176C342.068 63.0885 341.187 63.4062 340.323 63.7603C339.453 64.1197 338.609 64.5208 337.781 64.9635C336.958 65.4062 336.151 65.8853 335.375 66.4062C334.594 66.927 333.844 67.4843 333.115 68.0833C332.391 68.677 331.698 69.3072 331.036 69.9687C330.375 70.6301 329.745 71.3228 329.151 72.0468C328.552 72.776 327.995 73.526 327.474 74.3072C326.953 75.0833 326.474 75.8853 326.031 76.7135C325.589 77.5416 325.187 78.3853 324.833 79.2551C324.474 80.1197 324.156 80.9999 323.885 81.901C323.615 82.7968 323.385 83.703 323.203 84.6249C323.021 85.5416 322.88 86.4687 322.792 87.401C322.698 88.3333 322.651 89.2708 322.651 90.2083C322.651 91.1458 322.698 92.078 322.792 93.0103C322.885 93.9426 323.026 94.8697 323.208 95.7916C323.391 96.7083 323.62 97.6145 323.891 98.5103C324.167 99.4114 324.479 100.292 324.839 101.156C325.198 102.021 325.599 102.87 326.042 103.693C326.484 104.521 326.964 105.323 327.484 106.104C328.005 106.88 328.562 107.635 329.156 108.359C329.755 109.083 330.38 109.776 331.047 110.437C331.708 111.099 332.401 111.729 333.125 112.323C333.849 112.917 334.599 113.479 335.38 114C336.161 114.521 336.964 115 337.786 115.443C338.615 115.885 339.464 116.286 340.328 116.646C341.193 117.005 342.073 117.318 342.969 117.594C343.865 117.865 344.776 118.094 345.693 118.276C346.615 118.458 347.536 118.599 348.469 118.693C349.401 118.781 350.339 118.828 351.276 118.833ZM351.276 75.8958C352.214 75.8958 353.146 75.9895 354.068 76.1718C354.99 76.3541 355.885 76.6249 356.75 76.9843C357.62 77.3437 358.443 77.7864 359.229 78.3072C360.01 78.828 360.729 79.4218 361.396 80.0885C362.057 80.7499 362.651 81.4739 363.177 82.2551C363.698 83.0364 364.141 83.8645 364.5 84.7291C364.859 85.5989 365.13 86.4947 365.312 87.4166C365.495 88.3385 365.589 89.2655 365.589 90.2083C365.589 91.1458 365.495 92.078 365.312 92.9999C365.13 93.9218 364.859 94.8176 364.5 95.6822C364.141 96.552 363.698 97.3749 363.177 98.1562C362.651 98.9374 362.057 99.6614 361.396 100.328C360.729 100.99 360.01 101.583 359.229 102.109C358.443 102.63 357.62 103.068 356.75 103.432C355.885 103.792 354.99 104.062 354.068 104.245C353.146 104.427 352.214 104.521 351.276 104.521C350.333 104.521 349.406 104.427 348.484 104.245C347.562 104.062 346.667 103.792 345.797 103.432C344.932 103.068 344.104 102.63 343.323 102.109C342.542 101.583 341.818 100.99 341.156 100.328C340.49 99.6614 339.896 98.9374 339.375 98.1562C338.854 97.3749 338.411 96.552 338.052 95.6822C337.693 94.8176 337.422 93.9218 337.24 92.9999C337.057 92.078 336.964 91.1458 336.964 90.2083C336.964 89.2655 337.057 88.3385 337.24 87.4166C337.427 86.4947 337.698 85.5989 338.057 84.7343C338.417 83.8645 338.859 83.0416 339.38 82.2603C339.901 81.4791 340.495 80.7551 341.161 80.0937C341.823 79.427 342.547 78.8333 343.328 78.3124C344.109 77.7916 344.932 77.3489 345.802 76.9895C346.667 76.6301 347.562 76.3593 348.484 76.1718C349.406 75.9895 350.339 75.8958 351.276 75.8958Z" fill="white"/>
</mask>
<g mask="url(#mask15_36_4)">
<path d="M322.651 61.5833V118.833H379.901V61.5833H322.651Z" fill="url(#paint7_linear_36_4)"/>
</g>
</g>
<mask id="mask16_36_4" style="mask-type:luminance" maskUnits="userSpaceOnUse" x="293" y="46" width="31" height="88">
<path d="M293 46.6667H323.667V133.333H293V46.6667Z" fill="white"/>
</mask>
<g mask="url(#mask16_36_4)">
<mask id="mask17_36_4" style="mask-type:luminance" maskUnits="userSpaceOnUse" x="294" y="47" width="30" height="86">
<path d="M310.797 130.688C311.13 131.021 311.49 131.318 311.88 131.578C312.271 131.839 312.682 132.063 313.12 132.24C313.552 132.422 314 132.557 314.458 132.646C314.922 132.74 315.385 132.787 315.854 132.787C316.328 132.787 316.792 132.74 317.25 132.646C317.714 132.557 318.161 132.422 318.594 132.24C319.026 132.063 319.443 131.839 319.833 131.578C320.224 131.318 320.583 131.021 320.917 130.688C321.25 130.36 321.547 129.995 321.807 129.604C322.068 129.214 322.286 128.802 322.469 128.37C322.646 127.932 322.781 127.485 322.875 127.026C322.964 126.568 323.01 126.099 323.01 125.63C323.01 125.162 322.964 124.693 322.875 124.235C322.781 123.776 322.646 123.328 322.469 122.891C322.286 122.458 322.068 122.047 321.807 121.656C321.547 121.266 321.25 120.901 320.917 120.573C319.922 119.578 318.979 118.537 318.089 117.448C317.193 116.36 316.359 115.235 315.578 114.063C314.797 112.896 314.073 111.693 313.411 110.448C312.745 109.208 312.146 107.943 311.609 106.641C311.073 105.344 310.599 104.021 310.188 102.672C309.781 101.328 309.438 99.9689 309.167 98.5887C308.891 97.2085 308.688 95.8179 308.547 94.422C308.411 93.021 308.339 91.6147 308.339 90.2085C308.339 88.8075 308.411 87.4012 308.547 86.0002C308.688 84.6043 308.891 83.2137 309.167 81.8335C309.438 80.4533 309.781 79.0939 310.188 77.7502C310.599 76.4012 311.073 75.0783 311.609 73.7814C312.146 72.4793 312.745 71.2137 313.411 69.9741C314.073 68.7293 314.797 67.5262 315.578 66.3595C316.359 65.1877 317.193 64.0627 318.089 62.9741C318.979 61.8856 319.922 60.8439 320.917 59.8491C321.25 59.521 321.547 59.1564 321.807 58.7658C322.068 58.3752 322.292 57.9637 322.469 57.5314C322.651 57.0939 322.786 56.646 322.88 56.1877C322.969 55.7241 323.016 55.2606 323.016 54.7918C323.016 54.3179 322.974 53.8543 322.88 53.3908C322.786 52.9325 322.651 52.4845 322.474 52.0522C322.292 51.6147 322.073 51.2033 321.812 50.8127C321.552 50.422 321.255 50.0575 320.922 49.7293C320.589 49.396 320.229 49.0991 319.839 48.8387C319.443 48.5731 319.031 48.3543 318.599 48.1772C318.161 47.995 317.714 47.8595 317.255 47.7658C316.792 47.6772 316.328 47.6304 315.859 47.6304C315.385 47.6304 314.922 47.6772 314.464 47.771C314 47.8595 313.552 48.0002 313.12 48.1772C312.682 48.3595 312.271 48.5783 311.88 48.8387C311.49 49.1043 311.13 49.4012 310.797 49.7345C309.469 51.0575 308.214 52.4481 307.026 53.896C305.833 55.3439 304.719 56.8491 303.677 58.4064C302.635 59.9637 301.672 61.5731 300.786 63.2241C299.906 64.8804 299.104 66.5731 298.385 68.3022C297.672 70.0366 297.036 71.797 296.495 73.5939C295.948 75.3856 295.495 77.2033 295.13 79.0418C294.766 80.8804 294.49 82.7345 294.302 84.5991C294.12 86.4637 294.031 88.3387 294.031 90.2137C294.031 92.0835 294.12 93.9585 294.302 95.8231C294.49 97.6877 294.766 99.5418 295.13 101.38C295.495 103.219 295.948 105.037 296.495 106.828C297.036 108.625 297.672 110.386 298.385 112.12C299.104 113.849 299.906 115.542 300.786 117.198C301.672 118.849 302.635 120.458 303.677 122.016C304.719 123.573 305.833 125.078 307.026 126.526C308.214 127.974 309.469 129.365 310.797 130.688Z" fill="white"/>
</mask>
<g mask="url(#mask17_36_4)">
<path d="M294.031 47.6304V132.787H323.016V47.6304H294.031Z" fill="url(#paint8_linear_36_4)"/>
</g>
</g>
<mask id="mask18_36_4" style="mask-type:luminance" maskUnits="userSpaceOnUse" x="378" y="46" width="31" height="88">
<path d="M378.333 46.6667H409V133.333H378.333V46.6667Z" fill="white"/>
</mask>
<g mask="url(#mask18_36_4)">
<mask id="mask19_36_4" style="mask-type:luminance" maskUnits="userSpaceOnUse" x="379" y="47" width="30" height="86">
<path d="M394.208 90.2085C394.219 93.0262 393.948 95.8231 393.401 98.5887C392.854 101.354 392.042 104.042 390.964 106.646C389.885 109.255 388.557 111.729 386.99 114.073C385.422 116.417 383.635 118.583 381.635 120.573C381.302 120.901 381.005 121.266 380.745 121.656C380.479 122.047 380.26 122.458 380.078 122.891C379.901 123.328 379.766 123.776 379.672 124.235C379.578 124.698 379.531 125.162 379.531 125.63C379.531 126.104 379.578 126.568 379.672 127.031C379.76 127.49 379.896 127.938 380.078 128.375C380.255 128.807 380.479 129.219 380.74 129.61C381 130 381.297 130.365 381.63 130.698C381.958 131.031 382.323 131.328 382.714 131.589C383.104 131.849 383.516 132.068 383.953 132.25C384.385 132.427 384.833 132.563 385.297 132.656C385.755 132.745 386.224 132.792 386.693 132.792C387.161 132.792 387.63 132.745 388.089 132.651C388.552 132.563 389 132.427 389.432 132.245C389.865 132.063 390.281 131.844 390.672 131.583C391.063 131.318 391.422 131.021 391.755 130.688C393.078 129.365 394.339 127.974 395.526 126.526C396.719 125.078 397.833 123.573 398.875 122.016C399.917 120.458 400.88 118.849 401.76 117.198C402.646 115.542 403.448 113.849 404.167 112.12C404.88 110.386 405.51 108.625 406.057 106.828C406.599 105.037 407.057 103.219 407.422 101.38C407.786 99.5418 408.062 97.6877 408.245 95.8231C408.432 93.9585 408.521 92.0835 408.521 90.2085C408.521 88.3387 408.432 86.4637 408.245 84.5991C408.062 82.7345 407.786 80.8804 407.422 79.0418C407.057 77.2033 406.599 75.3856 406.057 73.5939C405.51 71.797 404.88 70.0366 404.167 68.3022C403.448 66.5731 402.646 64.8804 401.76 63.2241C400.88 61.5731 399.917 59.9637 398.875 58.4064C397.833 56.8491 396.719 55.3439 395.526 53.896C394.339 52.4481 393.078 51.0575 391.755 49.7345C391.422 49.4012 391.063 49.1043 390.672 48.8387C390.281 48.5783 389.865 48.3595 389.432 48.1772C389 48.0002 388.552 47.8595 388.089 47.771C387.63 47.6772 387.161 47.6304 386.693 47.6304C386.224 47.6304 385.755 47.6772 385.297 47.7658C384.833 47.8595 384.385 47.995 383.953 48.1772C383.521 48.3543 383.104 48.5731 382.714 48.8387C382.323 49.0991 381.964 49.396 381.63 49.7293C381.297 50.0575 381 50.422 380.74 50.8127C380.479 51.2033 380.26 51.6147 380.078 52.0522C379.896 52.4845 379.76 52.9325 379.672 53.3908C379.578 53.8543 379.536 54.3179 379.536 54.7918C379.536 55.2606 379.578 55.7241 379.672 56.1877C379.766 56.646 379.901 57.0939 380.083 57.5314C380.26 57.9637 380.484 58.3752 380.745 58.7658C381.005 59.1564 381.302 59.521 381.635 59.8491C383.635 61.8387 385.422 64.0054 386.99 66.3491C388.562 68.6877 389.885 71.1616 390.964 73.771C392.042 76.3752 392.854 79.0627 393.401 81.8283C393.948 84.5939 394.219 87.3856 394.208 90.2085Z" fill="white"/>
</mask>
<g mask="url(#mask19_36_4)">
<path d="M379.531 47.6304V132.792H408.521V47.6304H379.531Z" fill="url(#paint9_linear_36_4)"/>
</g>
</g>
<mask id="mask20_36_4" style="mask-type:luminance" maskUnits="userSpaceOnUse" x="265" y="26" width="39" height="128">
<path d="M265 26.6667H303.667V153.333H265V26.6667Z" fill="white"/>
</mask>
<g mask="url(#mask20_36_4)">
<mask id="mask21_36_4" style="mask-type:luminance" maskUnits="userSpaceOnUse" x="265" y="27" width="38" height="127">
<path d="M290.557 150.927C290.891 151.26 291.25 151.557 291.641 151.818C292.031 152.078 292.443 152.297 292.875 152.479C293.313 152.656 293.76 152.792 294.219 152.885C294.682 152.979 295.146 153.021 295.615 153.021C296.083 153.021 296.552 152.979 297.01 152.885C297.474 152.792 297.922 152.656 298.354 152.479C298.787 152.297 299.198 152.078 299.589 151.818C299.979 151.557 300.344 151.26 300.677 150.927C301.005 150.594 301.302 150.234 301.563 149.844C301.823 149.453 302.047 149.042 302.224 148.604C302.406 148.172 302.542 147.724 302.63 147.266C302.724 146.802 302.771 146.339 302.771 145.87C302.771 145.396 302.724 144.932 302.63 144.474C302.542 144.01 302.406 143.562 302.224 143.13C302.047 142.698 301.823 142.281 301.563 141.891C301.302 141.5 301.005 141.141 300.677 140.807C299.021 139.151 297.453 137.411 295.969 135.599C294.484 133.786 293.089 131.906 291.792 129.958C290.49 128.01 289.287 126 288.188 123.932C287.083 121.865 286.083 119.75 285.188 117.583C284.292 115.422 283.505 113.219 282.828 110.974C282.151 108.734 281.583 106.464 281.125 104.161C280.667 101.865 280.323 99.5521 280.094 97.2188C279.865 94.8854 279.75 92.5521 279.75 90.2083C279.75 87.8646 279.865 85.526 280.094 83.1979C280.323 80.8646 280.667 78.5469 281.125 76.25C281.583 73.9531 282.151 71.6823 282.828 69.4427C283.505 67.1979 284.292 64.9948 285.188 62.8281C286.083 60.6667 287.083 58.5469 288.188 56.4792C289.287 54.4167 290.49 52.4063 291.792 50.4583C293.089 48.5052 294.484 46.625 295.969 44.8125C297.453 43 299.021 41.2656 300.677 39.6042C301.005 39.276 301.302 38.9115 301.563 38.5208C301.823 38.1302 302.047 37.7187 302.224 37.2865C302.406 36.849 302.542 36.4063 302.63 35.9427C302.724 35.4844 302.771 35.0156 302.771 34.5469C302.771 34.0781 302.724 33.6146 302.63 33.151C302.542 32.6927 302.406 32.2448 302.224 31.8073C302.047 31.375 301.823 30.9635 301.563 30.5729C301.302 30.1823 301.005 29.8177 300.677 29.4896C300.344 29.1562 299.979 28.8594 299.589 28.599C299.198 28.3385 298.787 28.1146 298.354 27.9375C297.922 27.7552 297.474 27.6198 297.01 27.5312C296.552 27.4375 296.083 27.3906 295.615 27.3906C295.146 27.3906 294.682 27.4375 294.219 27.5312C293.76 27.6198 293.313 27.7552 292.875 27.9375C292.443 28.1146 292.031 28.3385 291.641 28.599C291.25 28.8594 290.891 29.1562 290.557 29.4896C289.563 30.4844 288.599 31.5 287.656 32.5417C286.714 33.5833 285.797 34.651 284.906 35.7344C284.016 36.8229 283.151 37.9323 282.318 39.0625C281.479 40.1875 280.672 41.3385 279.896 42.5052C279.115 43.6771 278.365 44.8646 277.641 46.0677C276.922 47.276 276.229 48.4948 275.568 49.7344C274.906 50.974 274.276 52.2292 273.677 53.5C273.078 54.7708 272.51 56.0573 271.974 57.3542C271.438 58.651 270.932 59.9635 270.458 61.2865C269.984 62.6094 269.547 63.9427 269.141 65.2865C268.734 66.6302 268.359 67.9844 268.016 69.349C267.677 70.7135 267.37 72.0833 267.094 73.4583C266.823 74.8385 266.583 76.224 266.375 77.6094C266.172 79 266 80.3958 265.859 81.7917C265.724 83.1927 265.62 84.5938 265.552 85.9948C265.484 87.401 265.448 88.8021 265.448 90.2083C265.448 91.6146 265.484 93.0156 265.552 94.4219C265.62 95.8229 265.724 97.224 265.859 98.6198C266 100.021 266.172 101.411 266.375 102.802C266.583 104.193 266.823 105.578 267.094 106.953C267.37 108.333 267.677 109.703 268.016 111.068C268.359 112.427 268.734 113.781 269.141 115.125C269.547 116.474 269.984 117.807 270.458 119.13C270.932 120.453 271.438 121.76 271.974 123.062C272.51 124.359 273.078 125.641 273.677 126.911C274.276 128.182 274.906 129.438 275.568 130.677C276.229 131.917 276.922 133.141 277.641 134.344C278.365 135.552 279.115 136.74 279.896 137.906C280.672 139.078 281.479 140.224 282.318 141.354C283.151 142.484 284.016 143.594 284.906 144.677C285.797 145.766 286.714 146.828 287.656 147.87C288.599 148.917 289.563 149.932 290.557 150.927Z" fill="white"/>
</mask>
<g mask="url(#mask21_36_4)">
<path d="M265.448 27.3906V153.021H302.771V27.3906H265.448Z" fill="url(#paint10_linear_36_4)"/>
</g>
</g>
<mask id="mask22_36_4" style="mask-type:luminance" maskUnits="userSpaceOnUse" x="399" y="26" width="40" height="128">
<path d="M399.667 26.6667H438.333V153.333H399.667V26.6667Z" fill="white"/>
</mask>
<g mask="url(#mask22_36_4)">
<mask id="mask23_36_4" style="mask-type:luminance" maskUnits="userSpaceOnUse" x="399" y="27" width="39" height="127">
<path d="M401.875 140.807C401.542 141.141 401.25 141.5 400.984 141.891C400.724 142.281 400.505 142.698 400.323 143.13C400.146 143.563 400.01 144.011 399.917 144.474C399.828 144.932 399.781 145.396 399.781 145.87C399.781 146.339 399.828 146.802 399.917 147.266C400.01 147.724 400.146 148.172 400.323 148.604C400.505 149.042 400.724 149.453 400.984 149.844C401.25 150.235 401.542 150.594 401.875 150.927C402.208 151.261 402.568 151.557 402.958 151.818C403.349 152.078 403.766 152.297 404.198 152.479C404.63 152.656 405.078 152.792 405.542 152.886C406 152.979 406.464 153.021 406.938 153.021C407.406 153.021 407.87 152.979 408.333 152.886C408.792 152.792 409.24 152.656 409.672 152.479C410.109 152.297 410.521 152.078 410.912 151.818C411.302 151.557 411.662 151.261 411.995 150.927C412.99 149.932 413.953 148.917 414.896 147.87C415.839 146.828 416.755 145.766 417.646 144.677C418.537 143.594 419.396 142.485 420.234 141.354C421.068 140.224 421.875 139.078 422.656 137.906C423.438 136.74 424.188 135.552 424.906 134.344C425.63 133.141 426.323 131.917 426.979 130.677C427.641 129.438 428.276 128.182 428.875 126.912C429.474 125.641 430.042 124.36 430.578 123.063C431.115 121.761 431.62 120.453 432.094 119.13C432.563 117.807 433.005 116.474 433.412 115.125C433.818 113.781 434.193 112.427 434.537 111.068C434.875 109.703 435.182 108.333 435.453 106.953C435.729 105.578 435.969 104.193 436.177 102.802C436.38 101.412 436.552 100.021 436.688 98.6199C436.828 97.2241 436.932 95.8231 437 94.422C437.068 93.0158 437.104 91.6147 437.104 90.2085C437.104 88.8022 437.068 87.4012 437 85.9949C436.932 84.5939 436.828 83.1929 436.688 81.7918C436.552 80.396 436.38 79.0001 436.177 77.6095C435.969 76.2241 435.729 74.8387 435.453 73.4585C435.182 72.0835 434.875 70.7137 434.537 69.3491C434.193 67.9845 433.818 66.6304 433.412 65.2866C433.005 63.9429 432.563 62.6095 432.094 61.2866C431.62 59.9637 431.115 58.6512 430.578 57.3543C430.042 56.0574 429.474 54.771 428.875 53.5001C428.276 52.2293 427.641 50.9741 426.979 49.7345C426.323 48.4949 425.63 47.2762 424.906 46.0679C424.188 44.8647 423.438 43.6772 422.656 42.5054C421.875 41.3387 421.068 40.1876 420.234 39.0626C419.396 37.9324 418.537 36.8231 417.646 35.7345C416.755 34.6512 415.839 33.5835 414.896 32.5418C413.953 31.5001 412.99 30.4845 411.995 29.4897C411.662 29.1564 411.302 28.8595 410.912 28.5991C410.521 28.3335 410.109 28.1147 409.672 27.9324C409.24 27.7554 408.792 27.6199 408.333 27.5262C407.87 27.4324 407.406 27.3908 406.932 27.3908C406.464 27.3856 406 27.4324 405.537 27.5262C405.078 27.6147 404.63 27.7501 404.193 27.9324C403.76 28.1147 403.349 28.3335 402.958 28.5939C402.568 28.8543 402.203 29.1512 401.875 29.4845C401.542 29.8179 401.245 30.1772 400.984 30.5679C400.719 30.9585 400.5 31.3699 400.323 31.8074C400.141 32.2397 400.005 32.6876 399.912 33.1512C399.823 33.6095 399.776 34.0783 399.776 34.547C399.776 35.0158 399.823 35.4793 399.917 35.9429C400.005 36.4012 400.141 36.8491 400.323 37.2866C400.505 37.7189 400.724 38.1304 400.984 38.521C401.245 38.9116 401.542 39.2762 401.875 39.6043C403.531 41.2658 405.099 43.0001 406.583 44.8126C408.068 46.6251 409.464 48.5054 410.76 50.4585C412.063 52.4064 413.26 54.4168 414.365 56.4793C415.469 58.547 416.469 60.6668 417.359 62.8283C418.255 64.9949 419.042 67.1981 419.724 69.4429C420.401 71.6824 420.969 73.9533 421.427 76.2501C421.88 78.547 422.224 80.8647 422.453 83.1981C422.682 85.5262 422.797 87.8647 422.797 90.2085C422.797 92.5522 422.682 94.8856 422.453 97.2189C422.224 99.5522 421.88 101.865 421.427 104.162C420.969 106.464 420.401 108.735 419.724 110.974C419.042 113.219 418.255 115.422 417.359 117.583C416.469 119.75 415.469 121.865 414.365 123.932C413.26 126 412.063 128.011 410.76 129.958C409.464 131.906 408.068 133.787 406.583 135.599C405.099 137.412 403.531 139.151 401.875 140.807Z" fill="white"/>
</mask>
<g mask="url(#mask23_36_4)">
<path d="M399.776 27.3855V153.021H437.104V27.3855H399.776Z" fill="url(#paint11_linear_36_4)"/>
</g>
</g>
<mask id="mask24_36_4" style="mask-type:luminance" maskUnits="userSpaceOnUse" x="241" y="0" width="47" height="180">
<path d="M241 0H287.667V180H241V0Z" fill="white"/>
</mask>
<g mask="url(#mask24_36_4)">
<mask id="mask25_36_4" style="mask-type:luminance" maskUnits="userSpaceOnUse" x="241" y="0" width="46" height="179">
<path d="M279.719 178.896C280.427 178.896 281.115 178.792 281.792 178.583C282.469 178.38 283.104 178.078 283.693 177.688C284.281 177.292 284.797 176.823 285.25 176.276C285.698 175.729 286.057 175.13 286.328 174.474C286.599 173.823 286.766 173.146 286.838 172.438C286.906 171.734 286.87 171.037 286.734 170.344C286.594 169.646 286.359 168.99 286.026 168.365C285.693 167.74 285.276 167.177 284.776 166.677C282.365 164.094 280.083 161.401 277.932 158.599C275.781 155.797 273.776 152.896 271.906 149.896C270.036 146.896 268.318 143.813 266.75 140.651C265.182 137.484 263.771 134.25 262.516 130.948C261.26 127.641 260.167 124.287 259.24 120.88C258.312 117.469 257.547 114.021 256.953 110.542C256.359 107.057 255.937 103.552 255.682 100.031C255.427 96.5053 255.344 92.9792 255.432 89.448C255.344 85.9115 255.427 82.3855 255.682 78.8595C255.937 75.3386 256.359 71.8334 256.953 68.349C257.547 64.8699 258.312 61.422 259.24 58.0157C260.167 54.6042 261.26 51.2501 262.516 47.948C263.771 44.6407 265.182 41.4063 266.75 38.2449C268.318 35.0782 270.036 31.9949 271.906 28.9949C273.776 25.9949 275.781 23.0938 277.932 20.2917C280.083 17.4897 282.365 14.797 284.776 12.2136C285.104 11.8803 285.396 11.5157 285.651 11.1251C285.906 10.7397 286.125 10.323 286.302 9.89071C286.474 9.45842 286.609 9.01571 286.698 8.55737C286.786 8.09904 286.828 7.6355 286.828 7.16675C286.823 6.698 286.776 6.23967 286.682 5.78133C286.594 5.323 286.458 4.87508 286.276 4.448C286.099 4.01571 285.875 3.60425 285.615 3.21883C285.354 2.82821 285.062 2.46883 284.729 2.14071C284.401 1.80737 284.042 1.51571 283.656 1.25529C283.266 0.994874 282.854 0.776123 282.427 0.593831C281.995 0.416749 281.547 0.281332 281.094 0.187581C280.635 0.0938307 280.172 0.046956 279.703 0.041748C279.234 0.041748 278.776 0.0834151 278.318 0.171956C277.854 0.260498 277.411 0.395914 276.979 0.572998C276.547 0.744873 276.135 0.963623 275.745 1.21883C275.354 1.47404 274.99 1.76571 274.656 2.09383C271.917 5.0105 269.318 8.04696 266.875 11.2136C264.427 14.3803 262.135 17.6563 260.01 21.047C257.88 24.4376 255.922 27.9167 254.13 31.5001C252.344 35.0782 250.729 38.7345 249.297 42.4688C247.859 46.2084 246.609 50.0053 245.547 53.8595C244.479 57.7188 243.604 61.6199 242.922 65.5574C242.234 69.5001 241.74 73.4688 241.443 77.4584C241.141 81.448 241.031 85.4428 241.12 89.448C241.031 93.448 241.141 97.4428 241.443 101.432C241.74 105.422 242.234 109.391 242.922 113.333C243.604 117.276 244.479 121.172 245.547 125.031C246.609 128.891 247.859 132.688 249.297 136.422C250.729 140.156 252.344 143.813 254.13 147.396C255.922 150.974 257.88 154.458 260.01 157.844C262.135 161.234 264.427 164.51 266.875 167.677C269.318 170.844 271.917 173.885 274.656 176.797C275.328 177.469 276.104 177.984 276.979 178.349C277.854 178.714 278.766 178.896 279.719 178.896Z" fill="white"/>
</mask>
<g mask="url(#mask25_36_4)">
<path d="M241.031 0.041748V178.896H286.906V0.041748H241.031Z" fill="url(#paint12_linear_36_4)"/>
</g>
</g>
<mask id="mask26_36_4" style="mask-type:luminance" maskUnits="userSpaceOnUse" x="414" y="0" width="49" height="180">
<path d="M414.333 0H462.333V180H414.333V0Z" fill="white"/>
</mask>
<g mask="url(#mask26_36_4)">
<mask id="mask27_36_4" style="mask-type:luminance" maskUnits="userSpaceOnUse" x="415" y="0" width="47" height="179">
<path d="M447.12 89.448C447.208 92.9792 447.125 96.5053 446.87 100.031C446.615 103.552 446.193 107.057 445.599 110.542C445 114.021 444.24 117.469 443.312 120.88C442.385 124.287 441.292 127.641 440.036 130.948C438.781 134.25 437.37 137.484 435.802 140.651C434.229 143.813 432.51 146.896 430.646 149.896C428.776 152.896 426.766 155.797 424.615 158.599C422.469 161.401 420.187 164.094 417.776 166.677C417.437 167.01 417.135 167.37 416.87 167.76C416.604 168.151 416.38 168.568 416.198 169C416.01 169.438 415.875 169.885 415.781 170.349C415.682 170.813 415.635 171.276 415.635 171.75C415.63 172.224 415.677 172.693 415.766 173.156C415.859 173.62 415.99 174.068 416.172 174.505C416.354 174.943 416.573 175.359 416.833 175.75C417.099 176.146 417.396 176.51 417.729 176.844C418.062 177.177 418.427 177.474 418.818 177.734C419.214 178 419.63 178.219 420.068 178.401C420.5 178.578 420.953 178.714 421.417 178.807C421.88 178.896 422.349 178.938 422.823 178.938C423.292 178.938 423.76 178.885 424.224 178.792C424.687 178.698 425.135 178.557 425.573 178.375C426.005 178.193 426.417 177.969 426.812 177.703C427.203 177.438 427.562 177.135 427.891 176.797C430.635 173.885 433.229 170.844 435.677 167.677C438.125 164.51 440.411 161.234 442.542 157.844C444.672 154.458 446.63 150.974 448.422 147.396C450.208 143.813 451.823 140.156 453.255 136.422C454.687 132.688 455.937 128.891 457.005 125.031C458.068 121.172 458.948 117.276 459.63 113.333C460.318 109.391 460.812 105.422 461.109 101.432C461.411 97.4428 461.516 93.448 461.427 89.448C461.516 85.4428 461.411 81.448 461.109 77.4584C460.812 73.4688 460.318 69.5001 459.63 65.5574C458.948 61.6199 458.068 57.7188 457.005 53.8595C455.937 50.0053 454.687 46.2084 453.255 42.4688C451.823 38.7345 450.208 35.0782 448.422 31.5001C446.63 27.9167 444.672 24.4376 442.542 21.047C440.411 17.6563 438.125 14.3803 435.677 11.2136C433.229 8.04696 430.635 5.0105 427.891 2.09383C427.557 1.76571 427.198 1.47404 426.807 1.21883C426.417 0.963623 426.005 0.744873 425.573 0.572998C425.141 0.395914 424.693 0.260498 424.234 0.171956C423.776 0.0834151 423.312 0.041748 422.849 0.041748C422.38 0.046956 421.917 0.0938307 421.458 0.187581C421 0.281332 420.557 0.416749 420.125 0.593831C419.693 0.776123 419.286 0.994874 418.896 1.25529C418.51 1.51571 418.151 1.80737 417.818 2.14071C417.49 2.46883 417.193 2.82821 416.932 3.21883C416.677 3.60425 416.453 4.01571 416.276 4.448C416.094 4.87508 415.958 5.323 415.865 5.78133C415.776 6.23967 415.724 6.698 415.724 7.16675C415.724 7.6355 415.766 8.09904 415.854 8.55737C415.943 9.01571 416.073 9.45842 416.25 9.89071C416.427 10.323 416.641 10.7397 416.901 11.1251C417.156 11.5157 417.448 11.8803 417.776 12.2136C420.187 14.797 422.469 17.4897 424.615 20.2917C426.766 23.0938 428.776 25.9949 430.646 28.9949C432.51 31.9949 434.229 35.0782 435.802 38.2449C437.37 41.4063 438.781 44.6407 440.036 47.948C441.292 51.2501 442.385 54.6042 443.312 58.0157C444.24 61.422 445 64.8699 445.599 68.349C446.193 71.8334 446.615 75.3386 446.87 78.8595C447.125 82.3855 447.208 85.9115 447.12 89.448Z" fill="white"/>
</mask>
<g mask="url(#mask27_36_4)">
<path d="M415.63 0.041748V178.938H461.516V0.041748H415.63Z" fill="url(#paint13_linear_36_4)"/>
</g>
</g>
<defs>
<linearGradient id="paint0_linear_36_4" x1="240.145" y1="144.223" x2="235.545" y2="475.543" gradientUnits="userSpaceOnUse">
<stop stop-color="#494CA7"/>
<stop offset="0.0078125" stop-color="#494CA7"/>
<stop offset="0.015625" stop-color="#4A4BA7"/>
<stop offset="0.0197841" stop-color="#4A4BA7"/>
<stop offset="0.0234375" stop-color="#4B4BA7"/>
<stop offset="0.03125" stop-color="#4B4BA7"/>
<stop offset="0.0390625" stop-color="#4C4BA7"/>
<stop offset="0.046875" stop-color="#4D4BA7"/>
<stop offset="0.0546875" stop-color="#4E4BA7"/>
<stop offset="0.0625" stop-color="#4E4BA7"/>
<stop offset="0.0703125" stop-color="#4F4BA7"/>
<stop offset="0.078125" stop-color="#504BA7"/>
<stop offset="0.0859375" stop-color="#514BA7"/>
<stop offset="0.09375" stop-color="#524BA7"/>
<stop offset="0.101563" stop-color="#524BA8"/>
<stop offset="0.109375" stop-color="#534BA8"/>
<stop offset="0.117187" stop-color="#544BA8"/>
<stop offset="0.125" stop-color="#554BA8"/>
<stop offset="0.132812" stop-color="#554BA8"/>
<stop offset="0.140625" stop-color="#564BA8"/>
<stop offset="0.148437" stop-color="#574AA8"/>
<stop offset="0.15625" stop-color="#584AA8"/>
<stop offset="0.164062" stop-color="#594AA8"/>
<stop offset="0.171875" stop-color="#594AA8"/>
<stop offset="0.179688" stop-color="#5A4AA8"/>
<stop offset="0.1875" stop-color="#5B4AA8"/>
<stop offset="0.195312" stop-color="#5C4AA8"/>
<stop offset="0.203125" stop-color="#5D4AA8"/>
<stop offset="0.210938" stop-color="#5D4AA8"/>
<stop offset="0.21875" stop-color="#5E4AA9"/>
<stop offset="0.226563" stop-color="#5F4AA9"/>
<stop offset="0.234375" stop-color="#604AA9"/>
<stop offset="0.242187" stop-color="#614AA9"/>
<stop offset="0.25" stop-color="#614AA9"/>
<stop offset="0.257813" stop-color="#624AA9"/>
<stop offset="0.265625" stop-color="#634AA9"/>
<stop offset="0.273437" stop-color="#644AA9"/>
<stop offset="0.28125" stop-color="#6449A9"/>
<stop offset="0.289062" stop-color="#6549A9"/>
<stop offset="0.296875" stop-color="#6649A9"/>
<stop offset="0.304687" stop-color="#6749A9"/>
<stop offset="0.3125" stop-color="#6849A9"/>
<stop offset="0.320312" stop-color="#6849A9"/>
<stop offset="0.328125" stop-color="#6949A9"/>
<stop offset="0.335938" stop-color="#6A49A9"/>
<stop offset="0.34375" stop-color="#6B49AA"/>
<stop offset="0.351562" stop-color="#6C49AA"/>
<stop offset="0.359375" stop-color="#6C49AA"/>
<stop offset="0.367187" stop-color="#6D49AA"/>
<stop offset="0.375" stop-color="#6E49AA"/>
<stop offset="0.382812" stop-color="#6F49AA"/>
<stop offset="0.390625" stop-color="#6F49AA"/>
<stop offset="0.398438" stop-color="#7049AA"/>
<stop offset="0.40625" stop-color="#7149AA"/>
<stop offset="0.414062" stop-color="#7249AA"/>
<stop offset="0.421875" stop-color="#7348AA"/>
<stop offset="0.429687" stop-color="#7348AA"/>
<stop offset="0.4375" stop-color="#7448AA"/>
<stop offset="0.445312" stop-color="#7548AA"/>
<stop offset="0.453125" stop-color="#7648AA"/>
<stop offset="0.460937" stop-color="#7748AA"/>
<stop offset="0.46875" stop-color="#7748AB"/>
<stop offset="0.476562" stop-color="#7848AB"/>
<stop offset="0.484375" stop-color="#7948AB"/>
<stop offset="0.492188" stop-color="#7A48AB"/>
<stop offset="0.5" stop-color="#7A48AB"/>
<stop offset="0.507812" stop-color="#7B48AB"/>
<stop offset="0.515625" stop-color="#7C48AB"/>
<stop offset="0.523437" stop-color="#7D48AB"/>
<stop offset="0.53125" stop-color="#7E48AB"/>
<stop offset="0.539062" stop-color="#7E48AB"/>
<stop offset="0.546875" stop-color="#7F48AB"/>
<stop offset="0.554688" stop-color="#8047AB"/>
<stop offset="0.5625" stop-color="#8147AB"/>
<stop offset="0.570312" stop-color="#8247AB"/>
<stop offset="0.578125" stop-color="#8247AB"/>
<stop offset="0.585938" stop-color="#8347AB"/>
<stop offset="0.59375" stop-color="#8447AC"/>
<stop offset="0.601562" stop-color="#8547AC"/>
<stop offset="0.609375" stop-color="#8647AC"/>
<stop offset="0.617187" stop-color="#8647AC"/>
<stop offset="0.625" stop-color="#8747AC"/>
<stop offset="0.632812" stop-color="#8847AC"/>
<stop offset="0.640625" stop-color="#8947AC"/>
<stop offset="0.648438" stop-color="#8947AC"/>
<stop offset="0.65625" stop-color="#8A47AC"/>
<stop offset="0.664062" stop-color="#8B47AC"/>
<stop offset="0.671875" stop-color="#8C47AC"/>
<stop offset="0.679687" stop-color="#8D47AC"/>
<stop offset="0.6875" stop-color="#8D46AC"/>
<stop offset="0.695312" stop-color="#8E46AC"/>
<stop offset="0.703125" stop-color="#8F46AC"/>
<stop offset="0.710938" stop-color="#9046AC"/>
<stop offset="0.71875" stop-color="#9146AD"/>
<stop offset="0.726562" stop-color="#9146AD"/>
<stop offset="0.734375" stop-color="#9246AD"/>
<stop offset="0.742187" stop-color="#9346AD"/>
<stop offset="0.75" stop-color="#9446AD"/>
<stop offset="0.757812" stop-color="#9446AD"/>
<stop offset="0.765625" stop-color="#9546AD"/>
<stop offset="0.773438" stop-color="#9646AD"/>
<stop offset="0.78125" stop-color="#9746AD"/>
<stop offset="0.789062" stop-color="#9846AD"/>
<stop offset="0.796875" stop-color="#9846AD"/>
<stop offset="0.804687" stop-color="#9946AD"/>
<stop offset="0.8125" stop-color="#9A46AD"/>
<stop offset="0.820312" stop-color="#9B45AD"/>
<stop offset="0.828125" stop-color="#9C45AD"/>
<stop offset="0.835938" stop-color="#9C45AE"/>
<stop offset="0.84375" stop-color="#9D45AE"/>
<stop offset="0.851562" stop-color="#9E45AE"/>
<stop offset="0.859375" stop-color="#9F45AE"/>
<stop offset="0.867188" stop-color="#9F45AE"/>
<stop offset="0.875" stop-color="#A045AE"/>
<stop offset="0.882812" stop-color="#A145AE"/>
<stop offset="0.890625" stop-color="#A245AE"/>
<stop offset="0.898437" stop-color="#A345AE"/>
<stop offset="0.90625" stop-color="#A345AE"/>
<stop offset="0.914062" stop-color="#A445AE"/>
<stop offset="0.921875" stop-color="#A545AE"/>
<stop offset="0.929688" stop-color="#A645AE"/>
<stop offset="0.9375" stop-color="#A745AE"/>
<stop offset="0.945313" stop-color="#A745AE"/>
<stop offset="0.953125" stop-color="#A845AE"/>
<stop offset="0.960938" stop-color="#A944AF"/>
<stop offset="0.96875" stop-color="#AA44AF"/>
<stop offset="0.976562" stop-color="#AB44AF"/>
<stop offset="0.980216" stop-color="#AB44AF"/>
<stop offset="0.984375" stop-color="#AC44AF"/>
<stop offset="0.992188" stop-color="#AC44AF"/>
<stop offset="1" stop-color="#AD44AF"/>
</linearGradient>
<linearGradient id="paint1_linear_36_4" x1="58.1903" y1="364.651" x2="57.5861" y2="408.174" gradientUnits="userSpaceOnUse">
<stop stop-color="#8C47AC"/>
<stop offset="0.0136915" stop-color="#8D47AC"/>
<stop offset="0.0625" stop-color="#8D46AC"/>
<stop offset="0.125" stop-color="#8E46AC"/>
<stop offset="0.1875" stop-color="#8E46AC"/>
<stop offset="0.25" stop-color="#8F46AC"/>
<stop offset="0.3125" stop-color="#9046AD"/>
<stop offset="0.375" stop-color="#9146AD"/>
<stop offset="0.4375" stop-color="#9246AD"/>
<stop offset="0.5" stop-color="#9246AD"/>
<stop offset="0.5625" stop-color="#9346AD"/>
<stop offset="0.625" stop-color="#9446AD"/>
<stop offset="0.6875" stop-color="#9546AD"/>
<stop offset="0.75" stop-color="#9646AD"/>
<stop offset="0.8125" stop-color="#9746AD"/>
<stop offset="0.875" stop-color="#9746AD"/>
<stop offset="0.9375" stop-color="#9846AD"/>
<stop offset="0.986308" stop-color="#9946AD"/>
<stop offset="1" stop-color="#9A46AD"/>
</linearGradient>
<linearGradient id="paint2_linear_36_4" x1="108.078" y1="379.059" x2="107.873" y2="393.766" gradientUnits="userSpaceOnUse">
<stop stop-color="#9046AD"/>
<stop offset="0.0270413" stop-color="#9146AD"/>
<stop offset="0.125" stop-color="#9146AD"/>
<stop offset="0.25" stop-color="#9146AD"/>
<stop offset="0.375" stop-color="#9246AD"/>
<stop offset="0.5" stop-color="#9246AD"/>
<stop offset="0.625" stop-color="#9346AD"/>
<stop offset="0.75" stop-color="#9446AD"/>
<stop offset="0.875" stop-color="#9446AD"/>
<stop offset="0.972959" stop-color="#9546AD"/>
<stop offset="1" stop-color="#9546AD"/>
</linearGradient>
<linearGradient id="paint3_linear_36_4" x1="179.636" y1="379.059" x2="179.431" y2="393.766" gradientUnits="userSpaceOnUse">
<stop stop-color="#9046AD"/>
<stop offset="0.0270409" stop-color="#9046AD"/>
<stop offset="0.125" stop-color="#9146AD"/>
<stop offset="0.25" stop-color="#9146AD"/>
<stop offset="0.375" stop-color="#9246AD"/>
<stop offset="0.5" stop-color="#9246AD"/>
<stop offset="0.625" stop-color="#9346AD"/>
<stop offset="0.75" stop-color="#9346AD"/>
<stop offset="0.875" stop-color="#9446AD"/>
<stop offset="0.972959" stop-color="#9446AD"/>
<stop offset="1" stop-color="#9546AD"/>
</linearGradient>
<linearGradient id="paint4_linear_36_4" x1="222.572" y1="379.059" x2="222.367" y2="393.766" gradientUnits="userSpaceOnUse">
<stop stop-color="#9046AD"/>
<stop offset="0.0270411" stop-color="#9046AD"/>
<stop offset="0.125" stop-color="#9146AD"/>
<stop offset="0.25" stop-color="#9146AD"/>
<stop offset="0.375" stop-color="#9146AD"/>
<stop offset="0.5" stop-color="#9246AD"/>
<stop offset="0.625" stop-color="#9246AD"/>
<stop offset="0.75" stop-color="#9346AD"/>
<stop offset="0.875" stop-color="#9446AD"/>
<stop offset="0.972959" stop-color="#9446AD"/>
<stop offset="1" stop-color="#9446AD"/>
</linearGradient>
<linearGradient id="paint5_linear_36_4" x1="265.508" y1="379.059" x2="265.303" y2="393.766" gradientUnits="userSpaceOnUse">
<stop stop-color="#9046AD"/>
<stop offset="0.0270409" stop-color="#9046AD"/>
<stop offset="0.125" stop-color="#9046AD"/>
<stop offset="0.25" stop-color="#9146AD"/>
<stop offset="0.375" stop-color="#9146AD"/>
<stop offset="0.5" stop-color="#9246AD"/>
<stop offset="0.625" stop-color="#9246AD"/>
<stop offset="0.75" stop-color="#9346AD"/>
<stop offset="0.875" stop-color="#9346AD"/>
<stop offset="0.972959" stop-color="#9446AD"/>
<stop offset="1" stop-color="#9446AD"/>
</linearGradient>
<linearGradient id="paint6_linear_36_4" x1="308.442" y1="379.059" x2="308.238" y2="393.766" gradientUnits="userSpaceOnUse">
<stop stop-color="#9046AC"/>
<stop offset="0.0270132" stop-color="#9046AD"/>
<stop offset="0.125" stop-color="#9046AD"/>
<stop offset="0.25" stop-color="#9046AD"/>
<stop offset="0.375" stop-color="#9146AD"/>
<stop offset="0.5" stop-color="#9246AD"/>
<stop offset="0.625" stop-color="#9246AD"/>
<stop offset="0.75" stop-color="#9346AD"/>
<stop offset="0.875" stop-color="#9346AD"/>
<stop offset="0.972987" stop-color="#9446AD"/>
<stop offset="1" stop-color="#9446AD"/>
</linearGradient>
<linearGradient id="paint7_linear_36_4" x1="351.676" y1="61.1923" x2="350.87" y2="119.222" gradientUnits="userSpaceOnUse">
<stop stop-color="#2F4DA5"/>
<stop offset="0.0136917" stop-color="#2F4DA5"/>
<stop offset="0.03125" stop-color="#2F4DA5"/>
<stop offset="0.0625" stop-color="#304DA5"/>
<stop offset="0.09375" stop-color="#304DA5"/>
<stop offset="0.125" stop-color="#314DA5"/>
<stop offset="0.15625" stop-color="#314DA5"/>
<stop offset="0.1875" stop-color="#324DA5"/>
<stop offset="0.21875" stop-color="#324DA5"/>
<stop offset="0.25" stop-color="#334DA5"/>
<stop offset="0.28125" stop-color="#334DA5"/>
<stop offset="0.3125" stop-color="#344DA5"/>
<stop offset="0.34375" stop-color="#354DA5"/>
<stop offset="0.375" stop-color="#354DA5"/>
<stop offset="0.40625" stop-color="#364DA5"/>
<stop offset="0.4375" stop-color="#364DA5"/>
<stop offset="0.46875" stop-color="#374DA5"/>
<stop offset="0.5" stop-color="#374DA5"/>
<stop offset="0.53125" stop-color="#384DA5"/>
<stop offset="0.5625" stop-color="#384DA5"/>
<stop offset="0.59375" stop-color="#394DA6"/>
<stop offset="0.625" stop-color="#3A4DA6"/>
<stop offset="0.65625" stop-color="#3A4DA6"/>
<stop offset="0.6875" stop-color="#3B4DA6"/>
<stop offset="0.71875" stop-color="#3B4DA6"/>
<stop offset="0.75" stop-color="#3C4CA6"/>
<stop offset="0.78125" stop-color="#3C4CA6"/>
<stop offset="0.8125" stop-color="#3D4CA6"/>
<stop offset="0.84375" stop-color="#3D4CA6"/>
<stop offset="0.875" stop-color="#3E4CA6"/>
<stop offset="0.90625" stop-color="#3F4CA6"/>
<stop offset="0.9375" stop-color="#3F4CA6"/>
<stop offset="0.96875" stop-color="#404CA6"/>
<stop offset="0.986308" stop-color="#404CA6"/>
<stop offset="1" stop-color="#404CA6"/>
</linearGradient>
<linearGradient id="paint8_linear_36_4" x1="309.359" y1="47.4413" x2="308.17" y2="132.982" gradientUnits="userSpaceOnUse">
<stop stop-color="#2B4EA4"/>
<stop offset="0.00470826" stop-color="#2B4EA4"/>
<stop offset="0.03125" stop-color="#2C4EA4"/>
<stop offset="0.0625" stop-color="#2C4EA4"/>
<stop offset="0.09375" stop-color="#2D4EA5"/>
<stop offset="0.125" stop-color="#2E4EA5"/>
<stop offset="0.15625" stop-color="#2E4DA5"/>
<stop offset="0.1875" stop-color="#2F4DA5"/>
<stop offset="0.21875" stop-color="#304DA5"/>
<stop offset="0.25" stop-color="#314DA5"/>
<stop offset="0.28125" stop-color="#324DA5"/>
<stop offset="0.3125" stop-color="#334DA5"/>
<stop offset="0.34375" stop-color="#334DA5"/>
<stop offset="0.375" stop-color="#344DA5"/>
<stop offset="0.40625" stop-color="#354DA5"/>
<stop offset="0.4375" stop-color="#364DA5"/>
<stop offset="0.46875" stop-color="#374DA5"/>
<stop offset="0.5" stop-color="#374DA5"/>
<stop offset="0.53125" stop-color="#384DA5"/>
<stop offset="0.5625" stop-color="#394DA6"/>
<stop offset="0.59375" stop-color="#3A4DA6"/>
<stop offset="0.625" stop-color="#3B4DA6"/>
<stop offset="0.65625" stop-color="#3B4DA6"/>
<stop offset="0.6875" stop-color="#3C4CA6"/>
<stop offset="0.71875" stop-color="#3D4CA6"/>
<stop offset="0.75" stop-color="#3E4CA6"/>
<stop offset="0.78125" stop-color="#3F4CA6"/>
<stop offset="0.8125" stop-color="#404CA6"/>
<stop offset="0.84375" stop-color="#404CA6"/>
<stop offset="0.875" stop-color="#414CA6"/>
<stop offset="0.90625" stop-color="#424CA6"/>
<stop offset="0.9375" stop-color="#434CA6"/>
<stop offset="0.96875" stop-color="#444CA6"/>
<stop offset="0.995292" stop-color="#444CA6"/>
<stop offset="1" stop-color="#454CA6"/>
</linearGradient>
<linearGradient id="paint9_linear_36_4" x1="394.38" y1="47.4348" x2="393.193" y2="132.982" gradientUnits="userSpaceOnUse">
<stop stop-color="#2A4EA4"/>
<stop offset="0.00470316" stop-color="#2B4EA4"/>
<stop offset="0.03125" stop-color="#2B4EA4"/>
<stop offset="0.0625" stop-color="#2C4EA4"/>
<stop offset="0.09375" stop-color="#2C4EA5"/>
<stop offset="0.125" stop-color="#2D4EA5"/>
<stop offset="0.15625" stop-color="#2E4DA5"/>
<stop offset="0.1875" stop-color="#2F4DA5"/>
<stop offset="0.21875" stop-color="#304DA5"/>
<stop offset="0.25" stop-color="#314DA5"/>
<stop offset="0.28125" stop-color="#314DA5"/>
<stop offset="0.3125" stop-color="#324DA5"/>
<stop offset="0.34375" stop-color="#334DA5"/>
<stop offset="0.375" stop-color="#344DA5"/>
<stop offset="0.40625" stop-color="#354DA5"/>
<stop offset="0.4375" stop-color="#354DA5"/>
<stop offset="0.46875" stop-color="#364DA5"/>
<stop offset="0.5" stop-color="#374DA5"/>
<stop offset="0.53125" stop-color="#384DA5"/>
<stop offset="0.5625" stop-color="#394DA5"/>
<stop offset="0.59375" stop-color="#394DA6"/>
<stop offset="0.625" stop-color="#3A4DA6"/>
<stop offset="0.65625" stop-color="#3B4DA6"/>
<stop offset="0.6875" stop-color="#3C4CA6"/>
<stop offset="0.71875" stop-color="#3D4CA6"/>
<stop offset="0.75" stop-color="#3E4CA6"/>
<stop offset="0.78125" stop-color="#3E4CA6"/>
<stop offset="0.8125" stop-color="#3F4CA6"/>
<stop offset="0.84375" stop-color="#404CA6"/>
<stop offset="0.875" stop-color="#414CA6"/>
<stop offset="0.90625" stop-color="#424CA6"/>
<stop offset="0.9375" stop-color="#424CA6"/>
<stop offset="0.96875" stop-color="#434CA6"/>
<stop offset="0.995297" stop-color="#444CA6"/>
<stop offset="1" stop-color="#444CA6"/>
</linearGradient>
<linearGradient id="paint10_linear_36_4" x1="285.371" y1="27.1503" x2="283.618" y2="153.275" gradientUnits="userSpaceOnUse">
<stop stop-color="#254EA4"/>
<stop offset="0.00411125" stop-color="#254EA4"/>
<stop offset="0.015625" stop-color="#254EA4"/>
<stop offset="0.03125" stop-color="#264EA4"/>
<stop offset="0.046875" stop-color="#264EA4"/>
<stop offset="0.0625" stop-color="#274EA4"/>
<stop offset="0.078125" stop-color="#274EA4"/>
<stop offset="0.09375" stop-color="#284EA4"/>
<stop offset="0.109375" stop-color="#294EA4"/>
<stop offset="0.125" stop-color="#294EA4"/>
<stop offset="0.140625" stop-color="#2A4EA4"/>
<stop offset="0.15625" stop-color="#2A4EA4"/>
<stop offset="0.171875" stop-color="#2B4EA4"/>
<stop offset="0.1875" stop-color="#2C4EA4"/>
<stop offset="0.203125" stop-color="#2C4EA4"/>
<stop offset="0.21875" stop-color="#2D4EA5"/>
<stop offset="0.234375" stop-color="#2D4EA5"/>
<stop offset="0.25" stop-color="#2E4EA5"/>
<stop offset="0.265625" stop-color="#2F4DA5"/>
<stop offset="0.28125" stop-color="#2F4DA5"/>
<stop offset="0.296875" stop-color="#304DA5"/>
<stop offset="0.3125" stop-color="#304DA5"/>
<stop offset="0.328125" stop-color="#314DA5"/>
<stop offset="0.34375" stop-color="#324DA5"/>
<stop offset="0.359375" stop-color="#324DA5"/>
<stop offset="0.375" stop-color="#334DA5"/>
<stop offset="0.390625" stop-color="#334DA5"/>
<stop offset="0.40625" stop-color="#344DA5"/>
<stop offset="0.421875" stop-color="#354DA5"/>
<stop offset="0.4375" stop-color="#354DA5"/>
<stop offset="0.453125" stop-color="#364DA5"/>
<stop offset="0.46875" stop-color="#364DA5"/>
<stop offset="0.484375" stop-color="#374DA5"/>
<stop offset="0.5" stop-color="#384DA5"/>
<stop offset="0.515625" stop-color="#384DA5"/>
<stop offset="0.53125" stop-color="#394DA6"/>
<stop offset="0.546875" stop-color="#394DA6"/>
<stop offset="0.5625" stop-color="#3A4DA6"/>
<stop offset="0.578125" stop-color="#3B4DA6"/>
<stop offset="0.59375" stop-color="#3B4DA6"/>
<stop offset="0.609375" stop-color="#3C4CA6"/>
<stop offset="0.625" stop-color="#3C4CA6"/>
<stop offset="0.640625" stop-color="#3D4CA6"/>
<stop offset="0.65625" stop-color="#3E4CA6"/>
<stop offset="0.671875" stop-color="#3E4CA6"/>
<stop offset="0.6875" stop-color="#3F4CA6"/>
<stop offset="0.703125" stop-color="#3F4CA6"/>
<stop offset="0.71875" stop-color="#404CA6"/>
<stop offset="0.734375" stop-color="#414CA6"/>
<stop offset="0.75" stop-color="#414CA6"/>
<stop offset="0.765625" stop-color="#424CA6"/>
<stop offset="0.78125" stop-color="#424CA6"/>
<stop offset="0.796875" stop-color="#434CA6"/>
<stop offset="0.8125" stop-color="#444CA6"/>
<stop offset="0.828125" stop-color="#444CA6"/>
<stop offset="0.84375" stop-color="#454CA6"/>
<stop offset="0.859375" stop-color="#454CA7"/>
<stop offset="0.875" stop-color="#464CA7"/>
<stop offset="0.890625" stop-color="#474CA7"/>
<stop offset="0.90625" stop-color="#474CA7"/>
<stop offset="0.921875" stop-color="#484CA7"/>
<stop offset="0.9375" stop-color="#484CA7"/>
<stop offset="0.953125" stop-color="#494CA7"/>
<stop offset="0.96875" stop-color="#4A4BA7"/>
<stop offset="0.984375" stop-color="#4A4BA7"/>
<stop offset="0.995889" stop-color="#4B4BA7"/>
<stop offset="1" stop-color="#4B4BA7"/>
</linearGradient>
<linearGradient id="paint11_linear_36_4" x1="418.932" y1="27.1358" x2="417.181" y2="153.264" gradientUnits="userSpaceOnUse">
<stop stop-color="#244EA4"/>
<stop offset="0.00410728" stop-color="#244EA4"/>
<stop offset="0.015625" stop-color="#254EA4"/>
<stop offset="0.03125" stop-color="#254EA4"/>
<stop offset="0.046875" stop-color="#264EA4"/>
<stop offset="0.0625" stop-color="#264EA4"/>
<stop offset="0.078125" stop-color="#274EA4"/>
<stop offset="0.09375" stop-color="#274EA4"/>
<stop offset="0.109375" stop-color="#284EA4"/>
<stop offset="0.125" stop-color="#294EA4"/>
<stop offset="0.140625" stop-color="#294EA4"/>
<stop offset="0.15625" stop-color="#2A4EA4"/>
<stop offset="0.171875" stop-color="#2A4EA4"/>
<stop offset="0.1875" stop-color="#2B4EA4"/>
<stop offset="0.203125" stop-color="#2C4EA4"/>
<stop offset="0.21875" stop-color="#2C4EA4"/>
<stop offset="0.234375" stop-color="#2D4EA5"/>
<stop offset="0.25" stop-color="#2D4EA5"/>
<stop offset="0.265625" stop-color="#2E4DA5"/>
<stop offset="0.28125" stop-color="#2F4DA5"/>
<stop offset="0.296875" stop-color="#2F4DA5"/>
<stop offset="0.3125" stop-color="#304DA5"/>
<stop offset="0.328125" stop-color="#304DA5"/>
<stop offset="0.34375" stop-color="#314DA5"/>
<stop offset="0.359375" stop-color="#324DA5"/>
<stop offset="0.375" stop-color="#324DA5"/>
<stop offset="0.390625" stop-color="#334DA5"/>
<stop offset="0.40625" stop-color="#334DA5"/>
<stop offset="0.421875" stop-color="#344DA5"/>
<stop offset="0.4375" stop-color="#354DA5"/>
<stop offset="0.453125" stop-color="#354DA5"/>
<stop offset="0.46875" stop-color="#364DA5"/>
<stop offset="0.484375" stop-color="#364DA5"/>
<stop offset="0.5" stop-color="#374DA5"/>
<stop offset="0.515625" stop-color="#384DA5"/>
<stop offset="0.53125" stop-color="#384DA5"/>
<stop offset="0.546875" stop-color="#394DA6"/>
<stop offset="0.5625" stop-color="#394DA6"/>
<stop offset="0.578125" stop-color="#3A4DA6"/>
<stop offset="0.59375" stop-color="#3B4DA6"/>
<stop offset="0.609375" stop-color="#3B4DA6"/>
<stop offset="0.625" stop-color="#3C4CA6"/>
<stop offset="0.640625" stop-color="#3C4CA6"/>
<stop offset="0.65625" stop-color="#3D4CA6"/>
<stop offset="0.671875" stop-color="#3E4CA6"/>
<stop offset="0.6875" stop-color="#3E4CA6"/>
<stop offset="0.703125" stop-color="#3F4CA6"/>
<stop offset="0.71875" stop-color="#3F4CA6"/>
<stop offset="0.734375" stop-color="#404CA6"/>
<stop offset="0.75" stop-color="#414CA6"/>
<stop offset="0.765625" stop-color="#414CA6"/>
<stop offset="0.78125" stop-color="#424CA6"/>
<stop offset="0.796875" stop-color="#424CA6"/>
<stop offset="0.8125" stop-color="#434CA6"/>
<stop offset="0.828125" stop-color="#444CA6"/>
<stop offset="0.84375" stop-color="#444CA6"/>
<stop offset="0.859375" stop-color="#454CA6"/>
<stop offset="0.875" stop-color="#454CA7"/>
<stop offset="0.890625" stop-color="#464CA7"/>
<stop offset="0.90625" stop-color="#474CA7"/>
<stop offset="0.921875" stop-color="#474CA7"/>
<stop offset="0.9375" stop-color="#484CA7"/>
<stop offset="0.953125" stop-color="#484CA7"/>
<stop offset="0.96875" stop-color="#494CA7"/>
<stop offset="0.984375" stop-color="#4A4BA7"/>
<stop offset="0.995893" stop-color="#4A4BA7"/>
<stop offset="1" stop-color="#4B4BA7"/>
</linearGradient>
<linearGradient id="paint12_linear_36_4" x1="265.812" y1="-0.250946" x2="263.318" y2="179.204" gradientUnits="userSpaceOnUse">
<stop stop-color="#1C4FA3"/>
<stop offset="0.00355149" stop-color="#1D4FA3"/>
<stop offset="0.015625" stop-color="#1D4FA3"/>
<stop offset="0.03125" stop-color="#1E4FA3"/>
<stop offset="0.046875" stop-color="#1F4FA3"/>
<stop offset="0.0625" stop-color="#1F4FA3"/>
<stop offset="0.078125" stop-color="#204FA4"/>
<stop offset="0.09375" stop-color="#214EA4"/>
<stop offset="0.109375" stop-color="#224EA4"/>
<stop offset="0.125" stop-color="#234EA4"/>
<stop offset="0.140625" stop-color="#244EA4"/>
<stop offset="0.15625" stop-color="#254EA4"/>
<stop offset="0.171875" stop-color="#254EA4"/>
<stop offset="0.1875" stop-color="#264EA4"/>
<stop offset="0.203125" stop-color="#274EA4"/>
<stop offset="0.21875" stop-color="#284EA4"/>
<stop offset="0.234375" stop-color="#294EA4"/>
<stop offset="0.25" stop-color="#2A4EA4"/>
<stop offset="0.265625" stop-color="#2B4EA4"/>
<stop offset="0.28125" stop-color="#2B4EA4"/>
<stop offset="0.296875" stop-color="#2C4EA4"/>
<stop offset="0.3125" stop-color="#2D4EA5"/>
<stop offset="0.328125" stop-color="#2E4EA5"/>
<stop offset="0.34375" stop-color="#2F4DA5"/>
<stop offset="0.359375" stop-color="#304DA5"/>
<stop offset="0.375" stop-color="#314DA5"/>
<stop offset="0.390625" stop-color="#314DA5"/>
<stop offset="0.40625" stop-color="#324DA5"/>
<stop offset="0.421875" stop-color="#334DA5"/>
<stop offset="0.4375" stop-color="#344DA5"/>
<stop offset="0.453125" stop-color="#354DA5"/>
<stop offset="0.46875" stop-color="#364DA5"/>
<stop offset="0.484375" stop-color="#364DA5"/>
<stop offset="0.5" stop-color="#374DA5"/>
<stop offset="0.515625" stop-color="#384DA5"/>
<stop offset="0.53125" stop-color="#394DA6"/>
<stop offset="0.546875" stop-color="#3A4DA6"/>
<stop offset="0.5625" stop-color="#3B4DA6"/>
<stop offset="0.578125" stop-color="#3C4DA6"/>
<stop offset="0.59375" stop-color="#3C4CA6"/>
<stop offset="0.609375" stop-color="#3D4CA6"/>
<stop offset="0.625" stop-color="#3E4CA6"/>
<stop offset="0.640625" stop-color="#3F4CA6"/>
<stop offset="0.65625" stop-color="#404CA6"/>
<stop offset="0.671875" stop-color="#414CA6"/>
<stop offset="0.6875" stop-color="#424CA6"/>
<stop offset="0.703125" stop-color="#424CA6"/>
<stop offset="0.71875" stop-color="#434CA6"/>
<stop offset="0.734375" stop-color="#444CA6"/>
<stop offset="0.75" stop-color="#454CA6"/>
<stop offset="0.765625" stop-color="#464CA7"/>
<stop offset="0.78125" stop-color="#474CA7"/>
<stop offset="0.796875" stop-color="#484CA7"/>
<stop offset="0.8125" stop-color="#484CA7"/>
<stop offset="0.828125" stop-color="#494BA7"/>
<stop offset="0.84375" stop-color="#4A4BA7"/>
<stop offset="0.859375" stop-color="#4B4BA7"/>
<stop offset="0.875" stop-color="#4C4BA7"/>
<stop offset="0.890625" stop-color="#4D4BA7"/>
<stop offset="0.90625" stop-color="#4E4BA7"/>
<stop offset="0.921875" stop-color="#4E4BA7"/>
<stop offset="0.9375" stop-color="#4F4BA7"/>
<stop offset="0.953125" stop-color="#504BA7"/>
<stop offset="0.96875" stop-color="#514BA7"/>
<stop offset="0.984375" stop-color="#524BA8"/>
<stop offset="0.996449" stop-color="#534BA8"/>
<stop offset="1" stop-color="#534BA8"/>
</linearGradient>
<linearGradient id="paint13_linear_36_4" x1="439.231" y1="-0.267175" x2="436.739" y2="179.233" gradientUnits="userSpaceOnUse">
<stop stop-color="#1C4FA3"/>
<stop offset="0.00354787" stop-color="#1C4FA3"/>
<stop offset="0.015625" stop-color="#1D4FA3"/>
<stop offset="0.03125" stop-color="#1D4FA3"/>
<stop offset="0.046875" stop-color="#1E4FA3"/>
<stop offset="0.0625" stop-color="#1F4FA3"/>
<stop offset="0.078125" stop-color="#204FA3"/>
<stop offset="0.09375" stop-color="#204FA4"/>
<stop offset="0.109375" stop-color="#214EA4"/>
<stop offset="0.125" stop-color="#224EA4"/>
<stop offset="0.140625" stop-color="#234EA4"/>
<stop offset="0.15625" stop-color="#244EA4"/>
<stop offset="0.171875" stop-color="#254EA4"/>
<stop offset="0.1875" stop-color="#264EA4"/>
<stop offset="0.203125" stop-color="#264EA4"/>
<stop offset="0.21875" stop-color="#274EA4"/>
<stop offset="0.234375" stop-color="#284EA4"/>
<stop offset="0.25" stop-color="#294EA4"/>
<stop offset="0.265625" stop-color="#2A4EA4"/>
<stop offset="0.28125" stop-color="#2B4EA4"/>
<stop offset="0.296875" stop-color="#2C4EA4"/>
<stop offset="0.3125" stop-color="#2C4EA5"/>
<stop offset="0.328125" stop-color="#2D4EA5"/>
<stop offset="0.34375" stop-color="#2E4DA5"/>
<stop offset="0.359375" stop-color="#2F4DA5"/>
<stop offset="0.375" stop-color="#304DA5"/>
<stop offset="0.390625" stop-color="#314DA5"/>
<stop offset="0.40625" stop-color="#314DA5"/>
<stop offset="0.421875" stop-color="#324DA5"/>
<stop offset="0.4375" stop-color="#334DA5"/>
<stop offset="0.453125" stop-color="#344DA5"/>
<stop offset="0.46875" stop-color="#354DA5"/>
<stop offset="0.484375" stop-color="#364DA5"/>
<stop offset="0.5" stop-color="#374DA5"/>
<stop offset="0.515625" stop-color="#374DA5"/>
<stop offset="0.53125" stop-color="#384DA5"/>
<stop offset="0.546875" stop-color="#394DA6"/>
<stop offset="0.5625" stop-color="#3A4DA6"/>
<stop offset="0.578125" stop-color="#3B4DA6"/>
<stop offset="0.59375" stop-color="#3C4CA6"/>
<stop offset="0.609375" stop-color="#3D4CA6"/>
<stop offset="0.625" stop-color="#3D4CA6"/>
<stop offset="0.640625" stop-color="#3E4CA6"/>
<stop offset="0.65625" stop-color="#3F4CA6"/>
<stop offset="0.671875" stop-color="#404CA6"/>
<stop offset="0.6875" stop-color="#414CA6"/>
<stop offset="0.703125" stop-color="#424CA6"/>
<stop offset="0.71875" stop-color="#434CA6"/>
<stop offset="0.734375" stop-color="#434CA6"/>
<stop offset="0.75" stop-color="#444CA6"/>
<stop offset="0.765625" stop-color="#454CA6"/>
<stop offset="0.78125" stop-color="#464CA7"/>
<stop offset="0.796875" stop-color="#474CA7"/>
<stop offset="0.8125" stop-color="#484CA7"/>
<stop offset="0.828125" stop-color="#494CA7"/>
<stop offset="0.84375" stop-color="#494BA7"/>
<stop offset="0.859375" stop-color="#4A4BA7"/>
<stop offset="0.875" stop-color="#4B4BA7"/>
<stop offset="0.890625" stop-color="#4C4BA7"/>
<stop offset="0.90625" stop-color="#4D4BA7"/>
<stop offset="0.921875" stop-color="#4E4BA7"/>
<stop offset="0.9375" stop-color="#4E4BA7"/>
<stop offset="0.953125" stop-color="#4F4BA7"/>
<stop offset="0.96875" stop-color="#504BA7"/>
<stop offset="0.984375" stop-color="#514BA7"/>
<stop offset="0.996452" stop-color="#524BA8"/>
<stop offset="1" stop-color="#524BA8"/>
</linearGradient>
</defs>
</svg>
