<svg width="452" height="431" viewBox="0 0 452 431" fill="none" xmlns="http://www.w3.org/2000/svg">
<mask id="mask0_2_195" style="mask-type:luminance" maskUnits="userSpaceOnUse" x="0" y="0" width="452" height="431">
<path d="M0.390625 0.333252H451.333V430.646H0.390625V0.333252Z" fill="white"/>
</mask>
<g mask="url(#mask0_2_195)">
<mask id="mask1_2_195" style="mask-type:luminance" maskUnits="userSpaceOnUse" x="0" y="0" width="452" height="430">
<path fill-rule="evenodd" clip-rule="evenodd" d="M8.18221 295.729H443.297V8.34375H8.18221V295.729ZM225.307 85.6719C223.255 85.6719 221.578 87.349 221.578 89.4062C221.578 91.4635 223.255 93.1406 225.307 93.1406C227.365 93.1406 229.036 91.4688 229.036 89.4062C229.036 87.349 227.365 85.6719 225.307 85.6719ZM225.307 101.062C218.891 101.062 213.667 95.8333 213.667 89.4062C213.667 84.3854 216.854 80.099 221.307 78.4635V45.0729C216.833 43.4479 213.625 39.151 213.625 34.1146C213.625 27.6875 218.849 22.4583 225.266 22.4583C231.682 22.4583 236.906 27.6875 236.906 34.1146C236.906 39.151 233.698 43.4479 229.219 45.0729V78.4323C233.719 80.0469 236.948 84.3542 236.948 89.4062C236.948 95.8333 231.724 101.062 225.307 101.062ZM225.266 30.375C223.203 30.375 221.536 32.0521 221.536 34.1146C221.536 36.1719 223.203 37.849 225.266 37.849C227.328 37.849 228.995 36.1719 228.995 34.1146C228.995 32.0521 227.323 30.3802 225.266 30.375ZM225.307 253.526C223.255 253.526 221.578 255.203 221.578 257.26C221.578 259.318 223.255 260.995 225.307 260.995C227.365 260.995 229.036 259.318 229.036 257.26C229.036 255.203 227.365 253.526 225.307 253.526ZM225.307 268.911C218.891 268.911 213.667 263.688 213.667 257.26C213.667 252.24 216.854 247.953 221.307 246.318V212.927C216.833 211.302 213.625 207.005 213.625 201.969C213.625 195.542 218.849 190.312 225.266 190.312C231.682 190.312 236.906 195.542 236.906 201.969C236.906 207.005 233.698 211.302 229.219 212.927V246.286C233.719 247.901 236.948 252.208 236.948 257.26C236.948 263.688 231.724 268.917 225.307 268.911ZM225.266 198.234C223.203 198.234 221.536 199.906 221.536 201.969C221.536 204.026 223.203 205.703 225.266 205.703C227.328 205.698 228.995 204.026 228.995 201.969C228.995 199.906 227.323 198.234 225.266 198.234ZM313.818 140.286C311.771 140.286 310.088 141.964 310.088 144.021C310.088 146.078 311.766 147.755 313.818 147.755C315.812 147.755 317.437 146.188 317.542 144.224C317.536 144.156 317.536 144.089 317.536 144.021C317.536 143.953 317.536 143.885 317.542 143.818C317.437 141.849 315.807 140.286 313.818 140.286ZM313.818 155.672C307.401 155.672 302.177 150.443 302.177 144.021C302.177 137.594 307.401 132.365 313.818 132.365C318.849 132.365 323.141 135.578 324.766 140.057H396.318C397.937 135.578 402.234 132.365 407.266 132.365C413.682 132.365 418.901 137.594 418.901 144.021C418.901 150.443 413.682 155.672 407.266 155.672C402.234 155.672 397.937 152.464 396.318 147.979H324.766C323.141 152.464 318.849 155.672 313.818 155.672ZM407.266 140.286C405.203 140.286 403.536 141.964 403.536 144.021C403.536 146.078 405.203 147.755 407.266 147.755C409.312 147.755 410.99 146.078 410.99 144.021C410.99 141.958 409.312 140.286 407.266 140.286ZM40.8437 140.286C38.7864 140.286 37.1041 141.964 37.1041 144.021C37.1041 146.078 38.7864 147.755 40.8437 147.755C42.802 147.755 44.4166 146.229 44.5624 144.302C44.5572 144.208 44.552 144.115 44.552 144.021C44.552 143.927 44.5572 143.828 44.5624 143.74C44.4166 141.807 42.802 140.286 40.8437 140.286ZM40.8437 155.672C34.4166 155.672 29.1926 150.443 29.1926 144.021C29.1978 137.594 34.4166 132.365 40.8437 132.365C45.8749 132.365 50.1718 135.578 51.7916 140.057H123.333C124.958 135.578 129.25 132.365 134.281 132.365C140.698 132.365 145.922 137.594 145.922 144.021C145.922 150.443 140.698 155.672 134.281 155.672C129.25 155.672 124.958 152.464 123.333 147.979H51.7916C50.1718 152.464 45.8749 155.672 40.8437 155.672ZM134.281 140.286C132.219 140.286 130.552 141.964 130.552 144.021C130.552 146.078 132.219 147.755 134.281 147.755C136.344 147.755 138.01 146.078 138.01 144.021C138.01 141.958 136.338 140.286 134.281 140.286ZM291.219 106.745C289.167 106.745 287.49 108.422 287.49 110.479C287.49 112.536 289.167 114.214 291.219 114.214C293.276 114.214 294.948 112.536 294.948 110.479C294.948 108.422 293.276 106.745 291.219 106.745ZM291.219 122.13C284.802 122.13 279.578 116.906 279.578 110.479C279.578 105.443 282.786 101.146 287.26 99.5208L287.266 57.349C287.266 55.1615 289.036 53.3906 291.219 53.3906H352.62C354.245 48.9062 358.536 45.6979 363.568 45.6979C369.995 45.6927 375.219 50.9219 375.219 57.349C375.219 63.776 369.995 69 363.568 69C358.542 69 354.245 65.7917 352.62 61.3073H295.172V99.5208C299.651 101.146 302.859 105.443 302.859 110.479C302.859 116.906 297.635 122.135 291.219 122.13ZM363.568 53.6146C361.521 53.6146 359.838 55.2917 359.838 57.349C359.838 59.4063 361.521 61.0833 363.568 61.0833C365.63 61.0833 367.307 59.4063 367.307 57.349C367.307 55.2865 365.63 53.6146 363.568 53.6146ZM281 189.859C278.943 189.859 277.26 191.536 277.26 193.594C277.26 195.641 278.922 197.307 280.963 197.328H281.036C283.068 197.307 284.729 195.641 284.729 193.594C284.729 191.536 283.052 189.859 281 189.859ZM277.047 204.557C272.562 202.932 269.359 198.63 269.359 193.594C269.359 187.167 274.573 181.943 281 181.943C287.417 181.938 292.641 187.172 292.641 193.594C292.641 198.63 289.432 202.927 284.953 204.552L284.958 242.766H342.406C344.026 238.281 348.323 235.073 353.349 235.073C359.766 235.068 364.99 240.302 364.99 246.724C364.99 253.151 359.766 258.38 353.349 258.375C348.323 258.375 344.026 255.167 342.401 250.688H281C278.818 250.688 277.047 248.911 277.047 246.724V204.557ZM353.349 242.99C351.292 242.99 349.62 244.667 349.62 246.724C349.62 248.781 351.292 250.458 353.349 250.458C355.411 250.458 357.078 248.786 357.078 246.724C357.078 244.661 355.411 242.99 353.349 242.99ZM166.266 187.375C164.203 187.375 162.536 189.052 162.536 191.115C162.536 193.151 164.177 194.818 166.213 194.849L166.266 194.844L166.312 194.849C168.338 194.818 169.99 193.156 169.99 191.115C169.995 189.052 168.312 187.38 166.266 187.375ZM162.307 202.073C157.828 200.453 154.625 196.151 154.625 191.115C154.625 184.688 159.833 179.458 166.266 179.458C172.682 179.458 177.901 184.688 177.901 191.115C177.901 196.151 174.698 200.448 170.219 202.073V244.24C170.219 246.432 168.448 248.203 166.266 248.203H104.849C103.229 252.688 98.9322 255.896 93.901 255.896C87.4843 255.896 82.2655 250.672 82.2655 244.245C82.2655 237.818 87.4843 232.589 93.901 232.589C98.9322 232.589 103.224 235.802 104.849 240.281H162.307V202.073ZM93.901 240.51C91.8541 240.51 90.1718 242.182 90.1718 244.245C90.177 246.302 91.8541 247.979 93.901 247.979C95.9635 247.974 97.6301 246.302 97.6301 244.245C97.6301 242.182 95.9635 240.51 93.901 240.51ZM181.333 136.51C171.323 136.51 163.172 144.672 163.172 154.703C163.172 164.729 171.323 172.891 181.333 172.891H269.234C279.25 172.891 287.406 164.729 287.406 154.703C287.406 145.271 280.052 137.307 270.677 136.573C268.672 136.411 267.094 134.766 267.031 132.75C266.724 122.88 258.74 115.151 248.875 115.151C242.682 115.146 236.963 118.266 233.599 123.49C232.875 124.62 231.62 125.302 230.281 125.302C228.932 125.302 227.682 124.62 226.953 123.49C223.588 118.266 217.88 115.151 211.677 115.151C201.667 115.146 193.521 123.307 193.521 133.339C193.521 133.557 193.521 133.781 193.526 134C193.573 135.339 192.943 136.615 191.849 137.38C190.76 138.151 189.349 138.318 188.099 137.818C185.948 136.953 183.672 136.516 181.333 136.51ZM269.234 180.807H181.333C166.953 180.807 155.26 169.099 155.26 154.703C155.26 140.307 166.953 128.594 181.333 128.594C182.901 128.594 184.443 128.729 185.958 129.005C188.026 116.661 198.771 107.229 211.677 107.229C218.776 107.229 225.427 110.078 230.281 115.031C235.13 110.073 241.776 107.229 248.875 107.229C261.901 107.229 272.635 116.62 274.625 129.156C286.458 131.667 295.318 142.302 295.318 154.703C295.318 169.094 283.615 180.807 269.234 180.807ZM166.266 106.745C164.203 106.745 162.536 108.422 162.536 110.479C162.536 112.536 164.203 114.214 166.266 114.214C168.312 114.214 169.99 112.536 169.99 110.479C169.995 108.422 168.312 106.745 166.266 106.745ZM166.266 122.13C159.838 122.13 154.625 116.906 154.625 110.479C154.625 105.443 157.828 101.141 162.307 99.5156V61.3073H104.849C103.229 65.7917 98.9322 69 93.901 69C87.4843 69 82.2655 63.776 82.2655 57.349C82.2655 50.9219 87.4843 45.6927 93.901 45.6927C98.9322 45.6927 103.229 48.9062 104.849 53.3906H166.266C168.448 53.3906 170.219 55.1615 170.219 57.349V99.5208C174.693 101.141 177.901 105.443 177.901 110.479C177.906 116.906 172.682 122.135 166.266 122.13ZM93.901 53.6146C91.8541 53.6146 90.1718 55.2917 90.1718 57.349C90.177 59.4063 91.8541 61.0833 93.901 61.0833C95.9635 61.0833 97.6301 59.4063 97.6301 57.349C97.6301 55.2865 95.9635 53.6146 93.901 53.6146ZM225.74 429.854C171.463 429.854 128.953 408.276 128.953 380.729C128.958 357.995 158.505 338.693 201.255 333.161V303.646H4.22909C2.04159 303.646 0.270752 301.875 0.270752 299.688V4.38021C0.270752 2.19271 2.04159 0.421875 4.22909 0.421875H447.25C449.432 0.421875 451.203 2.19271 451.203 4.38021V299.688C451.203 301.875 449.432 303.646 447.25 303.646H250.234V333.156C292.984 338.688 322.521 357.995 322.521 380.729C322.521 408.276 280.01 429.854 225.74 429.854ZM201.255 341.151C163.687 346.24 136.865 362.557 136.865 380.729C136.865 403.062 177.562 421.938 225.74 421.938C273.911 421.932 314.609 403.068 314.609 380.729C314.609 362.557 287.802 346.245 250.234 341.151V381.281C250.234 383.469 248.458 385.245 246.276 385.24H205.208C203.016 385.24 201.255 383.469 201.255 381.281V341.151ZM242.323 336.849C242.318 336.734 242.318 336.62 242.323 336.505V303.646H209.167V377.323H242.323V336.849Z" fill="white"/>
</mask>
<g mask="url(#mask1_2_195)">
<path d="M0.390625 0.421875V429.854H451.203V0.421875H0.390625Z" fill="url(#paint0_linear_2_195)"/>
</g>
</g>
<defs>
<linearGradient id="paint0_linear_2_195" x1="-42.1735" y1="117.591" x2="493.899" y2="312.323" gradientUnits="userSpaceOnUse">
<stop stop-color="#F4505D"/>
<stop offset="0.03125" stop-color="#F4505D"/>
<stop offset="0.0351562" stop-color="#F3505F"/>
<stop offset="0.0390625" stop-color="#F35160"/>
<stop offset="0.0429688" stop-color="#F35161"/>
<stop offset="0.046875" stop-color="#F25162"/>
<stop offset="0.0507812" stop-color="#F25263"/>
<stop offset="0.0546875" stop-color="#F15265"/>
<stop offset="0.0585937" stop-color="#F15266"/>
<stop offset="0.0625" stop-color="#F05267"/>
<stop offset="0.0664062" stop-color="#F05368"/>
<stop offset="0.0703125" stop-color="#EF5369"/>
<stop offset="0.0742187" stop-color="#EF536B"/>
<stop offset="0.078125" stop-color="#EE546C"/>
<stop offset="0.0820312" stop-color="#EE546D"/>
<stop offset="0.0859375" stop-color="#EE546E"/>
<stop offset="0.0898438" stop-color="#ED556F"/>
<stop offset="0.09375" stop-color="#ED5571"/>
<stop offset="0.0976562" stop-color="#EC5572"/>
<stop offset="0.101562" stop-color="#EC5573"/>
<stop offset="0.105469" stop-color="#EB5674"/>
<stop offset="0.109375" stop-color="#EB5675"/>
<stop offset="0.113281" stop-color="#EA5677"/>
<stop offset="0.117187" stop-color="#EA5778"/>
<stop offset="0.121094" stop-color="#EA5779"/>
<stop offset="0.125" stop-color="#E9577A"/>
<stop offset="0.128906" stop-color="#E9577B"/>
<stop offset="0.132812" stop-color="#E8587C"/>
<stop offset="0.136719" stop-color="#E8587E"/>
<stop offset="0.140625" stop-color="#E7587F"/>
<stop offset="0.144531" stop-color="#E75980"/>
<stop offset="0.148437" stop-color="#E65981"/>
<stop offset="0.152344" stop-color="#E65982"/>
<stop offset="0.15625" stop-color="#E65984"/>
<stop offset="0.160156" stop-color="#E55A85"/>
<stop offset="0.164062" stop-color="#E55A86"/>
<stop offset="0.167969" stop-color="#E45A87"/>
<stop offset="0.171875" stop-color="#E45B88"/>
<stop offset="0.175781" stop-color="#E35B8A"/>
<stop offset="0.179687" stop-color="#E35B8B"/>
<stop offset="0.183594" stop-color="#E25B8C"/>
<stop offset="0.1875" stop-color="#E25C8D"/>
<stop offset="0.191406" stop-color="#E25C8E"/>
<stop offset="0.195312" stop-color="#E15C90"/>
<stop offset="0.199219" stop-color="#E15D91"/>
<stop offset="0.203125" stop-color="#E05D92"/>
<stop offset="0.207031" stop-color="#E05D93"/>
<stop offset="0.210937" stop-color="#DF5D94"/>
<stop offset="0.214844" stop-color="#DF5E95"/>
<stop offset="0.21875" stop-color="#DE5E97"/>
<stop offset="0.222656" stop-color="#DE5E98"/>
<stop offset="0.226562" stop-color="#DD5F99"/>
<stop offset="0.230469" stop-color="#DD5F9A"/>
<stop offset="0.234375" stop-color="#DD5F9B"/>
<stop offset="0.238281" stop-color="#DC5F9D"/>
<stop offset="0.242187" stop-color="#DC609E"/>
<stop offset="0.246094" stop-color="#DB609F"/>
<stop offset="0.25" stop-color="#DB60A0"/>
<stop offset="0.253906" stop-color="#DA61A1"/>
<stop offset="0.257812" stop-color="#DA61A3"/>
<stop offset="0.261719" stop-color="#D961A4"/>
<stop offset="0.265625" stop-color="#D962A5"/>
<stop offset="0.269531" stop-color="#D962A6"/>
<stop offset="0.273437" stop-color="#D862A7"/>
<stop offset="0.277344" stop-color="#D862A8"/>
<stop offset="0.28125" stop-color="#D763AA"/>
<stop offset="0.285156" stop-color="#D763AB"/>
<stop offset="0.289063" stop-color="#D663AC"/>
<stop offset="0.292969" stop-color="#D664AD"/>
<stop offset="0.296875" stop-color="#D564AE"/>
<stop offset="0.300781" stop-color="#D564B0"/>
<stop offset="0.304688" stop-color="#D564B1"/>
<stop offset="0.308594" stop-color="#D465B2"/>
<stop offset="0.3125" stop-color="#D465B3"/>
<stop offset="0.316406" stop-color="#D365B4"/>
<stop offset="0.320312" stop-color="#D366B6"/>
<stop offset="0.324219" stop-color="#D266B7"/>
<stop offset="0.328125" stop-color="#D266B8"/>
<stop offset="0.332031" stop-color="#D166B9"/>
<stop offset="0.335937" stop-color="#D167BA"/>
<stop offset="0.339844" stop-color="#D167BC"/>
<stop offset="0.34375" stop-color="#D067BD"/>
<stop offset="0.347656" stop-color="#D068BE"/>
<stop offset="0.351562" stop-color="#CF68BF"/>
<stop offset="0.355469" stop-color="#CF68C0"/>
<stop offset="0.359375" stop-color="#CE68C1"/>
<stop offset="0.363281" stop-color="#CE69C3"/>
<stop offset="0.367188" stop-color="#CD69C4"/>
<stop offset="0.371094" stop-color="#CD69C5"/>
<stop offset="0.375" stop-color="#CC6AC6"/>
<stop offset="0.378906" stop-color="#CC6AC7"/>
<stop offset="0.382812" stop-color="#CC6AC9"/>
<stop offset="0.386719" stop-color="#CB6ACA"/>
<stop offset="0.390625" stop-color="#CB6BCB"/>
<stop offset="0.394531" stop-color="#CA6BCC"/>
<stop offset="0.398437" stop-color="#CA6BCD"/>
<stop offset="0.402344" stop-color="#C96CCF"/>
<stop offset="0.40625" stop-color="#C96CD0"/>
<stop offset="0.410156" stop-color="#C86CD1"/>
<stop offset="0.414062" stop-color="#C86DD2"/>
<stop offset="0.417969" stop-color="#C86DD3"/>
<stop offset="0.421875" stop-color="#C76DD5"/>
<stop offset="0.425781" stop-color="#C76DD6"/>
<stop offset="0.429688" stop-color="#C66ED7"/>
<stop offset="0.433594" stop-color="#C66ED8"/>
<stop offset="0.4375" stop-color="#C56ED9"/>
<stop offset="0.441406" stop-color="#C56FDA"/>
<stop offset="0.445312" stop-color="#C46FDC"/>
<stop offset="0.449219" stop-color="#C46FDD"/>
<stop offset="0.453125" stop-color="#C46FDE"/>
<stop offset="0.457031" stop-color="#C370DF"/>
<stop offset="0.460937" stop-color="#C370E0"/>
<stop offset="0.464844" stop-color="#C270E2"/>
<stop offset="0.46875" stop-color="#C271E3"/>
<stop offset="0.472656" stop-color="#C171E4"/>
<stop offset="0.476563" stop-color="#C171E5"/>
<stop offset="0.480469" stop-color="#C071E6"/>
<stop offset="0.484375" stop-color="#C072E8"/>
<stop offset="0.488281" stop-color="#C072E9"/>
<stop offset="0.492188" stop-color="#BF72EA"/>
<stop offset="0.496094" stop-color="#BF73EB"/>
<stop offset="0.5" stop-color="#BE73EC"/>
<stop offset="0.503906" stop-color="#BD73ED"/>
<stop offset="0.507813" stop-color="#BC74ED"/>
<stop offset="0.511719" stop-color="#BA75ED"/>
<stop offset="0.515625" stop-color="#B975ED"/>
<stop offset="0.519531" stop-color="#B876ED"/>
<stop offset="0.523438" stop-color="#B677ED"/>
<stop offset="0.527344" stop-color="#B577ED"/>
<stop offset="0.53125" stop-color="#B378ED"/>
<stop offset="0.535156" stop-color="#B278ED"/>
<stop offset="0.539062" stop-color="#B179ED"/>
<stop offset="0.542969" stop-color="#AF7AED"/>
<stop offset="0.546875" stop-color="#AE7AED"/>
<stop offset="0.550781" stop-color="#AC7BEC"/>
<stop offset="0.554688" stop-color="#AB7CEC"/>
<stop offset="0.558594" stop-color="#A97CEC"/>
<stop offset="0.5625" stop-color="#A87DEC"/>
<stop offset="0.566406" stop-color="#A77EEC"/>
<stop offset="0.570312" stop-color="#A57EEC"/>
<stop offset="0.574219" stop-color="#A47FEC"/>
<stop offset="0.578125" stop-color="#A280EC"/>
<stop offset="0.582031" stop-color="#A180EC"/>
<stop offset="0.585937" stop-color="#A081EC"/>
<stop offset="0.589844" stop-color="#9E81EC"/>
<stop offset="0.59375" stop-color="#9D82EC"/>
<stop offset="0.597656" stop-color="#9B83EC"/>
<stop offset="0.601563" stop-color="#9A83EC"/>
<stop offset="0.605469" stop-color="#9984EC"/>
<stop offset="0.609375" stop-color="#9785EC"/>
<stop offset="0.613281" stop-color="#9685EC"/>
<stop offset="0.617188" stop-color="#9486EC"/>
<stop offset="0.621094" stop-color="#9387EC"/>
<stop offset="0.625" stop-color="#9187EC"/>
<stop offset="0.628906" stop-color="#9088EC"/>
<stop offset="0.632813" stop-color="#8F89EC"/>
<stop offset="0.636719" stop-color="#8D89EC"/>
<stop offset="0.640625" stop-color="#8C8AEC"/>
<stop offset="0.644531" stop-color="#8A8AEC"/>
<stop offset="0.648438" stop-color="#898BEC"/>
<stop offset="0.652344" stop-color="#888CEC"/>
<stop offset="0.65625" stop-color="#868CEC"/>
<stop offset="0.660156" stop-color="#858DEC"/>
<stop offset="0.664062" stop-color="#838EEC"/>
<stop offset="0.667969" stop-color="#828EEC"/>
<stop offset="0.671875" stop-color="#818FEC"/>
<stop offset="0.675781" stop-color="#7F90EB"/>
<stop offset="0.679688" stop-color="#7E90EB"/>
<stop offset="0.683594" stop-color="#7C91EB"/>
<stop offset="0.6875" stop-color="#7B92EB"/>
<stop offset="0.691406" stop-color="#7A92EB"/>
<stop offset="0.695313" stop-color="#7893EB"/>
<stop offset="0.699219" stop-color="#7793EB"/>
<stop offset="0.703125" stop-color="#7594EB"/>
<stop offset="0.707031" stop-color="#7495EB"/>
<stop offset="0.710938" stop-color="#7295EB"/>
<stop offset="0.714844" stop-color="#7196EB"/>
<stop offset="0.71875" stop-color="#7097EB"/>
<stop offset="0.722656" stop-color="#6E97EB"/>
<stop offset="0.726563" stop-color="#6D98EB"/>
<stop offset="0.730469" stop-color="#6B99EB"/>
<stop offset="0.734375" stop-color="#6A99EB"/>
<stop offset="0.738281" stop-color="#699AEB"/>
<stop offset="0.742188" stop-color="#679BEB"/>
<stop offset="0.746094" stop-color="#669BEB"/>
<stop offset="0.75" stop-color="#649CEB"/>
<stop offset="0.753906" stop-color="#639CEB"/>
<stop offset="0.757812" stop-color="#629DEB"/>
<stop offset="0.761719" stop-color="#609EEB"/>
<stop offset="0.765625" stop-color="#5F9EEB"/>
<stop offset="0.769531" stop-color="#5D9FEB"/>
<stop offset="0.773438" stop-color="#5CA0EB"/>
<stop offset="0.777344" stop-color="#5AA0EB"/>
<stop offset="0.78125" stop-color="#59A1EB"/>
<stop offset="0.785156" stop-color="#58A2EB"/>
<stop offset="0.789062" stop-color="#56A2EB"/>
<stop offset="0.792969" stop-color="#55A3EB"/>
<stop offset="0.796875" stop-color="#53A4EA"/>
<stop offset="0.800781" stop-color="#52A4EA"/>
<stop offset="0.804688" stop-color="#51A5EA"/>
<stop offset="0.808594" stop-color="#4FA5EA"/>
<stop offset="0.8125" stop-color="#4EA6EA"/>
<stop offset="0.816406" stop-color="#4CA7EA"/>
<stop offset="0.820313" stop-color="#4BA7EA"/>
<stop offset="0.824219" stop-color="#4AA8EA"/>
<stop offset="0.828125" stop-color="#48A9EA"/>
<stop offset="0.832031" stop-color="#47A9EA"/>
<stop offset="0.835938" stop-color="#45AAEA"/>
<stop offset="0.839844" stop-color="#44ABEA"/>
<stop offset="0.84375" stop-color="#42ABEA"/>
<stop offset="0.847656" stop-color="#41ACEA"/>
<stop offset="0.851563" stop-color="#40ADEA"/>
<stop offset="0.855469" stop-color="#3EADEA"/>
<stop offset="0.859375" stop-color="#3DAEEA"/>
<stop offset="0.863281" stop-color="#3BAEEA"/>
<stop offset="0.867188" stop-color="#3AAFEA"/>
<stop offset="0.871094" stop-color="#39B0EA"/>
<stop offset="0.875" stop-color="#37B0EA"/>
<stop offset="0.878906" stop-color="#36B1EA"/>
<stop offset="0.882812" stop-color="#34B2EA"/>
<stop offset="0.886719" stop-color="#33B2EA"/>
<stop offset="0.890625" stop-color="#32B3EA"/>
<stop offset="0.894531" stop-color="#30B4EA"/>
<stop offset="0.898438" stop-color="#2FB4EA"/>
<stop offset="0.902344" stop-color="#2DB5EA"/>
<stop offset="0.90625" stop-color="#2CB6EA"/>
<stop offset="0.910156" stop-color="#2BB6EA"/>
<stop offset="0.914062" stop-color="#29B7EA"/>
<stop offset="0.917969" stop-color="#28B7E9"/>
<stop offset="0.921875" stop-color="#26B8E9"/>
<stop offset="0.925781" stop-color="#25B9E9"/>
<stop offset="0.929687" stop-color="#23B9E9"/>
<stop offset="0.933594" stop-color="#22BAE9"/>
<stop offset="0.9375" stop-color="#21BBE9"/>
<stop offset="0.941406" stop-color="#1FBBE9"/>
<stop offset="0.945313" stop-color="#1EBCE9"/>
<stop offset="0.949219" stop-color="#1CBDE9"/>
<stop offset="0.953125" stop-color="#1BBDE9"/>
<stop offset="0.957031" stop-color="#1ABEE9"/>
<stop offset="0.960938" stop-color="#18BFE9"/>
<stop offset="0.964844" stop-color="#17BFE9"/>
<stop offset="0.96875" stop-color="#15C0E9"/>
<stop offset="1" stop-color="#15C0E9"/>
</linearGradient>
</defs>
</svg>
