<svg width="674" height="216" viewBox="0 0 674 216" fill="none" xmlns="http://www.w3.org/2000/svg">
<mask id="mask0_15_5" style="mask-type:luminance" maskUnits="userSpaceOnUse" x="0" y="0" width="33" height="32">
<path d="M0.536377 0H32.9999V32H0.536377V0Z" fill="white"/>
</mask>
<g mask="url(#mask0_15_5)">
<path d="M32.2342 16.099C32.2342 17.1354 32.13 18.1667 31.9269 19.1875C31.729 20.2031 31.4269 21.1979 31.0259 22.1562C30.63 23.1146 30.1405 24.026 29.5675 24.8906C28.9894 25.7552 28.3332 26.5573 27.5988 27.2917C26.8592 28.026 26.0623 28.6823 25.1978 29.2604C24.3332 29.8385 23.4217 30.3229 22.4582 30.724C21.4998 31.1198 20.5103 31.4219 19.4894 31.625C18.4738 31.8281 17.4425 31.9271 16.4009 31.9271C15.3644 31.9271 14.3332 31.8281 13.3123 31.625C12.2967 31.4219 11.3071 31.1198 10.3436 30.724C9.38525 30.3229 8.4738 29.8385 7.60921 29.2604C6.74463 28.6823 5.94255 28.026 5.20817 27.2917C4.4738 26.5573 3.81754 25.7552 3.23942 24.8906C2.6613 24.026 2.17692 23.1146 1.77588 22.1562C1.38005 21.1979 1.07796 20.2031 0.874837 19.1875C0.671712 18.1667 0.572754 17.1354 0.572754 16.099C0.572754 15.0573 0.671712 14.026 0.874837 13.0104C1.07796 11.9896 1.38005 11 1.77588 10.0417C2.17692 9.07813 2.6613 8.16667 3.23942 7.30208C3.81754 6.4375 4.4738 5.64063 5.20817 4.90104C5.94255 4.16667 6.74463 3.51042 7.60921 2.93229C8.4738 2.35937 9.38525 1.86979 10.3436 1.47396C11.3071 1.07292 12.2967 0.776041 13.3123 0.572917C14.3332 0.369791 15.3644 0.265625 16.4009 0.265625C17.4425 0.265625 18.4738 0.369791 19.4894 0.572917C20.5103 0.776041 21.4998 1.07292 22.4582 1.47396C23.4217 1.86979 24.3332 2.35937 25.1978 2.93229C26.0623 3.51042 26.8592 4.16667 27.5988 4.90104C28.3332 5.64063 28.9894 6.4375 29.5675 7.30208C30.1405 8.16667 30.63 9.07813 31.0259 10.0417C31.4269 11 31.729 11.9896 31.9269 13.0104C32.13 14.026 32.2342 15.0573 32.2342 16.099Z" fill="#A2E9F6"/>
</g>
<path d="M123.849 16.099C123.849 17.1354 123.745 18.1667 123.542 19.1875C123.339 20.2031 123.042 21.1979 122.641 22.1562C122.245 23.1146 121.755 24.026 121.182 24.8906C120.604 25.7552 119.948 26.5573 119.214 27.2917C118.474 28.026 117.677 28.6823 116.812 29.2604C115.948 29.8385 115.036 30.3229 114.073 30.724C113.115 31.1198 112.125 31.4219 111.104 31.625C110.089 31.8281 109.057 31.9271 108.016 31.9271C106.979 31.9271 105.948 31.8281 104.927 31.625C103.911 31.4219 102.917 31.1198 101.958 30.724C101 30.3229 100.089 29.8385 99.224 29.2604C98.3594 28.6823 97.5573 28.026 96.8229 27.2917C96.0885 26.5573 95.4323 25.7552 94.8542 24.8906C94.276 24.026 93.7865 23.1146 93.3906 22.1562C92.9948 21.1979 92.6927 20.2031 92.4896 19.1875C92.2865 18.1667 92.1875 17.1354 92.1875 16.099C92.1875 15.0573 92.2865 14.026 92.4896 13.0104C92.6927 11.9896 92.9948 11 93.3906 10.0417C93.7865 9.07813 94.276 8.16667 94.8542 7.30208C95.4323 6.4375 96.0885 5.64063 96.8229 4.90104C97.5573 4.16667 98.3594 3.51042 99.224 2.93229C100.089 2.35937 101 1.86979 101.958 1.47396C102.917 1.07292 103.911 0.776041 104.927 0.572917C105.948 0.369791 106.979 0.265625 108.016 0.265625C109.057 0.265625 110.089 0.369791 111.104 0.572917C112.125 0.776041 113.115 1.07292 114.073 1.47396C115.036 1.86979 115.948 2.35937 116.812 2.93229C117.677 3.51042 118.474 4.16667 119.214 4.90104C119.948 5.64063 120.604 6.4375 121.182 7.30208C121.755 8.16667 122.245 9.07813 122.641 10.0417C123.042 11 123.339 11.9896 123.542 13.0104C123.745 14.026 123.849 15.0573 123.849 16.099Z" fill="#A2E9F6"/>
<path d="M215.463 16.099C215.463 17.1354 215.359 18.1667 215.156 19.1875C214.953 20.2031 214.656 21.1979 214.255 22.1562C213.859 23.1146 213.37 24.026 212.797 24.8906C212.219 25.7552 211.562 26.5573 210.828 27.2917C210.088 28.026 209.292 28.6823 208.427 29.2604C207.562 29.8385 206.651 30.3229 205.687 30.724C204.729 31.1198 203.74 31.4219 202.719 31.625C201.703 31.8281 200.672 31.9271 199.63 31.9271C198.594 31.9271 197.562 31.8281 196.542 31.625C195.526 31.4219 194.531 31.1198 193.573 30.724C192.615 30.3229 191.703 29.8385 190.838 29.2604C189.974 28.6823 189.172 28.026 188.437 27.2917C187.703 26.5573 187.047 25.7552 186.469 24.8906C185.891 24.026 185.401 23.1146 185.005 22.1562C184.609 21.1979 184.307 20.2031 184.104 19.1875C183.901 18.1667 183.802 17.1354 183.802 16.099C183.802 15.0573 183.901 14.026 184.104 13.0104C184.307 11.9896 184.609 11 185.005 10.0417C185.401 9.07813 185.891 8.16667 186.469 7.30208C187.047 6.4375 187.703 5.64063 188.437 4.90104C189.172 4.16667 189.974 3.51042 190.838 2.93229C191.703 2.35937 192.615 1.86979 193.573 1.47396C194.531 1.07292 195.526 0.776041 196.542 0.572917C197.562 0.369791 198.594 0.265625 199.63 0.265625C200.672 0.265625 201.703 0.369791 202.719 0.572917C203.74 0.776041 204.729 1.07292 205.687 1.47396C206.651 1.86979 207.562 2.35937 208.427 2.93229C209.292 3.51042 210.088 4.16667 210.828 4.90104C211.562 5.64063 212.219 6.4375 212.797 7.30208C213.37 8.16667 213.859 9.07813 214.255 10.0417C214.656 11 214.953 11.9896 215.156 13.0104C215.359 14.026 215.463 15.0573 215.463 16.099Z" fill="#A2E9F6"/>
<path d="M307.078 16.099C307.078 17.1354 306.974 18.1667 306.771 19.1875C306.568 20.2031 306.271 21.1979 305.87 22.1562C305.474 23.1146 304.984 24.026 304.412 24.8906C303.833 25.7552 303.177 26.5573 302.443 27.2917C301.703 28.026 300.906 28.6823 300.042 29.2604C299.177 29.8385 298.266 30.3229 297.302 30.724C296.344 31.1198 295.354 31.4219 294.333 31.625C293.313 31.8281 292.287 31.9271 291.245 31.9271C290.208 31.9271 289.177 31.8281 288.156 31.625C287.141 31.4219 286.146 31.1198 285.188 30.724C284.229 30.3229 283.318 29.8385 282.453 29.2604C281.589 28.6823 280.787 28.026 280.052 27.2917C279.318 26.5573 278.662 25.7552 278.083 24.8906C277.505 24.026 277.016 23.1146 276.62 22.1562C276.224 21.1979 275.922 20.2031 275.719 19.1875C275.516 18.1667 275.417 17.1354 275.417 16.099C275.417 15.0573 275.516 14.026 275.719 13.0104C275.922 11.9896 276.224 11 276.62 10.0417C277.016 9.07813 277.505 8.16667 278.083 7.30208C278.662 6.4375 279.318 5.64063 280.052 4.90104C280.787 4.16667 281.589 3.51042 282.453 2.93229C283.318 2.35937 284.229 1.86979 285.188 1.47396C286.146 1.07292 287.141 0.776041 288.156 0.572917C289.177 0.369791 290.208 0.265625 291.245 0.265625C292.287 0.265625 293.313 0.369791 294.333 0.572917C295.354 0.776041 296.344 1.07292 297.302 1.47396C298.266 1.86979 299.177 2.35937 300.042 2.93229C300.906 3.51042 301.703 4.16667 302.443 4.90104C303.177 5.64063 303.833 6.4375 304.412 7.30208C304.984 8.16667 305.474 9.07813 305.87 10.0417C306.271 11 306.568 11.9896 306.771 13.0104C306.974 14.026 307.078 15.0573 307.078 16.099Z" fill="#A2E9F6"/>
<path d="M398.693 16.099C398.693 17.1354 398.589 18.1667 398.385 19.1875C398.182 20.2031 397.885 21.1979 397.484 22.1562C397.089 23.1146 396.599 24.026 396.026 24.8906C395.448 25.7552 394.792 26.5573 394.057 27.2917C393.318 28.026 392.521 28.6823 391.656 29.2604C390.792 29.8385 389.88 30.3229 388.917 30.724C387.958 31.1198 386.969 31.4219 385.948 31.625C384.927 31.8281 383.901 31.9271 382.859 31.9271C381.823 31.9271 380.792 31.8281 379.771 31.625C378.75 31.4219 377.76 31.1198 376.802 30.724C375.844 30.3229 374.927 29.8385 374.068 29.2604C373.203 28.6823 372.401 28.026 371.667 27.2917C370.932 26.5573 370.276 25.7552 369.698 24.8906C369.12 24.026 368.63 23.1146 368.234 22.1562C367.839 21.1979 367.536 20.2031 367.333 19.1875C367.13 18.1667 367.031 17.1354 367.031 16.099C367.031 15.0573 367.13 14.026 367.333 13.0104C367.536 11.9896 367.839 11 368.234 10.0417C368.63 9.07813 369.12 8.16667 369.698 7.30208C370.276 6.4375 370.932 5.64063 371.667 4.90104C372.401 4.16667 373.203 3.51042 374.068 2.93229C374.927 2.35937 375.844 1.86979 376.802 1.47396C377.76 1.07292 378.75 0.776041 379.771 0.572917C380.792 0.369791 381.823 0.265625 382.859 0.265625C383.901 0.265625 384.927 0.369791 385.948 0.572917C386.969 0.776041 387.958 1.07292 388.917 1.47396C389.88 1.86979 390.792 2.35937 391.656 2.93229C392.521 3.51042 393.318 4.16667 394.057 4.90104C394.792 5.64063 395.448 6.4375 396.026 7.30208C396.599 8.16667 397.089 9.07813 397.484 10.0417C397.885 11 398.182 11.9896 398.385 13.0104C398.589 14.026 398.693 15.0573 398.693 16.099Z" fill="#A2E9F6"/>
<path d="M490.307 16.099C490.307 17.1354 490.203 18.1667 490 19.1875C489.797 20.2031 489.5 21.1979 489.099 22.1562C488.703 23.1146 488.213 24.026 487.635 24.8906C487.062 25.7552 486.406 26.5573 485.667 27.2917C484.932 28.026 484.135 28.6823 483.271 29.2604C482.406 29.8385 481.495 30.3229 480.531 30.724C479.573 31.1198 478.583 31.4219 477.562 31.625C476.542 31.8281 475.516 31.9271 474.474 31.9271C473.437 31.9271 472.406 31.8281 471.385 31.625C470.365 31.4219 469.375 31.1198 468.417 30.724C467.458 30.3229 466.542 29.8385 465.682 29.2604C464.818 28.6823 464.016 28.026 463.281 27.2917C462.547 26.5573 461.891 25.7552 461.312 24.8906C460.734 24.026 460.245 23.1146 459.849 22.1562C459.453 21.1979 459.151 20.2031 458.948 19.1875C458.745 18.1667 458.646 17.1354 458.646 16.099C458.646 15.0573 458.745 14.026 458.948 13.0104C459.151 11.9896 459.453 11 459.849 10.0417C460.245 9.07813 460.734 8.16667 461.312 7.30208C461.891 6.4375 462.547 5.64063 463.281 4.90104C464.016 4.16667 464.818 3.51042 465.682 2.93229C466.542 2.35937 467.458 1.86979 468.417 1.47396C469.375 1.07292 470.365 0.776041 471.385 0.572917C472.406 0.369791 473.437 0.265625 474.474 0.265625C475.516 0.265625 476.542 0.369791 477.562 0.572917C478.583 0.776041 479.573 1.07292 480.531 1.47396C481.495 1.86979 482.406 2.35937 483.271 2.93229C484.135 3.51042 484.932 4.16667 485.667 4.90104C486.406 5.64063 487.062 6.4375 487.635 7.30208C488.213 8.16667 488.703 9.07813 489.099 10.0417C489.5 11 489.797 11.9896 490 13.0104C490.203 14.026 490.307 15.0573 490.307 16.099Z" fill="#A2E9F6"/>
<path d="M581.922 16.099C581.922 17.1354 581.818 18.1667 581.615 19.1875C581.412 20.2031 581.115 21.1979 580.714 22.1562C580.318 23.1146 579.828 24.026 579.25 24.8906C578.677 25.7552 578.021 26.5573 577.281 27.2917C576.547 28.026 575.75 28.6823 574.885 29.2604C574.021 29.8385 573.109 30.3229 572.146 30.724C571.188 31.1198 570.198 31.4219 569.177 31.625C568.156 31.8281 567.13 31.9271 566.089 31.9271C565.052 31.9271 564.021 31.8281 563 31.625C561.979 31.4219 560.99 31.1198 560.031 30.724C559.073 30.3229 558.156 29.8385 557.292 29.2604C556.432 28.6823 555.63 28.026 554.896 27.2917C554.162 26.5573 553.505 25.7552 552.927 24.8906C552.349 24.026 551.859 23.1146 551.464 22.1562C551.068 21.1979 550.766 20.2031 550.563 19.1875C550.359 18.1667 550.26 17.1354 550.26 16.099C550.26 15.0573 550.359 14.026 550.563 13.0104C550.766 11.9896 551.068 11 551.464 10.0417C551.859 9.07813 552.349 8.16667 552.927 7.30208C553.505 6.4375 554.162 5.64063 554.896 4.90104C555.63 4.16667 556.432 3.51042 557.292 2.93229C558.156 2.35937 559.073 1.86979 560.031 1.47396C560.99 1.07292 561.979 0.776041 563 0.572917C564.021 0.369791 565.052 0.265625 566.089 0.265625C567.13 0.265625 568.156 0.369791 569.177 0.572917C570.198 0.776041 571.188 1.07292 572.146 1.47396C573.109 1.86979 574.021 2.35937 574.885 2.93229C575.75 3.51042 576.547 4.16667 577.281 4.90104C578.021 5.64063 578.677 6.4375 579.25 7.30208C579.828 8.16667 580.318 9.07813 580.714 10.0417C581.115 11 581.412 11.9896 581.615 13.0104C581.818 14.026 581.922 15.0573 581.922 16.099Z" fill="#A2E9F6"/>
<mask id="mask1_15_5" style="mask-type:luminance" maskUnits="userSpaceOnUse" x="641" y="0" width="33" height="32">
<path d="M641 0H673.536V32H641V0Z" fill="white"/>
</mask>
<g mask="url(#mask1_15_5)">
<path d="M673.536 16.099C673.536 17.1354 673.432 18.1667 673.229 19.1875C673.026 20.2031 672.729 21.1979 672.328 22.1562C671.932 23.1146 671.443 24.026 670.865 24.8906C670.292 25.7552 669.635 26.5573 668.896 27.2917C668.161 28.026 667.365 28.6823 666.5 29.2604C665.635 29.8385 664.724 30.3229 663.76 30.724C662.802 31.1198 661.812 31.4219 660.792 31.625C659.771 31.8281 658.745 31.9271 657.703 31.9271C656.667 31.9271 655.635 31.8281 654.615 31.625C653.594 31.4219 652.604 31.1198 651.646 30.724C650.688 30.3229 649.771 29.8385 648.906 29.2604C648.047 28.6823 647.245 28.026 646.51 27.2917C645.776 26.5573 645.12 25.7552 644.542 24.8906C643.964 24.026 643.474 23.1146 643.078 22.1562C642.682 21.1979 642.38 20.2031 642.177 19.1875C641.974 18.1667 641.875 17.1354 641.875 16.099C641.875 15.0573 641.974 14.026 642.177 13.0104C642.38 11.9896 642.682 11 643.078 10.0417C643.474 9.07813 643.964 8.16667 644.542 7.30208C645.12 6.4375 645.776 5.64063 646.51 4.90104C647.245 4.16667 648.047 3.51042 648.906 2.93229C649.771 2.35937 650.688 1.86979 651.646 1.47396C652.604 1.07292 653.594 0.776041 654.615 0.572917C655.635 0.369791 656.667 0.265625 657.703 0.265625C658.745 0.265625 659.771 0.369791 660.792 0.572917C661.812 0.776041 662.802 1.07292 663.76 1.47396C664.724 1.86979 665.635 2.35937 666.5 2.93229C667.365 3.51042 668.161 4.16667 668.896 4.90104C669.635 5.64063 670.292 6.4375 670.865 7.30208C671.443 8.16667 671.932 9.07813 672.328 10.0417C672.729 11 673.026 11.9896 673.229 13.0104C673.432 14.026 673.536 15.0573 673.536 16.099Z" fill="#A2E9F6"/>
</g>
<mask id="mask2_15_5" style="mask-type:luminance" maskUnits="userSpaceOnUse" x="0" y="90" width="33" height="34">
<path d="M0.536377 90.6666H32.9999V124H0.536377V90.6666Z" fill="white"/>
</mask>
<g mask="url(#mask2_15_5)">
<path d="M32.2342 107.713C32.2342 108.75 32.13 109.781 31.9269 110.802C31.729 111.818 31.4269 112.807 31.0259 113.771C30.63 114.729 30.1405 115.641 29.5675 116.505C28.9894 117.37 28.3332 118.172 27.5988 118.906C26.8592 119.641 26.0623 120.297 25.1978 120.875C24.3332 121.453 23.4217 121.937 22.4582 122.338C21.4998 122.734 20.5103 123.036 19.4894 123.24C18.4738 123.443 17.4425 123.542 16.4009 123.542C15.3644 123.542 14.3332 123.443 13.3123 123.24C12.2967 123.036 11.3071 122.734 10.3436 122.338C9.38525 121.937 8.4738 121.453 7.60921 120.875C6.74463 120.297 5.94255 119.641 5.20817 118.906C4.4738 118.172 3.81754 117.37 3.23942 116.505C2.6613 115.641 2.17692 114.729 1.77588 113.771C1.38005 112.807 1.07796 111.818 0.874837 110.802C0.671712 109.781 0.572754 108.75 0.572754 107.713C0.572754 106.672 0.671712 105.641 0.874837 104.625C1.07796 103.604 1.38005 102.615 1.77588 101.656C2.17692 100.693 2.6613 99.7812 3.23942 98.9166C3.81754 98.052 4.4738 97.2551 5.20817 96.5155C5.94255 95.7812 6.74463 95.1249 7.60921 94.5468C8.4738 93.9739 9.38525 93.4843 10.3436 93.0885C11.3071 92.6874 12.2967 92.3853 13.3123 92.1874C14.3332 91.9843 15.3644 91.8801 16.4009 91.8801C17.4425 91.8801 18.4738 91.9843 19.4894 92.1874C20.5103 92.3853 21.4998 92.6874 22.4582 93.0885C23.4217 93.4843 24.3332 93.9739 25.1978 94.5468C26.0623 95.1249 26.8592 95.7812 27.5988 96.5155C28.3332 97.2551 28.9894 98.052 29.5675 98.9166C30.1405 99.7812 30.63 100.693 31.0259 101.656C31.4269 102.615 31.729 103.604 31.9269 104.625C32.13 105.641 32.2342 106.672 32.2342 107.713Z" fill="#A2E9F6"/>
</g>
<path d="M123.849 107.714C123.849 108.75 123.745 109.781 123.542 110.802C123.339 111.818 123.042 112.807 122.641 113.771C122.245 114.729 121.755 115.641 121.182 116.505C120.604 117.37 119.948 118.172 119.214 118.906C118.474 119.641 117.677 120.297 116.812 120.875C115.948 121.453 115.036 121.938 114.073 122.339C113.115 122.734 112.125 123.036 111.104 123.24C110.089 123.443 109.057 123.542 108.016 123.542C106.979 123.542 105.948 123.443 104.927 123.24C103.911 123.036 102.917 122.734 101.958 122.339C101 121.938 100.089 121.453 99.224 120.875C98.3594 120.297 97.5573 119.641 96.8229 118.906C96.0885 118.172 95.4323 117.37 94.8542 116.505C94.276 115.641 93.7865 114.729 93.3906 113.771C92.9948 112.807 92.6927 111.818 92.4896 110.802C92.2865 109.781 92.1875 108.75 92.1875 107.714C92.1875 106.672 92.2865 105.641 92.4896 104.625C92.6927 103.604 92.9948 102.615 93.3906 101.656C93.7865 100.693 94.276 99.7813 94.8542 98.9167C95.4323 98.0521 96.0885 97.2552 96.8229 96.5157C97.5573 95.7813 98.3594 95.125 99.224 94.5469C100.089 93.974 101 93.4844 101.958 93.0886C102.917 92.6875 103.911 92.3855 104.927 92.1875C105.948 91.9844 106.979 91.8802 108.016 91.8802C109.057 91.8802 110.089 91.9844 111.104 92.1875C112.125 92.3855 113.115 92.6875 114.073 93.0886C115.036 93.4844 115.948 93.974 116.812 94.5469C117.677 95.125 118.474 95.7813 119.214 96.5157C119.948 97.2552 120.604 98.0521 121.182 98.9167C121.755 99.7813 122.245 100.693 122.641 101.656C123.042 102.615 123.339 103.604 123.542 104.625C123.745 105.641 123.849 106.672 123.849 107.714Z" fill="#A2E9F6"/>
<path d="M215.463 107.714C215.463 108.75 215.359 109.781 215.156 110.802C214.953 111.818 214.656 112.807 214.255 113.771C213.859 114.729 213.37 115.641 212.797 116.505C212.219 117.37 211.562 118.172 210.828 118.906C210.088 119.641 209.292 120.297 208.427 120.875C207.562 121.453 206.651 121.938 205.687 122.339C204.729 122.734 203.74 123.036 202.719 123.24C201.703 123.443 200.672 123.542 199.63 123.542C198.594 123.542 197.562 123.443 196.542 123.24C195.526 123.036 194.531 122.734 193.573 122.339C192.615 121.938 191.703 121.453 190.838 120.875C189.974 120.297 189.172 119.641 188.437 118.906C187.703 118.172 187.047 117.37 186.469 116.505C185.891 115.641 185.401 114.729 185.005 113.771C184.609 112.807 184.307 111.818 184.104 110.802C183.901 109.781 183.802 108.75 183.802 107.714C183.802 106.672 183.901 105.641 184.104 104.625C184.307 103.604 184.609 102.615 185.005 101.656C185.401 100.693 185.891 99.7813 186.469 98.9167C187.047 98.0521 187.703 97.2552 188.437 96.5157C189.172 95.7813 189.974 95.125 190.838 94.5469C191.703 93.974 192.615 93.4844 193.573 93.0886C194.531 92.6875 195.526 92.3855 196.542 92.1875C197.562 91.9844 198.594 91.8802 199.63 91.8802C200.672 91.8802 201.703 91.9844 202.719 92.1875C203.74 92.3855 204.729 92.6875 205.687 93.0886C206.651 93.4844 207.562 93.974 208.427 94.5469C209.292 95.125 210.088 95.7813 210.828 96.5157C211.562 97.2552 212.219 98.0521 212.797 98.9167C213.37 99.7813 213.859 100.693 214.255 101.656C214.656 102.615 214.953 103.604 215.156 104.625C215.359 105.641 215.463 106.672 215.463 107.714Z" fill="#A2E9F6"/>
<path d="M307.078 107.714C307.078 108.75 306.974 109.781 306.771 110.802C306.568 111.818 306.271 112.807 305.87 113.771C305.474 114.729 304.984 115.641 304.412 116.505C303.833 117.37 303.177 118.172 302.443 118.906C301.703 119.641 300.906 120.297 300.042 120.875C299.177 121.453 298.266 121.938 297.302 122.339C296.344 122.734 295.354 123.036 294.333 123.24C293.313 123.443 292.287 123.542 291.245 123.542C290.208 123.542 289.177 123.443 288.156 123.24C287.141 123.036 286.146 122.734 285.188 122.339C284.229 121.938 283.318 121.453 282.453 120.875C281.589 120.297 280.787 119.641 280.052 118.906C279.318 118.172 278.662 117.37 278.083 116.505C277.505 115.641 277.016 114.729 276.62 113.771C276.224 112.807 275.922 111.818 275.719 110.802C275.516 109.781 275.417 108.75 275.417 107.714C275.417 106.672 275.516 105.641 275.719 104.625C275.922 103.604 276.224 102.615 276.62 101.656C277.016 100.693 277.505 99.7813 278.083 98.9167C278.662 98.0521 279.318 97.2552 280.052 96.5157C280.787 95.7813 281.589 95.125 282.453 94.5469C283.318 93.974 284.229 93.4844 285.188 93.0886C286.146 92.6875 287.141 92.3855 288.156 92.1875C289.177 91.9844 290.208 91.8802 291.245 91.8802C292.287 91.8802 293.313 91.9844 294.333 92.1875C295.354 92.3855 296.344 92.6875 297.302 93.0886C298.266 93.4844 299.177 93.974 300.042 94.5469C300.906 95.125 301.703 95.7813 302.443 96.5157C303.177 97.2552 303.833 98.0521 304.412 98.9167C304.984 99.7813 305.474 100.693 305.87 101.656C306.271 102.615 306.568 103.604 306.771 104.625C306.974 105.641 307.078 106.672 307.078 107.714Z" fill="#A2E9F6"/>
<path d="M398.693 107.714C398.693 108.75 398.589 109.781 398.385 110.802C398.182 111.818 397.885 112.807 397.484 113.771C397.089 114.729 396.599 115.641 396.026 116.505C395.448 117.37 394.792 118.172 394.057 118.906C393.318 119.641 392.521 120.297 391.656 120.875C390.792 121.453 389.88 121.938 388.917 122.339C387.958 122.734 386.969 123.036 385.948 123.24C384.927 123.443 383.901 123.542 382.859 123.542C381.823 123.542 380.792 123.443 379.771 123.24C378.75 123.036 377.76 122.734 376.802 122.339C375.844 121.938 374.927 121.453 374.068 120.875C373.203 120.297 372.401 119.641 371.667 118.906C370.932 118.172 370.276 117.37 369.698 116.505C369.12 115.641 368.63 114.729 368.234 113.771C367.839 112.807 367.536 111.818 367.333 110.802C367.13 109.781 367.031 108.75 367.031 107.714C367.031 106.672 367.13 105.641 367.333 104.625C367.536 103.604 367.839 102.615 368.234 101.656C368.63 100.693 369.12 99.7813 369.698 98.9167C370.276 98.0521 370.932 97.2552 371.667 96.5157C372.401 95.7813 373.203 95.125 374.068 94.5469C374.927 93.974 375.844 93.4844 376.802 93.0886C377.76 92.6875 378.75 92.3855 379.771 92.1875C380.792 91.9844 381.823 91.8802 382.859 91.8802C383.901 91.8802 384.927 91.9844 385.948 92.1875C386.969 92.3855 387.958 92.6875 388.917 93.0886C389.88 93.4844 390.792 93.974 391.656 94.5469C392.521 95.125 393.318 95.7813 394.057 96.5157C394.792 97.2552 395.448 98.0521 396.026 98.9167C396.599 99.7813 397.089 100.693 397.484 101.656C397.885 102.615 398.182 103.604 398.385 104.625C398.589 105.641 398.693 106.672 398.693 107.714Z" fill="#A2E9F6"/>
<path d="M490.307 107.714C490.307 108.75 490.203 109.781 490 110.802C489.797 111.818 489.5 112.807 489.099 113.771C488.703 114.729 488.213 115.641 487.635 116.505C487.062 117.37 486.406 118.172 485.667 118.906C484.932 119.641 484.135 120.297 483.271 120.875C482.406 121.453 481.495 121.938 480.531 122.339C479.573 122.734 478.583 123.036 477.562 123.24C476.542 123.443 475.516 123.542 474.474 123.542C473.437 123.542 472.406 123.443 471.385 123.24C470.365 123.036 469.375 122.734 468.417 122.339C467.458 121.938 466.542 121.453 465.682 120.875C464.818 120.297 464.016 119.641 463.281 118.906C462.547 118.172 461.891 117.37 461.312 116.505C460.734 115.641 460.245 114.729 459.849 113.771C459.453 112.807 459.151 111.818 458.948 110.802C458.745 109.781 458.646 108.75 458.646 107.714C458.646 106.672 458.745 105.641 458.948 104.625C459.151 103.604 459.453 102.615 459.849 101.656C460.245 100.693 460.734 99.7813 461.312 98.9167C461.891 98.0521 462.547 97.2552 463.281 96.5157C464.016 95.7813 464.818 95.125 465.682 94.5469C466.542 93.974 467.458 93.4844 468.417 93.0886C469.375 92.6875 470.365 92.3855 471.385 92.1875C472.406 91.9844 473.437 91.8802 474.474 91.8802C475.516 91.8802 476.542 91.9844 477.562 92.1875C478.583 92.3855 479.573 92.6875 480.531 93.0886C481.495 93.4844 482.406 93.974 483.271 94.5469C484.135 95.125 484.932 95.7813 485.667 96.5157C486.406 97.2552 487.062 98.0521 487.635 98.9167C488.213 99.7813 488.703 100.693 489.099 101.656C489.5 102.615 489.797 103.604 490 104.625C490.203 105.641 490.307 106.672 490.307 107.714Z" fill="#A2E9F6"/>
<path d="M581.922 107.714C581.922 108.75 581.818 109.781 581.615 110.802C581.412 111.818 581.115 112.807 580.714 113.771C580.318 114.729 579.828 115.641 579.25 116.505C578.677 117.37 578.021 118.172 577.281 118.906C576.547 119.641 575.75 120.297 574.885 120.875C574.021 121.453 573.109 121.938 572.146 122.339C571.188 122.734 570.198 123.036 569.177 123.24C568.156 123.443 567.13 123.542 566.089 123.542C565.052 123.542 564.021 123.443 563 123.24C561.979 123.036 560.99 122.734 560.031 122.339C559.073 121.938 558.156 121.453 557.292 120.875C556.432 120.297 555.63 119.641 554.896 118.906C554.162 118.172 553.505 117.37 552.927 116.505C552.349 115.641 551.859 114.729 551.464 113.771C551.068 112.807 550.766 111.818 550.563 110.802C550.359 109.781 550.26 108.75 550.26 107.714C550.26 106.672 550.359 105.641 550.563 104.625C550.766 103.604 551.068 102.615 551.464 101.656C551.859 100.693 552.349 99.7813 552.927 98.9167C553.505 98.0521 554.162 97.2552 554.896 96.5157C555.63 95.7813 556.432 95.125 557.292 94.5469C558.156 93.974 559.073 93.4844 560.031 93.0886C560.99 92.6875 561.979 92.3855 563 92.1875C564.021 91.9844 565.052 91.8802 566.089 91.8802C567.13 91.8802 568.156 91.9844 569.177 92.1875C570.198 92.3855 571.188 92.6875 572.146 93.0886C573.109 93.4844 574.021 93.974 574.885 94.5469C575.75 95.125 576.547 95.7813 577.281 96.5157C578.021 97.2552 578.677 98.0521 579.25 98.9167C579.828 99.7813 580.318 100.693 580.714 101.656C581.115 102.615 581.412 103.604 581.615 104.625C581.818 105.641 581.922 106.672 581.922 107.714Z" fill="#A2E9F6"/>
<mask id="mask3_15_5" style="mask-type:luminance" maskUnits="userSpaceOnUse" x="641" y="90" width="33" height="34">
<path d="M641 90.6666H673.536V124H641V90.6666Z" fill="white"/>
</mask>
<g mask="url(#mask3_15_5)">
<path d="M673.536 107.713C673.536 108.75 673.432 109.781 673.229 110.802C673.026 111.818 672.729 112.807 672.328 113.771C671.932 114.729 671.443 115.641 670.865 116.505C670.292 117.37 669.635 118.172 668.896 118.906C668.161 119.641 667.365 120.297 666.5 120.875C665.635 121.453 664.724 121.937 663.76 122.338C662.802 122.734 661.812 123.036 660.792 123.24C659.771 123.443 658.745 123.542 657.703 123.542C656.667 123.542 655.635 123.443 654.615 123.24C653.594 123.036 652.604 122.734 651.646 122.338C650.688 121.937 649.771 121.453 648.906 120.875C648.047 120.297 647.245 119.641 646.51 118.906C645.776 118.172 645.12 117.37 644.542 116.505C643.964 115.641 643.474 114.729 643.078 113.771C642.682 112.807 642.38 111.818 642.177 110.802C641.974 109.781 641.875 108.75 641.875 107.713C641.875 106.672 641.974 105.641 642.177 104.625C642.38 103.604 642.682 102.615 643.078 101.656C643.474 100.693 643.964 99.7812 644.542 98.9166C645.12 98.052 645.776 97.2551 646.51 96.5155C647.245 95.7812 648.047 95.1249 648.906 94.5468C649.771 93.9739 650.688 93.4843 651.646 93.0885C652.604 92.6874 653.594 92.3853 654.615 92.1874C655.635 91.9843 656.667 91.8801 657.703 91.8801C658.745 91.8801 659.771 91.9843 660.792 92.1874C661.812 92.3853 662.802 92.6874 663.76 93.0885C664.724 93.4843 665.635 93.9739 666.5 94.5468C667.365 95.1249 668.161 95.7812 668.896 96.5155C669.635 97.2551 670.292 98.052 670.865 98.9166C671.443 99.7812 671.932 100.693 672.328 101.656C672.729 102.615 673.026 103.604 673.229 104.625C673.432 105.641 673.536 106.672 673.536 107.713Z" fill="#A2E9F6"/>
</g>
<mask id="mask4_15_5" style="mask-type:luminance" maskUnits="userSpaceOnUse" x="0" y="182" width="33" height="34">
<path d="M0.536377 182.667H32.9999V215.266H0.536377V182.667Z" fill="white"/>
</mask>
<g mask="url(#mask4_15_5)">
<path d="M32.2342 199.328C32.2342 200.365 32.13 201.396 31.9269 202.417C31.729 203.432 31.4269 204.422 31.0259 205.385C30.63 206.344 30.1405 207.255 29.5675 208.12C28.9894 208.984 28.3332 209.786 27.5988 210.521C26.8592 211.255 26.0623 211.911 25.1978 212.49C24.3332 213.068 23.4217 213.552 22.4582 213.953C21.4998 214.349 20.5103 214.651 19.4894 214.854C18.4738 215.057 17.4425 215.156 16.4009 215.156C15.3644 215.156 14.3332 215.057 13.3123 214.854C12.2967 214.651 11.3071 214.349 10.3436 213.953C9.38525 213.552 8.4738 213.068 7.60921 212.49C6.74463 211.911 5.94255 211.255 5.20817 210.521C4.4738 209.786 3.81754 208.984 3.23942 208.12C2.6613 207.255 2.17692 206.344 1.77588 205.385C1.38005 204.422 1.07796 203.432 0.874837 202.417C0.671712 201.396 0.572754 200.365 0.572754 199.328C0.572754 198.286 0.671712 197.255 0.874837 196.24C1.07796 195.219 1.38005 194.229 1.77588 193.266C2.17692 192.307 2.6613 191.396 3.23942 190.531C3.81754 189.667 4.4738 188.87 5.20817 188.13C5.94255 187.396 6.74463 186.74 7.60921 186.161C8.4738 185.583 9.38525 185.099 10.3436 184.698C11.3071 184.302 12.2967 184 13.3123 183.802C14.3332 183.599 15.3644 183.495 16.4009 183.495C17.4425 183.495 18.4738 183.599 19.4894 183.802C20.5103 184 21.4998 184.302 22.4582 184.698C23.4217 185.099 24.3332 185.583 25.1978 186.161C26.0623 186.74 26.8592 187.396 27.5988 188.13C28.3332 188.87 28.9894 189.667 29.5675 190.531C30.1405 191.396 30.63 192.307 31.0259 193.266C31.4269 194.229 31.729 195.219 31.9269 196.24C32.13 197.255 32.2342 198.286 32.2342 199.328Z" fill="#A2E9F6"/>
</g>
<mask id="mask5_15_5" style="mask-type:luminance" maskUnits="userSpaceOnUse" x="91" y="182" width="34" height="34">
<path d="M91.6667 182.667H125V215.266H91.6667V182.667Z" fill="white"/>
</mask>
<g mask="url(#mask5_15_5)">
<path d="M123.849 199.328C123.849 200.365 123.745 201.396 123.542 202.417C123.339 203.432 123.042 204.422 122.641 205.385C122.245 206.344 121.755 207.255 121.182 208.12C120.604 208.984 119.948 209.786 119.214 210.521C118.474 211.255 117.677 211.911 116.812 212.49C115.948 213.068 115.036 213.552 114.073 213.953C113.115 214.349 112.125 214.651 111.104 214.854C110.089 215.057 109.057 215.156 108.016 215.156C106.979 215.156 105.948 215.057 104.927 214.854C103.911 214.651 102.917 214.349 101.958 213.953C101 213.552 100.089 213.068 99.224 212.49C98.3594 211.911 97.5573 211.255 96.8229 210.521C96.0885 209.786 95.4323 208.984 94.8542 208.12C94.276 207.255 93.7865 206.344 93.3906 205.385C92.9948 204.422 92.6927 203.432 92.4896 202.417C92.2865 201.396 92.1875 200.365 92.1875 199.328C92.1875 198.286 92.2865 197.255 92.4896 196.24C92.6927 195.219 92.9948 194.229 93.3906 193.266C93.7865 192.307 94.276 191.396 94.8542 190.531C95.4323 189.667 96.0885 188.87 96.8229 188.13C97.5573 187.396 98.3594 186.74 99.224 186.161C100.089 185.583 101 185.099 101.958 184.698C102.917 184.302 103.911 184 104.927 183.802C105.948 183.599 106.979 183.495 108.016 183.495C109.057 183.495 110.089 183.599 111.104 183.802C112.125 184 113.115 184.302 114.073 184.698C115.036 185.099 115.948 185.583 116.812 186.161C117.677 186.74 118.474 187.396 119.214 188.13C119.948 188.87 120.604 189.667 121.182 190.531C121.755 191.396 122.245 192.307 122.641 193.266C123.042 194.229 123.339 195.219 123.542 196.24C123.745 197.255 123.849 198.286 123.849 199.328Z" fill="#A2E9F6"/>
</g>
<mask id="mask6_15_5" style="mask-type:luminance" maskUnits="userSpaceOnUse" x="183" y="182" width="33" height="34">
<path d="M183.667 182.667H215.667V215.266H183.667V182.667Z" fill="white"/>
</mask>
<g mask="url(#mask6_15_5)">
<path d="M215.464 199.328C215.464 200.365 215.36 201.396 215.156 202.417C214.953 203.432 214.656 204.422 214.255 205.385C213.86 206.344 213.37 207.255 212.797 208.12C212.219 208.984 211.563 209.786 210.828 210.521C210.089 211.255 209.292 211.911 208.427 212.49C207.563 213.068 206.651 213.552 205.688 213.953C204.729 214.349 203.74 214.651 202.719 214.854C201.703 215.057 200.672 215.156 199.63 215.156C198.594 215.156 197.563 215.057 196.542 214.854C195.526 214.651 194.531 214.349 193.573 213.953C192.615 213.552 191.703 213.068 190.839 212.49C189.974 211.911 189.172 211.255 188.438 210.521C187.703 209.786 187.047 208.984 186.469 208.12C185.891 207.255 185.401 206.344 185.005 205.385C184.61 204.422 184.307 203.432 184.104 202.417C183.901 201.396 183.802 200.365 183.802 199.328C183.802 198.286 183.901 197.255 184.104 196.24C184.307 195.219 184.61 194.229 185.005 193.266C185.401 192.307 185.891 191.396 186.469 190.531C187.047 189.667 187.703 188.87 188.438 188.13C189.172 187.396 189.974 186.74 190.839 186.161C191.703 185.583 192.615 185.099 193.573 184.698C194.531 184.302 195.526 184 196.542 183.802C197.563 183.599 198.594 183.495 199.63 183.495C200.672 183.495 201.703 183.599 202.719 183.802C203.74 184 204.729 184.302 205.688 184.698C206.651 185.099 207.563 185.583 208.427 186.161C209.292 186.74 210.089 187.396 210.828 188.13C211.563 188.87 212.219 189.667 212.797 190.531C213.37 191.396 213.86 192.307 214.255 193.266C214.656 194.229 214.953 195.219 215.156 196.24C215.36 197.255 215.464 198.286 215.464 199.328Z" fill="#A2E9F6"/>
</g>
<mask id="mask7_15_5" style="mask-type:luminance" maskUnits="userSpaceOnUse" x="274" y="182" width="34" height="34">
<path d="M274.333 182.667H307.667V215.266H274.333V182.667Z" fill="white"/>
</mask>
<g mask="url(#mask7_15_5)">
<path d="M307.078 199.328C307.078 200.365 306.974 201.396 306.771 202.417C306.568 203.432 306.271 204.422 305.87 205.385C305.474 206.344 304.984 207.255 304.411 208.12C303.833 208.984 303.177 209.786 302.443 210.521C301.703 211.255 300.906 211.911 300.042 212.49C299.177 213.068 298.265 213.552 297.302 213.953C296.344 214.349 295.354 214.651 294.333 214.854C293.312 215.057 292.286 215.156 291.245 215.156C290.208 215.156 289.177 215.057 288.156 214.854C287.14 214.651 286.146 214.349 285.187 213.953C284.229 213.552 283.318 213.068 282.453 212.49C281.588 211.911 280.786 211.255 280.052 210.521C279.318 209.786 278.661 208.984 278.083 208.12C277.505 207.255 277.015 206.344 276.62 205.385C276.224 204.422 275.922 203.432 275.719 202.417C275.515 201.396 275.417 200.365 275.417 199.328C275.417 198.286 275.515 197.255 275.719 196.24C275.922 195.219 276.224 194.229 276.62 193.266C277.015 192.307 277.505 191.396 278.083 190.531C278.661 189.667 279.318 188.87 280.052 188.13C280.786 187.396 281.588 186.74 282.453 186.161C283.318 185.583 284.229 185.099 285.187 184.698C286.146 184.302 287.14 184 288.156 183.802C289.177 183.599 290.208 183.495 291.245 183.495C292.286 183.495 293.312 183.599 294.333 183.802C295.354 184 296.344 184.302 297.302 184.698C298.265 185.099 299.177 185.583 300.042 186.161C300.906 186.74 301.703 187.396 302.443 188.13C303.177 188.87 303.833 189.667 304.411 190.531C304.984 191.396 305.474 192.307 305.87 193.266C306.271 194.229 306.568 195.219 306.771 196.24C306.974 197.255 307.078 198.286 307.078 199.328Z" fill="#A2E9F6"/>
</g>
<mask id="mask8_15_5" style="mask-type:luminance" maskUnits="userSpaceOnUse" x="366" y="182" width="34" height="34">
<path d="M366.333 182.667H399.667V215.266H366.333V182.667Z" fill="white"/>
</mask>
<g mask="url(#mask8_15_5)">
<path d="M398.693 199.328C398.693 200.365 398.589 201.396 398.385 202.417C398.182 203.432 397.885 204.422 397.484 205.385C397.089 206.344 396.599 207.255 396.026 208.12C395.448 208.984 394.792 209.786 394.057 210.521C393.318 211.255 392.521 211.911 391.656 212.49C390.792 213.068 389.88 213.552 388.917 213.953C387.958 214.349 386.969 214.651 385.948 214.854C384.927 215.057 383.901 215.156 382.859 215.156C381.823 215.156 380.792 215.057 379.771 214.854C378.75 214.651 377.76 214.349 376.802 213.953C375.844 213.552 374.927 213.068 374.068 212.49C373.203 211.911 372.401 211.255 371.667 210.521C370.932 209.786 370.276 208.984 369.698 208.12C369.12 207.255 368.63 206.344 368.234 205.385C367.839 204.422 367.536 203.432 367.333 202.417C367.13 201.396 367.031 200.365 367.031 199.328C367.031 198.286 367.13 197.255 367.333 196.24C367.536 195.219 367.839 194.229 368.234 193.266C368.63 192.307 369.12 191.396 369.698 190.531C370.276 189.667 370.932 188.87 371.667 188.13C372.401 187.396 373.203 186.74 374.068 186.161C374.927 185.583 375.844 185.099 376.802 184.698C377.76 184.302 378.75 184 379.771 183.802C380.792 183.599 381.823 183.495 382.859 183.495C383.901 183.495 384.927 183.599 385.948 183.802C386.969 184 387.958 184.302 388.917 184.698C389.88 185.099 390.792 185.583 391.656 186.161C392.521 186.74 393.318 187.396 394.057 188.13C394.792 188.87 395.448 189.667 396.026 190.531C396.599 191.396 397.089 192.307 397.484 193.266C397.885 194.229 398.182 195.219 398.385 196.24C398.589 197.255 398.693 198.286 398.693 199.328Z" fill="#A2E9F6"/>
</g>
<mask id="mask9_15_5" style="mask-type:luminance" maskUnits="userSpaceOnUse" x="458" y="182" width="33" height="34">
<path d="M458.333 182.667H490.333V215.266H458.333V182.667Z" fill="white"/>
</mask>
<g mask="url(#mask9_15_5)">
<path d="M490.307 199.328C490.307 200.365 490.203 201.396 490 202.417C489.797 203.432 489.5 204.422 489.099 205.385C488.703 206.344 488.213 207.255 487.635 208.12C487.062 208.984 486.406 209.786 485.667 210.521C484.932 211.255 484.135 211.911 483.271 212.49C482.406 213.068 481.495 213.552 480.531 213.953C479.573 214.349 478.583 214.651 477.562 214.854C476.542 215.057 475.516 215.156 474.474 215.156C473.437 215.156 472.406 215.057 471.385 214.854C470.365 214.651 469.375 214.349 468.417 213.953C467.458 213.552 466.542 213.068 465.682 212.49C464.818 211.911 464.016 211.255 463.281 210.521C462.547 209.786 461.891 208.984 461.312 208.12C460.734 207.255 460.245 206.344 459.849 205.385C459.453 204.422 459.151 203.432 458.948 202.417C458.745 201.396 458.646 200.365 458.646 199.328C458.646 198.286 458.745 197.255 458.948 196.24C459.151 195.219 459.453 194.229 459.849 193.266C460.245 192.307 460.734 191.396 461.312 190.531C461.891 189.667 462.547 188.87 463.281 188.13C464.016 187.396 464.818 186.74 465.682 186.161C466.542 185.583 467.458 185.099 468.417 184.698C469.375 184.302 470.365 184 471.385 183.802C472.406 183.599 473.437 183.495 474.474 183.495C475.516 183.495 476.542 183.599 477.562 183.802C478.583 184 479.573 184.302 480.531 184.698C481.495 185.099 482.406 185.583 483.271 186.161C484.135 186.74 484.932 187.396 485.667 188.13C486.406 188.87 487.062 189.667 487.635 190.531C488.213 191.396 488.703 192.307 489.099 193.266C489.5 194.229 489.797 195.219 490 196.24C490.203 197.255 490.307 198.286 490.307 199.328Z" fill="#A2E9F6"/>
</g>
<mask id="mask10_15_5" style="mask-type:luminance" maskUnits="userSpaceOnUse" x="549" y="182" width="34" height="34">
<path d="M549 182.667H582.333V215.266H549V182.667Z" fill="white"/>
</mask>
<g mask="url(#mask10_15_5)">
<path d="M581.922 199.328C581.922 200.365 581.818 201.396 581.615 202.417C581.412 203.432 581.115 204.422 580.714 205.385C580.318 206.344 579.828 207.255 579.25 208.12C578.677 208.984 578.021 209.786 577.281 210.521C576.547 211.255 575.75 211.911 574.885 212.49C574.021 213.068 573.109 213.552 572.146 213.953C571.188 214.349 570.198 214.651 569.177 214.854C568.156 215.057 567.13 215.156 566.089 215.156C565.052 215.156 564.021 215.057 563 214.854C561.979 214.651 560.99 214.349 560.031 213.953C559.073 213.552 558.156 213.068 557.292 212.49C556.432 211.911 555.63 211.255 554.896 210.521C554.162 209.786 553.505 208.984 552.927 208.12C552.349 207.255 551.859 206.344 551.464 205.385C551.068 204.422 550.766 203.432 550.563 202.417C550.359 201.396 550.26 200.365 550.26 199.328C550.26 198.286 550.359 197.255 550.563 196.24C550.766 195.219 551.068 194.229 551.464 193.266C551.859 192.307 552.349 191.396 552.927 190.531C553.505 189.667 554.162 188.87 554.896 188.13C555.63 187.396 556.432 186.74 557.292 186.161C558.156 185.583 559.073 185.099 560.031 184.698C560.99 184.302 561.979 184 563 183.802C564.021 183.599 565.052 183.495 566.089 183.495C567.13 183.495 568.156 183.599 569.177 183.802C570.198 184 571.188 184.302 572.146 184.698C573.109 185.099 574.021 185.583 574.885 186.161C575.75 186.74 576.547 187.396 577.281 188.13C578.021 188.87 578.677 189.667 579.25 190.531C579.828 191.396 580.318 192.307 580.714 193.266C581.115 194.229 581.412 195.219 581.615 196.24C581.818 197.255 581.922 198.286 581.922 199.328Z" fill="#A2E9F6"/>
</g>
<mask id="mask11_15_5" style="mask-type:luminance" maskUnits="userSpaceOnUse" x="641" y="182" width="33" height="34">
<path d="M641 182.667H673.536V215.266H641V182.667Z" fill="white"/>
</mask>
<g mask="url(#mask11_15_5)">
<path d="M673.536 199.328C673.536 200.365 673.432 201.396 673.229 202.417C673.026 203.432 672.729 204.422 672.328 205.385C671.932 206.344 671.443 207.255 670.865 208.12C670.292 208.984 669.635 209.786 668.896 210.521C668.161 211.255 667.365 211.911 666.5 212.49C665.635 213.068 664.724 213.552 663.76 213.953C662.802 214.349 661.812 214.651 660.792 214.854C659.771 215.057 658.745 215.156 657.703 215.156C656.667 215.156 655.635 215.057 654.615 214.854C653.594 214.651 652.604 214.349 651.646 213.953C650.688 213.552 649.771 213.068 648.906 212.49C648.047 211.911 647.245 211.255 646.51 210.521C645.776 209.786 645.12 208.984 644.542 208.12C643.964 207.255 643.474 206.344 643.078 205.385C642.682 204.422 642.38 203.432 642.177 202.417C641.974 201.396 641.875 200.365 641.875 199.328C641.875 198.286 641.974 197.255 642.177 196.24C642.38 195.219 642.682 194.229 643.078 193.266C643.474 192.307 643.964 191.396 644.542 190.531C645.12 189.667 645.776 188.87 646.51 188.13C647.245 187.396 648.047 186.74 648.906 186.161C649.771 185.583 650.688 185.099 651.646 184.698C652.604 184.302 653.594 184 654.615 183.802C655.635 183.599 656.667 183.495 657.703 183.495C658.745 183.495 659.771 183.599 660.792 183.802C661.812 184 662.802 184.302 663.76 184.698C664.724 185.099 665.635 185.583 666.5 186.161C667.365 186.74 668.161 187.396 668.896 188.13C669.635 188.87 670.292 189.667 670.865 190.531C671.443 191.396 671.932 192.307 672.328 193.266C672.729 194.229 673.026 195.219 673.229 196.24C673.432 197.255 673.536 198.286 673.536 199.328Z" fill="#A2E9F6"/>
</g>
</svg>
