<svg width="364" height="271" viewBox="0 0 364 271" fill="none" xmlns="http://www.w3.org/2000/svg">
<mask id="mask0_2_422" style="mask-type:luminance" maskUnits="userSpaceOnUse" x="0" y="0" width="364" height="271">
<path d="M0.411438 0.333374H364V271H0.411438V0.333374Z" fill="white"/>
</mask>
<g mask="url(#mask0_2_422)">
<mask id="mask1_2_422" style="mask-type:luminance" maskUnits="userSpaceOnUse" x="0" y="1" width="364" height="270">
<path d="M267.724 102.307C267.724 100.708 266.432 99.4167 264.839 99.4167C263.25 99.4167 261.958 100.708 261.958 102.307C261.958 146.521 226.042 182.495 181.896 182.495C137.75 182.495 101.833 146.521 101.833 102.307C101.833 58.0886 137.75 22.1198 181.896 22.1198C202.766 22.1198 222.521 30.1146 237.531 44.6406C242.219 49.1302 256.63 66.1458 245.208 96.6979C234.911 124.245 220.182 125.146 220.109 125.151C210.161 125.151 202.073 117.047 202.073 107.083V91.4167C202.115 90.1771 202.115 88.9479 202.073 87.7344V57.7552C202.073 56.1563 200.781 54.8646 199.187 54.8646C197.594 54.8646 196.302 56.1563 196.302 57.7552V68.1771C193.755 64.5261 190.474 61.8698 186.552 60.4636C171.833 55.1927 153.969 68.8177 145.885 91.4688C142.109 102.036 141.146 112.943 143.161 122.172C145.286 131.891 150.453 138.672 157.708 141.266C159.839 142.031 162.042 142.401 164.266 142.401C176.682 142.401 189.917 130.984 197.172 113.37C199.932 123.474 209.161 130.927 220.151 130.927C220.906 130.917 238.807 130.297 250.604 98.7292C263.266 64.8594 246.844 45.5729 241.526 40.4792C225.443 24.9167 204.266 16.3438 181.896 16.3438C134.568 16.3438 96.0677 54.9063 96.0677 102.307C96.0677 149.708 134.568 188.271 181.896 188.271C229.224 188.271 267.724 149.703 267.724 102.307ZM159.646 135.833C154.333 133.932 150.479 128.641 148.792 120.943C147.005 112.75 147.896 102.979 151.312 93.4167C157.302 76.6406 169.391 65.1146 179.995 65.1146C181.573 65.1146 183.12 65.3698 184.609 65.9011C189.927 67.8073 193.781 73.0938 195.464 80.7969C195.911 82.8334 196.187 84.974 196.302 87.1771V91.4636C196.083 96.9115 194.974 102.651 192.948 108.318C186.182 127.276 170.932 139.875 159.646 135.833ZM335.083 11.0886L315.057 2.75522C308.958 0.223972 302.146 0.468762 295.875 3.47397C289.708 6.4271 284.807 11.6979 282.057 18.3177L272.938 40.3021C270.188 46.9167 269.922 54.1146 272.182 60.5729C274.479 67.1406 279.104 72.1615 285.208 74.7031C292.786 77.8542 297.328 85.8229 296.786 95C296.104 106.37 293.781 123.589 286.557 141.021C279.328 158.443 268.781 172.24 261.208 180.75C255.099 187.609 246.255 190.005 238.677 186.854C226.193 181.661 211.396 188.635 205.682 202.411L196.562 224.396C190.849 238.172 196.349 253.604 208.833 258.797L228.859 267.13C234.016 269.276 239.453 270.339 244.927 270.339C252.609 270.339 260.354 268.24 267.438 264.115C287.135 252.62 316.005 225.917 341.708 163.969C367.406 102.026 365.927 62.6927 360.161 40.599C356.615 27 347.474 16.2448 335.083 11.0886ZM336.38 161.75C311.297 222.214 283.464 248.073 264.531 259.12C253.979 265.281 241.781 266.255 231.073 261.797L211.047 253.458C201.5 249.49 197.396 237.443 201.885 226.609L211.005 204.63C214.516 196.161 222.255 190.906 230.031 190.906C232.203 190.906 234.38 191.318 236.469 192.188C246.349 196.297 257.75 193.313 265.516 184.583C273.385 175.745 284.344 161.401 291.88 143.234C299.417 125.063 301.839 107.156 302.542 95.3438C303.234 83.6771 297.302 73.474 287.422 69.3646C282.854 67.4636 279.375 63.6615 277.625 58.6615C275.839 53.5521 276.062 47.8177 278.266 42.5156L287.385 20.5313C289.583 15.2292 293.484 11.0208 298.365 8.68231C303.135 6.39585 308.276 6.18231 312.849 8.08856L332.875 16.4219C343.583 20.8802 351.5 30.224 354.589 42.0625C360.125 63.2917 361.464 101.292 336.38 161.75ZM175.016 197.974V228.474C175.016 229.599 174.365 230.62 173.344 231.089C172.953 231.271 172.542 231.359 172.13 231.359C171.464 231.359 170.802 231.13 170.271 230.677L129.401 196.125H21.7916C9.99998 196.125 0.411438 186.516 0.411438 174.708V64.7396C0.411438 52.9323 9.99998 43.3281 21.7916 43.3281H105.328C106.922 43.3281 108.214 44.6146 108.214 46.2136C108.214 47.8125 106.922 49.099 105.328 49.099H21.7916C13.1823 49.099 6.17706 56.1146 6.17706 64.7396V174.708C6.17706 183.333 13.1823 190.354 21.7916 190.354H130.453C131.135 190.354 131.797 190.594 132.312 191.031L169.25 222.255V197.974C169.25 196.38 170.542 195.089 172.13 195.089C173.724 195.089 175.016 196.38 175.016 197.974ZM36.7448 86.5781C35.1562 86.5781 33.8646 85.2865 33.8646 83.6875C33.8646 82.0938 35.1562 80.8021 36.7448 80.8021H81.0729C82.6666 80.8021 83.9583 82.0938 83.9583 83.6875C83.9583 85.2865 82.6666 86.5781 81.0729 86.5781H36.7448ZM20.7812 124.031H87.7083C89.3021 124.031 90.5937 125.323 90.5937 126.917C90.5937 128.516 89.3021 129.807 87.7083 129.807H20.7812C19.1927 129.807 17.901 128.516 17.901 126.917C17.901 125.323 19.1927 124.031 20.7812 124.031Z" fill="white"/>
</mask>
<g mask="url(#mask1_2_422)">
<path d="M0.411438 0.223999V270.339H367.406V0.223999H0.411438Z" fill="url(#paint0_linear_2_422)"/>
</g>
</g>
<defs>
<linearGradient id="paint0_linear_2_422" x1="182.034" y1="0.221825" x2="182.034" y2="270.337" gradientUnits="userSpaceOnUse">
<stop stop-color="#FF3131"/>
<stop offset="0.0078125" stop-color="#FF3131"/>
<stop offset="0.0117188" stop-color="#FF3132"/>
<stop offset="0.015625" stop-color="#FE3133"/>
<stop offset="0.0195312" stop-color="#FE3233"/>
<stop offset="0.0234375" stop-color="#FE3234"/>
<stop offset="0.0273437" stop-color="#FE3235"/>
<stop offset="0.03125" stop-color="#FE3235"/>
<stop offset="0.0351562" stop-color="#FD3236"/>
<stop offset="0.0390625" stop-color="#FD3236"/>
<stop offset="0.0429687" stop-color="#FD3237"/>
<stop offset="0.046875" stop-color="#FD3338"/>
<stop offset="0.0507812" stop-color="#FD3338"/>
<stop offset="0.0546875" stop-color="#FC3339"/>
<stop offset="0.0585938" stop-color="#FC3339"/>
<stop offset="0.0625" stop-color="#FC333A"/>
<stop offset="0.0664062" stop-color="#FC333B"/>
<stop offset="0.0703125" stop-color="#FC343B"/>
<stop offset="0.0742188" stop-color="#FB343C"/>
<stop offset="0.078125" stop-color="#FB343C"/>
<stop offset="0.0820312" stop-color="#FB343D"/>
<stop offset="0.0859375" stop-color="#FB343D"/>
<stop offset="0.0898438" stop-color="#FB343E"/>
<stop offset="0.09375" stop-color="#FA343F"/>
<stop offset="0.0976563" stop-color="#FA353F"/>
<stop offset="0.101563" stop-color="#FA3540"/>
<stop offset="0.105469" stop-color="#FA3540"/>
<stop offset="0.109375" stop-color="#FA3541"/>
<stop offset="0.113281" stop-color="#F93542"/>
<stop offset="0.117188" stop-color="#F93542"/>
<stop offset="0.121094" stop-color="#F93543"/>
<stop offset="0.125" stop-color="#F93643"/>
<stop offset="0.128906" stop-color="#F93644"/>
<stop offset="0.132812" stop-color="#F83644"/>
<stop offset="0.136719" stop-color="#F83645"/>
<stop offset="0.140625" stop-color="#F83646"/>
<stop offset="0.144531" stop-color="#F83646"/>
<stop offset="0.148437" stop-color="#F83747"/>
<stop offset="0.152344" stop-color="#F73747"/>
<stop offset="0.15625" stop-color="#F73748"/>
<stop offset="0.160156" stop-color="#F73749"/>
<stop offset="0.164062" stop-color="#F73749"/>
<stop offset="0.167969" stop-color="#F7374A"/>
<stop offset="0.171875" stop-color="#F6374A"/>
<stop offset="0.175781" stop-color="#F6384B"/>
<stop offset="0.179687" stop-color="#F6384C"/>
<stop offset="0.183594" stop-color="#F6384C"/>
<stop offset="0.1875" stop-color="#F6384D"/>
<stop offset="0.191406" stop-color="#F5384D"/>
<stop offset="0.195312" stop-color="#F5384E"/>
<stop offset="0.199219" stop-color="#F5384E"/>
<stop offset="0.203125" stop-color="#F5394F"/>
<stop offset="0.207031" stop-color="#F53950"/>
<stop offset="0.210938" stop-color="#F43950"/>
<stop offset="0.214844" stop-color="#F43951"/>
<stop offset="0.21875" stop-color="#F43951"/>
<stop offset="0.222656" stop-color="#F43952"/>
<stop offset="0.226562" stop-color="#F43953"/>
<stop offset="0.230469" stop-color="#F33A53"/>
<stop offset="0.234375" stop-color="#F33A54"/>
<stop offset="0.238281" stop-color="#F33A54"/>
<stop offset="0.242188" stop-color="#F33A55"/>
<stop offset="0.246094" stop-color="#F33A56"/>
<stop offset="0.25" stop-color="#F23A56"/>
<stop offset="0.253906" stop-color="#F23B57"/>
<stop offset="0.257812" stop-color="#F23B57"/>
<stop offset="0.261719" stop-color="#F23B58"/>
<stop offset="0.265625" stop-color="#F23B58"/>
<stop offset="0.269531" stop-color="#F13B59"/>
<stop offset="0.273437" stop-color="#F13B5A"/>
<stop offset="0.277344" stop-color="#F13B5A"/>
<stop offset="0.28125" stop-color="#F13C5B"/>
<stop offset="0.285156" stop-color="#F13C5B"/>
<stop offset="0.289062" stop-color="#F03C5C"/>
<stop offset="0.292969" stop-color="#F03C5D"/>
<stop offset="0.296875" stop-color="#F03C5D"/>
<stop offset="0.300781" stop-color="#F03C5E"/>
<stop offset="0.304687" stop-color="#F03C5E"/>
<stop offset="0.308594" stop-color="#EF3D5F"/>
<stop offset="0.3125" stop-color="#EF3D60"/>
<stop offset="0.316406" stop-color="#EF3D60"/>
<stop offset="0.320312" stop-color="#EF3D61"/>
<stop offset="0.324219" stop-color="#EF3D61"/>
<stop offset="0.328125" stop-color="#EE3D62"/>
<stop offset="0.332031" stop-color="#EE3D62"/>
<stop offset="0.335937" stop-color="#EE3E63"/>
<stop offset="0.339844" stop-color="#EE3E64"/>
<stop offset="0.34375" stop-color="#EE3E64"/>
<stop offset="0.347656" stop-color="#ED3E65"/>
<stop offset="0.351562" stop-color="#ED3E65"/>
<stop offset="0.355469" stop-color="#ED3E66"/>
<stop offset="0.359375" stop-color="#ED3F67"/>
<stop offset="0.363281" stop-color="#ED3F67"/>
<stop offset="0.367187" stop-color="#EC3F68"/>
<stop offset="0.371094" stop-color="#EC3F68"/>
<stop offset="0.375" stop-color="#EC3F69"/>
<stop offset="0.378906" stop-color="#EC3F69"/>
<stop offset="0.382812" stop-color="#EC3F6A"/>
<stop offset="0.386719" stop-color="#EB406B"/>
<stop offset="0.390625" stop-color="#EB406B"/>
<stop offset="0.394531" stop-color="#EB406C"/>
<stop offset="0.398438" stop-color="#EB406C"/>
<stop offset="0.402344" stop-color="#EB406D"/>
<stop offset="0.40625" stop-color="#EA406E"/>
<stop offset="0.410156" stop-color="#EA406E"/>
<stop offset="0.414062" stop-color="#EA416F"/>
<stop offset="0.417969" stop-color="#EA416F"/>
<stop offset="0.421875" stop-color="#EA4170"/>
<stop offset="0.425781" stop-color="#E94171"/>
<stop offset="0.429688" stop-color="#E94171"/>
<stop offset="0.433594" stop-color="#E94172"/>
<stop offset="0.4375" stop-color="#E94272"/>
<stop offset="0.441406" stop-color="#E94273"/>
<stop offset="0.445312" stop-color="#E84273"/>
<stop offset="0.449219" stop-color="#E84274"/>
<stop offset="0.453125" stop-color="#E84275"/>
<stop offset="0.457031" stop-color="#E84275"/>
<stop offset="0.460938" stop-color="#E84276"/>
<stop offset="0.464844" stop-color="#E74376"/>
<stop offset="0.46875" stop-color="#E74377"/>
<stop offset="0.472656" stop-color="#E74378"/>
<stop offset="0.476562" stop-color="#E74378"/>
<stop offset="0.480469" stop-color="#E74379"/>
<stop offset="0.484375" stop-color="#E64379"/>
<stop offset="0.488281" stop-color="#E6437A"/>
<stop offset="0.492187" stop-color="#E6447B"/>
<stop offset="0.496094" stop-color="#E6447B"/>
<stop offset="0.5" stop-color="#E6447C"/>
<stop offset="0.503906" stop-color="#E5447C"/>
<stop offset="0.507812" stop-color="#E5447D"/>
<stop offset="0.511719" stop-color="#E5447D"/>
<stop offset="0.515625" stop-color="#E5447E"/>
<stop offset="0.519531" stop-color="#E5457F"/>
<stop offset="0.523438" stop-color="#E4457F"/>
<stop offset="0.527344" stop-color="#E44580"/>
<stop offset="0.53125" stop-color="#E44580"/>
<stop offset="0.535156" stop-color="#E44581"/>
<stop offset="0.539062" stop-color="#E44582"/>
<stop offset="0.542969" stop-color="#E34682"/>
<stop offset="0.546875" stop-color="#E34683"/>
<stop offset="0.550781" stop-color="#E34683"/>
<stop offset="0.554688" stop-color="#E34684"/>
<stop offset="0.558594" stop-color="#E34685"/>
<stop offset="0.5625" stop-color="#E24685"/>
<stop offset="0.566406" stop-color="#E24686"/>
<stop offset="0.570312" stop-color="#E24786"/>
<stop offset="0.574219" stop-color="#E24787"/>
<stop offset="0.578125" stop-color="#E24787"/>
<stop offset="0.582031" stop-color="#E14788"/>
<stop offset="0.585938" stop-color="#E14789"/>
<stop offset="0.589844" stop-color="#E14789"/>
<stop offset="0.59375" stop-color="#E1478A"/>
<stop offset="0.597656" stop-color="#E1488A"/>
<stop offset="0.601562" stop-color="#E0488B"/>
<stop offset="0.605469" stop-color="#E0488C"/>
<stop offset="0.609375" stop-color="#E0488C"/>
<stop offset="0.613281" stop-color="#E0488D"/>
<stop offset="0.617188" stop-color="#E0488D"/>
<stop offset="0.621094" stop-color="#DF498E"/>
<stop offset="0.625" stop-color="#DF498F"/>
<stop offset="0.628906" stop-color="#DF498F"/>
<stop offset="0.632812" stop-color="#DF4990"/>
<stop offset="0.636719" stop-color="#DF4990"/>
<stop offset="0.640625" stop-color="#DE4991"/>
<stop offset="0.644531" stop-color="#DE4991"/>
<stop offset="0.648438" stop-color="#DE4A92"/>
<stop offset="0.652344" stop-color="#DE4A93"/>
<stop offset="0.65625" stop-color="#DE4A93"/>
<stop offset="0.660156" stop-color="#DD4A94"/>
<stop offset="0.664062" stop-color="#DD4A94"/>
<stop offset="0.667969" stop-color="#DD4A95"/>
<stop offset="0.671875" stop-color="#DD4A96"/>
<stop offset="0.675781" stop-color="#DD4B96"/>
<stop offset="0.679688" stop-color="#DC4B97"/>
<stop offset="0.683594" stop-color="#DC4B97"/>
<stop offset="0.6875" stop-color="#DC4B98"/>
<stop offset="0.691406" stop-color="#DC4B98"/>
<stop offset="0.695312" stop-color="#DC4B99"/>
<stop offset="0.699219" stop-color="#DB4B9A"/>
<stop offset="0.703125" stop-color="#DB4C9A"/>
<stop offset="0.707031" stop-color="#DB4C9B"/>
<stop offset="0.710938" stop-color="#DB4C9B"/>
<stop offset="0.714844" stop-color="#DB4C9C"/>
<stop offset="0.71875" stop-color="#DA4C9D"/>
<stop offset="0.722656" stop-color="#DA4C9D"/>
<stop offset="0.726562" stop-color="#DA4D9E"/>
<stop offset="0.730469" stop-color="#DA4D9E"/>
<stop offset="0.734375" stop-color="#DA4D9F"/>
<stop offset="0.738281" stop-color="#D94DA0"/>
<stop offset="0.742188" stop-color="#D94DA0"/>
<stop offset="0.746094" stop-color="#D94DA1"/>
<stop offset="0.75" stop-color="#D94DA1"/>
<stop offset="0.753906" stop-color="#D94EA2"/>
<stop offset="0.757812" stop-color="#D84EA2"/>
<stop offset="0.761719" stop-color="#D84EA3"/>
<stop offset="0.765625" stop-color="#D84EA4"/>
<stop offset="0.769531" stop-color="#D84EA4"/>
<stop offset="0.773437" stop-color="#D84EA5"/>
<stop offset="0.777344" stop-color="#D74EA5"/>
<stop offset="0.78125" stop-color="#D74FA6"/>
<stop offset="0.785156" stop-color="#D74FA7"/>
<stop offset="0.789062" stop-color="#D74FA7"/>
<stop offset="0.792969" stop-color="#D74FA8"/>
<stop offset="0.796875" stop-color="#D64FA8"/>
<stop offset="0.800781" stop-color="#D64FA9"/>
<stop offset="0.804687" stop-color="#D650AA"/>
<stop offset="0.808594" stop-color="#D650AA"/>
<stop offset="0.8125" stop-color="#D650AB"/>
<stop offset="0.816406" stop-color="#D550AB"/>
<stop offset="0.820312" stop-color="#D550AC"/>
<stop offset="0.824219" stop-color="#D550AC"/>
<stop offset="0.828125" stop-color="#D550AD"/>
<stop offset="0.832031" stop-color="#D551AE"/>
<stop offset="0.835937" stop-color="#D451AE"/>
<stop offset="0.839844" stop-color="#D451AF"/>
<stop offset="0.84375" stop-color="#D451AF"/>
<stop offset="0.847656" stop-color="#D451B0"/>
<stop offset="0.851562" stop-color="#D451B1"/>
<stop offset="0.855469" stop-color="#D351B1"/>
<stop offset="0.859375" stop-color="#D352B2"/>
<stop offset="0.863281" stop-color="#D352B2"/>
<stop offset="0.867187" stop-color="#D352B3"/>
<stop offset="0.871094" stop-color="#D352B4"/>
<stop offset="0.875" stop-color="#D252B4"/>
<stop offset="0.878906" stop-color="#D252B5"/>
<stop offset="0.882812" stop-color="#D252B5"/>
<stop offset="0.886719" stop-color="#D253B6"/>
<stop offset="0.890625" stop-color="#D253B6"/>
<stop offset="0.894531" stop-color="#D153B7"/>
<stop offset="0.898437" stop-color="#D153B8"/>
<stop offset="0.902344" stop-color="#D153B8"/>
<stop offset="0.90625" stop-color="#D153B9"/>
<stop offset="0.910156" stop-color="#D154B9"/>
<stop offset="0.914062" stop-color="#D054BA"/>
<stop offset="0.917969" stop-color="#D054BB"/>
<stop offset="0.921875" stop-color="#D054BB"/>
<stop offset="0.925781" stop-color="#D054BC"/>
<stop offset="0.929687" stop-color="#D054BC"/>
<stop offset="0.933594" stop-color="#CF54BD"/>
<stop offset="0.9375" stop-color="#CF55BD"/>
<stop offset="0.941406" stop-color="#CF55BE"/>
<stop offset="0.945312" stop-color="#CF55BF"/>
<stop offset="0.949219" stop-color="#CF55BF"/>
<stop offset="0.953125" stop-color="#CE55C0"/>
<stop offset="0.957031" stop-color="#CE55C0"/>
<stop offset="0.960937" stop-color="#CE55C1"/>
<stop offset="0.964844" stop-color="#CE56C2"/>
<stop offset="0.96875" stop-color="#CE56C2"/>
<stop offset="0.972656" stop-color="#CD56C3"/>
<stop offset="0.976562" stop-color="#CD56C3"/>
<stop offset="0.980469" stop-color="#CD56C4"/>
<stop offset="0.984375" stop-color="#CD56C5"/>
<stop offset="0.988281" stop-color="#CD57C5"/>
<stop offset="0.992187" stop-color="#CC57C6"/>
<stop offset="0.996094" stop-color="#CC57C6"/>
<stop offset="1" stop-color="#CC57C7"/>
</linearGradient>
</defs>
</svg>
