<svg width="403" height="396" viewBox="0 0 403 396" fill="none" xmlns="http://www.w3.org/2000/svg">
<mask id="mask0_2_428" style="mask-type:luminance" maskUnits="userSpaceOnUse" x="0" y="0" width="403" height="396">
<path d="M0.208252 0.473999H402.208V395.474H0.208252V0.473999Z" fill="white"/>
</mask>
<g mask="url(#mask0_2_428)">
<path d="M129.896 0.473999C126.807 0.473999 124.099 1.20837 121.417 1.98962C120.63 1.94275 119.818 2.04171 119.057 2.29692L4.71867 39.9323C2.06242 40.7917 0.291585 43.2709 0.291585 46.0782L0.239502 129.984C0.239502 132.51 1.70825 134.813 4.01034 135.849C4.01034 135.849 18.3437 142.427 36.1978 149.005C54.026 155.578 75.0728 162.359 90.9999 162.359C107.104 162.359 121.036 160.688 132.151 159.047C143.297 157.427 151.88 155.885 155.828 155.885C163.505 155.885 173.151 157.047 181.76 158.313V177.99L198.526 194.734H207.693V255.698L217.974 265.964H236.312L246.594 255.698V194.734H255.76L272.526 177.99V140.25L266.115 133.854C270.042 129.297 272.526 123.458 272.526 117.031C272.526 109.823 269.536 103.245 264.75 98.5677L265.203 99.0469L218.609 43.0469C218.052 42.3855 217.37 41.8282 216.609 41.4532L145.521 4.54692C145.219 4.39587 144.891 4.24483 144.562 4.14067C140.229 1.91671 135.266 0.473999 129.896 0.473999ZM129.896 13.4271C133.24 13.4271 136.354 14.3594 139.245 15.9532C140 16.3855 140.838 16.6355 141.724 16.7396L140.713 16.6355L209.469 52.3282L255.229 107.318C255.38 107.495 255.505 107.646 255.682 107.823C258.088 110.177 259.557 113.391 259.557 117.031C259.557 124.266 253.833 129.984 246.594 129.984C242.437 129.984 238.844 128.036 236.437 124.948C236.182 124.646 235.932 124.365 235.651 124.115L190.349 74.2344C189.51 73.323 188.448 72.6667 187.234 72.3334L138.078 58.9792C137.521 58.8282 136.963 58.75 136.38 58.75C133.443 58.75 131.901 59.4584 129.469 60.448C127.036 61.4323 124.302 62.875 121.594 64.849C116.146 68.7969 110.448 75.5 110.448 84.6563V97.6042C110.448 101.172 113.359 104.078 116.932 104.078H142.865C180.245 104.078 213.771 125.026 214.099 125.224C214.203 125.302 214.302 125.38 214.406 125.453C218.177 127.755 220.661 131.75 220.661 136.458C220.661 143.693 214.937 149.406 207.693 149.406C206.781 149.406 205.844 149.281 204.781 149.031C204.755 149.031 204.703 149.031 204.656 149.031L204.151 148.927C204.125 148.927 204.099 148.927 204.099 148.927C203.161 148.724 175.76 142.932 155.828 142.932C149.219 142.932 141.094 144.625 130.276 146.245C119.437 147.839 106.219 149.406 90.9999 149.406C79.0989 149.406 58.0051 143.234 40.6562 136.865C25.4374 131.245 16.0155 126.922 13.203 125.63L13.2291 50.7605L121.844 15.0157L120.859 14.9427C121.771 15.0157 122.708 14.8907 123.594 14.5886C125.719 13.8542 127.797 13.4271 129.896 13.4271ZM136 71.8282L182.016 84.349L199.385 103.474C184.927 97.3282 165.354 91.1302 142.865 91.1302H123.417V84.6563C123.417 80.8594 125.771 77.849 129.213 75.323C130.937 74.0573 132.859 73.0677 134.38 72.4375C135.62 71.9323 136.229 71.8802 136 71.8282ZM236.49 140.479C239.578 141.948 242.922 142.932 246.594 142.932C249.63 142.932 252.542 142.302 255.276 141.313L259.557 145.615V172.63L250.391 181.786H233.625V250.333L230.943 253.016H223.344L220.661 250.333V181.786H203.896L194.729 172.63V160.438C197.083 160.865 202.021 161.729 202.021 161.729C202.453 161.802 202.906 161.854 203.365 161.854C204.755 162.104 206.125 162.359 207.693 162.359C211.823 162.359 215.672 161.271 219.115 159.5C221.318 161.271 224.078 162.359 227.141 162.359C234.307 162.359 240.109 156.568 240.109 149.406C240.109 145.943 238.713 142.781 236.49 140.479ZM317.906 259.49C310.766 259.49 303.927 260.932 297.745 263.536L210.224 292.802C209.693 293.005 209.213 293.234 208.734 293.536C197.312 297.156 188.88 307.396 188.344 319.818C188.271 320.224 188.245 320.604 188.245 321.005C188.245 322.724 188.422 324.396 188.75 326.042C189.005 327.531 189.437 328.948 189.943 330.339C189.943 330.365 189.943 330.365 189.943 330.391L189.057 330.516L102.042 294.37C101.208 294.042 100.344 293.865 99.4843 293.891C96.7968 292.906 94.0885 291.865 90.9999 291.865C76.7447 291.865 65.0676 303.526 65.0676 317.771C65.0676 326.875 70.3124 334.286 77.453 338.917C78.1093 339.927 79.0208 340.734 80.1353 341.266L187.307 392.339C187.687 392.516 188.094 392.667 188.526 392.766C192.375 394.438 196.651 395.474 201.208 395.474C203.286 395.474 205.161 395.12 206.984 394.766C207.641 394.818 208.302 394.766 208.932 394.615L337.25 363.297L393.953 379.26C395.901 379.792 398.005 379.411 399.625 378.172C401.219 376.958 402.182 375.036 402.182 373.01V281.953C402.182 278.917 400.057 276.286 397.094 275.63L329.703 260.828C329.198 260.729 328.693 260.703 328.213 260.703C324.896 260.021 321.5 259.49 317.906 259.49ZM317.906 272.443C320.891 272.443 323.828 272.823 326.719 273.479C326.969 273.552 327.224 273.578 327.5 273.63L389.219 287.161V364.464L339.099 350.375C338.036 350.094 336.896 350.068 335.833 350.349L206.984 381.74L207.797 381.839C207.062 381.766 206.328 381.792 205.594 381.969C204.073 382.323 202.604 382.521 201.208 382.521C198.323 382.521 195.588 381.839 193.031 380.625C192.448 380.375 191.818 380.172 191.182 380.094L191.891 380.172L91.203 332.214L88.9478 337.802C90.2395 334.589 88.7708 330.948 85.6301 329.505C81.151 327.458 78.0364 323.031 78.0364 317.771C78.0364 310.536 83.7551 304.818 90.9999 304.818C92.9739 304.818 94.8489 305.297 96.6718 306.208C99.8645 307.776 103.713 306.464 105.307 303.302L102.651 308.661L185.74 343.167C186.854 343.646 188.068 343.771 189.26 343.594L197.667 342.281C202.88 347.135 209.797 350.146 217.417 350.146C221.776 350.146 225.849 349.135 229.193 348.146C232.562 347.161 235.729 346 235.729 346C238.005 345.443 239.807 343.646 240.411 341.344C240.995 339.068 240.286 336.641 238.562 335.021C236.844 333.375 234.359 332.844 232.104 333.578C230.182 334.135 228.333 334.917 225.547 335.729C222.76 336.536 219.547 337.193 217.417 337.193C212.63 337.193 208.401 335.12 205.437 331.859C205.286 331.63 205.135 331.401 204.958 331.198C203.792 329.781 202.859 328.214 202.224 326.547C202.172 326.396 202.146 326.245 202.099 326.115C201.844 325.432 201.667 324.724 201.516 323.99C201.338 323.031 201.208 322.021 201.208 321.005C201.208 313.292 206.552 306.969 213.745 305.297C216.099 304.74 217.974 302.922 218.557 300.568L217.698 303.984L302.307 275.677C302.484 275.604 302.635 275.552 302.786 275.474C307.422 273.526 312.51 272.443 317.906 272.443ZM291.974 311.292C288.401 311.292 285.49 314.203 285.49 317.771C285.49 321.333 288.401 324.245 291.974 324.245C295.542 324.245 298.453 321.333 298.453 317.771C298.453 314.203 295.542 311.292 291.974 311.292ZM272.526 317.771C268.953 317.771 266.042 320.677 266.042 324.245C266.042 327.813 268.953 330.719 272.526 330.719C276.094 330.719 279.005 327.813 279.005 324.245C279.005 320.677 276.094 317.771 272.526 317.771ZM253.073 324.245C249.505 324.245 246.594 327.151 246.594 330.719C246.594 334.286 249.505 337.193 253.073 337.193C256.646 337.193 259.557 334.286 259.557 330.719C259.557 327.151 256.646 324.245 253.073 324.245Z" fill="white"/>
</g>
</svg>
