<svg width="279" height="274" viewBox="0 0 279 274" fill="none" xmlns="http://www.w3.org/2000/svg">
<path d="M33.276 160.172C32.1927 160.172 31.1094 160.224 30.0312 160.333C28.9479 160.438 27.875 160.599 26.8125 160.807C25.7448 161.021 24.6979 161.281 23.6562 161.599C22.6198 161.911 21.5989 162.276 20.5937 162.693C19.5937 163.109 18.6094 163.573 17.6562 164.083C16.6979 164.594 15.7656 165.151 14.8646 165.755C13.9635 166.359 13.0885 167.005 12.25 167.693C11.4114 168.38 10.6094 169.109 9.84374 169.875C9.07291 170.646 8.34374 171.448 7.65624 172.286C6.96874 173.125 6.32291 173.995 5.71874 174.896C5.11457 175.802 4.55728 176.729 4.04686 177.688C3.53645 178.646 3.07291 179.625 2.65624 180.625C2.23957 181.63 1.87499 182.651 1.56249 183.688C1.24478 184.724 0.984365 185.776 0.770823 186.844C0.557282 187.906 0.401031 188.979 0.291656 190.057C0.18749 191.135 0.135406 192.219 0.135406 193.307C0.135406 194.391 0.18749 195.474 0.291656 196.552C0.401031 197.635 0.557282 198.703 0.770823 199.771C0.984365 200.833 1.24478 201.885 1.56249 202.922C1.87499 203.964 2.23957 204.984 2.65624 205.984C3.07291 206.99 3.53645 207.969 4.04686 208.927C4.55728 209.88 5.11457 210.812 5.71874 211.714C6.32291 212.615 6.96874 213.484 7.65624 214.328C8.34374 215.167 9.07291 215.969 9.84374 216.734C10.6094 217.5 11.4114 218.229 12.25 218.917C13.0885 219.609 13.9635 220.255 14.8646 220.854C15.7656 221.458 16.6979 222.016 17.6562 222.526C18.6094 223.036 19.5937 223.5 20.5937 223.917C21.5989 224.333 22.6198 224.698 23.6562 225.016C24.6979 225.328 25.7448 225.594 26.8125 225.802C27.875 226.016 28.9479 226.172 30.0312 226.281C31.1094 226.385 32.1927 226.438 33.276 226.438C34.3646 226.438 35.4479 226.385 36.526 226.281C37.6042 226.172 38.6771 226.016 39.7448 225.802C40.8073 225.594 41.8594 225.328 42.901 225.016C43.9375 224.698 44.9583 224.333 45.9635 223.917C46.9635 223.5 47.9427 223.036 48.901 222.526C49.8594 222.016 50.7864 221.458 51.6927 220.854C52.5937 220.255 53.4635 219.609 54.3021 218.917C55.1406 218.229 55.9479 217.5 56.7135 216.734C57.4792 215.969 58.2083 215.167 58.8958 214.328C59.5885 213.484 60.2344 212.615 60.8385 211.714C61.4375 210.812 61.9948 209.88 62.5104 208.927C63.0208 207.969 63.4844 206.99 63.901 205.984C64.3125 204.984 64.6771 203.964 64.9948 202.922C65.3073 201.885 65.5729 200.833 65.7865 199.771C65.9948 198.703 66.1562 197.635 66.2604 196.552C66.3698 195.474 66.4219 194.391 66.4219 193.307C66.4219 192.219 66.3646 191.141 66.2604 190.057C66.151 188.979 65.9896 187.906 65.776 186.844C65.5625 185.781 65.3021 184.729 64.9844 183.693C64.6667 182.656 64.3021 181.635 63.8854 180.635C63.4687 179.63 63.0052 178.651 62.4948 177.698C61.9844 176.74 61.4271 175.812 60.8229 174.906C60.2187 174.005 59.5729 173.135 58.8854 172.297C58.1979 171.458 57.4687 170.656 56.6979 169.891C55.9323 169.125 55.1302 168.396 54.2917 167.708C53.4531 167.021 52.5833 166.375 51.6823 165.771C50.776 165.167 49.8489 164.609 48.8906 164.099C47.9375 163.589 46.9583 163.12 45.9531 162.708C44.9531 162.292 43.9323 161.927 42.8958 161.609C41.8542 161.292 40.8021 161.031 39.7396 160.818C38.6771 160.604 37.6042 160.443 36.526 160.333C35.4427 160.229 34.3646 160.172 33.276 160.172ZM33.276 221.724C32.3437 221.724 31.4167 221.682 30.4896 221.589C29.5625 221.5 28.6406 221.359 27.7239 221.182C26.8125 221 25.9114 220.771 25.0156 220.5C24.125 220.229 23.25 219.917 22.3854 219.562C21.526 219.203 20.6875 218.807 19.8646 218.365C19.0417 217.927 18.2448 217.448 17.4687 216.932C16.6927 216.411 15.9479 215.859 15.2239 215.266C14.5052 214.677 13.8125 214.052 13.1562 213.391C12.4948 212.734 11.8698 212.042 11.2812 211.323C10.6875 210.604 10.1354 209.854 9.61978 209.083C9.09895 208.307 8.61978 207.51 8.18228 206.688C7.74478 205.865 7.34374 205.021 6.98957 204.161C6.6302 203.302 6.3177 202.427 6.04686 201.531C5.77603 200.641 5.55207 199.74 5.36978 198.823C5.18749 197.911 5.05207 196.99 4.96353 196.062C4.86978 195.135 4.82291 194.208 4.82291 193.276C4.82291 192.344 4.86978 191.411 4.96353 190.484C5.05207 189.557 5.1927 188.641 5.37499 187.724C5.55728 186.812 5.78124 185.906 6.05207 185.016C6.32291 184.125 6.63541 183.25 6.99478 182.391C7.35416 181.526 7.74999 180.688 8.18749 179.865C8.6302 179.042 9.10936 178.245 9.62499 177.469C10.1458 176.698 10.6979 175.948 11.2917 175.229C11.8802 174.51 12.5052 173.818 13.1667 173.161C13.8281 172.5 14.5156 171.88 15.2396 171.286C15.9583 170.698 16.7031 170.141 17.4792 169.625C18.2552 169.109 19.0573 168.63 19.875 168.193C20.6979 167.75 21.5417 167.354 22.401 167C23.2656 166.641 24.1406 166.328 25.0312 166.057C25.9219 165.786 26.8281 165.563 27.7396 165.38C28.6562 165.198 29.5781 165.062 30.5052 164.974C31.4323 164.88 32.3594 164.839 33.2917 164.839C34.2239 164.839 35.1562 164.885 36.0833 164.979C37.0104 165.068 37.9323 165.203 38.8437 165.385C39.7604 165.568 40.6614 165.797 41.5521 166.068C42.4427 166.339 43.3229 166.651 44.1823 167.01C45.0417 167.365 45.8854 167.766 46.7083 168.203C47.526 168.646 48.3281 169.125 49.0989 169.641C49.875 170.161 50.625 170.714 51.3437 171.307C52.0625 171.896 52.75 172.526 53.4114 173.182C54.0677 173.844 54.6927 174.531 55.2864 175.255C55.875 175.974 56.4271 176.724 56.9479 177.495C57.4635 178.271 57.9427 179.068 58.3802 179.891C58.8177 180.714 59.2187 181.557 59.5729 182.417C59.9271 183.276 60.2396 184.156 60.5104 185.047C60.7812 185.938 61.0052 186.844 61.1875 187.755C61.3698 188.667 61.5052 189.589 61.5937 190.516C61.6875 191.443 61.7292 192.375 61.7292 193.307C61.7292 194.234 61.6823 195.167 61.5885 196.094C61.4948 197.016 61.3594 197.938 61.1771 198.849C60.9948 199.76 60.7656 200.667 60.4948 201.557C60.2239 202.443 59.9114 203.323 59.5521 204.182C59.1927 205.042 58.7969 205.88 58.3542 206.698C57.9167 207.521 57.4375 208.318 56.9219 209.094C56.401 209.865 55.8489 210.609 55.2552 211.333C54.6667 212.052 54.0417 212.74 53.3802 213.396C52.7239 214.057 52.0312 214.677 51.3125 215.271C50.5937 215.859 49.8489 216.411 49.0729 216.932C48.2969 217.448 47.5 217.927 46.6771 218.365C45.8594 218.802 45.0156 219.203 44.1562 219.557C43.2969 219.911 42.4219 220.229 41.5312 220.5C40.6406 220.771 39.7396 220.995 38.8229 221.177C37.9114 221.359 36.9896 221.495 36.0625 221.589C35.1354 221.677 34.2083 221.724 33.276 221.724Z" fill="white"/>
<path d="M41.8385 173.703C40.8333 173.281 39.7864 173.068 38.6979 173.068H36.0677C35.5417 173.073 35.0156 173.125 34.4948 173.229C33.9792 173.333 33.4739 173.484 32.9844 173.687C32.4948 173.891 32.0312 174.141 31.5937 174.437C31.151 174.729 30.7448 175.062 30.3698 175.437C29.9948 175.812 29.6614 176.219 29.3646 176.661C29.0729 177.099 28.8229 177.562 28.6198 178.052C28.4167 178.542 28.2656 179.047 28.1614 179.562C28.0521 180.083 28 180.604 28 181.135V187.281H25.6562C25.3437 187.281 25.0417 187.339 24.7552 187.458C24.4687 187.578 24.2135 187.745 23.9948 187.964C23.776 188.187 23.6042 188.437 23.4896 188.729C23.3698 189.016 23.3073 189.312 23.3073 189.625C23.3073 189.937 23.3698 190.234 23.4896 190.521C23.6042 190.807 23.776 191.062 23.9948 191.281C24.2135 191.5 24.4687 191.672 24.7552 191.792C25.0417 191.911 25.3437 191.969 25.6562 191.969H28V211.219C28 211.531 28.0573 211.833 28.1771 212.12C28.2969 212.406 28.4687 212.661 28.6875 212.88C28.9062 213.099 29.1614 213.271 29.4479 213.385C29.7344 213.505 30.0364 213.568 30.3437 213.568C30.6562 213.568 30.9583 213.505 31.2448 213.385C31.5312 213.271 31.7864 213.099 32.0052 212.88C32.2239 212.661 32.3958 212.406 32.5104 212.12C32.6302 211.833 32.6927 211.531 32.6927 211.219V192.016H38.2292C38.5364 192.016 38.8385 191.958 39.125 191.839C39.4114 191.719 39.6667 191.547 39.8854 191.328C40.1042 191.109 40.276 190.854 40.3958 190.568C40.5156 190.281 40.5729 189.984 40.5729 189.672C40.5729 189.359 40.5156 189.062 40.3958 188.776C40.276 188.484 40.1042 188.234 39.8854 188.01C39.6667 187.792 39.4114 187.625 39.125 187.505C38.8385 187.385 38.5364 187.328 38.2292 187.328H32.6927V181.182C32.6927 180.734 32.7812 180.307 32.9531 179.896C33.125 179.479 33.3698 179.12 33.6875 178.802C34.0052 178.484 34.3698 178.24 34.7812 178.068C35.1927 177.896 35.6198 177.807 36.0677 177.807H38.6979C39.1562 177.807 39.5937 177.901 40.0104 178.089C40.3021 178.208 40.6042 178.271 40.9167 178.271C41.2344 178.271 41.5364 178.214 41.8281 178.094C42.1198 177.974 42.375 177.802 42.5989 177.578C42.8229 177.354 42.9948 177.099 43.1198 176.807C43.2396 176.521 43.3021 176.214 43.3021 175.901C43.3021 175.583 43.2396 175.281 43.1198 174.99C43 174.698 42.8333 174.443 42.6094 174.219C42.3854 173.995 42.1302 173.823 41.8385 173.703Z" fill="white"/>
<path d="M40.4531 77.8646C41.5417 77.8646 42.625 77.8125 43.7031 77.7031C44.7865 77.599 45.8594 77.4375 46.9219 77.2292C47.9844 77.0156 49.0365 76.75 50.0781 76.4375C51.1146 76.1198 52.1354 75.7552 53.1406 75.3438C54.1406 74.9271 55.1198 74.4635 56.0781 73.9531C57.0365 73.4427 57.9688 72.8854 58.8698 72.2812C59.7708 71.6771 60.6406 71.0313 61.4792 70.3438C62.3229 69.6563 63.125 68.9271 63.8906 68.1615C64.6615 67.3906 65.3854 66.5885 66.0781 65.75C66.7656 64.9115 67.4115 64.0417 68.0156 63.1406C68.6146 62.2344 69.1719 61.3073 69.6875 60.349C70.1979 59.3906 70.6615 58.4115 71.0781 57.4115C71.4896 56.4062 71.8594 55.3854 72.1719 54.349C72.4896 53.3073 72.75 52.2604 72.9635 51.1927C73.1719 50.1302 73.3333 49.0573 73.4375 47.9792C73.5469 46.8958 73.599 45.8177 73.599 44.7292C73.599 43.6458 73.5469 42.5625 73.4375 41.4844C73.3333 40.401 73.1719 39.3281 72.9635 38.2656C72.75 37.2031 72.4896 36.151 72.1719 35.1094C71.8594 34.0729 71.4896 33.0521 71.0781 32.0521C70.6615 31.0469 70.1979 30.0677 69.6875 29.1094C69.1719 28.1563 68.6146 27.224 68.0156 26.3229C67.4115 25.4219 66.7656 24.5469 66.0781 23.7083C65.3854 22.8698 64.6615 22.0677 63.8906 21.3021C63.125 20.5313 62.3229 19.8073 61.4792 19.1146C60.6406 18.4271 59.7708 17.7813 58.8698 17.1823C57.9688 16.5781 57.0365 16.0208 56.0781 15.5104C55.1198 14.9948 54.1406 14.5313 53.1406 14.1198C52.1354 13.7031 51.1146 13.3385 50.0781 13.0208C49.0365 12.7083 47.9844 12.4427 46.9219 12.2344C45.8594 12.0208 44.7865 11.8594 43.7031 11.7552C42.625 11.651 41.5417 11.5938 40.4531 11.5938C39.3698 11.5938 38.2865 11.651 37.2083 11.7552C36.125 11.8594 35.0521 12.0208 33.9896 12.2344C32.9271 12.4427 31.875 12.7083 30.8333 13.0208C29.7969 13.3385 28.776 13.7031 27.7708 14.1198C26.7708 14.5313 25.7865 14.9948 24.8333 15.5104C23.875 16.0208 22.9427 16.5781 22.0417 17.1823C21.1406 17.7813 20.2708 18.4271 19.4271 19.1146C18.5885 19.8073 17.7865 20.5313 17.0208 21.3021C16.25 22.0677 15.5208 22.8698 14.8333 23.7083C14.1458 24.5469 13.5 25.4219 12.8958 26.3229C12.2917 27.224 11.7344 28.1563 11.224 29.1094C10.7135 30.0677 10.25 31.0469 9.83333 32.0521C9.41667 33.0521 9.05208 34.0729 8.73958 35.1094C8.42187 36.151 8.16146 37.2031 7.94792 38.2656C7.73437 39.3281 7.57813 40.401 7.46875 41.4844C7.36458 42.5625 7.3125 43.6458 7.3125 44.7292C7.3125 45.8125 7.36979 46.8958 7.47396 47.974C7.58333 49.0573 7.74479 50.125 7.95833 51.1927C8.16667 52.2552 8.43229 53.3073 8.75 54.3438C9.0625 55.3802 9.43229 56.401 9.84896 57.401C10.2604 58.4063 10.7292 59.3854 11.2396 60.3385C11.75 61.2969 12.3073 62.224 12.9115 63.125C13.5156 64.0313 14.1615 64.901 14.849 65.7396C15.5365 66.5781 16.2656 67.3802 17.0312 68.1458C17.8021 68.9115 18.6042 69.6406 19.4427 70.3281C20.2813 71.0156 21.151 71.6615 22.0521 72.2656C22.9531 72.8698 23.8854 73.4271 24.8385 73.9375C25.7969 74.4479 26.776 74.9115 27.7812 75.3281C28.7812 75.7448 29.8021 76.1094 30.8385 76.4271C31.875 76.7448 32.9271 77.0052 33.9948 77.2188C35.0573 77.4323 36.1302 77.5938 37.2083 77.6979C38.2865 77.8073 39.3698 77.8646 40.4531 77.8646ZM40.4531 16.2865C41.3854 16.2865 42.3177 16.3333 43.2448 16.4219C44.1719 16.5156 45.0938 16.651 46.0052 16.8333C46.9219 17.0156 47.8229 17.2396 48.7135 17.5104C49.6042 17.7813 50.4844 18.0937 51.3438 18.4531C52.2031 18.8073 53.0469 19.2031 53.8698 19.6458C54.6875 20.0833 55.4896 20.5625 56.2604 21.0781C57.0365 21.599 57.7865 22.151 58.5052 22.7448C59.224 23.3333 59.9167 23.9583 60.5729 24.6146C61.2344 25.276 61.8594 25.9635 62.4479 26.6875C63.0417 27.4063 63.5938 28.151 64.1146 28.9271C64.6302 29.7031 65.1094 30.5 65.5469 31.3229C65.9896 32.1406 66.3854 32.9844 66.7448 33.8438C67.099 34.7031 67.4115 35.5833 67.6823 36.474C67.9531 37.3646 68.1771 38.2656 68.3594 39.1823C68.5417 40.0938 68.6823 41.0156 68.7708 41.9427C68.8646 42.8698 68.9062 43.7969 68.9062 44.7292C68.9062 45.6615 68.8646 46.5885 68.7708 47.5156C68.6823 48.4427 68.5417 49.3646 68.3594 50.2812C68.1771 51.1927 67.9531 52.0938 67.6823 52.9844C67.4115 53.8802 67.099 54.7552 66.7448 55.6146C66.3854 56.474 65.9896 57.3177 65.5469 58.1406C65.1094 58.9583 64.6302 59.7604 64.1146 60.5312C63.5938 61.3073 63.0417 62.0573 62.4479 62.776C61.8594 63.4948 61.2344 64.1823 60.5729 64.8438C59.9167 65.5 59.224 66.125 58.5052 66.7188C57.7865 67.3073 57.0365 67.8646 56.2604 68.3802C55.4896 68.8958 54.6875 69.375 53.8698 69.8177C53.0469 70.2552 52.2031 70.651 51.3438 71.0104C50.4844 71.3646 49.6042 71.6771 48.7135 71.9479C47.8229 72.2188 46.9219 72.4479 46.0052 72.6302C45.0938 72.8073 44.1719 72.9479 43.2448 73.0365C42.3177 73.1302 41.3854 73.1719 40.4531 73.1719C39.526 73.1719 38.5938 73.1302 37.6667 73.0365C36.7396 72.9479 35.8177 72.8073 34.9062 72.6302C33.9896 72.4479 33.0885 72.2188 32.1979 71.9479C31.3021 71.6771 30.4271 71.3646 29.5677 71.0104C28.7083 70.651 27.8646 70.2552 27.0417 69.8177C26.2188 69.375 25.4219 68.8958 24.6458 68.3802C23.875 67.8646 23.125 67.3073 22.4062 66.7188C21.6875 66.125 20.9948 65.5 20.3385 64.8438C19.6771 64.1823 19.0521 63.4948 18.4635 62.776C17.8698 62.0573 17.3177 61.3073 16.7969 60.5312C16.2813 59.7604 15.8021 58.9583 15.3646 58.1406C14.9219 57.3177 14.526 56.474 14.1667 55.6146C13.8125 54.7552 13.5 53.8802 13.2292 52.9844C12.9583 52.0938 12.7292 51.1927 12.5469 50.2812C12.3698 49.3646 12.2292 48.4427 12.1406 47.5156C12.0469 46.5885 12.0052 45.6615 12.0052 44.7292C12.0052 43.7969 12.0521 42.8698 12.1406 41.9427C12.2344 41.0156 12.3698 40.0938 12.5521 39.1823C12.7344 38.2708 12.9635 37.3646 13.2344 36.474C13.5052 35.5833 13.8177 34.7083 14.1771 33.849C14.5313 32.9896 14.9323 32.1458 15.3698 31.3281C15.8073 30.5052 16.2865 29.7083 16.8073 28.9323C17.3229 28.1562 17.875 27.4115 18.4688 26.6927C19.0573 25.974 19.6823 25.2813 20.3438 24.625C21 23.9635 21.6927 23.3385 22.4115 22.75C23.1302 22.1563 23.8802 21.6042 24.651 21.0885C25.4271 20.5677 26.224 20.0885 27.0469 19.651C27.8698 19.2135 28.7083 18.8125 29.5729 18.4583C30.4323 18.099 31.3073 17.7865 32.1979 17.5156C33.0885 17.2448 33.9948 17.0208 34.9062 16.8385C35.8177 16.6563 36.7396 16.5156 37.6667 16.4271C38.5938 16.3333 39.526 16.2865 40.4531 16.2865Z" fill="white"/>
<path d="M27.8594 62.9479H53.0729C53.5521 62.9479 54.0208 62.9062 54.4896 62.8125C54.9583 62.7188 55.4115 62.5833 55.849 62.401C56.2865 62.2188 56.7083 61.9948 57.1042 61.7292C57.5 61.4635 57.8646 61.1667 58.1979 60.8281C58.5365 60.4896 58.8385 60.125 59.099 59.7292C59.3646 59.3333 59.5885 58.9167 59.7708 58.4792C59.9531 58.0365 60.0885 57.5833 60.1823 57.1198C60.276 56.651 60.3229 56.1823 60.3229 55.7031V33.7344C60.3229 33.2552 60.276 32.7865 60.1823 32.3177C60.0885 31.8542 59.9479 31.401 59.7656 30.9635C59.5833 30.526 59.3594 30.1094 59.0938 29.7135C58.8281 29.3177 58.5313 28.9531 58.1927 28.6146C57.8594 28.2812 57.4896 27.9792 57.0938 27.7135C56.7031 27.4479 56.2865 27.2292 55.8438 27.0417C55.4063 26.8594 54.9531 26.724 54.4896 26.6302C54.0208 26.5365 53.5521 26.4896 53.0729 26.4844H27.8594C27.3854 26.4896 26.9115 26.5365 26.4479 26.6302C25.9792 26.724 25.526 26.8594 25.0885 27.0417C24.651 27.2292 24.2344 27.4479 23.8385 27.7135C23.4427 27.9792 23.0781 28.2812 22.7396 28.6146C22.4062 28.9531 22.1042 29.3177 21.8385 29.7135C21.5729 30.1094 21.3542 30.526 21.1667 30.9635C20.9844 31.401 20.849 31.8542 20.7552 32.3177C20.6615 32.7865 20.6146 33.2552 20.6094 33.7344V55.7031C20.6094 56.1823 20.6563 56.651 20.75 57.1198C20.8437 57.5833 20.9792 58.0365 21.1615 58.4792C21.3437 58.9167 21.5677 59.3333 21.8333 59.7292C22.099 60.125 22.3958 60.4896 22.7344 60.8281C23.0729 61.1667 23.4375 61.4635 23.8333 61.7292C24.2292 61.9948 24.6458 62.2188 25.0833 62.401C25.526 62.5833 25.9792 62.7188 26.4427 62.8125C26.9115 62.9062 27.3854 62.9479 27.8594 62.9479ZM25.3021 33.7344C25.3021 33.3958 25.3698 33.0677 25.4948 32.7552C25.625 32.4427 25.8125 32.1667 26.0521 31.9271C26.2917 31.6875 26.5677 31.5 26.8802 31.3698C27.1927 31.2396 27.5208 31.1771 27.8594 31.1771H53.0729C53.4115 31.1771 53.7396 31.2396 54.0521 31.3698C54.3646 31.5 54.6406 31.6875 54.8854 31.9271C55.125 32.1667 55.3073 32.4427 55.4375 32.7552C55.5677 33.0677 55.6302 33.3958 55.6302 33.7344V55.7031C55.6302 56.0417 55.5677 56.3698 55.4375 56.6823C55.3073 56.9948 55.125 57.2708 54.8854 57.5104C54.6406 57.75 54.3646 57.9375 54.0521 58.0677C53.7396 58.1979 53.4115 58.2604 53.0729 58.2604H27.8594C27.5208 58.2604 27.1927 58.1979 26.8802 58.0677C26.5677 57.9375 26.2917 57.75 26.0521 57.5104C25.8125 57.2708 25.625 56.9948 25.4948 56.6823C25.3698 56.3698 25.3021 56.0417 25.3021 55.7031V33.7344Z" fill="white"/>
<path d="M40.4531 55.7292C41.1302 55.7292 41.7969 55.6615 42.4531 55.5312C43.1146 55.401 43.7552 55.2031 44.3802 54.9479C45 54.6927 45.5885 54.375 46.151 54C46.7083 53.625 47.2292 53.2031 47.7031 52.724C48.1771 52.25 48.6042 51.7344 48.9792 51.1719C49.3542 50.6146 49.6667 50.026 49.9271 49.401C50.1823 48.7813 50.3802 48.1406 50.5104 47.4792C50.6406 46.8177 50.7083 46.151 50.7083 45.4792C50.7083 44.8073 50.6406 44.1406 50.5104 43.4792C50.3802 42.8229 50.1823 42.1823 49.9271 41.5573C49.6667 40.9375 49.3542 40.349 48.9792 39.7865C48.6042 39.2292 48.1771 38.7083 47.7031 38.2344C47.2292 37.7604 46.7083 37.3333 46.151 36.9583C45.5885 36.5885 45 36.2708 44.3802 36.0156C43.7552 35.7552 43.1146 35.5625 42.4531 35.4323C41.7969 35.2969 41.1302 35.2344 40.4531 35.2344C39.7813 35.2344 39.1146 35.2969 38.4531 35.4323C37.7969 35.5625 37.1562 35.7552 36.5312 36.0156C35.9115 36.2708 35.3177 36.5885 34.7604 36.9583C34.2031 37.3333 33.6823 37.7604 33.2083 38.2344C32.7292 38.7083 32.3073 39.2292 31.9323 39.7865C31.5573 40.349 31.2448 40.9375 30.9844 41.5573C30.7292 42.1823 30.5313 42.8229 30.401 43.4792C30.2708 44.1406 30.2031 44.8073 30.2031 45.4792C30.2031 46.151 30.2708 46.8177 30.401 47.4792C30.5313 48.1406 30.7292 48.7813 30.9844 49.401C31.2448 50.026 31.5573 50.6146 31.9323 51.1719C32.3073 51.7344 32.7292 52.25 33.2083 52.724C33.6823 53.2031 34.2031 53.625 34.7604 54C35.3177 54.375 35.9115 54.6927 36.5312 54.9479C37.1562 55.2031 37.7969 55.401 38.4531 55.5312C39.1146 55.6615 39.7813 55.7292 40.4531 55.7292ZM40.4531 39.9219C40.8229 39.9219 41.1823 39.9583 41.5417 40.0312C41.8958 40.099 42.2448 40.2083 42.5833 40.3438C42.9219 40.4844 43.2396 40.6563 43.5417 40.8594C43.849 41.0625 44.1302 41.2917 44.3854 41.5521C44.6458 41.8073 44.875 42.0885 45.0781 42.3906C45.2813 42.6979 45.4531 43.0156 45.5938 43.3542C45.7292 43.6927 45.8385 44.0365 45.9062 44.3958C45.9792 44.7552 46.0156 45.1146 46.0156 45.4792C46.0156 45.8438 45.9792 46.2083 45.9062 46.5625C45.8385 46.9219 45.7292 47.2708 45.5938 47.6094C45.4531 47.9427 45.2813 48.2656 45.0781 48.5677C44.875 48.8698 44.6458 49.151 44.3854 49.4115C44.1302 49.6667 43.849 49.901 43.5417 50.099C43.2396 50.3021 42.9219 50.474 42.5833 50.6146C42.2448 50.7552 41.8958 50.8594 41.5417 50.9323C41.1823 51 40.8229 51.0365 40.4531 51.0365C40.0885 51.0365 39.7292 51 39.3698 50.9323C39.0104 50.8594 38.6667 50.7552 38.3281 50.6146C37.9896 50.474 37.6719 50.3021 37.3646 50.099C37.0625 49.901 36.7813 49.6667 36.526 49.4115C36.2656 49.151 36.0365 48.8698 35.8333 48.5677C35.6302 48.2656 35.4583 47.9427 35.3177 47.6094C35.1823 47.2708 35.0729 46.9219 35.0052 46.5625C34.9323 46.2083 34.8958 45.8438 34.8958 45.4792C34.9115 44.7552 35.0625 44.0573 35.3542 43.3906C35.6406 42.724 36.0469 42.1354 36.5677 41.625C37.0833 41.1198 37.6823 40.724 38.3542 40.4531C39.026 40.1771 39.7292 40.0417 40.4531 40.0417V39.9219Z" fill="white"/>
<path d="M53.1198 35.2813C53.1198 35.4896 53.0833 35.6875 53 35.8802C52.9219 36.0729 52.8073 36.2448 52.6614 36.3906C52.5156 36.5365 52.3437 36.6511 52.151 36.7292C51.9583 36.8125 51.7604 36.849 51.5521 36.849C51.3437 36.849 51.1406 36.8125 50.9479 36.7292C50.7552 36.6511 50.5885 36.5365 50.4375 36.3906C50.2917 36.2448 50.1771 36.0729 50.0989 35.8802C50.0208 35.6875 49.9792 35.4896 49.9792 35.2813C49.9792 35.0729 50.0208 34.8698 50.0989 34.6771C50.1771 34.4844 50.2917 34.3177 50.4375 34.1667C50.5885 34.0208 50.7552 33.9063 50.9479 33.8281C51.1406 33.75 51.3437 33.7083 51.5521 33.7083C51.7604 33.7083 51.9583 33.75 52.151 33.8281C52.3437 33.9063 52.5156 34.0208 52.6614 34.1667C52.8073 34.3177 52.9219 34.4844 53 34.6771C53.0833 34.8698 53.1198 35.0729 53.1198 35.2813Z" fill="white"/>
<mask id="mask0_18_9" style="mask-type:luminance" maskUnits="userSpaceOnUse" x="211" y="94" width="68" height="74">
<path d="M211.333 94.6667H278.37V168H211.333V94.6667Z" fill="white"/>
</mask>
<g mask="url(#mask0_18_9)">
<path d="M278.141 128.911C278.141 127.844 278.089 126.781 277.984 125.714C277.88 124.651 277.724 123.594 277.521 122.547C277.312 121.5 277.057 120.464 276.75 119.438C276.443 118.417 276.089 117.406 275.688 116.417C275.281 115.427 274.833 114.464 274.333 113.516C273.839 112.568 273.297 111.651 272.708 110.755C272.125 109.865 271.495 109 270.828 108.167C270.156 107.333 269.448 106.536 268.703 105.771C267.953 105.005 267.172 104.281 266.354 103.594C265.536 102.901 264.688 102.255 263.807 101.651C262.927 101.042 262.021 100.479 261.089 99.9583C260.151 99.4427 259.193 98.9688 258.214 98.5417C257.234 98.1198 256.234 97.7396 255.219 97.4115C254.203 97.0781 253.172 96.8021 252.13 96.5677C251.083 96.3386 250.031 96.1615 248.969 96.0313C247.911 95.9063 246.844 95.8281 245.776 95.8021C244.708 95.7761 243.641 95.8021 242.573 95.8802C241.51 95.9583 240.448 96.0886 239.396 96.2708C238.344 96.4531 237.297 96.6823 236.266 96.9636C235.234 97.2448 234.224 97.5729 233.224 97.9531C232.224 98.3333 231.245 98.7604 230.286 99.2344C229.328 99.7083 228.396 100.229 227.49 100.792C226.583 101.359 225.703 101.964 224.854 102.615C224.005 103.266 223.188 103.953 222.406 104.682C221.625 105.411 220.88 106.172 220.172 106.974C219.464 107.776 218.797 108.604 218.167 109.474C217.542 110.339 216.953 111.229 216.417 112.151C215.875 113.073 215.38 114.016 214.927 114.99C214.479 115.958 214.078 116.948 213.724 117.953C213.37 118.964 213.063 119.984 212.807 121.021C212.552 122.063 212.349 123.109 212.198 124.167C212.042 125.224 211.938 126.286 211.891 127.354C211.839 128.422 211.839 129.49 211.891 130.557C211.943 131.62 212.047 132.682 212.203 133.74C212.359 134.797 212.562 135.849 212.823 136.885C213.078 137.922 213.385 138.943 213.74 139.953C214.094 140.958 214.5 141.948 214.948 142.917C215.401 143.885 215.896 144.828 216.443 145.75C216.984 146.672 217.568 147.563 218.198 148.427C218.828 149.292 219.495 150.12 220.208 150.922C220.917 151.719 221.661 152.484 222.448 153.208C223.229 153.938 224.047 154.625 224.896 155.276C225.745 155.922 226.625 156.526 227.531 157.089C228.443 157.651 229.375 158.172 230.333 158.646C231.292 159.115 232.271 159.542 233.271 159.922C234.271 160.297 235.286 160.625 236.318 160.906C237.349 161.188 238.391 161.417 239.448 161.594C240.5 161.771 241.562 161.901 242.625 161.979C242.562 163.411 242.292 164.802 241.807 166.151L246.193 167.818C246.906 165.938 247.292 163.99 247.344 161.979C248.375 161.906 249.406 161.781 250.427 161.615C251.448 161.443 252.464 161.224 253.464 160.958C254.469 160.698 255.453 160.385 256.427 160.026C257.401 159.672 258.354 159.266 259.292 158.823C260.224 158.375 261.141 157.885 262.026 157.349C262.917 156.818 263.781 156.245 264.615 155.63C265.453 155.021 266.255 154.365 267.031 153.677C267.802 152.99 268.547 152.266 269.25 151.505C269.958 150.75 270.625 149.958 271.26 149.135C271.891 148.318 272.484 147.469 273.036 146.589C273.589 145.714 274.099 144.813 274.568 143.885C275.036 142.964 275.458 142.016 275.839 141.052C276.219 140.089 276.552 139.109 276.839 138.115C277.13 137.115 277.37 136.109 277.562 135.094C277.755 134.073 277.901 133.047 277.995 132.016C278.094 130.984 278.141 129.948 278.141 128.911ZM244.995 157.286C244.062 157.286 243.135 157.24 242.203 157.151C241.276 157.057 240.354 156.922 239.443 156.74C238.526 156.557 237.625 156.333 236.734 156.063C235.839 155.792 234.964 155.479 234.104 155.12C233.24 154.766 232.401 154.365 231.578 153.927C230.755 153.484 229.958 153.005 229.182 152.49C228.406 151.969 227.656 151.417 226.938 150.823C226.219 150.234 225.526 149.609 224.87 148.948C224.208 148.286 223.583 147.599 222.995 146.88C222.401 146.156 221.849 145.411 221.328 144.635C220.813 143.859 220.333 143.057 219.896 142.24C219.458 141.417 219.057 140.573 218.703 139.714C218.344 138.849 218.031 137.974 217.76 137.083C217.495 136.188 217.266 135.286 217.083 134.37C216.906 133.458 216.771 132.536 216.677 131.609C216.589 130.682 216.542 129.75 216.542 128.818C216.542 127.885 216.589 126.958 216.682 126.031C216.776 125.104 216.911 124.182 217.094 123.266C217.276 122.354 217.505 121.453 217.776 120.557C218.047 119.667 218.365 118.792 218.719 117.932C219.078 117.068 219.479 116.229 219.917 115.406C220.359 114.589 220.839 113.786 221.354 113.016C221.875 112.24 222.432 111.49 223.021 110.771C223.615 110.052 224.24 109.365 224.901 108.703C225.563 108.047 226.25 107.422 226.974 106.833C227.698 106.24 228.443 105.688 229.219 105.172C229.995 104.656 230.797 104.177 231.62 103.74C232.443 103.302 233.281 102.906 234.146 102.547C235.005 102.193 235.885 101.88 236.776 101.609C237.672 101.344 238.573 101.12 239.49 100.938C240.401 100.755 241.323 100.62 242.25 100.531C243.182 100.443 244.109 100.396 245.042 100.401C245.974 100.401 246.906 100.448 247.833 100.542C248.76 100.635 249.682 100.771 250.594 100.953C251.51 101.141 252.411 101.365 253.302 101.641C254.198 101.911 255.073 102.224 255.932 102.583C256.792 102.943 257.635 103.344 258.458 103.781C259.276 104.224 260.073 104.703 260.849 105.224C261.625 105.745 262.37 106.297 263.089 106.891C263.807 107.484 264.5 108.109 265.156 108.771C265.812 109.432 266.438 110.125 267.026 110.844C267.62 111.568 268.172 112.318 268.688 113.094C269.203 113.87 269.682 114.667 270.12 115.49C270.557 116.313 270.953 117.156 271.307 118.016C271.661 118.88 271.974 119.755 272.245 120.651C272.51 121.542 272.734 122.448 272.917 123.359C273.094 124.276 273.229 125.198 273.318 126.125C273.406 127.052 273.453 127.979 273.448 128.911C273.443 129.844 273.396 130.771 273.302 131.698C273.208 132.62 273.068 133.536 272.88 134.448C272.698 135.359 272.469 136.26 272.198 137.151C271.922 138.036 271.609 138.911 271.25 139.771C270.891 140.63 270.495 141.469 270.052 142.286C269.609 143.104 269.13 143.901 268.615 144.672C268.099 145.443 267.542 146.188 266.953 146.906C266.359 147.625 265.734 148.313 265.078 148.969C264.417 149.625 263.729 150.245 263.01 150.839C262.292 151.427 261.542 151.979 260.771 152.495C259.995 153.01 259.198 153.49 258.38 153.927C257.557 154.365 256.719 154.76 255.859 155.115C255 155.474 254.125 155.786 253.24 156.057C252.349 156.328 251.448 156.552 250.536 156.734C249.625 156.917 248.703 157.052 247.781 157.146C246.854 157.24 245.927 157.286 244.995 157.286Z" fill="white"/>
</g>
<path d="M266.245 116.672C266.057 116.479 265.839 116.323 265.589 116.203C265.792 115.724 265.828 115.234 265.703 114.729C265.578 114.229 265.313 113.813 264.911 113.484C264.698 113.307 264.464 113.172 264.208 113.078C263.948 112.99 263.682 112.943 263.411 112.943C263.135 112.943 262.87 112.99 262.609 113.078C262.354 113.172 262.12 113.307 261.906 113.484C261.01 113.943 260.083 114.318 259.115 114.609C258.396 114.036 257.609 113.568 256.755 113.208C255.906 112.849 255.026 112.609 254.109 112.49C253.193 112.37 252.276 112.375 251.365 112.51C250.448 112.641 249.568 112.891 248.724 113.26C247.88 113.635 247.099 114.115 246.385 114.698C245.672 115.281 245.047 115.953 244.516 116.708C243.984 117.464 243.568 118.276 243.255 119.146C242.948 120.016 242.76 120.911 242.698 121.833C240.276 121.5 238.005 120.729 235.885 119.51C233.771 118.292 231.958 116.724 230.453 114.797C229.984 114.188 229.365 113.885 228.599 113.88C227.818 113.88 227.193 114.193 226.724 114.823C225.885 116.193 225.38 117.672 225.203 119.271C225.026 120.865 225.198 122.422 225.714 123.943C225.188 124.391 224.917 124.964 224.896 125.656C224.87 127.073 225.12 128.448 225.646 129.766C226.172 131.089 226.927 132.255 227.922 133.276C227.745 133.781 227.745 134.292 227.922 134.797C228.583 136.833 229.776 138.49 231.484 139.771C229.703 140.339 227.88 140.531 226.021 140.359C225.495 140.328 225.021 140.458 224.583 140.75C224.151 141.042 223.844 141.432 223.672 141.927C223.5 142.438 223.5 142.943 223.677 143.448C223.849 143.953 224.161 144.354 224.615 144.646C228.568 147.13 232.875 148.479 237.536 148.703C238.323 148.708 239.104 148.656 239.88 148.542C242.318 148.333 244.677 147.792 246.964 146.917C249.25 146.042 251.37 144.875 253.323 143.406C255.505 141.672 257.344 139.625 258.833 137.271C260.328 134.911 261.391 132.38 262.026 129.661C262.318 128.453 262.521 127.224 262.635 125.984C262.635 125.375 262.635 124.766 262.776 124.13V123.755C264.13 122.557 265.344 121.229 266.411 119.771C266.589 119.547 266.719 119.297 266.807 119.026C266.896 118.755 266.927 118.474 266.911 118.188C266.901 117.906 266.833 117.63 266.719 117.37C266.604 117.109 266.448 116.875 266.245 116.672ZM258.083 123.964C258.083 124.505 258.083 125.047 258.083 125.563C257.979 126.594 257.807 127.62 257.568 128.63C257.068 130.844 256.214 132.906 255.005 134.828C253.802 136.745 252.307 138.411 250.531 139.818C247.193 142.255 243.464 143.63 239.344 143.943C237.766 144.161 236.203 144.094 234.651 143.734C236.172 143.146 237.589 142.365 238.896 141.391C239.245 141.104 239.484 140.755 239.63 140.328C239.776 139.906 239.797 139.479 239.693 139.042C239.578 138.604 239.354 138.229 239.016 137.917C238.682 137.609 238.292 137.411 237.844 137.333C236.516 137.188 235.313 136.729 234.229 135.948C234.766 135.714 235.156 135.328 235.401 134.797C235.792 134.063 235.792 133.328 235.401 132.594L235.26 132.385C234.922 131.818 234.427 131.458 233.781 131.307C232.495 131.042 231.49 130.349 230.781 129.24C231.26 129.219 231.688 129.063 232.068 128.776C232.453 128.49 232.724 128.125 232.88 127.672C233.036 127.219 233.052 126.766 232.932 126.302C232.813 125.844 232.573 125.453 232.214 125.141C230.943 124.089 230.24 122.745 230.099 121.104C232.245 122.875 234.62 124.245 237.224 125.224C239.828 126.198 242.521 126.724 245.302 126.802C246.083 126.849 246.708 126.563 247.177 125.938C247.656 125.339 247.802 124.661 247.625 123.917C247.526 123.495 247.479 123.063 247.484 122.63C247.484 122.271 247.516 121.917 247.589 121.563C247.656 121.214 247.76 120.87 247.896 120.536C248.036 120.208 248.203 119.891 248.401 119.594C248.604 119.297 248.828 119.021 249.083 118.766C249.339 118.51 249.615 118.286 249.911 118.089C250.208 117.885 250.526 117.719 250.854 117.583C251.188 117.443 251.531 117.339 251.88 117.271C252.234 117.198 252.589 117.167 252.948 117.167C253.703 117.161 254.422 117.307 255.115 117.609C255.807 117.911 256.406 118.344 256.911 118.901C257.099 119.099 257.307 119.26 257.547 119.391C257.427 119.953 257.505 120.484 257.781 120.99C257.922 121.281 258.125 121.521 258.391 121.714C258.115 122.443 258.016 123.193 258.083 123.964Z" fill="white"/>
<path d="M212.698 53.3125C213.568 53.3125 214.438 53.2708 215.307 53.1875C216.177 53.1042 217.042 52.974 217.896 52.8073C218.75 52.6354 219.599 52.4219 220.432 52.1719C221.271 51.9167 222.089 51.625 222.896 51.2917C223.703 50.9583 224.49 50.5886 225.26 50.1771C226.031 49.7656 226.781 49.3177 227.505 48.8333C228.234 48.349 228.932 47.8333 229.609 47.2761C230.281 46.724 230.932 46.1406 231.547 45.5261C232.167 44.9063 232.75 44.2604 233.307 43.5886C233.859 42.9115 234.38 42.2136 234.865 41.4896C235.349 40.7656 235.797 40.0156 236.214 39.2448C236.625 38.4792 236.995 37.6927 237.333 36.8854C237.667 36.0781 237.958 35.2604 238.214 34.4219C238.469 33.5886 238.682 32.7448 238.849 31.8854C239.021 31.0313 239.151 30.1719 239.234 29.3021C239.323 28.4323 239.365 27.5625 239.365 26.6875C239.365 25.8177 239.323 24.9479 239.24 24.0781C239.156 23.2083 239.026 22.349 238.859 21.4896C238.688 20.6354 238.474 19.7917 238.224 18.9531C237.969 18.1198 237.677 17.2969 237.344 16.4948C237.01 15.6875 236.635 14.8958 236.224 14.1302C235.813 13.3594 235.365 12.6094 234.88 11.8854C234.396 11.1615 233.88 10.4583 233.323 9.78647C232.771 9.10938 232.188 8.46355 231.568 7.84376C230.953 7.22918 230.307 6.64064 229.63 6.08855C228.958 5.53647 228.26 5.01564 227.531 4.53126C226.807 4.04688 226.057 3.59897 225.292 3.18751C224.521 2.77605 223.734 2.40105 222.927 2.06772C222.12 1.73439 221.297 1.43751 220.464 1.18751C219.63 0.932302 218.781 0.71876 217.927 0.546885C217.073 0.380219 216.208 0.25001 215.339 0.166677C214.469 0.0781355 213.599 0.0364685 212.729 0.0364685C211.854 0.0364685 210.984 0.0781352 210.115 0.161469C209.245 0.25001 208.385 0.375011 207.526 0.546885C206.672 0.713552 205.828 0.927093 204.99 1.1823C204.156 1.4323 203.333 1.72918 202.526 2.06251C201.724 2.39584 200.932 2.76564 200.161 3.17709C199.396 3.58855 198.646 4.03647 197.922 4.52084C197.193 5.00522 196.495 5.52605 195.818 6.07814C195.146 6.63022 194.5 7.21876 193.88 7.83334C193.266 8.45314 192.677 9.09897 192.125 9.77084C191.568 10.4479 191.052 11.1458 190.568 11.8698C190.078 12.599 189.63 13.3438 189.219 14.1146C188.807 14.8854 188.438 15.6719 188.104 16.4792C187.766 17.2865 187.474 18.1042 187.219 18.9375C186.969 19.7761 186.755 20.6198 186.583 21.474C186.417 22.3333 186.286 23.1927 186.203 24.0625C186.115 24.9323 186.073 25.8021 186.073 26.6719C186.073 27.5469 186.12 28.4167 186.203 29.2813C186.292 30.1511 186.417 31.0104 186.589 31.8646C186.76 32.7188 186.969 33.5677 187.224 34.4011C187.479 35.2344 187.771 36.0521 188.104 36.8594C188.438 37.6667 188.813 38.4531 189.224 39.2188C189.635 39.9896 190.083 40.7344 190.568 41.4583C191.052 42.1875 191.568 42.8854 192.12 43.5573C192.677 44.2344 193.26 44.8802 193.875 45.4948C194.495 46.1094 195.135 46.6979 195.813 47.25C196.484 47.8021 197.182 48.3229 197.911 48.8073C198.635 49.2917 199.38 49.7396 200.151 50.1511C200.917 50.5625 201.703 50.9375 202.51 51.2708C203.313 51.6042 204.135 51.9011 204.969 52.1563C205.802 52.4063 206.646 52.6198 207.505 52.7917C208.359 52.9636 209.219 53.0938 210.089 53.1823C210.953 53.2656 211.823 53.3125 212.698 53.3125ZM212.698 4.86459C213.417 4.86459 214.135 4.90105 214.849 4.96876C215.568 5.04168 216.276 5.14584 216.984 5.28126C217.688 5.42188 218.385 5.59897 219.073 5.8073C219.76 6.01564 220.438 6.25522 221.104 6.53126C221.771 6.80209 222.417 7.10938 223.052 7.44793C223.688 7.78647 224.302 8.15626 224.901 8.5573C225.5 8.95314 226.078 9.38022 226.635 9.83855C227.193 10.2917 227.724 10.7761 228.234 11.2813C228.745 11.7917 229.224 12.3229 229.682 12.8802C230.141 13.4323 230.568 14.0104 230.969 14.6094C231.365 15.2083 231.734 15.8229 232.078 16.4583C232.417 17.0886 232.724 17.7396 233 18.4063C233.276 19.0677 233.516 19.7448 233.724 20.4323C233.938 21.1198 234.109 21.8177 234.25 22.5208C234.391 23.2292 234.5 23.9375 234.568 24.6563C234.641 25.3698 234.677 26.0886 234.677 26.8073C234.677 27.5261 234.641 28.2448 234.568 28.9583C234.5 29.6771 234.396 30.3854 234.255 31.0886C234.115 31.7969 233.938 32.4948 233.729 33.1823C233.521 33.8698 233.281 34.5469 233.005 35.2083C232.729 35.875 232.422 36.5261 232.083 37.1563C231.745 37.7917 231.375 38.4115 230.974 39.0052C230.578 39.6042 230.146 40.1823 229.693 40.7396C229.234 41.2917 228.755 41.8281 228.245 42.3333C227.734 42.8438 227.203 43.3281 226.646 43.7813C226.089 44.2396 225.516 44.6667 224.917 45.0677C224.318 45.4636 223.703 45.8333 223.068 46.1719C222.432 46.5104 221.781 46.8177 221.12 47.0938C220.453 47.3698 219.776 47.6094 219.089 47.8177C218.401 48.0261 217.703 48.2031 216.995 48.3438C216.292 48.4844 215.578 48.5886 214.865 48.6563C214.151 48.7292 213.432 48.7656 212.714 48.7656C211.995 48.7656 211.276 48.7292 210.557 48.6563C209.844 48.5886 209.13 48.4792 208.427 48.3386C207.719 48.1979 207.026 48.0261 206.339 47.8177C205.646 47.6042 204.969 47.3646 204.307 47.0886C203.641 46.8125 202.995 46.5052 202.359 46.1667C201.724 45.8281 201.109 45.4583 200.51 45.0573C199.911 44.6563 199.333 44.2292 198.781 43.7708C198.224 43.3177 197.693 42.8333 197.182 42.3229C196.677 41.8125 196.193 41.2813 195.74 40.724C195.281 40.1719 194.854 39.5938 194.453 38.9948C194.057 38.3958 193.688 37.7813 193.349 37.1458C193.01 36.5104 192.703 35.8594 192.427 35.1979C192.151 34.5313 191.911 33.8542 191.703 33.1667C191.495 32.4792 191.323 31.7813 191.182 31.0781C191.042 30.3698 190.938 29.6615 190.87 28.9427C190.797 28.2292 190.766 27.5104 190.766 26.7917C190.766 26.0729 190.802 25.3594 190.87 24.6406C190.943 23.9271 191.047 23.2188 191.188 22.5156C191.328 21.8125 191.505 21.1146 191.714 20.4271C191.922 19.7448 192.167 19.0677 192.438 18.4063C192.714 17.7396 193.021 17.0938 193.359 16.4583C193.698 15.8281 194.068 15.2136 194.469 14.6146C194.865 14.0208 195.292 13.4427 195.75 12.8906C196.203 12.3333 196.688 11.8021 197.193 11.2969C197.703 10.7865 198.234 10.3073 198.792 9.84897C199.344 9.39584 199.922 8.96876 200.516 8.56772C201.115 8.16668 201.729 7.80209 202.365 7.46355C202.995 7.12501 203.646 6.81772 204.307 6.54168C204.969 6.26564 205.646 6.02605 206.333 5.81772C207.021 5.60418 207.714 5.4323 208.417 5.29168C209.125 5.15105 209.833 5.04688 210.547 4.97397C211.26 4.90105 211.979 4.86459 212.698 4.86459Z" fill="white"/>
<path d="M208.615 41.9375H209.438V42.5469L209.297 43.7917C209.26 44.3125 209.349 44.8125 209.563 45.2865C209.776 45.7656 210.083 46.1615 210.49 46.4896C211.031 46.8802 211.63 47.0677 212.297 47.0521C212.849 47.0521 213.38 46.9479 213.891 46.7448C218.974 44.0937 223.609 40.8125 227.802 36.8958C233.922 30.2396 234.557 22.8281 229.63 16.3802C229.422 16.026 224.281 8.17187 210.609 9.20312H210.281C206.927 9.71874 195.807 12.2031 193.531 23.276C193.37 23.625 191.208 37.6927 208.615 41.9375ZM197.99 24.4219C199.609 16.5208 207.51 14.5052 210.818 14.0104C221.469 13.2604 225.292 18.7031 225.552 19.1719C229.208 24.0469 228.74 28.8333 224.12 33.849C221.083 36.724 217.75 39.1979 214.125 41.2812C214.135 40.8125 214.073 40.349 213.938 39.901C213.328 38.0937 211.219 37.5521 209.484 37.3646C196.677 34.0365 197.943 24.7292 197.99 24.4219Z" fill="white"/>
<path d="M205.849 27.9636C206.13 27.9688 206.401 27.9167 206.661 27.8125C206.922 27.7031 207.151 27.5521 207.354 27.3542C207.552 27.1615 207.708 26.9323 207.818 26.6719C207.927 26.4115 207.979 26.1406 207.979 25.8594C207.984 25.5781 207.927 25.3073 207.823 25.0469C207.714 24.7917 207.563 24.5573 207.365 24.3594C207.161 24.1615 206.932 24.0104 206.677 23.9011C206.417 23.7969 206.146 23.7396 205.865 23.7448C205.583 23.7448 205.313 23.7969 205.052 23.9063C204.792 24.0156 204.563 24.1719 204.365 24.3698C204.167 24.5729 204.016 24.8021 203.911 25.0625C203.807 25.3229 203.755 25.5938 203.76 25.875C203.76 26.1511 203.813 26.4219 203.917 26.6771C204.026 26.9323 204.177 27.1563 204.37 27.3542C204.568 27.5469 204.792 27.6979 205.047 27.8073C205.302 27.9115 205.568 27.9636 205.849 27.9636Z" fill="white"/>
<path d="M213.984 27.9636C214.266 27.9688 214.536 27.9167 214.802 27.8125C215.063 27.7031 215.292 27.5521 215.49 27.3542C215.693 27.1615 215.849 26.9323 215.953 26.6719C216.063 26.4115 216.12 26.1406 216.12 25.8594C216.12 25.5781 216.068 25.3073 215.964 25.0469C215.854 24.7917 215.703 24.5573 215.5 24.3594C215.302 24.1615 215.073 24.0104 214.813 23.9011C214.552 23.7969 214.281 23.7396 214 23.7448C213.719 23.7448 213.448 23.7969 213.193 23.9063C212.932 24.0156 212.703 24.1719 212.505 24.3698C212.307 24.5729 212.156 24.8021 212.052 25.0625C211.948 25.3229 211.896 25.5938 211.901 25.875C211.901 26.1511 211.953 26.4219 212.057 26.6771C212.161 26.9323 212.313 27.1563 212.51 27.3542C212.708 27.5469 212.932 27.6979 213.188 27.8073C213.443 27.9115 213.708 27.9636 213.984 27.9636Z" fill="white"/>
<path d="M224.234 25.875C224.234 26.1563 224.182 26.4271 224.078 26.6823C223.969 26.9427 223.818 27.1719 223.62 27.3698C223.422 27.5677 223.193 27.7187 222.932 27.8281C222.677 27.9323 222.406 27.9896 222.125 27.9896C221.844 27.9896 221.578 27.9323 221.318 27.8281C221.057 27.7187 220.833 27.5677 220.635 27.3698C220.438 27.1719 220.281 26.9427 220.177 26.6823C220.068 26.4271 220.016 26.1563 220.016 25.875C220.016 25.599 220.068 25.3281 220.177 25.0677C220.281 24.8125 220.438 24.5833 220.635 24.3854C220.833 24.1875 221.057 24.0365 221.318 23.9271C221.578 23.8177 221.844 23.7656 222.125 23.7656C222.406 23.7656 222.677 23.8177 222.932 23.9271C223.193 24.0365 223.422 24.1875 223.62 24.3854C223.818 24.5833 223.969 24.8125 224.078 25.0677C224.182 25.3281 224.234 25.599 224.234 25.875Z" fill="white"/>
<path d="M80.2552 241.12L86.4271 238.615L88.1979 242.958L82.0261 245.469L80.2552 241.12Z" fill="white"/>
<path d="M39.2135 245.365C41.3958 246.813 43.7396 247.917 46.25 248.672L47.6562 244.193C45.625 243.573 43.7239 242.672 41.9583 241.495L39.2135 245.365Z" fill="white"/>
<path d="M53.9896 245.479L53.4948 250.172C55.1614 250.333 56.9479 250.427 58.776 250.427H60.8385L60.6771 245.74C58.4427 245.813 56.2135 245.724 53.9896 245.479Z" fill="white"/>
<path d="M72.4739 244.26C70.7604 244.589 69.0729 244.87 67.4792 245.083L68.0885 249.771C69.8489 249.516 71.6979 249.234 73.5989 248.859C73.7604 248.844 73.9167 248.807 74.0677 248.74L75.5469 248.156L73.7864 243.818L72.4739 244.26Z" fill="white"/>
<path d="M30.6042 232.328C30.9948 235.104 32.0052 237.635 33.6302 239.922L37.5 237.276C36.3542 235.641 35.6146 233.844 35.2708 231.88L30.6042 232.328Z" fill="white"/>
<path d="M79.7708 35.8646C81.2656 35.8698 82.75 35.9844 84.2239 36.2187L84.9271 31.526C83.2187 31.2708 81.5 31.1354 79.7708 31.1302C78.9271 31.1198 78.0937 31.1615 77.2604 31.2448L77.8229 35.9375C78.4687 35.8698 79.1198 35.8437 79.7708 35.8646Z" fill="white"/>
<path d="M107.823 63.6562L112.516 63.0208C112.203 60.5833 111.719 58.1875 111.057 55.8229L106.557 57.0625C107.125 59.2344 107.547 61.4271 107.823 63.6562Z" fill="white"/>
<path d="M98.9115 37.2031C96.8386 35.6979 94.6094 34.474 92.224 33.5469L90.4896 37.8802C92.4948 38.6823 94.3698 39.7135 96.1198 40.9792L98.9115 37.2031Z" fill="white"/>
<path d="M108.432 48.8594C107.339 46.5417 105.995 44.3854 104.396 42.3854L100.76 45.3177C102.12 47.0156 103.271 48.8437 104.208 50.8021L108.432 48.8594Z" fill="white"/>
<path d="M185.719 30.5208L185.182 25.8281C183.193 26.0469 181.224 26.375 179.271 26.8125L180.255 31.3854C182.062 31 183.885 30.7135 185.719 30.5208Z" fill="white"/>
<path d="M163.604 40.6979L159.917 37.8125C158.307 39.8698 157.057 42.1302 156.167 44.5885L160.578 46.1823C161.302 44.1979 162.313 42.3698 163.604 40.6979Z" fill="white"/>
<path d="M173.922 33.3333L172.161 28.974C169.823 29.9115 167.62 31.099 165.547 32.5365L168.245 36.3802C170.021 35.1406 171.911 34.125 173.922 33.3333Z" fill="white"/>
<path d="M159.589 58.8021C159.313 57.3438 159.182 55.875 159.193 54.3906C159.193 53.8125 159.193 53.1771 159.193 52.4896L154.5 52.1615C154.5 52.9375 154.5 53.6875 154.5 54.5104C154.484 56.3594 154.661 58.1875 155.042 59.9948L159.589 58.8021Z" fill="white"/>
<path d="M233.266 174.474L235.307 178.698C237.672 177.583 239.802 176.141 241.714 174.359L238.474 170.958C236.917 172.396 235.182 173.568 233.266 174.474Z" fill="white"/>
<path d="M220.458 178.135L221.141 182.823C223.562 182.474 225.958 181.969 228.318 181.323L227.073 176.797C224.896 177.375 222.693 177.818 220.458 178.135Z" fill="white"/>
<path d="M138.01 120.896C137.094 120.896 136.182 120.938 135.271 121.026C134.365 121.12 133.458 121.25 132.562 121.432C131.661 121.609 130.776 121.833 129.901 122.099C129.026 122.359 128.167 122.672 127.318 123.021C126.474 123.37 125.651 123.76 124.844 124.193C124.036 124.625 123.25 125.094 122.49 125.599C121.729 126.109 120.995 126.651 120.286 127.234C119.583 127.813 118.901 128.427 118.255 129.073C117.609 129.719 116.995 130.396 116.417 131.104C115.833 131.813 115.292 132.547 114.781 133.307C114.276 134.068 113.802 134.849 113.375 135.656C112.943 136.464 112.552 137.292 112.203 138.135C111.849 138.979 111.542 139.839 111.276 140.714C111.01 141.589 110.792 142.474 110.609 143.375C110.432 144.271 110.297 145.172 110.208 146.083C110.12 146.995 110.073 147.906 110.073 148.823C110.073 149.734 110.12 150.651 110.208 151.557C110.297 152.469 110.432 153.375 110.609 154.271C110.792 155.167 111.01 156.052 111.276 156.927C111.542 157.802 111.849 158.667 112.203 159.51C112.552 160.354 112.943 161.182 113.375 161.99C113.802 162.792 114.276 163.578 114.781 164.339C115.292 165.099 115.833 165.833 116.417 166.542C116.995 167.245 117.609 167.922 118.255 168.573C118.901 169.219 119.583 169.828 120.286 170.411C120.995 170.99 121.729 171.536 122.49 172.042C123.25 172.552 124.036 173.021 124.844 173.453C125.651 173.885 126.474 174.276 127.318 174.625C128.167 174.974 129.026 175.281 129.901 175.547C130.776 175.813 131.661 176.036 132.562 176.214C133.458 176.391 134.365 176.526 135.271 176.615C136.182 176.703 137.094 176.75 138.01 176.75C138.927 176.75 139.839 176.703 140.75 176.615C141.661 176.526 142.562 176.391 143.464 176.214C144.359 176.036 145.245 175.813 146.12 175.547C146.995 175.281 147.854 174.974 148.703 174.625C149.547 174.276 150.375 173.885 151.182 173.453C151.984 173.021 152.771 172.552 153.531 172.042C154.292 171.536 155.026 170.99 155.734 170.411C156.443 169.828 157.12 169.219 157.766 168.573C158.411 167.922 159.026 167.245 159.604 166.542C160.187 165.833 160.729 165.099 161.24 164.339C161.75 163.578 162.219 162.792 162.651 161.99C163.078 161.182 163.469 160.354 163.823 159.51C164.172 158.667 164.479 157.802 164.745 156.927C165.01 156.052 165.234 155.167 165.411 154.271C165.589 153.375 165.724 152.469 165.812 151.557C165.901 150.651 165.948 149.734 165.948 148.823C165.948 147.906 165.901 146.995 165.812 146.083C165.719 145.177 165.583 144.271 165.406 143.375C165.229 142.479 165.005 141.594 164.74 140.719C164.474 139.844 164.167 138.984 163.812 138.141C163.464 137.292 163.073 136.469 162.641 135.661C162.208 134.854 161.74 134.073 161.234 133.313C160.724 132.552 160.177 131.818 159.599 131.109C159.021 130.406 158.406 129.729 157.76 129.078C157.109 128.432 156.432 127.823 155.729 127.24C155.021 126.661 154.286 126.115 153.526 125.609C152.766 125.099 151.984 124.63 151.177 124.198C150.37 123.766 149.542 123.375 148.698 123.026C147.854 122.677 146.995 122.37 146.12 122.104C145.245 121.833 144.354 121.615 143.458 121.432C142.562 121.255 141.656 121.12 140.75 121.031C139.839 120.943 138.927 120.896 138.01 120.896ZM155.906 134C152.937 134.807 149.927 135.401 146.875 135.786C145.672 132.214 143.943 128.917 141.693 125.891C144.474 126.333 147.089 127.255 149.536 128.656C151.984 130.052 154.109 131.833 155.906 134ZM137.661 170.115C135.63 167.469 134.062 164.568 132.969 161.417C136.094 161.214 139.224 161.214 142.349 161.417C141.266 164.573 139.703 167.474 137.661 170.115ZM131.677 156.75C131.312 154.984 131.073 153.203 130.974 151.401H144.437C144.349 153.208 144.109 155 143.734 156.771C139.714 156.453 135.698 156.448 131.677 156.75ZM142.094 136.182C139.167 136.349 136.245 136.349 133.318 136.182C134.391 133.323 135.854 130.682 137.708 128.255C139.568 130.677 141.031 133.318 142.094 136.182ZM137.615 141.083C139.51 141.083 141.484 141.083 143.547 140.849C143.995 142.781 144.292 144.734 144.437 146.714H130.995C131.109 144.74 131.391 142.797 131.844 140.875C133.646 141.036 135.547 141.13 137.568 141.13L137.615 141.083ZM126.354 146.667H114.88C115.135 143.771 115.922 141.026 117.229 138.432C120.495 139.323 123.812 139.969 127.172 140.38C126.729 142.469 126.437 144.578 126.307 146.714L126.354 146.667ZM126.354 151.354C126.458 153.318 126.693 155.26 127.057 157.193C123.76 157.604 120.505 158.245 117.297 159.115C116.052 156.672 115.271 154.083 114.953 151.354H126.354ZM149.104 151.354H161.187C160.828 154.286 159.932 157.047 158.51 159.63C155.146 158.594 151.724 157.813 148.24 157.286C148.667 155.344 148.964 153.385 149.13 151.401L149.104 151.354ZM149.104 146.667C148.984 144.531 148.693 142.422 148.24 140.333C151.792 139.813 155.286 139.031 158.724 137.99C160.135 140.688 160.979 143.557 161.255 146.594L149.104 146.667ZM133.646 125.984C131.443 128.979 129.734 132.24 128.536 135.76C125.661 135.427 122.812 134.927 119.995 134.26C121.698 132.13 123.714 130.359 126.047 128.943C128.375 127.531 130.88 126.557 133.552 126.031L133.646 125.984ZM119.901 163.339C122.635 162.734 125.396 162.281 128.182 161.979C129.276 165.411 130.839 168.62 132.875 171.594C130.307 170.99 127.911 169.984 125.687 168.568C123.458 167.151 121.531 165.411 119.901 163.339ZM142.302 171.641C144.406 168.661 146.016 165.443 147.135 161.979C150.099 162.375 153.026 162.969 155.906 163.76C154.167 165.823 152.13 167.531 149.792 168.885C147.458 170.24 144.958 171.156 142.302 171.641Z" fill="white"/>
<path d="M149.13 220.458H127.667C127.292 220.458 126.917 220.495 126.547 220.573C126.177 220.646 125.818 220.755 125.469 220.896C125.12 221.042 124.786 221.219 124.474 221.427C124.161 221.635 123.87 221.875 123.604 222.141C123.339 222.411 123.099 222.698 122.891 223.016C122.677 223.328 122.5 223.656 122.359 224.005C122.214 224.354 122.104 224.714 122.031 225.083C121.958 225.453 121.922 225.828 121.922 226.203C121.922 226.583 121.958 226.958 122.031 227.328C122.104 227.698 122.214 228.057 122.359 228.406C122.5 228.75 122.677 229.083 122.891 229.396C123.099 229.708 123.339 230 123.604 230.266C123.87 230.536 124.161 230.771 124.474 230.984C124.786 231.193 125.12 231.37 125.469 231.516C125.818 231.656 126.177 231.766 126.547 231.839C126.917 231.911 127.292 231.948 127.667 231.948H149.13C149.505 231.948 149.88 231.911 150.25 231.839C150.62 231.766 150.979 231.656 151.328 231.516C151.677 231.37 152.01 231.193 152.323 230.984C152.635 230.771 152.927 230.536 153.193 230.266C153.458 230 153.698 229.708 153.906 229.396C154.115 229.083 154.292 228.75 154.438 228.406C154.583 228.057 154.693 227.698 154.766 227.328C154.839 226.958 154.875 226.583 154.875 226.203C154.875 225.828 154.839 225.453 154.766 225.083C154.693 224.714 154.583 224.354 154.438 224.005C154.292 223.656 154.115 223.328 153.906 223.016C153.698 222.698 153.458 222.411 153.193 222.141C152.927 221.875 152.635 221.635 152.323 221.427C152.01 221.219 151.677 221.042 151.328 220.896C150.979 220.755 150.62 220.646 150.25 220.573C149.88 220.495 149.505 220.458 149.13 220.458ZM149.13 227.26H127.667C127.375 227.26 127.125 227.156 126.922 226.953C126.714 226.745 126.609 226.495 126.609 226.203C126.62 225.917 126.724 225.672 126.927 225.464C127.13 225.26 127.38 225.156 127.667 225.151H149.13C149.422 225.151 149.672 225.255 149.875 225.458C150.083 225.667 150.182 225.911 150.182 226.203C150.182 226.495 150.083 226.745 149.875 226.953C149.672 227.156 149.422 227.26 149.13 227.26Z" fill="white"/>
<mask id="mask1_18_9" style="mask-type:luminance" maskUnits="userSpaceOnUse" x="76" y="68" width="152" height="206">
<path d="M76.6667 68H227.333V273.833H76.6667V68Z" fill="white"/>
</mask>
<g mask="url(#mask1_18_9)">
<path d="M220.016 234.016C219.802 233.427 219.266 232.021 218.63 230.401C217.76 228.057 216.12 223.885 215.911 222.828C215.911 218.656 216.12 214.411 216.307 210.281C216.818 202.781 216.865 195.276 216.448 187.771C215.625 180.135 213.891 172.708 211.24 165.495L207.349 153.536C206.792 151.766 206.51 149.953 206.505 148.094V116.464C206.5 115.807 206.266 115.255 205.802 114.797C205.333 114.333 204.771 114.104 204.109 114.115C201.448 114.151 198.896 114.698 196.453 115.766C194.01 116.833 191.87 118.328 190.036 120.26V73.6406C190.042 73.2812 190.016 72.9219 189.948 72.5677C189.88 72.2135 189.781 71.8646 189.646 71.5312C189.51 71.1979 189.344 70.8802 189.141 70.5781C188.943 70.276 188.714 70 188.458 69.7448C188.198 69.4896 187.922 69.2604 187.62 69.0625C187.318 68.8646 187 68.6979 186.661 68.5625C186.328 68.4271 185.979 68.3281 185.625 68.2656C185.271 68.1979 184.911 68.1719 184.547 68.1771H92.3646C92.0104 68.1771 91.6614 68.2135 91.3177 68.2812C90.9739 68.3541 90.6354 68.4531 90.3125 68.5885C89.9896 68.7239 89.6771 68.8906 89.3854 69.0833C89.0937 69.2812 88.8229 69.5052 88.5729 69.7552C88.3281 70.0052 88.1042 70.276 87.9114 70.5677C87.7135 70.8594 87.5521 71.1719 87.4167 71.4948C87.2812 71.8229 87.1823 72.1562 87.1146 72.5052C87.0469 72.8489 87.0156 73.1979 87.0156 73.5469V117.234H84.5521C84.0781 117.234 83.6094 117.281 83.1406 117.375C82.6771 117.469 82.2239 117.604 81.7864 117.786C81.3437 117.969 80.9271 118.187 80.5364 118.453C80.1406 118.714 79.7708 119.016 79.4375 119.349C79.0989 119.682 78.8021 120.052 78.5364 120.443C78.2708 120.839 78.0469 121.255 77.8646 121.693C77.6823 122.13 77.5417 122.583 77.4479 123.047C77.3542 123.516 77.3073 123.984 77.3073 124.458V134.682C77.3125 135.328 77.401 135.964 77.5781 136.589C77.7552 137.214 78.0104 137.802 78.3437 138.354C78.6771 138.911 79.0781 139.411 79.5469 139.859C80.0156 140.302 80.5364 140.682 81.1042 140.99C80.5364 141.297 80.0208 141.677 79.5521 142.125C79.0885 142.573 78.6875 143.073 78.3542 143.63C78.0208 144.182 77.7708 144.771 77.5937 145.396C77.4219 146.016 77.3333 146.651 77.3281 147.297V157.521C77.3333 158.167 77.4219 158.802 77.5989 159.427C77.7708 160.047 78.026 160.635 78.3594 161.193C78.6875 161.745 79.0885 162.245 79.5573 162.693C80.0208 163.141 80.5364 163.521 81.1042 163.828C80.5364 164.141 80.0208 164.516 79.5573 164.964C79.0885 165.411 78.6875 165.917 78.3594 166.469C78.026 167.026 77.7708 167.615 77.5989 168.234C77.4219 168.859 77.3333 169.49 77.3281 170.135V180.359C77.3333 181.01 77.4219 181.646 77.5937 182.271C77.7708 182.896 78.0208 183.484 78.3542 184.042C78.6875 184.599 79.0885 185.099 79.5521 185.552C80.0208 186 80.5364 186.38 81.1042 186.693C80.5364 187 80.0156 187.375 79.5417 187.823C79.0729 188.271 78.6719 188.771 78.3385 189.323C78.0052 189.88 77.75 190.469 77.5729 191.094C77.3958 191.719 77.3073 192.354 77.3073 193V203.203C77.3073 203.677 77.3542 204.146 77.4479 204.609C77.5417 205.078 77.6823 205.531 77.8646 205.969C78.0469 206.406 78.2708 206.823 78.5364 207.214C78.8021 207.609 79.0989 207.974 79.4375 208.307C79.7708 208.646 80.1406 208.943 80.5364 209.208C80.9271 209.469 81.3437 209.693 81.7864 209.875C82.2239 210.057 82.6771 210.193 83.1406 210.286C83.6094 210.38 84.0781 210.422 84.5521 210.422H87.0156V232.844C87.0156 233.193 87.0521 233.542 87.1198 233.885C87.1875 234.229 87.2864 234.568 87.4219 234.891C87.5573 235.214 87.7239 235.526 87.9167 235.818C88.1094 236.109 88.3333 236.38 88.5833 236.63C88.8281 236.88 89.0989 237.104 89.3906 237.297C89.6823 237.495 89.9896 237.661 90.3177 237.797C90.6406 237.932 90.9739 238.036 91.3177 238.104C91.6667 238.172 92.0104 238.208 92.3646 238.214H133.766C138.271 243.536 142.958 247.896 151.172 248.766L157.083 272.188C157.214 272.724 157.5 273.161 157.937 273.495C158.38 273.828 158.875 273.99 159.427 273.974H159.917L224.708 260.464C225.37 260.328 225.88 259.969 226.229 259.385C226.599 258.818 226.682 258.208 226.49 257.557L220.016 234.016ZM91.7083 73.6406C91.6823 73.4427 91.7292 73.2656 91.8646 73.1094C91.9948 72.9531 92.1614 72.875 92.3646 72.8698H184.547C184.734 72.875 184.891 72.9427 185.021 73.0729C185.156 73.2083 185.224 73.3646 185.229 73.5469V119.109C185.229 120.615 185.229 122.302 185.229 123.802C185.229 125.302 185.229 127.318 185.229 128.49C184.76 130.245 184.531 132.026 184.547 133.839L184.125 170.276L182.297 171.734V82.8333C182.297 82.4896 182.266 82.1458 182.198 81.8073C182.135 81.4687 182.036 81.1406 181.901 80.8177C181.771 80.5 181.609 80.1927 181.422 79.9062C181.229 79.6198 181.01 79.3489 180.766 79.1042C180.521 78.8594 180.255 78.6406 179.969 78.4479C179.682 78.2552 179.38 78.0937 179.057 77.9635C178.74 77.8281 178.411 77.7292 178.073 77.6614C177.729 77.5937 177.391 77.5573 177.042 77.5573H100.245C99.5469 77.5573 98.8802 77.6927 98.2344 77.9583C97.5937 78.2239 97.0208 78.6041 96.5312 79.0989C96.0364 79.5885 95.6562 80.1562 95.3906 80.8021C95.125 81.4479 94.9896 82.1146 94.9896 82.8125V117.635L94.0781 117.422H93.5156C92.9375 117.385 92.3542 117.385 91.776 117.422L91.7083 73.6406ZM167.589 214.62H100.245C100.089 214.62 99.9583 214.568 99.8489 214.458C99.7396 214.349 99.6823 214.214 99.6823 214.057V207.589L100.505 206.839C101.661 205.677 102.552 204.344 103.182 202.833C103.812 201.323 104.13 199.75 104.141 198.115C104.141 197.62 104.141 197.13 104.141 196.661C104.141 196.187 104.141 196.354 104.141 196.187C104.141 196.026 104.141 195.557 103.974 195.229C103.812 194.901 103.672 194.807 103.625 194.807C103.578 194.807 103.458 194.266 103.365 193.984C103.297 193.792 103.219 193.604 103.13 193.422C103.13 193.187 102.922 192.932 102.802 192.698L102.5 192.135L102.219 191.359C102.078 191.172 101.958 190.984 101.839 190.797L101.229 190.115L100.807 189.599L100.224 189.036L99.8698 188.708V184.745C100.151 184.49 100.432 184.255 100.693 183.974C101.865 182.823 102.766 181.495 103.396 179.979C104.026 178.469 104.339 176.891 104.328 175.25C104.328 174.755 104.328 174.266 104.328 173.797C104.328 173.328 104.328 173.469 104.328 173.328C104.328 173.187 104.328 172.693 104.161 172.391C104 172.083 104.047 172.016 104 171.828C103.953 171.641 103.833 171.286 103.74 171.005C103.672 170.812 103.594 170.625 103.505 170.443C103.505 170.208 103.297 169.948 103.177 169.714L102.875 169.151L102.219 168.495L101.839 167.958L101.349 167.349C101.208 167.182 101.068 166.995 100.927 166.854C100.786 166.714 100.526 166.458 100.339 166.271L99.8698 165.849V161.979L100.693 161.229C101.854 160.073 102.755 158.74 103.385 157.229C104.016 155.719 104.328 154.141 104.328 152.505C104.328 152.01 104.328 151.521 104.328 151.052C104.328 150.583 104.328 150.724 104.328 150.583C104.328 150.443 104.328 149.948 104.161 149.641C104 149.339 104.047 149.266 104 149.078C103.953 148.891 103.833 148.542 103.74 148.26C103.672 148.068 103.594 147.88 103.505 147.698C103.411 147.448 103.302 147.203 103.177 146.969L102.875 146.406L102.219 145.562C102.078 145.391 101.953 145.214 101.839 145.021L101.349 144.437L100.927 143.922L100.339 143.359L99.8698 142.937V139.042C100.161 138.812 100.437 138.562 100.693 138.292C101.859 137.146 102.76 135.812 103.391 134.302C104.026 132.786 104.333 131.208 104.328 129.568C104.328 129.078 104.328 128.583 104.328 128.115C104.328 127.646 104.328 127.786 104.328 127.646C104.328 127.505 104.328 127.016 104.161 126.687C104 126.359 104.047 126.333 104 126.146C103.953 125.958 103.833 125.609 103.74 125.328C103.672 125.135 103.594 124.948 103.505 124.76C103.411 124.516 103.302 124.271 103.177 124.036L102.875 123.474L102.219 122.792C102.078 122.625 101.953 122.443 101.839 122.255L101.349 121.667L100.927 121.151L100.339 120.589L99.8698 120.167V82.8333C99.8646 82.6771 99.9167 82.5416 100.026 82.4323C100.141 82.3177 100.276 82.2656 100.432 82.2708H177.042C177.198 82.2708 177.328 82.3281 177.443 82.4375C177.552 82.5469 177.604 82.6823 177.604 82.8333V176.234C175.01 179.245 172.844 182.542 171.109 186.12C169.375 189.698 168.135 193.437 167.38 197.339C166.349 203.115 166.422 208.875 167.589 214.62ZM96.026 146.057C97.0885 146.76 97.9271 147.677 98.5312 148.802C99.1406 149.927 99.4427 151.13 99.4479 152.411C99.4375 153.432 99.2292 154.411 98.8229 155.344C98.4167 156.281 97.8437 157.099 97.1042 157.802C96.401 158.552 95.5781 159.13 94.6406 159.542C93.6979 159.948 92.7135 160.151 91.6823 160.146H84.5521C84.2135 160.151 83.8906 160.089 83.5781 159.964C83.2656 159.833 82.9896 159.651 82.7448 159.417C82.5052 159.177 82.3229 158.901 82.1927 158.589C82.0625 158.276 81.9948 157.953 81.9948 157.615V147.297C81.9948 146.958 82.0625 146.635 82.1927 146.323C82.3229 146.01 82.5052 145.734 82.7448 145.5C82.9896 145.26 83.2656 145.078 83.5781 144.953C83.8906 144.823 84.2135 144.76 84.5521 144.766H91.776C93.3281 144.755 94.7396 145.187 96.026 146.057ZM96.026 168.896C97.0885 169.599 97.9271 170.516 98.5312 171.641C99.1406 172.771 99.4427 173.969 99.4479 175.25C99.4375 176.276 99.2344 177.255 98.8229 178.198C98.4167 179.135 97.8437 179.958 97.1042 180.667C96.7396 181.021 96.3489 181.339 95.9323 181.63C94.6406 182.479 93.2292 182.901 91.6823 182.896H84.5521C84.2135 182.896 83.8906 182.833 83.5781 182.708C83.2656 182.583 82.9896 182.401 82.7448 182.161C82.5052 181.922 82.3229 181.646 82.1927 181.339C82.0625 181.026 81.9948 180.698 81.9948 180.359V170.135C81.9948 169.802 82.0625 169.474 82.1927 169.161C82.3229 168.849 82.5052 168.578 82.7448 168.339C82.9896 168.099 83.2656 167.917 83.5781 167.792C83.8906 167.661 84.2135 167.604 84.5521 167.604H91.776C93.3385 167.63 94.7552 168.099 96.026 169.01V168.896ZM81.9479 124.339C81.9479 124.005 82.0156 123.677 82.1458 123.365C82.276 123.052 82.4583 122.781 82.6979 122.542C82.9427 122.302 83.2187 122.12 83.5312 121.995C83.8437 121.87 84.1667 121.807 84.5052 121.807H91.7292C93.276 121.797 94.6927 122.219 95.9792 123.073C97.0417 123.781 97.8802 124.698 98.4844 125.823C99.0937 126.948 99.3958 128.151 99.401 129.427C99.3958 130.453 99.1875 131.427 98.7812 132.365C98.375 133.302 97.7969 134.12 97.0573 134.823C96.3542 135.573 95.5312 136.151 94.5885 136.557C93.651 136.969 92.6667 137.172 91.6354 137.167H84.5521C84.2187 137.167 83.8906 137.104 83.5781 136.974C83.2708 136.849 82.9948 136.667 82.7552 136.427C82.5156 136.193 82.3281 135.917 82.1979 135.604C82.0677 135.297 82 134.974 81.9948 134.635L81.9479 124.339ZM84.5052 205.615C84.1667 205.62 83.8437 205.557 83.5312 205.432C83.2187 205.302 82.9427 205.12 82.6979 204.885C82.4583 204.646 82.276 204.37 82.1458 204.057C82.0156 203.745 81.9479 203.422 81.9479 203.083V193C81.9479 192.661 82.0156 192.339 82.1458 192.026C82.276 191.714 82.4583 191.437 82.6979 191.203C82.9427 190.964 83.2187 190.781 83.5312 190.656C83.8437 190.526 84.1667 190.464 84.5052 190.469H91.7292C93.2812 190.458 94.6927 190.891 95.9792 191.76C97.0417 192.464 97.8802 193.38 98.4844 194.505C99.0937 195.63 99.3958 196.833 99.401 198.115C99.3906 199.135 99.1823 200.115 98.776 201.047C98.3698 201.984 97.7969 202.802 97.0573 203.505C96.6927 203.859 96.3021 204.182 95.8854 204.469C94.5989 205.328 93.1823 205.75 91.6354 205.734H84.5521L84.5052 205.615ZM91.6614 232.724V210.307C92.2396 210.344 92.8177 210.344 93.3958 210.307H93.9844L94.875 210.141V214.177C94.875 214.87 95.0052 215.542 95.276 216.187C95.5417 216.828 95.9219 217.396 96.4114 217.891C96.9062 218.38 97.4739 218.76 98.1198 219.026C98.7604 219.297 99.4323 219.427 100.13 219.427H168.786C169.208 220.891 169.719 222.318 170.312 223.719C170.406 223.969 170.5 224.203 170.594 224.422L171.016 225.406L171.906 227.26C172.115 227.755 172.375 228.224 172.583 228.62C173.245 229.839 174.016 231.151 174.932 232.469C175.042 232.604 175.089 232.76 175.073 232.937C175.104 233.047 175.104 233.156 175.073 233.266C174.948 233.531 174.734 233.656 174.437 233.641H92.3646C92.1562 233.635 91.9844 233.552 91.8542 233.391C91.7187 233.229 91.6719 233.047 91.7083 232.844L91.6614 232.724ZM161.094 268.766L155.885 248.271C156.333 247.818 156.562 247.271 156.562 246.63C156.562 246.318 156.505 246.021 156.385 245.734C156.266 245.443 156.099 245.193 155.88 244.974C155.656 244.75 155.406 244.583 155.115 244.464C154.828 244.344 154.531 244.286 154.219 244.286C152.896 244.328 151.583 244.229 150.281 243.984C148.974 243.74 147.719 243.354 146.5 242.828C145.281 242.302 144.141 241.651 143.068 240.87C141.995 240.094 141.021 239.208 140.146 238.214H174.297C175.302 238.214 176.229 237.958 177.089 237.443C177.948 236.927 178.615 236.229 179.089 235.344C179.557 234.458 179.771 233.516 179.719 232.516C179.667 231.516 179.359 230.599 178.802 229.771L178.542 229.349C178.26 228.901 177.958 228.432 177.698 227.99C177.443 227.542 177.021 226.812 176.714 226.229C176.495 225.875 176.297 225.505 176.125 225.125C175.495 223.885 174.953 222.594 174.437 221.302L174.016 220.177C173.781 219.5 173.594 218.844 173.385 218.161C173.172 217.484 172.984 216.99 172.844 216.38V215.932C171.328 210.099 171.083 204.214 172.115 198.276C172.807 194.635 173.974 191.156 175.62 187.833C177.266 184.516 179.328 181.474 181.802 178.719C183.635 176.693 185.677 174.901 187.927 173.349L188.911 172.646L189.24 133.839C189.255 132.547 189.432 131.281 189.781 130.042L189.969 129.615V129.474C190.37 128.156 190.943 126.911 191.693 125.75C192.437 124.583 193.328 123.547 194.365 122.63C195.401 121.714 196.542 120.953 197.786 120.349C199.031 119.75 200.333 119.328 201.693 119.089V148.141C201.74 150.469 202.141 152.74 202.891 154.943L206.76 166.927C209.302 173.755 210.969 180.786 211.76 188.031C212.193 195.328 212.193 202.63 211.76 209.932C211.547 214.083 211.359 218.396 211.333 222.667C211.333 223.625 211.734 225.01 214.385 232.042C214.974 233.568 215.49 234.859 215.63 235.328L221.422 256.245L161.094 268.766Z" fill="white"/>
</g>
</svg>
