<svg width="291" height="246" viewBox="0 0 291 246" fill="none" xmlns="http://www.w3.org/2000/svg">
<mask id="mask0_18_7" style="mask-type:luminance" maskUnits="userSpaceOnUse" x="0" y="0" width="291" height="246">
<path d="M0.078125 0.666656H290.078V246H0.078125V0.666656Z" fill="white"/>
</mask>
<g mask="url(#mask0_18_7)">
<path d="M290.042 31.151C290.042 31.0781 290.005 31.0104 290.005 30.9375C290.005 30.8281 290.005 30.724 289.969 30.6146C289.969 30.5833 289.938 30.5469 289.938 30.5104C289.901 30.4375 289.865 30.3646 289.792 30.2969C289.755 30.224 289.688 30.1198 289.651 30.0469C289.615 30.0104 289.615 29.974 289.578 29.9375C289.505 29.8698 289.438 29.8333 289.365 29.7969C289.292 29.724 289.224 29.6562 289.115 29.6198C289.078 29.6198 289.078 29.5833 289.047 29.5469H289.01C288.938 29.5104 288.833 29.5104 288.76 29.474C288.688 29.4375 288.615 29.4062 288.547 29.4062L101.115 1.3125H101.078C100.865 1.27604 100.615 1.3125 100.401 1.34895C100.26 1.38541 100.115 1.45833 99.974 1.52604C99.901 1.5625 99.8333 1.59895 99.7604 1.63541C99.7604 1.63541 99.724 1.63541 99.724 1.67187L1.04166 82.4479C0.755205 82.6979 0.578122 82.9844 0.505205 83.3385C0.364581 83.5521 0.291664 83.7656 0.255205 84.0156C0.182289 84.375 0.255204 84.7292 0.432288 85.0521V85.0885L1.50521 154.099C1.50521 154.172 1.53646 154.208 1.53646 154.281C1.53646 154.385 1.57291 154.495 1.60937 154.635C1.64583 154.745 1.68229 154.849 1.75 154.958C1.82291 155.062 1.85937 155.135 1.93229 155.24C2 155.349 2.07291 155.422 2.18229 155.49C2.25 155.562 2.35937 155.635 2.46354 155.672C2.57291 155.74 2.67708 155.776 2.78646 155.812C2.85416 155.74 2.89062 155.812 2.96354 155.812L135.208 180.302V220.76C127.552 219.193 120.531 217.766 118.891 217.552C118.854 217.552 118.786 217.552 118.75 217.552C118.677 217.552 118.641 217.521 118.609 217.521C115.828 217.625 114.615 218.875 114.12 219.906L55.2656 208.5C54.3021 208.323 53.375 208.964 53.1615 209.927C52.9844 210.891 53.5885 211.812 54.5885 212.031L114.01 223.542C114.688 225.719 116.469 227.75 118.036 228.604C118.323 228.854 118.641 229.068 119.036 229.104C121.385 229.391 129.724 231.099 137.74 232.776C145.578 234.38 152.984 235.911 155.266 236.198C155.339 236.198 155.411 236.198 155.443 236.198C155.839 236.271 156.229 236.339 156.583 236.339C157.938 236.339 159.151 235.844 160.078 234.917C160.505 234.484 160.786 233.99 161.005 233.453L231.115 245.609C231.224 245.609 231.328 245.646 231.438 245.646C232.292 245.646 233.042 245.036 233.182 244.182C233.359 243.219 232.682 242.292 231.724 242.115L161.286 229.922C161.286 229.891 161.286 229.854 161.25 229.781C160.573 227.359 158.438 225.542 155.443 224.792H155.411C155.302 224.755 155.229 224.719 155.125 224.682C153.807 224.542 146.219 223.01 138.771 221.474V180.943L243.12 200.266C243.229 200.302 243.333 200.302 243.443 200.302C243.479 200.302 243.479 200.302 243.516 200.302C243.729 200.302 243.906 200.266 244.083 200.193C244.156 200.156 244.224 200.125 244.297 200.089C244.297 200.089 244.333 200.089 244.333 200.052C244.37 200.016 244.406 200.016 244.474 199.979C244.547 199.943 244.583 199.906 244.656 199.839C244.724 199.766 244.76 199.693 244.833 199.625C244.901 199.516 244.974 199.411 245.047 199.302C245.083 199.266 245.115 199.229 245.115 199.198L289.615 86.0156C289.651 85.9062 289.651 85.8021 289.688 85.6927C289.724 85.5833 289.755 85.4792 289.755 85.3698L290.042 31.151ZM157.87 230.745C157.974 231.062 157.974 231.385 157.901 231.672C157.833 231.958 157.724 232.24 157.547 232.422C157.12 232.88 156.443 232.812 155.943 232.667C155.906 232.667 155.875 232.667 155.839 232.667C155.802 232.667 155.766 232.635 155.729 232.635C153.594 232.349 145.896 230.781 138.484 229.245C130.438 227.573 122.88 226.005 119.964 225.609C119.891 225.573 119.854 225.505 119.781 225.505C118.641 225.005 117.323 222.938 117.292 221.833C117.292 221.76 117.292 221.656 117.255 221.583C117.323 221.224 118.146 221.12 118.573 221.083C120.422 221.37 128.12 222.938 135.599 224.469C144.365 226.25 152.594 227.927 154.521 228.214C154.552 228.214 154.589 228.25 154.625 228.25C156.37 228.641 157.547 229.568 157.87 230.745ZM286.193 84.9792L245.151 189.323L244.547 127.505C244.656 127.365 244.797 127.292 244.87 127.115L286.406 39.1719L286.193 84.9792ZM5.03125 152.568L3.96354 86.4792L240.771 128.646C240.844 128.646 240.948 128.682 241.021 128.682L241.698 196.38L5.03125 152.568ZM101.328 4.94791L285.625 32.5781L242.089 124.729C241.839 124.833 241.661 124.974 241.484 125.156C241.448 125.156 241.411 125.12 241.375 125.12L5.77604 83.1615L101.328 4.94791Z" fill="white"/>
</g>
<path d="M12.1927 111.927C12.1927 112.391 12.4063 112.823 12.724 113.141C12.974 113.604 13.4011 113.964 13.974 114.068C21.2396 115.318 23.0209 115.599 30.073 116.885C30.1823 116.922 30.2917 116.922 30.3959 116.922C30.4323 116.922 30.4688 116.922 30.4688 116.922C30.5365 116.922 30.573 116.885 30.6459 116.885C30.7865 116.849 30.9323 116.849 31.073 116.776C31.1459 116.74 31.2136 116.708 31.2865 116.635C31.3959 116.563 31.5 116.495 31.6094 116.422C31.6771 116.349 31.7136 116.276 31.7865 116.208C31.8542 116.099 31.9271 115.995 31.9636 115.885C32 115.813 32.0365 115.708 32.073 115.635C32.073 115.568 32.1042 115.531 32.1407 115.458C32.1407 115.385 32.1407 115.318 32.1407 115.245C32.1407 115.172 32.1771 115.104 32.1771 115.031C32.0365 111.682 31.9271 108.938 31.823 106.12C31.75 103.479 31.6407 100.771 31.5 97.4583C31.4636 96.8854 31.1459 96.3854 30.6823 96.1042C30.4323 95.8854 30.1823 95.7448 29.8282 95.6719C24.7657 94.8177 18.6042 93.6771 13.724 92.7136C13.6511 92.7136 13.6146 92.7136 13.5469 92.7136C13.474 92.7136 13.4011 92.6771 13.2969 92.6771C13.2605 92.6771 13.224 92.7136 13.1511 92.7136C13.0105 92.7136 12.9011 92.75 12.7969 92.7865C12.6875 92.8229 12.6198 92.8594 12.5105 92.8958C12.4063 92.9636 12.2969 93.0365 12.224 93.1094C12.1563 93.1771 12.0469 93.25 12.0105 93.3229C11.9427 93.3906 11.8698 93.5 11.8334 93.6042C11.7657 93.7136 11.7292 93.8177 11.6927 93.9271C11.6927 93.9636 11.6563 94 11.6198 94.0677C11.6198 94.1406 11.6198 94.2136 11.6198 94.2813C11.6198 94.3542 11.5834 94.4271 11.5834 94.5L12.1927 111.927ZM28.2605 106.26C28.3282 108.438 28.4011 110.573 28.5052 112.964C23.875 112.146 21.6302 111.75 16.9271 110.932L20.2448 108.151C20.9896 107.51 21.099 106.406 20.4584 105.656C19.8125 104.906 18.7084 104.802 17.9636 105.443L15.6094 107.401L15.2552 96.6354C19.3542 97.4219 23.9115 98.2761 28.0105 98.9531C28.1146 101.698 28.1875 104.016 28.2605 106.26Z" fill="white"/>
<path d="M36.8438 116.099C36.8438 116.208 36.8802 116.276 36.9167 116.349C36.9532 116.495 36.9532 116.599 36.9844 116.74C37.0573 116.885 37.1302 116.99 37.2032 117.099C37.2344 117.172 37.2709 117.24 37.3438 117.313C37.3438 117.313 37.3438 117.313 37.3802 117.313C37.6302 117.776 38.0573 118.13 38.625 118.24C45.8959 119.484 47.6771 119.771 54.7292 121.057C54.8334 121.089 54.9427 121.089 55.0521 121.089C55.0834 121.089 55.1198 121.089 55.1198 121.089C55.1927 121.089 55.2292 121.057 55.2969 121.057C55.4427 121.021 55.5834 121.021 55.724 120.948C55.7969 120.911 55.8698 120.875 55.9427 120.807C56.0469 120.734 56.1563 120.661 56.2605 120.594C56.3334 120.521 56.3698 120.448 56.4375 120.38C56.5105 120.271 56.5834 120.161 56.6146 120.057C56.6511 119.984 56.6875 119.88 56.724 119.807C56.724 119.734 56.7605 119.703 56.7969 119.63C56.7969 119.557 56.7969 119.484 56.7969 119.417C56.7969 119.344 56.8334 119.271 56.8334 119.203C56.6875 115.849 56.5834 113.104 56.474 110.292C56.4011 107.651 56.2969 104.943 56.1563 101.625C56.1198 101.021 55.7605 100.521 55.2969 100.234C55.0521 100.057 54.8021 99.8802 54.4792 99.8438C49.4219 98.9896 43.2552 97.8854 38.375 96.8854C38.3073 96.8854 38.2709 96.8854 38.198 96.8854C38.125 96.8854 38.0573 96.849 37.948 96.849C37.9115 96.849 37.8438 96.8854 37.8073 96.8854C37.6615 96.8854 37.5573 96.9219 37.448 96.9583C37.3438 96.9948 37.2709 97.0261 37.1667 97.0625C37.0573 97.1354 36.9532 97.2083 36.8802 97.2761C36.8073 97.349 36.7396 97.4219 36.6667 97.4896C36.5938 97.599 36.5261 97.6719 36.4896 97.7761C36.4167 97.8854 36.3802 97.9896 36.3438 98.099C36.3438 98.1354 36.3125 98.1719 36.2761 98.2396C36.2761 98.3125 36.2761 98.3854 36.2761 98.4531C36.2761 98.5261 36.2396 98.599 36.2396 98.6667L36.8438 116.099ZM52.9115 110.432C52.9844 112.604 53.0521 114.745 53.1615 117.135C48.7084 116.313 46.4271 115.922 42.0469 115.172L45.6094 111.714C46.323 111.036 46.323 109.896 45.6459 109.182C44.9688 108.474 43.8282 108.474 43.1146 109.151L40.2292 111.927L39.8386 100.771C43.9323 101.557 48.4948 102.411 52.5938 103.089C52.7344 105.833 52.8386 108.151 52.9115 110.432Z" fill="white"/>
<path d="M61.7135 120.234C61.7135 120.661 61.927 121.057 62.177 121.375C62.2083 121.448 62.2448 121.484 62.2812 121.552C62.3541 121.661 62.4218 121.734 62.5312 121.839C62.5677 121.911 62.6041 121.984 62.6718 122.016C62.7083 122.052 62.7448 122.052 62.7812 122.052C62.8541 122.089 62.9218 122.125 62.9948 122.198C63.1354 122.266 63.2448 122.302 63.3854 122.339C63.4218 122.339 63.4583 122.375 63.4948 122.375C70.7604 123.62 72.5416 123.906 79.5937 125.193C79.7031 125.224 79.8125 125.224 79.9166 125.224C79.9531 125.224 79.9895 125.224 79.9895 125.224C80.0573 125.224 80.0937 125.193 80.1666 125.193C80.3073 125.156 80.4531 125.156 80.5937 125.083C80.6666 125.047 80.7343 125.01 80.8073 124.943C80.9166 124.87 81.0208 124.797 81.1302 124.729C81.1979 124.656 81.2343 124.583 81.3073 124.516C81.375 124.406 81.4479 124.297 81.4843 124.193C81.5208 124.12 81.5573 124.016 81.5937 123.943C81.5937 123.87 81.625 123.833 81.6614 123.766C81.6614 123.693 81.6614 123.62 81.6614 123.552C81.6614 123.479 81.6979 123.406 81.6979 123.339C81.5573 119.984 81.4479 117.24 81.3437 114.427C81.2708 111.786 81.1614 109.078 81.0208 105.76C80.9843 105.156 80.6666 104.693 80.2031 104.37C79.9531 104.156 79.7031 104.016 79.3802 103.943C74.3229 103.089 68.125 101.948 63.2812 100.984C63.2083 100.984 63.1718 100.984 63.0989 100.984C63.0312 100.984 62.9583 100.948 62.8541 100.948C62.8177 100.948 62.7448 100.984 62.7083 100.984C62.6041 100.984 62.4583 101.021 62.3541 101.057C62.2448 101.094 62.1406 101.13 62.0312 101.198C61.927 101.271 61.8541 101.307 61.7448 101.375C61.677 101.448 61.5677 101.521 61.5 101.625C61.427 101.698 61.3906 101.807 61.3177 101.911C61.25 102.021 61.2135 102.125 61.177 102.234C61.177 102.271 61.1406 102.302 61.1041 102.375C61.1041 102.448 61.1041 102.521 61.1041 102.589C61.1041 102.661 61.0729 102.734 61.0729 102.802L61.7135 120.234ZM77.7812 114.568C77.8489 116.74 77.9218 118.88 78.026 121.271C73.6093 120.484 71.3645 120.094 67.0937 119.344L69.8333 115.958C70.4427 115.208 70.3333 114.068 69.5833 113.464C68.8385 112.854 67.6979 112.964 67.0937 113.714L65.1666 116.099L64.776 104.943C68.8385 105.729 73.4323 106.583 77.5312 107.297C77.5989 109.969 77.7083 112.323 77.7812 114.568Z" fill="white"/>
<path d="M86.3281 125.12C86.3281 125.583 86.5417 126.01 86.8646 126.333C87.1146 126.797 87.5417 127.151 88.1094 127.26C95.3802 128.505 97.1615 128.792 104.214 130.073C104.323 130.109 104.427 130.109 104.536 130.109C104.573 130.109 104.604 130.109 104.604 130.109C104.677 130.109 104.714 130.073 104.786 130.073C104.927 130.036 105.068 130.036 105.214 129.969C105.281 129.932 105.354 129.896 105.427 129.823C105.531 129.755 105.641 129.682 105.745 129.609C105.818 129.542 105.854 129.469 105.922 129.396C105.995 129.292 106.068 129.182 106.104 129.078C106.135 129.005 106.172 128.896 106.208 128.828C106.208 128.755 106.245 128.719 106.281 128.646C106.281 128.578 106.281 128.505 106.281 128.432C106.281 128.365 106.318 128.292 106.318 128.219C106.172 124.87 106.068 122.125 105.958 119.307C105.891 116.672 105.781 113.964 105.641 110.646C105.604 110.042 105.245 109.542 104.786 109.219C104.573 109.042 104.286 108.901 104 108.828C98.9792 108.01 92.8125 106.87 87.8958 105.87C87.8281 105.87 87.7917 105.87 87.7188 105.87C87.6458 105.87 87.5781 105.833 87.5052 105.833C87.4687 105.833 87.4323 105.87 87.3646 105.87C87.2187 105.87 87.0781 105.906 86.9688 105.974C86.8646 106.01 86.7917 106.047 86.724 106.083C86.6146 106.156 86.5052 106.224 86.4375 106.297C86.3646 106.37 86.2917 106.438 86.224 106.51C86.151 106.62 86.0781 106.688 86.0469 106.797C85.974 106.901 85.9375 107.01 85.901 107.115C85.901 107.151 85.8646 107.188 85.8333 107.26C85.8333 107.333 85.8333 107.401 85.8333 107.474C85.8333 107.547 85.7969 107.615 85.7969 107.688L86.3281 125.12ZM102.396 119.453C102.469 121.625 102.542 123.766 102.646 126.151C98.7292 125.438 96.5208 125.047 93.0625 124.479L95.0938 121.984C95.6979 121.234 95.5938 120.094 94.8438 119.484C94.0938 118.88 92.9583 118.99 92.349 119.734L89.8542 122.802L89.4271 109.828C93.526 110.646 98.1198 111.464 102.182 112.146C102.255 114.854 102.328 117.172 102.396 119.453Z" fill="white"/>
<path d="M12.2604 137.312C12.2968 137.417 12.2968 137.562 12.3333 137.667C12.3698 137.776 12.4427 137.88 12.5104 137.99C12.5468 138.057 12.5833 138.13 12.6198 138.203C12.6198 138.24 12.6562 138.24 12.6875 138.24L12.7239 138.271C12.9739 138.734 13.401 139.094 13.9739 139.198C21.2395 140.448 23.0208 140.734 30.0729 142.016C30.1823 142.052 30.2916 142.052 30.3958 142.052C30.4323 142.052 30.4687 142.052 30.4687 142.052C30.5364 142.052 30.5729 142.016 30.6458 142.016C30.7864 141.979 30.9323 141.979 31.0729 141.911C31.1458 141.875 31.2135 141.839 31.2864 141.766C31.3958 141.698 31.5 141.625 31.6093 141.552C31.677 141.479 31.7135 141.411 31.7864 141.339C31.8541 141.234 31.927 141.125 31.9635 141.016C32 140.948 32.0364 140.839 32.0729 140.771C32.0729 140.698 32.1041 140.661 32.1406 140.589C32.1406 140.521 32.1406 140.448 32.1406 140.375C32.1406 140.307 32.177 140.234 32.177 140.161C32.0364 136.812 31.927 134.068 31.8229 131.25C31.75 128.615 31.6406 125.901 31.5 122.589C31.4635 121.984 31.1093 121.484 30.6458 121.198C30.3958 121.021 30.1458 120.844 29.8281 120.807C24.7656 119.948 18.6041 118.807 13.7239 117.849C13.651 117.849 13.5781 117.849 13.5468 117.849C13.4739 117.849 13.401 117.812 13.3333 117.812C13.2968 117.812 13.2604 117.849 13.2239 117.849C13.0833 117.849 12.9375 117.88 12.8333 117.953C12.7239 117.99 12.6562 118.026 12.5833 118.062C12.4739 118.13 12.3698 118.203 12.2604 118.276C12.1927 118.344 12.1198 118.417 12.0468 118.49C11.9791 118.594 11.9062 118.667 11.8698 118.776C11.7968 118.88 11.7656 118.99 11.7291 119.094C11.7291 119.13 11.6927 119.167 11.6562 119.24C11.6562 119.307 11.6562 119.38 11.6562 119.453C11.6562 119.521 11.6198 119.594 11.6198 119.667L12.2239 137.062C12.1927 137.167 12.2604 137.24 12.2604 137.312ZM28.2604 131.391C28.3281 133.568 28.401 135.708 28.5052 138.094C24.125 137.313 21.8437 136.917 17.6041 136.172L20.276 133.818C21.026 133.177 21.0989 132.036 20.4583 131.286C19.8125 130.536 18.677 130.469 17.927 131.109L15.6458 133.141L15.2552 121.734C19.3541 122.516 23.9114 123.37 28.0104 124.052C28.1145 126.828 28.1875 129.146 28.2604 131.391Z" fill="white"/>
<path d="M36.8802 141.479C36.9167 141.589 36.9167 141.729 36.9531 141.839C36.9844 141.943 37.0937 142.052 37.1667 142.156C37.2031 142.229 37.2344 142.302 37.3073 142.375C37.3073 142.375 37.3438 142.375 37.3438 142.406C37.3438 142.406 37.3438 142.406 37.3438 142.443C37.5938 142.906 38.0208 143.266 38.5885 143.37C45.8594 144.62 47.6406 144.906 54.6927 146.188C54.8021 146.224 54.9062 146.224 55.0156 146.224C55.0521 146.224 55.0833 146.224 55.0833 146.224C55.1563 146.224 55.1927 146.188 55.2656 146.188C55.4062 146.151 55.5469 146.151 55.6927 146.078C55.7604 146.047 55.8333 146.01 55.9062 145.938C56.0104 145.865 56.1198 145.797 56.224 145.724C56.2969 145.651 56.3333 145.583 56.401 145.51C56.474 145.401 56.5469 145.297 56.5833 145.188C56.6146 145.12 56.651 145.01 56.6875 144.938C56.6875 144.87 56.724 144.833 56.7604 144.76C56.7604 144.688 56.7604 144.62 56.7604 144.547C56.7604 144.474 56.7969 144.406 56.7969 144.333C56.651 140.984 56.5469 138.24 56.4375 135.422C56.3698 132.781 56.2604 130.073 56.1198 126.76C56.0833 126.151 55.724 125.62 55.2292 125.333C55.0156 125.156 54.7292 125.01 54.4427 124.974C49.3854 124.12 43.224 123.016 38.3385 122.016C38.2708 122.016 38.1979 122.016 38.125 122.016C38.0573 122.016 37.9844 121.984 37.9115 121.984C37.875 121.984 37.8437 122.016 37.8073 122.016C37.6615 122.016 37.5208 122.052 37.4167 122.125C37.3437 122.161 37.2344 122.198 37.1667 122.229C37.0573 122.302 36.9531 122.375 36.8438 122.448C36.7708 122.516 36.7031 122.589 36.6302 122.661C36.5573 122.766 36.4896 122.839 36.4531 122.943C36.3802 123.052 36.3437 123.156 36.3125 123.266C36.3125 123.302 36.276 123.339 36.2396 123.406C36.2396 123.479 36.2396 123.552 36.2396 123.62C36.2396 123.693 36.2031 123.766 36.2031 123.833L36.8073 141.234C36.8437 141.302 36.8802 141.375 36.8802 141.479ZM52.9115 135.562C52.9844 137.74 53.0521 139.875 53.1615 142.266C48.7083 141.479 46.4635 141.052 42.1146 140.339L45.2188 137.417C45.9271 136.74 45.9635 135.599 45.2865 134.885C44.6094 134.172 43.4688 134.141 42.7604 134.818L40.2656 137.167L39.875 125.938C43.9687 126.724 48.5313 127.578 52.625 128.255C52.7344 130.964 52.8385 133.281 52.9115 135.562Z" fill="white"/>
<path d="M61.7136 145.437C61.7136 145.51 61.7448 145.547 61.7448 145.615C61.7448 145.724 61.7813 145.797 61.8177 145.901C61.8542 145.974 61.8542 146.047 61.8907 146.115C61.9271 146.151 61.9636 146.224 61.9948 146.26C62.0313 146.328 62.1042 146.401 62.1771 146.474C62.2448 146.542 62.2813 146.615 62.3542 146.651C62.3907 146.651 62.3907 146.687 62.3907 146.724C62.4219 146.755 62.4584 146.755 62.4948 146.792C62.5677 146.828 62.6355 146.865 62.7084 146.901C62.7813 146.937 62.8177 146.969 62.8855 147.005C62.9584 147.042 63.0313 147.042 63.099 147.078C63.1355 147.078 63.1719 147.115 63.2084 147.115C67.0938 147.792 69.4792 148.292 71.9375 148.823C74.1094 149.286 76.3177 149.786 79.5938 150.359C79.7032 150.396 79.8125 150.396 79.9167 150.396C79.9532 150.396 79.9896 150.396 79.9896 150.396C80.0573 150.396 80.0938 150.359 80.1667 150.359C80.3073 150.323 80.4532 150.323 80.5938 150.25C80.6667 150.214 80.7344 150.177 80.8073 150.109C80.9167 150.036 81.0209 149.964 81.1302 149.896C81.198 149.823 81.2344 149.75 81.3073 149.682C81.375 149.573 81.448 149.469 81.4844 149.359C81.5209 149.286 81.5573 149.182 81.5938 149.109C81.5938 149.036 81.625 149.005 81.6615 148.932C81.6615 148.859 81.6615 148.792 81.6615 148.719C81.6615 148.646 81.698 148.573 81.698 148.505C81.5573 145.151 81.448 142.406 81.3438 139.594C81.2709 136.953 81.1615 134.245 81.0209 130.932C80.9844 130.323 80.6302 129.823 80.1667 129.505C79.9532 129.328 79.6667 129.182 79.3802 129.109C74.323 128.255 68.1615 127.115 63.2813 126.151C63.2084 126.151 63.1355 126.151 63.0677 126.151C62.9948 126.151 62.9219 126.12 62.8542 126.12C62.8177 126.12 62.7813 126.151 62.7448 126.151C62.6042 126.151 62.4584 126.187 62.3542 126.26C62.2448 126.297 62.1771 126.333 62.1042 126.365C61.9948 126.437 61.8907 126.51 61.8177 126.578C61.7448 126.651 61.6771 126.724 61.6042 126.797C61.5313 126.901 61.4636 126.974 61.4271 127.078C61.3542 127.187 61.3177 127.292 61.2865 127.401C61.2865 127.437 61.25 127.474 61.2136 127.542C61.2136 127.615 61.2136 127.687 61.2136 127.755C61.2136 127.828 61.1771 127.901 61.1771 127.969L61.7813 145.365C61.7136 145.401 61.7136 145.401 61.7136 145.437ZM66.7709 144.083L69.4063 140.839C70.0105 140.094 69.9063 138.953 69.1563 138.344C68.4115 137.703 67.2709 137.844 66.6615 138.594L65.0938 140.484L64.7396 130.073C68.8386 130.859 73.3959 131.714 77.4948 132.391C77.599 135.099 77.6719 137.417 77.7813 139.661C77.849 141.839 77.9219 143.979 78.0261 146.365C75.9271 145.974 74.2865 145.615 72.6823 145.26C70.8698 144.906 69.0886 144.51 66.7709 144.083Z" fill="white"/>
<path d="M105.214 133.391C105 133.214 104.75 133.068 104.427 133.031C99.3698 132.177 93.2031 131.036 88.3229 130.073C88.2552 130.073 88.1823 130.073 88.1093 130.073C88.0416 130.073 87.9687 130.036 87.8958 130.036C87.8593 130.036 87.8281 130.073 87.7552 130.073C87.6145 130.073 87.5052 130.109 87.3645 130.182C87.2552 130.219 87.1823 130.25 87.0781 130.286C86.9687 130.359 86.8645 130.432 86.7916 130.5C86.7239 130.573 86.651 130.646 86.5781 130.714C86.5052 130.823 86.4375 130.896 86.401 131C86.3281 131.109 86.2916 131.214 86.2604 131.323C86.2604 131.359 86.2239 131.391 86.1875 131.464C86.1875 131.536 86.1875 131.609 86.1875 131.677C86.1875 131.75 86.151 131.823 86.151 131.891L86.7552 149.286C86.7552 149.323 86.7552 149.323 86.7552 149.359C86.651 150.286 87.2552 151.177 88.2187 151.323C94.6302 152.427 96.9843 152.854 102.292 153.818L104.604 154.245C104.714 154.281 104.818 154.281 104.927 154.281C104.964 154.281 105 154.281 105 154.281C105.068 154.281 105.104 154.245 105.177 154.245C105.318 154.208 105.464 154.208 105.604 154.135C105.677 154.099 105.745 154.068 105.818 153.995C105.922 153.922 106.031 153.849 106.135 153.781C106.208 153.708 106.245 153.635 106.318 153.568C106.385 153.458 106.458 153.354 106.495 153.245C106.531 153.172 106.568 153.068 106.599 152.995C106.599 152.927 106.635 152.891 106.672 152.818C106.672 152.745 106.672 152.677 106.672 152.604C106.672 152.531 106.708 152.464 106.708 152.391C106.568 149.036 106.458 146.292 106.354 143.479C106.281 140.839 106.172 138.13 106.031 134.818C106.104 134.208 105.708 133.677 105.214 133.391ZM92.2448 148.359L94.9843 145.333C95.6614 144.62 95.5937 143.479 94.8802 142.802C94.1666 142.156 93.026 142.193 92.3489 142.906L90.2135 145.26L89.8229 133.958C93.9166 134.745 98.4791 135.599 102.573 136.276C102.682 138.984 102.755 141.302 102.859 143.547C102.932 145.724 103.005 147.865 103.109 150.25L102.969 150.214C98.7291 149.5 96.3385 149.073 92.2448 148.359Z" fill="white"/>
<path d="M110.698 129.328C110.698 129.359 110.734 129.396 110.734 129.469C110.734 129.573 110.771 129.682 110.807 129.823C110.839 129.932 110.875 130.036 110.948 130.146C110.984 130.182 110.984 130.25 111.021 130.286C111.052 130.323 111.089 130.359 111.125 130.396C111.161 130.469 111.198 130.5 111.234 130.573C111.484 131.036 111.911 131.391 112.479 131.5C119.745 132.75 121.526 133.031 128.583 134.318C128.688 134.354 128.797 134.354 128.901 134.354C128.938 134.354 128.974 134.354 128.974 134.354C129.047 134.354 129.083 134.318 129.151 134.318C129.297 134.281 129.438 134.281 129.578 134.208C129.651 134.172 129.724 134.141 129.792 134.068C129.901 133.995 130.005 133.922 130.115 133.854C130.188 133.781 130.224 133.708 130.292 133.641C130.365 133.531 130.438 133.427 130.469 133.318C130.505 133.245 130.542 133.141 130.578 133.068C130.578 132.995 130.615 132.964 130.651 132.891C130.651 132.818 130.651 132.75 130.651 132.677C130.651 132.604 130.682 132.536 130.682 132.464C130.542 129.109 130.438 126.365 130.328 123.552C130.255 120.911 130.151 118.203 130.005 114.891C129.974 114.281 129.615 113.781 129.151 113.464C128.938 113.286 128.656 113.141 128.37 113.068C123.312 112.214 117.146 111.109 112.266 110.109C112.193 110.109 112.125 110.109 112.052 110.109C111.979 110.109 111.911 110.078 111.839 110.078C111.802 110.078 111.766 110.109 111.698 110.109C111.552 110.109 111.448 110.146 111.302 110.219C111.198 110.255 111.125 110.292 111.021 110.323C110.911 110.396 110.807 110.469 110.734 110.542C110.661 110.609 110.594 110.682 110.521 110.755C110.448 110.859 110.375 110.932 110.344 111.036C110.271 111.146 110.234 111.25 110.198 111.359C110.198 111.396 110.161 111.432 110.13 111.5C110.13 111.573 110.13 111.646 110.13 111.714C110.13 111.786 110.094 111.859 110.094 111.927L110.698 129.328ZM126.766 123.656C126.839 125.833 126.906 127.969 127.016 130.359C122.849 129.609 120.568 129.219 116.682 128.542L117.573 127.938C118.396 127.365 118.609 126.26 118.036 125.474C117.505 124.656 116.365 124.443 115.578 125.01L114.156 125.974L113.76 114.031C117.859 114.818 122.417 115.672 126.516 116.349C126.589 119.057 126.693 121.411 126.766 123.656Z" fill="white"/>
<path d="M233.109 153.422C232.896 147.042 232.682 140.521 232.328 132.536C232.292 131.823 231.865 131.25 231.26 131C231.01 130.786 230.76 130.609 230.401 130.573C219.25 128.719 151.703 116.599 138.984 114.068C138.917 114.068 138.844 114.068 138.807 114.068C138.734 114.068 138.667 114.031 138.594 114.031C138.557 114.031 138.521 114.068 138.453 114.068C138.307 114.068 138.203 114.104 138.057 114.177C137.953 114.208 137.88 114.245 137.812 114.281C137.703 114.354 137.594 114.427 137.526 114.495C137.453 114.568 137.38 114.641 137.312 114.708C137.24 114.818 137.167 114.891 137.135 114.995C137.062 115.104 137.026 115.208 136.99 115.318C136.99 115.354 136.953 115.385 136.917 115.458C136.917 115.531 136.917 115.599 136.917 115.672C136.917 115.745 136.885 115.813 136.885 115.885L138.307 157.953C138.307 158.021 138.344 158.057 138.344 158.13C138.344 158.234 138.38 158.344 138.417 158.448C138.453 158.557 138.484 158.661 138.557 158.771C138.63 158.88 138.667 158.948 138.734 159.021C138.807 159.125 138.88 159.198 138.984 159.271C139.057 159.344 139.161 159.375 139.234 159.448C139.344 159.521 139.448 159.557 139.594 159.589C139.661 159.589 139.698 159.661 139.771 159.661C150.349 161.479 175.286 166.188 197.271 170.391C211.807 173.135 225.026 175.667 231.828 176.88C231.937 176.917 232.042 176.917 232.151 176.917C232.182 176.917 232.219 176.917 232.219 176.917C232.292 176.917 232.328 176.88 232.396 176.88C232.542 176.844 232.682 176.844 232.828 176.771C232.896 176.74 232.969 176.703 233.042 176.63C233.146 176.557 233.255 176.49 233.359 176.417C233.432 176.344 233.469 176.276 233.536 176.203C233.609 176.094 233.682 175.99 233.719 175.88C233.75 175.813 233.786 175.703 233.823 175.63C233.823 175.563 233.859 175.526 233.896 175.453C233.896 175.38 233.896 175.312 233.896 175.24C233.896 175.167 233.932 175.099 233.932 175.026C233.573 166.828 233.323 160.198 233.109 153.422ZM141.802 156.349L140.484 117.99C156.87 121.161 215.833 131.714 228.802 133.922C229.12 141.339 229.333 147.542 229.547 153.568C229.76 159.734 229.974 165.792 230.297 172.922C223.062 171.604 211.094 169.323 197.984 166.828C176.854 162.797 153.094 158.307 141.802 156.349Z" fill="white"/>
<path d="M233.432 186.682C233.359 185.469 233.323 184.26 233.219 182.76C233.182 182.156 232.828 181.656 232.328 181.37C232.255 181.302 232.151 181.266 232.078 181.229C232.042 181.229 232.005 181.193 231.969 181.193C231.828 181.12 231.688 181.052 231.542 181.052C229.62 180.802 167.026 169.182 111.766 158.948C59.8959 149.323 15.1146 141.052 13.474 140.802C13.4011 140.802 13.3646 140.802 13.2969 140.802C13.224 140.802 13.1875 140.771 13.1146 140.771C13.0469 140.771 13.0105 140.802 12.974 140.802C12.8334 140.839 12.6875 140.839 12.5834 140.911C12.5105 140.948 12.4427 140.984 12.3334 141.016C12.224 141.089 12.1198 141.161 12.0105 141.266C11.9427 141.339 11.8698 141.411 11.8334 141.479C11.7657 141.589 11.6927 141.661 11.6563 141.802C11.6198 141.911 11.5834 142.016 11.5521 142.125C11.5521 142.193 11.5157 142.229 11.4792 142.302C11.4792 142.375 11.4792 142.406 11.4792 142.479C11.4792 142.552 11.4427 142.589 11.4427 142.656L11.8334 150.5C11.8698 151 12.0834 151.427 12.4427 151.75C12.724 152.104 13.1146 152.318 13.5782 152.391C15.9688 152.677 75.8177 163.797 128.62 173.563C180.453 183.188 229.406 192.281 231.651 192.563C231.724 192.563 231.792 192.563 231.865 192.563C231.901 192.563 231.938 192.563 231.969 192.563C232.042 192.563 232.115 192.531 232.182 192.495C232.328 192.458 232.469 192.458 232.578 192.385C232.646 192.349 232.755 192.281 232.828 192.245C232.932 192.172 233.042 192.104 233.109 192.031C233.182 191.958 233.219 191.885 233.286 191.818C233.359 191.708 233.432 191.604 233.469 191.495C233.505 191.391 233.536 191.318 233.573 191.208C233.573 191.141 233.609 191.104 233.646 191.031C233.646 190.958 233.646 190.927 233.646 190.854C233.646 190.781 233.682 190.745 233.682 190.677C233.536 189.141 233.505 187.932 233.432 186.682ZM15.3282 149.036L15.1146 144.724C25.1563 146.542 68.7657 154.635 111.125 162.479C176.573 174.599 221.464 182.906 229.76 184.365C229.797 185.255 229.87 186.078 229.906 186.859C229.943 187.469 229.974 188.036 230.01 188.677C219.609 186.828 173.792 178.344 129.333 170.073C75.3542 160.052 24.2657 150.573 15.3282 149.036Z" fill="white"/>
<path d="M129.578 137.594C129.51 137.526 129.401 137.49 129.333 137.453C129.187 137.38 129.01 137.313 128.833 137.276C123.771 136.422 117.609 135.281 112.729 134.318C112.656 134.318 112.589 134.318 112.516 134.318C112.443 134.318 112.375 134.281 112.302 134.281C112.266 134.281 112.193 134.318 112.156 134.318C112.016 134.318 111.911 134.354 111.802 134.385C111.698 134.422 111.589 134.458 111.516 134.495C111.411 134.568 111.339 134.635 111.234 134.708C111.161 134.781 111.052 134.849 110.984 134.922C110.911 134.995 110.839 135.099 110.807 135.208C110.734 135.312 110.698 135.422 110.661 135.526C110.661 135.563 110.625 135.599 110.594 135.672C110.594 135.745 110.594 135.813 110.594 135.885C110.594 135.958 110.557 136.026 110.557 136.099L111.161 153.495C111.161 153.568 111.198 153.604 111.198 153.672C111.198 153.781 111.234 153.885 111.266 153.995C111.302 154.068 111.302 154.099 111.302 154.172C111.339 154.208 111.375 154.281 111.411 154.312C111.484 154.422 111.516 154.495 111.589 154.562C111.625 154.599 111.661 154.672 111.698 154.708C111.698 154.708 111.698 154.745 111.729 154.745C111.766 154.776 111.839 154.776 111.875 154.812C111.943 154.885 112.016 154.922 112.125 154.958C112.193 154.99 112.229 155.026 112.302 155.062C112.375 155.099 112.443 155.099 112.516 155.099C112.552 155.099 112.589 155.135 112.656 155.135C116.542 155.813 118.927 156.313 121.385 156.844C123.557 157.307 125.766 157.807 129.047 158.38C129.151 158.417 129.26 158.417 129.365 158.417C129.401 158.417 129.437 158.417 129.437 158.417C129.51 158.417 129.547 158.38 129.615 158.38C129.76 158.344 129.901 158.344 130.042 158.271C130.115 158.234 130.187 158.198 130.255 158.13C130.365 158.057 130.469 157.984 130.578 157.88C130.651 157.807 130.682 157.74 130.755 157.667C130.828 157.557 130.896 157.453 130.969 157.344C131.005 157.276 131.042 157.167 131.078 157.094C131.078 157.026 131.115 156.99 131.146 156.917C131.146 156.844 131.146 156.776 131.146 156.703C131.146 156.63 131.182 156.562 131.182 156.49C131.042 153.104 130.932 150.359 130.828 147.542C130.755 144.906 130.651 142.229 130.505 138.917C130.437 138.417 130.078 137.88 129.578 137.594ZM116.432 152.245L118.677 149.75C119.354 149.005 119.286 147.896 118.536 147.219C117.786 146.578 116.682 146.615 116.005 147.365L114.547 148.969L114.187 138.203C118.286 138.984 122.849 139.844 126.943 140.521C127.052 143.193 127.12 145.51 127.193 147.755C127.266 149.932 127.333 152.068 127.443 154.495C125.339 154.099 123.703 153.745 122.099 153.385C120.391 153.031 118.641 152.641 116.432 152.245Z" fill="white"/>
<path d="M281.135 75.8177C280.245 75.4271 279.177 75.8177 278.787 76.7083L272.406 90.6823C272.016 91.5729 272.406 92.6458 273.297 93.0365C273.547 93.1406 273.797 93.2135 274.047 93.2135C274.724 93.2135 275.365 92.8229 275.682 92.1823L282.063 78.2083C282.417 77.2813 282.026 76.2083 281.135 75.8177Z" fill="white"/>
<path d="M272.12 107.26C272.37 107.365 272.62 107.437 272.87 107.437C273.547 107.437 274.188 107.047 274.511 106.406L280.886 92.4323C281.276 91.5364 280.886 90.4687 279.995 90.0781C279.104 89.6875 278.037 90.0781 277.646 90.9687L271.266 104.943C270.839 105.797 271.229 106.833 272.12 107.26Z" fill="white"/>
<path d="M272.87 79.2031C273.12 79.3125 273.37 79.3854 273.656 79.3854C274.333 79.3854 274.974 79.0261 275.255 78.3854L281.885 64.5521C282.312 63.6615 281.917 62.5938 281.026 62.1667C280.135 61.7396 279.068 62.1302 278.641 63.0209L272.016 76.8542C271.625 77.7448 271.979 78.7761 272.87 79.2031Z" fill="white"/>
<path d="M246.187 33.5417L271.589 37.6042L264.5 53.9635C264.104 54.8594 264.531 55.9271 265.422 56.3177C265.635 56.4271 265.885 56.4635 266.135 56.4635C266.812 56.4635 267.49 56.0677 267.776 55.3906L275.792 36.9271C275.828 36.8542 275.828 36.7813 275.828 36.75C275.865 36.6771 275.896 36.6042 275.896 36.5C275.896 36.4635 275.896 36.4271 275.896 36.3542C275.896 36.2135 275.896 36.1042 275.896 36C275.896 35.8906 275.865 35.7865 275.828 35.6771C275.792 35.5729 275.755 35.4635 275.682 35.3594C275.615 35.25 275.578 35.1771 275.505 35.0729C275.437 35 275.365 34.9323 275.255 34.8594C275.151 34.7865 275.078 34.7135 274.974 34.6458C274.937 34.6094 274.901 34.5729 274.865 34.5729C274.792 34.5365 274.724 34.5365 274.651 34.5365C274.578 34.5 274.51 34.4688 274.437 34.4688L246.755 30.0469C245.792 29.901 244.87 30.5469 244.724 31.5417C244.583 32.5417 245.224 33.3958 246.187 33.5417Z" fill="white"/>
<path d="M263.214 59.4531C262.323 59.0625 261.255 59.4896 260.901 60.4167L257.693 68.0469C257.302 68.9375 257.729 70.0052 258.656 70.3646C258.87 70.4687 259.12 70.5052 259.333 70.5052C260.01 70.5052 260.688 70.1146 260.969 69.401L264.177 61.7708C264.531 60.8802 264.104 59.8125 263.214 59.4531Z" fill="white"/>
<path d="M85.6875 29.974C86.1146 29.974 86.5417 29.8333 86.8646 29.5104L105.854 12.4375L145.896 19.4948C146.005 19.5313 146.109 19.5312 146.219 19.5312C147.073 19.5312 147.823 18.9219 147.964 18.0677C148.141 17.1042 147.5 16.1771 146.505 16L105.604 8.76562C105.568 8.76562 105.531 8.76562 105.495 8.76562C105.354 8.76562 105.245 8.76562 105.104 8.76562C105 8.76562 104.891 8.76563 104.818 8.80208C104.714 8.83333 104.604 8.86979 104.5 8.94271C104.391 9.01563 104.286 9.05208 104.177 9.11979C104.141 9.15625 104.109 9.15625 104.109 9.15625L84.4427 26.8021C83.6927 27.4427 83.6563 28.5833 84.2969 29.3333C84.6927 29.7604 85.1875 29.974 85.6875 29.974Z" fill="white"/>
<path d="M74.0365 39.9896C74.4323 39.9896 74.7865 39.8854 75.1094 39.6354L81.9115 34.4323C82.6979 33.8229 82.8386 32.7187 82.2344 31.9375C81.625 31.151 80.5208 31.0104 79.7396 31.6146L72.9323 36.8177C72.1511 37.4271 72.0052 38.5312 72.6146 39.3125C72.9688 39.7448 73.5052 39.9896 74.0365 39.9896Z" fill="white"/>
<path d="M20.6354 78.2083C20.5989 78.276 20.5625 78.3489 20.526 78.4583C20.526 78.4896 20.526 78.4896 20.526 78.526C20.526 78.6719 20.526 78.776 20.526 78.9219C20.526 79.026 20.526 79.1354 20.5625 79.2396C20.5989 79.3489 20.6354 79.4167 20.7031 79.526C20.776 79.6302 20.8125 79.776 20.8854 79.8437C20.8854 79.8802 20.8854 79.8802 20.9218 79.9167C20.9531 79.9531 21.026 79.9896 21.0625 80.026C21.1666 80.1302 21.3125 80.2396 21.4531 80.3073C21.5625 80.3437 21.6302 80.3802 21.7395 80.4167C21.8125 80.4531 21.8802 80.4896 21.9895 80.526L56.8645 86.1562C56.9739 86.1562 57.0468 86.1927 57.151 86.1927C58.0052 86.1927 58.7552 85.5833 58.8958 84.6927C59.0416 83.7344 58.3958 82.8073 57.4375 82.6615L26.3698 77.6719L44.2552 62.5208C45.0052 61.8802 45.1093 60.776 44.4687 60.026C43.8281 59.276 42.7239 59.1719 41.9739 59.8125L21.1666 77.3854C21.0989 77.4219 21.0989 77.4948 21.026 77.5625C20.9218 77.6719 20.8489 77.7812 20.776 77.8854C20.7031 77.9948 20.6718 78.0989 20.6354 78.2083Z" fill="white"/>
<path d="M207.318 112.604L235 117.026C235.104 117.026 235.177 117.062 235.286 117.062C235.568 117.062 235.854 116.958 236.104 116.812C236.177 116.776 236.208 116.74 236.245 116.708C236.495 116.526 236.672 116.349 236.818 116.062C236.818 116.062 236.854 116.062 236.854 116.031L246.865 95.5677C247.292 94.6771 246.932 93.6042 246.042 93.1771C245.151 92.75 244.083 93.1094 243.656 94L234.214 113.286L207.854 109.078C206.891 108.901 205.964 109.578 205.823 110.573C205.677 111.536 206.318 112.427 207.318 112.604Z" fill="white"/>
<path d="M65.4531 87.724L77.0677 88.9375C77.1354 88.9375 77.1718 88.9375 77.2447 88.9375C78.1354 88.9375 78.9218 88.2604 79.026 87.3333C79.1354 86.3698 78.4218 85.4792 77.4218 85.3698L65.8072 84.1615C64.8124 84.0885 63.9583 84.7656 63.8489 85.7656C63.7447 86.7604 64.4531 87.6198 65.4531 87.724Z" fill="white"/>
<path d="M189.292 109.792L200.51 111.396C200.583 111.396 200.693 111.396 200.76 111.396C201.651 111.396 202.401 110.755 202.505 109.859C202.651 108.901 201.974 107.974 201.01 107.828L189.787 106.224C188.828 106.083 187.901 106.76 187.76 107.724C187.615 108.688 188.292 109.646 189.292 109.792Z" fill="white"/>
<path d="M223.635 145.974C222.635 145.974 221.854 146.755 221.854 147.755V157.771C221.854 158.771 222.635 159.557 223.635 159.557C224.63 159.557 225.417 158.771 225.417 157.771V147.755C225.417 146.755 224.594 145.974 223.635 145.974Z" fill="white"/>
<path d="M224.203 141.729V136.917C224.203 135.922 223.422 135.135 222.422 135.135C221.427 135.135 220.641 135.922 220.641 136.917V141.729C220.641 142.729 221.427 143.516 222.422 143.516C223.422 143.516 224.203 142.729 224.203 141.729Z" fill="white"/>
</svg>
