<svg width="464" height="464" viewBox="0 0 464 464" fill="none" xmlns="http://www.w3.org/2000/svg">
<mask id="mask0_2_618" style="mask-type:luminance" maskUnits="userSpaceOnUse" x="0" y="0" width="464" height="464">
<path d="M0.729248 0.729126H463.729V463.729H0.729248V0.729126Z" fill="white"/>
</mask>
<g mask="url(#mask0_2_618)">
<mask id="mask1_2_618" style="mask-type:luminance" maskUnits="userSpaceOnUse" x="0" y="0" width="464" height="464">
<path d="M365.787 250.036C370.708 250.036 374.693 246.057 374.693 241.13H393.76C397.745 256.448 411.563 267.844 428.115 267.844C447.755 267.844 463.729 251.87 463.729 232.229C463.729 212.589 447.755 196.615 428.115 196.615C411.563 196.615 397.745 208.01 393.76 223.323H374.693C374.693 218.401 370.708 214.422 365.787 214.422H364.458C361.297 190.833 351.984 169.224 338.151 151.193L339.13 150.214C342.531 146.786 342.537 141.302 339.234 137.823L392.313 84.7448C397.724 87.9323 403.849 89.7656 410.307 89.7656C419.813 89.7656 428.766 86.0625 435.484 79.3333C442.219 72.6093 445.922 63.6614 445.922 54.151C445.922 44.6406 442.219 35.6927 435.484 28.9739C422.042 15.5104 398.573 15.5104 385.125 28.9739C378.396 35.6927 374.693 44.6406 374.693 54.151C374.693 60.6093 376.526 66.7343 379.719 72.1458L326.662 125.203L326.495 125.036C323.005 121.573 317.375 121.573 313.906 125.052L312.917 126.042C294.948 112.354 273.474 103.13 250.037 99.9895V98.6718C250.037 93.7448 246.057 89.7656 241.13 89.7656V70.6927C256.458 66.7135 267.844 52.8958 267.844 36.3437C267.844 16.7031 251.87 0.729126 232.229 0.729126C212.589 0.729126 196.615 16.7031 196.615 36.3437C196.615 52.8958 208 66.7135 223.323 70.6927V89.7656C218.401 89.7656 214.422 93.7448 214.422 98.6718V100C190.833 103.156 169.224 112.474 151.193 126.307L150.214 125.328C146.787 121.917 141.302 121.927 137.823 125.224L84.7449 72.1458C87.9324 66.7343 89.7657 60.6093 89.7657 54.151C89.7657 44.6406 86.0626 35.6927 79.3334 28.9739C65.8855 15.5104 42.4167 15.5104 28.974 28.9739C22.2397 35.6927 18.5365 44.6406 18.5365 54.151C18.5365 63.6614 22.2397 72.6093 28.974 79.3333C35.6928 86.0625 44.6407 89.7656 54.1511 89.7656C60.6095 89.7656 66.7345 87.9323 72.1459 84.7343L125.203 137.797L125.037 137.964C121.563 141.443 121.563 147.083 125.052 150.552L126.042 151.542C112.354 169.51 103.13 190.984 99.9897 214.422H98.672C93.7449 214.422 89.7657 218.401 89.7657 223.323H70.6928C66.7136 208.01 52.8959 196.615 36.3438 196.615C16.7032 196.615 0.729248 212.589 0.729248 232.229C0.729248 251.87 16.7032 267.844 36.3438 267.844C52.8959 267.844 66.7136 256.448 70.6928 241.13H89.7657C89.7657 246.057 93.7449 250.036 98.672 250.036H100C103.156 273.625 112.474 295.234 126.307 313.26L125.328 314.24C121.927 317.672 121.917 323.156 125.224 326.635L72.0678 379.781C58.5157 372.135 40.2449 373.828 28.9636 385.115C22.2397 391.849 18.5365 400.797 18.5365 410.307C18.5365 419.812 22.2397 428.766 28.974 435.484C35.6928 442.219 44.6407 445.922 54.1511 445.922C63.6615 445.922 72.6095 442.219 79.3334 435.484C86.0626 428.766 89.7657 419.812 89.7657 410.307C89.7657 403.849 87.9324 397.724 84.7345 392.312L137.797 339.255L137.964 339.422C139.698 341.151 141.969 342.021 144.25 342.021C146.537 342.021 148.818 341.151 150.552 339.406L151.542 338.417C169.51 352.099 190.984 361.328 214.422 364.469V365.786C214.422 370.708 218.401 374.693 223.323 374.693V393.76C208 397.745 196.615 411.562 196.615 428.115C196.615 447.755 212.589 463.729 232.229 463.729C251.87 463.729 267.844 447.755 267.844 428.115C267.844 411.562 256.458 397.745 241.13 393.76V374.693C246.057 374.693 250.037 370.708 250.037 365.786V364.458C273.625 361.297 295.234 351.984 313.26 338.151L314.24 339.13C315.979 340.854 318.255 341.719 320.526 341.719C322.734 341.719 324.917 340.865 326.635 339.234L379.714 392.312C376.526 397.724 374.693 403.849 374.693 410.307C374.693 419.812 378.396 428.766 385.125 435.484C391.849 442.219 400.797 445.922 410.307 445.922C419.813 445.922 428.766 442.219 435.484 435.484C442.219 428.766 445.922 419.812 445.922 410.307C445.922 400.797 442.219 391.849 435.484 385.125C424.214 373.833 405.932 372.146 392.38 379.792L339.245 326.656L339.412 326.484C342.885 323.005 342.885 317.37 339.396 313.896L338.406 312.906C352.094 294.937 361.318 273.464 364.458 250.026H365.787V250.036ZM428.115 214.422C437.932 214.422 445.922 222.406 445.922 232.229C445.922 242.052 437.932 250.036 428.115 250.036C418.292 250.036 410.307 242.052 410.307 232.229C410.307 222.406 418.292 214.422 428.115 214.422ZM397.714 41.5625C401.083 38.1979 405.552 36.3437 410.307 36.3437C415.063 36.3437 419.531 38.1979 422.896 41.5625C426.26 44.927 428.115 49.3958 428.115 54.151C428.115 58.9062 426.26 63.375 422.896 66.7395C416.167 73.4739 404.448 73.4739 397.714 66.7395C394.349 63.375 392.5 58.9062 392.5 54.151C392.5 49.3958 394.349 44.927 397.714 41.5625ZM66.7397 66.7395C60.0105 73.4739 48.2917 73.4739 41.5626 66.7395C38.198 63.375 36.3438 58.9062 36.3438 54.151C36.3438 49.3958 38.198 44.927 41.5626 41.5625C44.9272 38.1979 49.3959 36.3437 54.1511 36.3437C58.9063 36.3437 63.3751 38.1979 66.7397 41.5625C70.1095 44.927 71.9584 49.3958 71.9584 54.151C71.9584 58.9062 70.1095 63.375 66.7397 66.7395ZM36.3438 250.036C26.5209 250.036 18.5365 242.052 18.5365 232.229C18.5365 222.406 26.5209 214.422 36.3438 214.422C46.1668 214.422 54.1511 222.406 54.1511 232.229C54.1511 242.052 46.1668 250.036 36.3438 250.036ZM66.7397 422.896C60.0105 429.625 48.2917 429.625 41.5626 422.896C38.198 419.531 36.3438 415.062 36.3438 410.307C36.3438 405.552 38.198 401.083 41.5626 397.714C44.9272 394.349 49.3959 392.5 54.1511 392.5C58.9063 392.5 63.3751 394.349 66.7397 397.714C70.1095 401.083 71.9584 405.552 71.9584 410.307C71.9584 415.062 70.1095 419.531 66.7397 422.896ZM397.714 397.714C401.083 394.349 405.552 392.5 410.307 392.5C415.063 392.5 419.531 394.349 422.896 397.714C426.26 401.083 428.115 405.552 428.115 410.307C428.115 415.062 426.26 419.531 422.896 422.896C416.167 429.625 404.448 429.625 397.714 422.896C394.349 419.531 392.5 415.062 392.5 410.307C392.5 405.552 394.349 401.083 397.714 397.714ZM214.422 36.3437C214.422 26.5208 222.406 18.5364 232.229 18.5364C242.052 18.5364 250.037 26.5208 250.037 36.3437C250.037 46.1666 242.052 54.151 232.229 54.151C222.406 54.151 214.422 46.1666 214.422 36.3437ZM250.037 428.115C250.037 437.932 242.052 445.922 232.229 445.922C222.406 445.922 214.422 437.932 214.422 428.115C214.422 418.292 222.406 410.307 232.229 410.307C242.052 410.307 250.037 418.292 250.037 428.115ZM232.229 347.979C200.141 347.979 171.068 334.828 150.083 313.661C155.266 301.297 163.323 290.156 173.412 281.234C186.25 300.005 207.813 312.365 232.229 312.365C256.641 312.365 278.208 300.005 291.057 281.234C301.135 290.156 309.182 301.312 314.365 313.682C293.38 334.839 264.318 347.979 232.229 347.979ZM178.807 241.13V214.422C178.807 184.958 202.766 161 232.229 161C261.693 161 285.651 184.958 285.651 214.422V241.13C285.651 270.594 261.693 294.557 232.229 294.557C202.766 294.557 178.807 270.594 178.807 241.13ZM326.932 298.573C320.146 285.635 310.688 274.083 299.302 264.87C301.948 257.437 303.458 249.469 303.458 241.13V214.422C303.458 175.146 271.505 143.193 232.229 143.193C192.953 143.193 161 175.146 161 214.422V241.13C161 249.469 162.51 257.437 165.146 264.87C153.76 274.094 144.297 285.615 137.51 298.552C124.307 279.75 116.479 256.901 116.479 232.229C116.479 168.406 168.406 116.479 232.229 116.479C296.052 116.479 347.979 168.406 347.979 232.229C347.979 256.911 340.151 279.766 326.932 298.573Z" fill="white"/>
</mask>
<g mask="url(#mask1_2_618)">
<path d="M0.729248 0.729126V463.729H463.729V0.729126H0.729248Z" fill="url(#paint0_linear_2_618)"/>
</g>
</g>
<defs>
<linearGradient id="paint0_linear_2_618" x1="232.229" y1="0.728767" x2="232.229" y2="463.729" gradientUnits="userSpaceOnUse">
<stop stop-color="#1A6DFF"/>
<stop offset="0.00390625" stop-color="#1B6CFF"/>
<stop offset="0.0078125" stop-color="#1C6CFF"/>
<stop offset="0.0117188" stop-color="#1C6CFF"/>
<stop offset="0.015625" stop-color="#1D6CFF"/>
<stop offset="0.0195313" stop-color="#1E6BFF"/>
<stop offset="0.0234375" stop-color="#1F6BFF"/>
<stop offset="0.0273438" stop-color="#1F6BFF"/>
<stop offset="0.03125" stop-color="#206AFF"/>
<stop offset="0.0351563" stop-color="#216AFF"/>
<stop offset="0.0390625" stop-color="#216AFF"/>
<stop offset="0.0429688" stop-color="#2269FF"/>
<stop offset="0.046875" stop-color="#2369FF"/>
<stop offset="0.0507812" stop-color="#2369FF"/>
<stop offset="0.0546875" stop-color="#2468FF"/>
<stop offset="0.0585938" stop-color="#2568FF"/>
<stop offset="0.0625" stop-color="#2668FF"/>
<stop offset="0.0664062" stop-color="#2668FF"/>
<stop offset="0.0703125" stop-color="#2767FF"/>
<stop offset="0.0742188" stop-color="#2867FF"/>
<stop offset="0.078125" stop-color="#2867FF"/>
<stop offset="0.0820312" stop-color="#2966FF"/>
<stop offset="0.0859375" stop-color="#2A66FF"/>
<stop offset="0.0898438" stop-color="#2A66FF"/>
<stop offset="0.09375" stop-color="#2B65FF"/>
<stop offset="0.0976562" stop-color="#2C65FF"/>
<stop offset="0.101562" stop-color="#2D65FF"/>
<stop offset="0.105469" stop-color="#2D65FF"/>
<stop offset="0.109375" stop-color="#2E64FF"/>
<stop offset="0.113281" stop-color="#2F64FF"/>
<stop offset="0.117187" stop-color="#2F64FF"/>
<stop offset="0.121094" stop-color="#3063FF"/>
<stop offset="0.125" stop-color="#3163FF"/>
<stop offset="0.128906" stop-color="#3163FF"/>
<stop offset="0.132812" stop-color="#3262FF"/>
<stop offset="0.136719" stop-color="#3362FF"/>
<stop offset="0.140625" stop-color="#3462FF"/>
<stop offset="0.144531" stop-color="#3462FF"/>
<stop offset="0.148438" stop-color="#3561FF"/>
<stop offset="0.152344" stop-color="#3661FF"/>
<stop offset="0.15625" stop-color="#3661FF"/>
<stop offset="0.160156" stop-color="#3760FF"/>
<stop offset="0.164062" stop-color="#3860FF"/>
<stop offset="0.167969" stop-color="#3860FF"/>
<stop offset="0.171875" stop-color="#395FFF"/>
<stop offset="0.175781" stop-color="#3A5FFF"/>
<stop offset="0.179688" stop-color="#3B5FFF"/>
<stop offset="0.183594" stop-color="#3B5FFF"/>
<stop offset="0.1875" stop-color="#3C5EFF"/>
<stop offset="0.191406" stop-color="#3D5EFF"/>
<stop offset="0.195312" stop-color="#3D5EFF"/>
<stop offset="0.199219" stop-color="#3E5DFF"/>
<stop offset="0.203125" stop-color="#3F5DFF"/>
<stop offset="0.207031" stop-color="#3F5DFF"/>
<stop offset="0.210937" stop-color="#405CFF"/>
<stop offset="0.214844" stop-color="#415CFF"/>
<stop offset="0.21875" stop-color="#425CFF"/>
<stop offset="0.222656" stop-color="#425CFF"/>
<stop offset="0.226562" stop-color="#435BFF"/>
<stop offset="0.230469" stop-color="#445BFF"/>
<stop offset="0.234375" stop-color="#445BFF"/>
<stop offset="0.238281" stop-color="#455AFF"/>
<stop offset="0.242187" stop-color="#465AFF"/>
<stop offset="0.246094" stop-color="#475AFF"/>
<stop offset="0.25" stop-color="#4759FF"/>
<stop offset="0.253906" stop-color="#4859FF"/>
<stop offset="0.257812" stop-color="#4959FF"/>
<stop offset="0.261719" stop-color="#4958FF"/>
<stop offset="0.265625" stop-color="#4A58FF"/>
<stop offset="0.269531" stop-color="#4B58FF"/>
<stop offset="0.273437" stop-color="#4B58FF"/>
<stop offset="0.277344" stop-color="#4C57FF"/>
<stop offset="0.28125" stop-color="#4D57FF"/>
<stop offset="0.285156" stop-color="#4E57FF"/>
<stop offset="0.289062" stop-color="#4E56FF"/>
<stop offset="0.292969" stop-color="#4F56FF"/>
<stop offset="0.296875" stop-color="#5056FF"/>
<stop offset="0.300781" stop-color="#5055FF"/>
<stop offset="0.304687" stop-color="#5155FF"/>
<stop offset="0.308594" stop-color="#5255FF"/>
<stop offset="0.3125" stop-color="#5255FF"/>
<stop offset="0.316406" stop-color="#5354FF"/>
<stop offset="0.320312" stop-color="#5454FF"/>
<stop offset="0.324219" stop-color="#5554FF"/>
<stop offset="0.328125" stop-color="#5553FF"/>
<stop offset="0.332031" stop-color="#5653FF"/>
<stop offset="0.335937" stop-color="#5753FF"/>
<stop offset="0.339844" stop-color="#5752FF"/>
<stop offset="0.34375" stop-color="#5852FF"/>
<stop offset="0.347656" stop-color="#5952FF"/>
<stop offset="0.351562" stop-color="#5952FF"/>
<stop offset="0.355469" stop-color="#5A51FF"/>
<stop offset="0.359375" stop-color="#5B51FF"/>
<stop offset="0.363281" stop-color="#5C51FF"/>
<stop offset="0.367187" stop-color="#5C50FF"/>
<stop offset="0.371094" stop-color="#5D50FF"/>
<stop offset="0.375" stop-color="#5E50FF"/>
<stop offset="0.378906" stop-color="#5E4FFF"/>
<stop offset="0.382812" stop-color="#5F4FFF"/>
<stop offset="0.386719" stop-color="#604FFF"/>
<stop offset="0.390625" stop-color="#604FFF"/>
<stop offset="0.394531" stop-color="#614EFF"/>
<stop offset="0.398437" stop-color="#624EFF"/>
<stop offset="0.402344" stop-color="#634EFF"/>
<stop offset="0.40625" stop-color="#634DFF"/>
<stop offset="0.410156" stop-color="#644DFF"/>
<stop offset="0.414062" stop-color="#654DFF"/>
<stop offset="0.417969" stop-color="#654CFF"/>
<stop offset="0.421875" stop-color="#664CFF"/>
<stop offset="0.425781" stop-color="#674CFF"/>
<stop offset="0.429687" stop-color="#674CFF"/>
<stop offset="0.433594" stop-color="#684BFF"/>
<stop offset="0.4375" stop-color="#694BFF"/>
<stop offset="0.441406" stop-color="#6A4BFF"/>
<stop offset="0.445312" stop-color="#6A4AFF"/>
<stop offset="0.449219" stop-color="#6B4AFF"/>
<stop offset="0.453125" stop-color="#6C4AFF"/>
<stop offset="0.457031" stop-color="#6C49FF"/>
<stop offset="0.460937" stop-color="#6D49FF"/>
<stop offset="0.464844" stop-color="#6E49FF"/>
<stop offset="0.46875" stop-color="#6E48FF"/>
<stop offset="0.472656" stop-color="#6F48FF"/>
<stop offset="0.476562" stop-color="#7048FF"/>
<stop offset="0.480469" stop-color="#7148FF"/>
<stop offset="0.484375" stop-color="#7147FF"/>
<stop offset="0.488281" stop-color="#7247FF"/>
<stop offset="0.492187" stop-color="#7347FF"/>
<stop offset="0.496094" stop-color="#7346FF"/>
<stop offset="0.5" stop-color="#7446FF"/>
<stop offset="0.503906" stop-color="#7546FF"/>
<stop offset="0.507812" stop-color="#7545FF"/>
<stop offset="0.511719" stop-color="#7645FF"/>
<stop offset="0.515625" stop-color="#7745FF"/>
<stop offset="0.519531" stop-color="#7845FF"/>
<stop offset="0.523437" stop-color="#7844FF"/>
<stop offset="0.527344" stop-color="#7944FF"/>
<stop offset="0.53125" stop-color="#7A44FF"/>
<stop offset="0.535156" stop-color="#7A43FF"/>
<stop offset="0.539062" stop-color="#7B43FF"/>
<stop offset="0.542969" stop-color="#7C43FF"/>
<stop offset="0.546875" stop-color="#7C42FF"/>
<stop offset="0.550781" stop-color="#7D42FF"/>
<stop offset="0.554688" stop-color="#7E42FF"/>
<stop offset="0.558594" stop-color="#7F42FF"/>
<stop offset="0.5625" stop-color="#7F41FF"/>
<stop offset="0.566406" stop-color="#8041FF"/>
<stop offset="0.570312" stop-color="#8141FF"/>
<stop offset="0.574219" stop-color="#8140FF"/>
<stop offset="0.578125" stop-color="#8240FF"/>
<stop offset="0.582031" stop-color="#8340FF"/>
<stop offset="0.585938" stop-color="#833FFF"/>
<stop offset="0.589844" stop-color="#843FFF"/>
<stop offset="0.59375" stop-color="#853FFF"/>
<stop offset="0.597656" stop-color="#863FFF"/>
<stop offset="0.601562" stop-color="#863EFF"/>
<stop offset="0.605469" stop-color="#873EFF"/>
<stop offset="0.609375" stop-color="#883EFF"/>
<stop offset="0.613281" stop-color="#883DFF"/>
<stop offset="0.617188" stop-color="#893DFF"/>
<stop offset="0.621094" stop-color="#8A3DFF"/>
<stop offset="0.625" stop-color="#8A3CFF"/>
<stop offset="0.628906" stop-color="#8B3CFF"/>
<stop offset="0.632812" stop-color="#8C3CFF"/>
<stop offset="0.636719" stop-color="#8D3CFF"/>
<stop offset="0.640625" stop-color="#8D3BFF"/>
<stop offset="0.644531" stop-color="#8E3BFF"/>
<stop offset="0.648437" stop-color="#8F3BFF"/>
<stop offset="0.652344" stop-color="#8F3AFF"/>
<stop offset="0.65625" stop-color="#903AFF"/>
<stop offset="0.660156" stop-color="#913AFF"/>
<stop offset="0.664062" stop-color="#9139FF"/>
<stop offset="0.667969" stop-color="#9239FF"/>
<stop offset="0.671875" stop-color="#9339FF"/>
<stop offset="0.675781" stop-color="#9438FF"/>
<stop offset="0.679687" stop-color="#9438FF"/>
<stop offset="0.683594" stop-color="#9538FF"/>
<stop offset="0.6875" stop-color="#9638FF"/>
<stop offset="0.691406" stop-color="#9637FF"/>
<stop offset="0.695312" stop-color="#9737FF"/>
<stop offset="0.699219" stop-color="#9837FF"/>
<stop offset="0.703125" stop-color="#9836FF"/>
<stop offset="0.707031" stop-color="#9936FF"/>
<stop offset="0.710937" stop-color="#9A36FF"/>
<stop offset="0.714844" stop-color="#9B35FF"/>
<stop offset="0.71875" stop-color="#9B35FF"/>
<stop offset="0.722656" stop-color="#9C35FF"/>
<stop offset="0.726562" stop-color="#9D35FF"/>
<stop offset="0.730469" stop-color="#9D34FF"/>
<stop offset="0.734375" stop-color="#9E34FF"/>
<stop offset="0.738281" stop-color="#9F34FF"/>
<stop offset="0.742187" stop-color="#9F33FF"/>
<stop offset="0.746094" stop-color="#A033FF"/>
<stop offset="0.75" stop-color="#A133FF"/>
<stop offset="0.753906" stop-color="#A232FF"/>
<stop offset="0.757812" stop-color="#A232FF"/>
<stop offset="0.761719" stop-color="#A332FF"/>
<stop offset="0.765625" stop-color="#A432FF"/>
<stop offset="0.769531" stop-color="#A431FF"/>
<stop offset="0.773437" stop-color="#A531FF"/>
<stop offset="0.777344" stop-color="#A631FF"/>
<stop offset="0.78125" stop-color="#A630FF"/>
<stop offset="0.785156" stop-color="#A730FF"/>
<stop offset="0.789062" stop-color="#A830FF"/>
<stop offset="0.792969" stop-color="#A92FFF"/>
<stop offset="0.796875" stop-color="#A92FFF"/>
<stop offset="0.800781" stop-color="#AA2FFF"/>
<stop offset="0.804687" stop-color="#AB2FFF"/>
<stop offset="0.808594" stop-color="#AB2EFF"/>
<stop offset="0.8125" stop-color="#AC2EFF"/>
<stop offset="0.816406" stop-color="#AD2EFF"/>
<stop offset="0.820312" stop-color="#AD2DFF"/>
<stop offset="0.824219" stop-color="#AE2DFF"/>
<stop offset="0.828125" stop-color="#AF2DFF"/>
<stop offset="0.832031" stop-color="#B02CFF"/>
<stop offset="0.835937" stop-color="#B02CFF"/>
<stop offset="0.839844" stop-color="#B12CFF"/>
<stop offset="0.84375" stop-color="#B22CFF"/>
<stop offset="0.847656" stop-color="#B22BFF"/>
<stop offset="0.851562" stop-color="#B32BFF"/>
<stop offset="0.855469" stop-color="#B42BFF"/>
<stop offset="0.859375" stop-color="#B42AFF"/>
<stop offset="0.863281" stop-color="#B52AFF"/>
<stop offset="0.867187" stop-color="#B62AFF"/>
<stop offset="0.871094" stop-color="#B729FF"/>
<stop offset="0.875" stop-color="#B729FF"/>
<stop offset="0.878906" stop-color="#B829FF"/>
<stop offset="0.882812" stop-color="#B928FF"/>
<stop offset="0.886719" stop-color="#B928FF"/>
<stop offset="0.890625" stop-color="#BA28FF"/>
<stop offset="0.894531" stop-color="#BB28FF"/>
<stop offset="0.898437" stop-color="#BB27FF"/>
<stop offset="0.902344" stop-color="#BC27FF"/>
<stop offset="0.90625" stop-color="#BD27FF"/>
<stop offset="0.910156" stop-color="#BE26FF"/>
<stop offset="0.914062" stop-color="#BE26FF"/>
<stop offset="0.917969" stop-color="#BF26FF"/>
<stop offset="0.921875" stop-color="#C025FF"/>
<stop offset="0.925781" stop-color="#C025FF"/>
<stop offset="0.929687" stop-color="#C125FF"/>
<stop offset="0.933594" stop-color="#C225FF"/>
<stop offset="0.9375" stop-color="#C224FF"/>
<stop offset="0.941406" stop-color="#C324FF"/>
<stop offset="0.945312" stop-color="#C424FF"/>
<stop offset="0.949219" stop-color="#C523FF"/>
<stop offset="0.953125" stop-color="#C523FF"/>
<stop offset="0.957031" stop-color="#C623FF"/>
<stop offset="0.960937" stop-color="#C722FF"/>
<stop offset="0.964844" stop-color="#C722FF"/>
<stop offset="0.96875" stop-color="#C822FF"/>
<stop offset="1" stop-color="#C822FF"/>
</linearGradient>
</defs>
</svg>
