<svg width="357" height="358" viewBox="0 0 357 358" fill="none" xmlns="http://www.w3.org/2000/svg">
<path d="M178.62 275.943C177.031 275.943 175.443 275.906 173.859 275.828C172.271 275.75 170.688 275.63 169.104 275.479C167.526 275.323 165.948 275.125 164.38 274.896C162.807 274.661 161.24 274.391 159.682 274.078C158.125 273.771 156.578 273.422 155.036 273.036C153.495 272.651 151.964 272.224 150.443 271.766C148.922 271.302 147.417 270.807 145.922 270.271C144.422 269.734 142.943 269.167 141.474 268.557C140.005 267.948 138.557 267.307 137.12 266.625C135.682 265.948 134.266 265.234 132.865 264.484C131.464 263.734 130.083 262.953 128.719 262.135C127.354 261.318 126.016 260.469 124.693 259.589C123.375 258.703 122.073 257.792 120.797 256.844C119.521 255.896 118.271 254.922 117.042 253.911C115.813 252.906 114.609 251.87 113.432 250.802C112.255 249.734 111.109 248.641 109.984 247.516C108.859 246.396 107.766 245.245 106.698 244.068C105.63 242.891 104.594 241.688 103.589 240.458C102.578 239.229 101.604 237.979 100.656 236.703C99.7084 235.427 98.7969 234.13 97.9115 232.807C97.0313 231.49 96.1823 230.146 95.3646 228.781C94.5469 227.422 93.7657 226.036 93.0157 224.635C92.2657 223.234 91.5521 221.818 90.875 220.38C90.1927 218.948 89.5521 217.495 88.9427 216.026C88.3334 214.557 87.7605 213.078 87.2292 211.583C86.6927 210.089 86.1927 208.578 85.7344 207.057C85.2709 205.536 84.849 204.01 84.4636 202.469C84.0782 200.927 83.7292 199.375 83.4167 197.818C83.1094 196.26 82.8386 194.698 82.6042 193.125C82.3698 191.552 82.1771 189.979 82.0209 188.396C81.8646 186.818 81.75 185.229 81.6719 183.646C81.5938 182.057 81.5521 180.469 81.5521 178.88C81.5521 177.292 81.5938 175.708 81.6719 174.12C81.75 172.531 81.8646 170.948 82.0209 169.37C82.1771 167.786 82.3698 166.214 82.6042 164.641C82.8386 163.068 83.1094 161.505 83.4167 159.948C83.7292 158.385 84.073 156.839 84.4636 155.297C84.849 153.755 85.2709 152.224 85.7344 150.703C86.1927 149.188 86.6927 147.677 87.224 146.182C87.7605 144.688 88.3334 143.203 88.9427 141.734C89.5469 140.271 90.1927 138.818 90.8698 137.38C91.5521 135.943 92.2657 134.526 93.0157 133.125C93.7605 131.724 94.5469 130.344 95.3594 128.979C96.1771 127.62 97.0261 126.276 97.9115 124.953C98.7917 123.635 99.7084 122.333 100.656 121.057C101.599 119.786 102.578 118.531 103.583 117.302C104.594 116.078 105.63 114.875 106.698 113.698C107.766 112.521 108.859 111.37 109.979 110.245C111.104 109.125 112.255 108.026 113.432 106.958C114.609 105.896 115.813 104.854 117.042 103.849C118.266 102.839 119.521 101.865 120.797 100.917C122.073 99.974 123.37 99.0573 124.693 98.1719C126.01 97.2917 127.354 96.4427 128.714 95.625C130.078 94.8073 131.458 94.0261 132.859 93.2761C134.26 92.5261 135.682 91.8125 137.115 91.1354C138.552 90.4583 140.005 89.8125 141.474 89.2031C142.938 88.599 144.422 88.0261 145.917 87.4896C147.411 86.9531 148.922 86.4583 150.443 85.9948C151.958 85.5365 153.49 85.1094 155.031 84.724C156.573 84.3386 158.12 83.9896 159.682 83.6823C161.24 83.3698 162.802 83.099 164.375 82.8646C165.948 82.6354 167.521 82.4375 169.104 82.2813C170.682 82.125 172.266 82.0104 173.854 81.9323C175.443 81.8542 177.026 81.8177 178.615 81.8177C180.203 81.8177 181.792 81.8542 183.38 81.9323C184.964 82.0104 186.552 82.125 188.13 82.2813C189.714 82.4375 191.287 82.6354 192.859 82.8646C194.432 83.099 195.995 83.3698 197.552 83.6823C199.109 83.9896 200.661 84.3386 202.203 84.724C203.74 85.1094 205.271 85.5365 206.792 85.9948C208.313 86.4583 209.823 86.9531 211.318 87.4896C212.813 88.0261 214.292 88.5938 215.76 89.2031C217.229 89.8125 218.682 90.4531 220.115 91.1354C221.552 91.8125 222.969 92.5261 224.37 93.2761C225.771 94.0261 227.156 94.8073 228.516 95.625C229.88 96.4427 231.224 97.2917 232.542 98.1719C233.865 99.0573 235.161 99.9688 236.438 100.917C237.714 101.865 238.964 102.839 240.193 103.849C241.422 104.854 242.625 105.891 243.802 106.958C244.979 108.026 246.13 109.12 247.25 110.245C248.375 111.37 249.469 112.516 250.536 113.693C251.604 114.87 252.641 116.073 253.646 117.302C254.656 118.531 255.635 119.781 256.578 121.057C257.526 122.333 258.438 123.63 259.323 124.953C260.203 126.276 261.052 127.615 261.87 128.979C262.688 130.339 263.469 131.724 264.219 133.125C264.969 134.526 265.682 135.943 266.359 137.38C267.042 138.818 267.682 140.266 268.292 141.734C268.901 143.203 269.474 144.682 270.005 146.177C270.542 147.677 271.042 149.182 271.5 150.703C271.964 152.224 272.385 153.755 272.771 155.297C273.156 156.833 273.505 158.385 273.818 159.943C274.125 161.5 274.396 163.068 274.63 164.635C274.865 166.208 275.057 167.786 275.214 169.365C275.37 170.948 275.484 172.531 275.563 174.115C275.641 175.703 275.682 177.292 275.682 178.88C275.677 180.469 275.635 182.052 275.557 183.641C275.479 185.224 275.359 186.807 275.203 188.391C275.047 189.969 274.849 191.547 274.615 193.115C274.38 194.688 274.109 196.25 273.797 197.807C273.484 199.365 273.135 200.911 272.75 202.453C272.359 203.995 271.938 205.521 271.474 207.042C271.01 208.563 270.51 210.068 269.979 211.563C269.443 213.057 268.87 214.536 268.26 216.005C267.651 217.474 267.005 218.922 266.328 220.359C265.646 221.792 264.932 223.208 264.182 224.609C263.432 226.01 262.651 227.391 261.833 228.755C261.016 230.115 260.167 231.453 259.286 232.776C258.401 234.094 257.49 235.396 256.542 236.667C255.594 237.943 254.62 239.193 253.609 240.422C252.604 241.651 251.568 242.854 250.5 244.026C249.432 245.203 248.339 246.354 247.219 247.479C246.094 248.599 244.943 249.693 243.766 250.76C242.594 251.828 241.391 252.865 240.161 253.875C238.932 254.88 237.682 255.859 236.406 256.802C235.135 257.75 233.833 258.667 232.516 259.547C231.198 260.427 229.854 261.281 228.495 262.094C227.13 262.911 225.75 263.698 224.349 264.448C222.948 265.193 221.531 265.911 220.099 266.589C218.661 267.271 217.214 267.911 215.745 268.521C214.276 269.13 212.797 269.703 211.302 270.24C209.807 270.776 208.302 271.276 206.781 271.734C205.26 272.198 203.734 272.625 202.193 273.01C200.651 273.396 199.104 273.745 197.547 274.057C195.99 274.37 194.427 274.641 192.854 274.875C191.286 275.109 189.708 275.307 188.13 275.464C186.552 275.62 184.969 275.74 183.38 275.823C181.797 275.901 180.208 275.943 178.62 275.943ZM178.62 89.224C177.151 89.224 175.688 89.2604 174.219 89.3333C172.755 89.4063 171.292 89.5156 169.833 89.6563C168.37 89.8021 166.917 89.9792 165.464 90.1979C164.01 90.4115 162.568 90.6615 161.13 90.9479C159.688 91.2344 158.26 91.5573 156.833 91.9115C155.411 92.2708 154 92.6615 152.594 93.0886C151.188 93.5104 149.797 93.974 148.417 94.4688C147.031 94.9583 145.667 95.4896 144.307 96.0521C142.953 96.6094 141.615 97.2083 140.286 97.8333C138.958 98.4583 137.651 99.1198 136.354 99.8125C135.063 100.505 133.787 101.229 132.526 101.979C131.266 102.734 130.026 103.521 128.807 104.333C127.589 105.151 126.391 105.995 125.208 106.87C124.031 107.745 122.875 108.646 121.74 109.578C120.604 110.505 119.495 111.464 118.406 112.453C117.323 113.438 116.26 114.448 115.219 115.484C114.182 116.521 113.172 117.583 112.188 118.672C111.203 119.76 110.245 120.87 109.313 122.005C108.38 123.141 107.479 124.297 106.604 125.474C105.729 126.651 104.885 127.854 104.068 129.073C103.255 130.292 102.469 131.531 101.714 132.792C100.964 134.047 100.24 135.323 99.5469 136.62C98.8542 137.911 98.1927 139.224 97.5677 140.547C96.9427 141.875 96.3438 143.219 95.7865 144.573C95.224 145.927 94.6927 147.297 94.2032 148.677C93.7084 150.057 93.2448 151.453 92.8177 152.859C92.3959 154.26 92.0052 155.677 91.6459 157.099C91.2917 158.521 90.9688 159.953 90.6823 161.391C90.3959 162.833 90.1459 164.276 89.9323 165.729C89.7136 167.177 89.5365 168.635 89.3907 170.094C89.2448 171.557 89.1407 173.021 89.0677 174.484C88.9948 175.948 88.9584 177.417 88.9584 178.885C88.9584 180.349 88.9948 181.818 89.0677 183.281C89.1407 184.75 89.2448 186.214 89.3907 187.672C89.5365 189.13 89.7136 190.589 89.9271 192.036C90.1459 193.49 90.3959 194.938 90.6823 196.375C90.9688 197.813 91.2917 199.245 91.6459 200.667C92 202.094 92.3959 203.505 92.8177 204.911C93.2448 206.313 93.7032 207.708 94.198 209.089C94.6927 210.469 95.224 211.839 95.7813 213.193C96.3438 214.547 96.9375 215.891 97.5677 217.219C98.1927 218.542 98.8542 219.854 99.5469 221.146C100.234 222.443 100.958 223.719 101.714 224.974C102.469 226.234 103.255 227.474 104.068 228.693C104.885 229.917 105.729 231.115 106.604 232.292C107.474 233.469 108.38 234.625 109.307 235.76C110.24 236.896 111.198 238.005 112.182 239.094C113.172 240.182 114.182 241.245 115.219 242.281C116.255 243.318 117.318 244.328 118.406 245.313C119.495 246.302 120.604 247.26 121.74 248.188C122.87 249.12 124.026 250.021 125.208 250.896C126.385 251.771 127.583 252.615 128.807 253.432C130.026 254.245 131.266 255.031 132.521 255.786C133.781 256.542 135.057 257.26 136.354 257.953C137.646 258.646 138.958 259.307 140.281 259.932C141.609 260.563 142.948 261.156 144.307 261.714C145.661 262.276 147.031 262.807 148.411 263.302C149.792 263.792 151.188 264.255 152.589 264.682C153.995 265.104 155.406 265.495 156.833 265.854C158.255 266.208 159.688 266.531 161.125 266.818C162.563 267.104 164.01 267.354 165.464 267.573C166.911 267.786 168.37 267.964 169.828 268.109C171.286 268.255 172.75 268.359 174.219 268.432C175.682 268.505 177.151 268.542 178.615 268.542C180.083 268.542 181.552 268.505 183.016 268.432C184.479 268.359 185.943 268.255 187.406 268.109C188.865 267.964 190.323 267.786 191.771 267.568C193.224 267.354 194.672 267.104 196.109 266.818C197.547 266.531 198.979 266.208 200.401 265.854C201.828 265.495 203.24 265.104 204.646 264.682C206.047 264.255 207.443 263.792 208.823 263.297C210.203 262.807 211.573 262.276 212.927 261.714C214.281 261.156 215.625 260.557 216.953 259.932C218.276 259.302 219.589 258.646 220.88 257.953C222.177 257.26 223.453 256.536 224.714 255.786C225.969 255.031 227.208 254.245 228.427 253.427C229.651 252.615 230.849 251.771 232.026 250.896C233.203 250.021 234.359 249.12 235.495 248.188C236.63 247.255 237.74 246.297 238.828 245.313C239.917 244.328 240.979 243.318 242.016 242.281C243.052 241.24 244.063 240.177 245.052 239.094C246.036 238.005 246.995 236.896 247.922 235.76C248.854 234.625 249.755 233.469 250.63 232.292C251.505 231.109 252.349 229.911 253.167 228.693C253.979 227.474 254.766 226.234 255.521 224.974C256.276 223.714 256.995 222.438 257.688 221.146C258.38 219.849 259.042 218.542 259.667 217.214C260.297 215.885 260.891 214.547 261.448 213.193C262.01 211.833 262.542 210.469 263.036 209.083C263.526 207.703 263.99 206.313 264.417 204.906C264.839 203.5 265.229 202.089 265.589 200.667C265.943 199.24 266.266 197.813 266.552 196.37C266.839 194.932 267.089 193.484 267.302 192.036C267.521 190.583 267.698 189.13 267.844 187.667C267.984 186.208 268.094 184.745 268.167 183.281C268.24 181.813 268.276 180.349 268.276 178.88C268.271 177.411 268.234 175.948 268.161 174.484C268.089 173.016 267.979 171.557 267.833 170.094C267.688 168.635 267.505 167.182 267.292 165.729C267.073 164.281 266.823 162.833 266.536 161.396C266.25 159.958 265.927 158.526 265.568 157.104C265.208 155.682 264.818 154.271 264.391 152.865C263.964 151.464 263.505 150.073 263.01 148.688C262.516 147.307 261.984 145.943 261.422 144.589C260.859 143.229 260.266 141.891 259.641 140.568C259.01 139.24 258.349 137.932 257.656 136.635C256.969 135.344 256.245 134.068 255.49 132.813C254.734 131.552 253.948 130.313 253.135 129.094C252.318 127.875 251.474 126.677 250.599 125.5C249.724 124.323 248.823 123.167 247.891 122.031C246.964 120.896 246.005 119.786 245.021 118.698C244.036 117.615 243.021 116.552 241.984 115.516C240.948 114.479 239.885 113.464 238.802 112.479C237.714 111.495 236.604 110.536 235.469 109.609C234.333 108.677 233.177 107.776 232 106.901C230.823 106.026 229.625 105.182 228.406 104.365C227.188 103.552 225.948 102.766 224.688 102.01C223.432 101.255 222.156 100.531 220.865 99.8438C219.568 99.1511 218.26 98.4896 216.932 97.8646C215.609 97.2344 214.271 96.6406 212.911 96.0781C211.557 95.5156 210.193 94.9844 208.813 94.4896C207.432 93.9948 206.037 93.5365 204.635 93.1094C203.229 92.6823 201.818 92.2917 200.396 91.9323C198.974 91.5729 197.542 91.2552 196.104 90.9636C194.667 90.6771 193.219 90.4271 191.771 90.2083C190.318 89.9948 188.865 89.8125 187.406 89.6667C185.943 89.5208 184.484 89.4115 183.016 89.3386C181.552 89.2656 180.089 89.2292 178.62 89.224Z" fill="white"/>
<mask id="mask0_18_8" style="mask-type:luminance" maskUnits="userSpaceOnUse" x="158" y="0" width="42" height="43">
<path d="M158 0.380219H199.333V43H158V0.380219Z" fill="white"/>
</mask>
<g mask="url(#mask0_18_8)">
<path d="M178.62 42.1302C177.276 42.1302 175.943 42 174.62 41.7396C173.302 41.4739 172.016 41.0833 170.776 40.5677C169.531 40.0573 168.349 39.4219 167.229 38.6771C166.109 37.9271 165.073 37.0781 164.12 36.125C163.172 35.1719 162.318 34.1354 161.573 33.0208C160.823 31.901 160.193 30.7187 159.677 29.4739C159.161 28.2292 158.771 26.9479 158.51 25.625C158.245 24.3073 158.115 22.9739 158.115 21.625C158.115 20.2812 158.245 18.9479 158.51 17.625C158.771 16.3073 159.161 15.026 159.677 13.7812C160.193 12.5364 160.823 11.3542 161.568 10.2344C162.318 9.11457 163.167 8.07812 164.12 7.12499C165.073 6.17707 166.109 5.32291 167.224 4.57811C168.344 3.82811 169.526 3.19791 170.771 2.68228C172.016 2.16666 173.297 1.77603 174.62 1.51561C175.937 1.24999 177.271 1.11978 178.62 1.11978C179.963 1.11978 181.297 1.24999 182.62 1.51561C183.937 1.77603 185.219 2.16666 186.463 2.68228C187.708 3.1927 188.891 3.82811 190.01 4.57291C191.13 5.32291 192.167 6.17186 193.12 7.12499C194.068 8.07812 194.922 9.10936 195.667 10.2292C196.417 11.3489 197.047 12.5312 197.562 13.776C198.078 15.0208 198.469 16.3021 198.729 17.6198C198.995 18.9427 199.125 20.276 199.125 21.6198C199.125 22.9687 198.99 24.3021 198.729 25.6198C198.463 26.9427 198.073 28.2239 197.557 29.4635C197.042 30.7083 196.411 31.8906 195.661 33.0104C194.917 34.1302 194.068 35.1667 193.115 36.1146C192.161 37.0677 191.125 37.9167 190.005 38.6667C188.891 39.4167 187.708 40.0469 186.463 40.5625C185.219 41.0781 183.937 41.4687 182.62 41.7344C181.297 41.9948 179.969 42.1302 178.62 42.1302ZM178.62 8.52603C177.76 8.52603 176.906 8.60936 176.062 8.78124C175.219 8.94791 174.401 9.1927 173.609 9.52603C172.812 9.85416 172.057 10.2552 171.344 10.7344C170.625 11.2135 169.963 11.7552 169.359 12.3646C168.75 12.9739 168.208 13.6354 167.729 14.3489C167.25 15.0625 166.849 15.8177 166.521 16.6146C166.187 17.4062 165.943 18.2292 165.771 19.0729C165.604 19.9167 165.521 20.7656 165.521 21.625C165.521 22.4896 165.604 23.3385 165.776 24.1823C165.943 25.026 166.193 25.8437 166.521 26.6406C166.849 27.4323 167.25 28.1875 167.729 28.9062C168.208 29.6198 168.75 30.2812 169.359 30.8906C169.969 31.4948 170.63 32.0417 171.344 32.5156C172.062 32.9948 172.812 33.401 173.609 33.7292C174.406 34.0573 175.224 34.3073 176.068 34.4739C176.911 34.6406 177.76 34.7239 178.625 34.7239C179.484 34.7239 180.333 34.6406 181.177 34.4739C182.021 34.3021 182.838 34.0573 183.635 33.7239C184.432 33.3958 185.187 32.9948 185.901 32.5156C186.615 32.0364 187.276 31.4948 187.885 30.8854C188.495 30.276 189.036 29.6146 189.516 28.901C189.99 28.1875 190.396 27.4323 190.724 26.6354C191.052 25.8385 191.302 25.0208 191.469 24.1771C191.635 23.3333 191.719 22.4844 191.719 21.6198C191.719 20.7604 191.635 19.9114 191.463 19.0677C191.297 18.2239 191.047 17.4062 190.719 16.6146C190.385 15.8177 189.984 15.0625 189.505 14.3489C189.026 13.6354 188.484 12.9739 187.875 12.3646C187.271 11.7604 186.609 11.2135 185.891 10.7396C185.177 10.2604 184.422 9.85937 183.63 9.52603C182.833 9.19791 182.016 8.94791 181.172 8.78124C180.333 8.61457 179.479 8.52603 178.62 8.52603Z" fill="white"/>
</g>
<path d="M178.62 89.224C178.13 89.224 177.656 89.1302 177.203 88.9427C176.75 88.7552 176.349 88.4896 176 88.1406C175.656 87.7917 175.385 87.3958 175.198 86.9375C175.01 86.4844 174.917 86.0156 174.917 85.5208V38.4271C174.917 37.9375 175.01 37.4636 175.198 37.0104C175.385 36.5573 175.656 36.1563 176 35.8073C176.349 35.4636 176.75 35.1927 177.203 35.0052C177.656 34.8177 178.13 34.724 178.62 34.724C179.109 34.724 179.583 34.8177 180.037 35.0052C180.49 35.1927 180.891 35.4636 181.24 35.8073C181.589 36.1563 181.854 36.5573 182.042 37.0104C182.229 37.4636 182.323 37.9375 182.323 38.4271V85.5208C182.323 86.0156 182.229 86.4844 182.042 86.9375C181.854 87.3958 181.589 87.7917 181.24 88.1406C180.891 88.4896 180.49 88.7552 180.037 88.9427C179.583 89.1302 179.109 89.224 178.62 89.224Z" fill="white"/>
<mask id="mask1_18_8" style="mask-type:luminance" maskUnits="userSpaceOnUse" x="158" y="315" width="42" height="43">
<path d="M158 315H199.333V357.38H158V315Z" fill="white"/>
</mask>
<g mask="url(#mask1_18_8)">
<path d="M178.62 356.641C177.276 356.641 175.943 356.505 174.62 356.245C173.297 355.984 172.016 355.594 170.771 355.078C169.531 354.562 168.349 353.932 167.229 353.182C166.109 352.432 165.073 351.583 164.12 350.63C163.167 349.682 162.318 348.646 161.568 347.526C160.823 346.406 160.193 345.224 159.677 343.979C159.161 342.734 158.771 341.453 158.51 340.13C158.245 338.812 158.115 337.479 158.115 336.13C158.115 334.786 158.245 333.453 158.51 332.13C158.771 330.812 159.161 329.526 159.677 328.286C160.193 327.042 160.823 325.859 161.573 324.74C162.323 323.62 163.172 322.583 164.125 321.63C165.078 320.682 166.109 319.828 167.229 319.083C168.349 318.333 169.531 317.703 170.776 317.187C172.021 316.672 173.302 316.286 174.625 316.021C175.943 315.76 177.281 315.63 178.625 315.63C179.974 315.63 181.307 315.76 182.625 316.026C183.948 316.286 185.229 316.677 186.474 317.193C187.719 317.708 188.896 318.339 190.016 319.089C191.135 319.839 192.172 320.687 193.125 321.641C194.078 322.594 194.927 323.625 195.672 324.745C196.422 325.865 197.052 327.047 197.568 328.292C198.083 329.536 198.469 330.818 198.734 332.141C198.995 333.464 199.125 334.797 199.125 336.141C199.125 337.484 198.99 338.818 198.729 340.141C198.463 341.458 198.073 342.74 197.557 343.984C197.042 345.224 196.411 346.406 195.661 347.526C194.911 348.646 194.062 349.677 193.109 350.63C192.161 351.583 191.125 352.432 190.005 353.177C188.885 353.927 187.708 354.557 186.463 355.073C185.219 355.589 183.937 355.979 182.62 356.24C181.297 356.505 179.963 356.635 178.62 356.641ZM178.62 323.036C177.76 323.036 176.906 323.125 176.068 323.292C175.224 323.458 174.401 323.708 173.609 324.036C172.812 324.365 172.057 324.771 171.344 325.245C170.63 325.724 169.969 326.266 169.359 326.875C168.75 327.484 168.208 328.146 167.729 328.859C167.25 329.573 166.849 330.328 166.521 331.125C166.187 331.917 165.943 332.74 165.776 333.583C165.604 334.427 165.521 335.276 165.521 336.135C165.521 336.995 165.604 337.849 165.771 338.693C165.943 339.536 166.187 340.354 166.516 341.151C166.849 341.943 167.25 342.698 167.729 343.411C168.208 344.13 168.75 344.792 169.359 345.396C169.963 346.005 170.625 346.552 171.344 347.026C172.057 347.505 172.812 347.911 173.604 348.24C174.401 348.568 175.219 348.818 176.062 348.984C176.906 349.151 177.76 349.234 178.62 349.234C179.479 349.234 180.328 349.151 181.172 348.984C182.016 348.818 182.833 348.568 183.63 348.24C184.427 347.911 185.182 347.51 185.896 347.031C186.609 346.552 187.271 346.01 187.88 345.401C188.49 344.792 189.031 344.13 189.51 343.417C189.99 342.703 190.391 341.948 190.719 341.151C191.052 340.359 191.297 339.542 191.469 338.698C191.635 337.854 191.719 337 191.719 336.141C191.719 335.281 191.635 334.432 191.463 333.589C191.297 332.745 191.047 331.927 190.719 331.13C190.391 330.339 189.984 329.583 189.505 328.865C189.031 328.151 188.484 327.49 187.88 326.88C187.271 326.276 186.609 325.729 185.896 325.255C185.177 324.776 184.427 324.37 183.63 324.042C182.838 323.714 182.016 323.464 181.177 323.292C180.333 323.125 179.479 323.042 178.62 323.036Z" fill="white"/>
</g>
<path d="M178.62 323.036C178.13 323.036 177.656 322.943 177.203 322.755C176.75 322.568 176.349 322.302 176 321.953C175.656 321.609 175.385 321.208 175.198 320.755C175.01 320.297 174.917 319.828 174.917 319.333V272.24C174.917 271.75 175.01 271.276 175.198 270.823C175.385 270.37 175.656 269.969 176 269.62C176.349 269.276 176.75 269.005 177.203 268.818C177.656 268.63 178.13 268.536 178.62 268.536C179.109 268.536 179.583 268.63 180.037 268.818C180.49 269.005 180.891 269.276 181.24 269.62C181.589 269.969 181.854 270.37 182.042 270.823C182.229 271.276 182.323 271.75 182.323 272.24V319.333C182.323 319.828 182.229 320.297 182.042 320.755C181.854 321.208 181.589 321.609 181.24 321.953C180.891 322.302 180.49 322.568 180.037 322.755C179.583 322.943 179.109 323.036 178.62 323.036Z" fill="white"/>
<path d="M289.812 88.1823C289.031 88.1823 288.25 88.1354 287.469 88.0469C286.693 87.9583 285.922 87.8229 285.161 87.6458C284.396 87.4635 283.646 87.2448 282.911 86.9792C282.172 86.7135 281.453 86.4114 280.75 86.0625C280.047 85.7135 279.37 85.3281 278.708 84.9062C278.052 84.4792 277.422 84.0208 276.818 83.5208C276.208 83.026 275.635 82.4948 275.089 81.9323C274.547 81.3698 274.036 80.776 273.557 80.1562C273.083 79.5312 272.646 78.8854 272.24 78.2135C271.839 77.5417 271.479 76.8489 271.156 76.1354C270.833 75.4219 270.552 74.6927 270.312 73.9479C270.073 73.1979 269.875 72.4427 269.724 71.6719C269.573 70.9062 269.464 70.1302 269.401 69.3489C269.339 68.5729 269.318 67.7864 269.344 67.0052C269.37 66.2239 269.443 65.4427 269.557 64.6719C269.672 63.8958 269.828 63.1302 270.031 62.375C270.234 61.6146 270.484 60.875 270.771 60.1458C271.057 59.4167 271.385 58.7083 271.755 58.0156C272.125 57.3281 272.536 56.6614 272.979 56.0156C273.427 55.3698 273.906 54.7552 274.427 54.1667C274.943 53.5781 275.49 53.0208 276.073 52.4948C276.651 51.9687 277.26 51.4792 277.896 51.0208C278.531 50.5677 279.193 50.151 279.88 49.7708C280.562 49.3906 281.271 49.0469 281.99 48.75C282.714 48.4479 283.453 48.1927 284.208 47.9792C284.958 47.7656 285.724 47.5937 286.495 47.4635C287.271 47.3385 288.047 47.2552 288.828 47.2187C289.609 47.1771 290.396 47.1875 291.177 47.2396C291.958 47.2917 292.734 47.3854 293.505 47.526C294.276 47.6667 295.031 47.8489 295.781 48.0781C296.531 48.3073 297.266 48.5781 297.984 48.8854C298.703 49.1979 299.401 49.5521 300.078 49.9427C300.76 50.3333 301.411 50.7656 302.042 51.2292C302.672 51.6979 303.271 52.1979 303.844 52.7344C304.411 53.2708 304.953 53.8385 305.458 54.4323C305.964 55.0312 306.437 55.6562 306.87 56.3073C307.307 56.9583 307.703 57.6354 308.057 58.3281C308.417 59.026 308.734 59.7396 309.01 60.4739C309.286 61.2083 309.516 61.9531 309.708 62.7135C309.896 63.4739 310.042 64.2396 310.146 65.0208C310.25 65.7969 310.307 66.5729 310.318 67.3594C310.328 68.1406 310.297 68.9219 310.219 69.7031C310.146 70.4792 310.021 71.2552 309.859 72.0208C309.693 72.7864 309.484 73.5364 309.229 74.2812C308.979 75.0208 308.687 75.7448 308.349 76.4531C308.016 77.1614 307.641 77.8489 307.229 78.5156C306.812 79.1771 306.365 79.8177 305.875 80.4323C305.391 81.0469 304.87 81.6302 304.312 82.1823C302.391 84.1094 300.177 85.5885 297.661 86.6302C295.151 87.6667 292.531 88.1875 289.812 88.1823ZM289.812 54.5937C289.312 54.5937 288.812 54.6198 288.318 54.6771C287.818 54.7344 287.328 54.8229 286.839 54.9375C286.349 55.0469 285.87 55.1875 285.401 55.3594C284.927 55.526 284.469 55.7239 284.021 55.9427C283.573 56.1667 283.135 56.4114 282.719 56.6823C282.297 56.9531 281.891 57.25 281.505 57.5677C281.12 57.8854 280.75 58.2239 280.401 58.5833C280.057 58.9427 279.729 59.3177 279.422 59.7187C279.12 60.1146 278.839 60.526 278.583 60.9583C278.323 61.3854 278.094 61.8281 277.885 62.2864C277.677 62.7396 277.5 63.2083 277.344 63.6823C277.193 64.1614 277.068 64.6458 276.969 65.1354C276.875 65.625 276.802 66.1198 276.76 66.6198C276.724 67.1198 276.708 67.6198 276.724 68.1198C276.745 68.6198 276.786 69.1146 276.859 69.6094C276.932 70.1042 277.036 70.5937 277.167 71.0781C277.297 71.5625 277.453 72.0364 277.635 72.5C277.818 72.9687 278.031 73.4219 278.266 73.8646C278.5 74.3021 278.76 74.7292 279.047 75.1406C279.333 75.5521 279.641 75.9479 279.969 76.3229C280.302 76.6979 280.651 77.0573 281.021 77.3906C281.391 77.7292 281.781 78.0417 282.187 78.3333C282.594 78.625 283.016 78.8906 283.453 79.1354C283.891 79.3802 284.344 79.5937 284.807 79.7864C285.266 79.9792 285.74 80.1406 286.219 80.2812C286.703 80.4167 287.187 80.526 287.682 80.6094C288.177 80.6875 288.672 80.7448 289.172 80.7656C289.672 80.7917 290.172 80.7864 290.672 80.7552C291.172 80.7239 291.667 80.6614 292.161 80.5729C292.651 80.4792 293.141 80.3646 293.62 80.2187C294.099 80.0729 294.568 79.901 295.026 79.7031C295.484 79.5 295.932 79.276 296.365 79.026C296.797 78.776 297.214 78.5 297.615 78.2031C298.021 77.9062 298.401 77.5833 298.766 77.2448C299.13 76.901 299.479 76.5364 299.802 76.1562C300.125 75.776 300.427 75.375 300.703 74.9583C300.979 74.5417 301.234 74.1146 301.464 73.6667C301.693 73.2239 301.896 72.7656 302.073 72.2969C302.245 71.8281 302.396 71.3542 302.516 70.8646C302.641 70.3802 302.734 69.8906 302.797 69.3958C302.865 68.8958 302.901 68.401 302.906 67.901C302.917 67.3958 302.896 66.901 302.844 66.401C302.797 65.901 302.719 65.4114 302.615 64.9219C302.505 64.4323 302.375 63.9479 302.214 63.4739C302.052 63 301.865 62.5364 301.651 62.0833C301.437 61.6354 301.198 61.1927 300.932 60.7708C300.667 60.3437 300.38 59.9375 300.068 59.5417C299.755 59.151 299.427 58.7812 299.073 58.4271C297.844 57.1979 296.427 56.25 294.823 55.5833C293.219 54.9219 291.547 54.5885 289.812 54.5937Z" fill="white"/>
<path d="M244.646 116.583C243.896 116.583 243.214 116.375 242.589 115.958C241.969 115.542 241.51 114.99 241.224 114.297C240.938 113.604 240.87 112.891 241.016 112.156C241.161 111.422 241.5 110.792 242.026 110.26L275.328 76.9583C275.677 76.625 276.078 76.3646 276.531 76.1823C276.979 76.0052 277.448 75.9167 277.932 75.9219C278.417 75.9271 278.885 76.0208 279.333 76.2083C279.781 76.3958 280.177 76.6615 280.521 77.0052C280.865 77.349 281.13 77.7448 281.318 78.1927C281.505 78.6406 281.599 79.1042 281.604 79.5938C281.609 80.0781 281.521 80.5469 281.344 80.9948C281.161 81.4479 280.901 81.849 280.568 82.1979L247.266 115.5C246.542 116.219 245.672 116.583 244.646 116.583Z" fill="white"/>
<path d="M67.4271 310.578C66.6406 310.578 65.8594 310.531 65.0834 310.443C64.3021 310.354 63.5313 310.219 62.7709 310.042C62.0052 309.865 61.2552 309.641 60.5209 309.375C59.7813 309.115 59.0625 308.807 58.3594 308.464C57.6563 308.115 56.974 307.729 56.3177 307.302C55.6615 306.88 55.0261 306.417 54.4219 305.922C53.8177 305.422 53.2396 304.896 52.6979 304.328C52.1511 303.766 51.6406 303.177 51.1667 302.552C50.6875 301.932 50.25 301.286 49.8438 300.615C49.4427 299.943 49.0781 299.25 48.7552 298.536C48.4323 297.823 48.1511 297.089 47.9115 296.344C47.6719 295.599 47.4792 294.844 47.3229 294.073C47.1719 293.302 47.0625 292.531 47 291.75C46.9375 290.969 46.9167 290.187 46.9427 289.401C46.9688 288.62 47.0365 287.844 47.1563 287.068C47.2709 286.292 47.4271 285.526 47.6302 284.771C47.8334 284.01 48.0781 283.271 48.3698 282.542C48.6563 281.812 48.9844 281.104 49.3542 280.411C49.724 279.719 50.1302 279.052 50.5781 278.411C51.0261 277.766 51.5052 277.151 52.0209 276.562C52.5365 275.969 53.0886 275.411 53.6667 274.885C54.25 274.359 54.8594 273.87 55.4948 273.417C56.1302 272.958 56.7917 272.542 57.4792 272.161C58.1615 271.781 58.8646 271.437 59.5886 271.141C60.3125 270.839 61.0521 270.583 61.8073 270.37C62.5573 270.151 63.3229 269.979 64.0938 269.854C64.8698 269.729 65.6459 269.646 66.4271 269.604C67.2136 269.568 67.9948 269.573 68.7761 269.625C69.5573 269.677 70.3334 269.771 71.1042 269.911C71.875 270.052 72.6354 270.24 73.3854 270.464C74.1354 270.693 74.8698 270.964 75.5886 271.276C76.3073 271.589 77.0052 271.937 77.6823 272.328C78.3594 272.724 79.0156 273.151 79.6459 273.62C80.2761 274.083 80.875 274.589 81.4479 275.125C82.0156 275.656 82.5573 276.224 83.0625 276.823C83.5677 277.422 84.0417 278.047 84.474 278.698C84.9115 279.349 85.3073 280.021 85.6667 280.719C86.0209 281.417 86.3386 282.13 86.6146 282.865C86.8906 283.599 87.125 284.344 87.3125 285.104C87.5052 285.865 87.6511 286.63 87.7552 287.411C87.8542 288.187 87.9115 288.969 87.9271 289.75C87.9375 290.531 87.9063 291.312 87.8281 292.094C87.75 292.875 87.6302 293.646 87.4636 294.411C87.2969 295.177 87.0886 295.932 86.8386 296.672C86.5834 297.417 86.2917 298.141 85.9584 298.849C85.6198 299.557 85.2448 300.245 84.8334 300.906C84.4167 301.573 83.9688 302.214 83.4792 302.828C82.9948 303.443 82.474 304.026 81.9219 304.578C80 306.5 77.7813 307.984 75.2709 309.021C72.7604 310.062 70.1406 310.578 67.4271 310.578ZM67.4271 276.99C66.9219 276.99 66.4271 277.016 65.9271 277.073C65.4323 277.13 64.9375 277.219 64.4531 277.333C63.9636 277.448 63.4844 277.589 63.0156 277.755C62.5417 277.922 62.0834 278.12 61.6354 278.339C61.1875 278.562 60.75 278.807 60.3334 279.078C59.9115 279.354 59.5052 279.646 59.1198 279.964C58.7344 280.281 58.3646 280.62 58.0209 280.979C57.6719 281.339 57.3438 281.719 57.0417 282.115C56.7344 282.51 56.4584 282.927 56.1979 283.354C55.9427 283.786 55.7084 284.229 55.5052 284.682C55.2969 285.141 55.1198 285.604 54.9636 286.083C54.8125 286.557 54.6875 287.042 54.5886 287.531C54.4948 288.021 54.4219 288.516 54.3854 289.016C54.3438 289.516 54.3281 290.016 54.349 290.516C54.3646 291.016 54.4063 291.51 54.4844 292.005C54.5573 292.5 54.6563 292.99 54.7865 293.474C54.9167 293.958 55.0729 294.432 55.2604 294.896C55.4427 295.365 55.6511 295.818 55.8906 296.255C56.125 296.698 56.3854 297.125 56.6719 297.536C56.9531 297.948 57.2604 298.339 57.5938 298.714C57.9219 299.094 58.2761 299.448 58.6459 299.781C59.0156 300.12 59.4063 300.432 59.8125 300.724C60.2188 301.016 60.6406 301.281 61.0781 301.526C61.5156 301.771 61.9636 301.984 62.4271 302.177C62.8906 302.37 63.3594 302.531 63.8438 302.667C64.3229 302.807 64.8125 302.917 65.3073 302.995C65.7969 303.078 66.2969 303.13 66.7969 303.156C67.2969 303.177 67.7969 303.177 68.2917 303.141C68.7917 303.109 69.2917 303.047 69.7813 302.958C70.2761 302.87 70.7604 302.75 71.2396 302.604C71.7188 302.458 72.1875 302.286 72.6459 302.089C73.1042 301.891 73.5469 301.661 73.9844 301.411C74.4167 301.161 74.8334 300.891 75.2344 300.589C75.6354 300.292 76.0209 299.974 76.3854 299.63C76.75 299.286 77.0938 298.927 77.4167 298.542C77.7396 298.161 78.0417 297.76 78.3177 297.349C78.599 296.932 78.849 296.5 79.0781 296.052C79.3073 295.609 79.5104 295.151 79.6875 294.682C79.8594 294.214 80.0104 293.74 80.1302 293.255C80.2552 292.766 80.3438 292.276 80.4115 291.781C80.474 291.286 80.5104 290.786 80.5209 290.286C80.5261 289.786 80.5052 289.286 80.4584 288.786C80.4115 288.292 80.3334 287.797 80.224 287.307C80.1198 286.818 79.9844 286.339 79.8229 285.865C79.6667 285.391 79.474 284.927 79.2604 284.474C79.0469 284.021 78.8073 283.583 78.5469 283.161C78.2813 282.734 77.9896 282.328 77.6823 281.937C77.3698 281.542 77.0365 281.172 76.6823 280.818C75.4531 279.589 74.0417 278.646 72.4375 277.979C70.8334 277.318 69.1615 276.984 67.4271 276.99Z" fill="white"/>
<path d="M79.3177 281.911C78.5677 281.911 77.8802 281.703 77.2604 281.286C76.6354 280.87 76.1822 280.318 75.8958 279.625C75.6093 278.932 75.5364 278.219 75.6822 277.484C75.8281 276.75 76.1666 276.12 76.6979 275.589L110 242.286C110.349 241.953 110.745 241.693 111.198 241.51C111.651 241.333 112.12 241.245 112.604 241.25C113.088 241.255 113.557 241.349 114.005 241.536C114.448 241.724 114.844 241.99 115.187 242.333C115.531 242.677 115.797 243.073 115.984 243.521C116.172 243.969 116.271 244.432 116.276 244.922C116.276 245.406 116.193 245.875 116.01 246.323C115.828 246.776 115.573 247.177 115.234 247.526L81.9322 280.823C81.2135 281.547 80.3385 281.911 79.3177 281.911Z" fill="white"/>
<mask id="mask2_18_8" style="mask-type:luminance" maskUnits="userSpaceOnUse" x="315" y="157" width="42" height="44">
<path d="M315.333 157.667H356.38V200.333H315.333V157.667Z" fill="white"/>
</mask>
<g mask="url(#mask2_18_8)">
<path d="M335.88 199.385C334.531 199.385 333.198 199.255 331.875 198.99C330.557 198.729 329.276 198.339 328.031 197.823C326.786 197.312 325.604 196.677 324.484 195.932C323.364 195.182 322.328 194.333 321.375 193.38C320.427 192.427 319.573 191.396 318.828 190.276C318.078 189.156 317.448 187.974 316.932 186.729C316.417 185.484 316.026 184.203 315.765 182.88C315.5 181.563 315.37 180.229 315.37 178.88C315.37 177.536 315.5 176.203 315.76 174.88C316.026 173.563 316.411 172.281 316.927 171.036C317.443 169.792 318.078 168.609 318.823 167.49C319.573 166.37 320.422 165.333 321.375 164.38C322.328 163.427 323.359 162.578 324.479 161.833C325.599 161.083 326.781 160.453 328.026 159.938C329.271 159.422 330.552 159.031 331.875 158.771C333.193 158.505 334.526 158.375 335.875 158.375C337.219 158.375 338.552 158.505 339.875 158.771C341.193 159.031 342.479 159.422 343.719 159.938C344.963 160.448 346.146 161.083 347.265 161.828C348.385 162.578 349.422 163.427 350.375 164.38C351.323 165.333 352.177 166.37 352.922 167.49C353.672 168.604 354.302 169.786 354.818 171.031C355.333 172.276 355.724 173.557 355.984 174.88C356.25 176.198 356.38 177.531 356.38 178.88C356.38 180.224 356.245 181.557 355.984 182.88C355.719 184.198 355.328 185.479 354.812 186.724C354.297 187.964 353.667 189.146 352.917 190.266C352.172 191.385 351.318 192.422 350.37 193.37C349.417 194.323 348.38 195.172 347.265 195.922C346.146 196.672 344.963 197.302 343.719 197.818C342.479 198.333 341.198 198.724 339.875 198.984C338.557 199.25 337.224 199.385 335.88 199.385ZM335.88 165.786C335.015 165.786 334.167 165.87 333.323 166.036C332.479 166.203 331.661 166.453 330.864 166.781C330.068 167.109 329.312 167.51 328.599 167.99C327.885 168.469 327.224 169.01 326.614 169.62C326.005 170.229 325.463 170.891 324.984 171.604C324.505 172.318 324.104 173.073 323.776 173.87C323.443 174.661 323.198 175.484 323.026 176.328C322.859 177.172 322.776 178.021 322.776 178.88C322.776 179.745 322.859 180.594 323.026 181.438C323.193 182.281 323.443 183.099 323.771 183.896C324.104 184.693 324.505 185.443 324.984 186.161C325.458 186.875 326.005 187.536 326.614 188.146C327.219 188.755 327.88 189.297 328.599 189.776C329.312 190.25 330.068 190.656 330.864 190.984C331.656 191.312 332.474 191.562 333.318 191.729C334.161 191.896 335.015 191.984 335.875 191.984C336.734 191.984 337.588 191.896 338.432 191.729C339.276 191.562 340.094 191.312 340.89 190.984C341.682 190.656 342.437 190.25 343.151 189.771C343.87 189.297 344.531 188.75 345.14 188.146C345.745 187.536 346.292 186.875 346.765 186.156C347.245 185.443 347.646 184.688 347.979 183.891C348.307 183.099 348.552 182.281 348.724 181.438C348.89 180.594 348.974 179.74 348.974 178.88C348.974 178.021 348.885 177.172 348.719 176.328C348.547 175.484 348.302 174.667 347.969 173.87C347.64 173.078 347.239 172.323 346.76 171.609C346.281 170.896 345.739 170.234 345.13 169.625C344.521 169.021 343.864 168.474 343.146 168C342.432 167.521 341.677 167.115 340.885 166.786C340.094 166.458 339.276 166.208 338.432 166.042C337.588 165.87 336.739 165.786 335.88 165.786Z" fill="white"/>
</g>
<path d="M319.073 182.604H271.979C271.484 182.599 271.016 182.505 270.563 182.318C270.104 182.13 269.708 181.865 269.359 181.516C269.01 181.172 268.745 180.771 268.557 180.318C268.37 179.859 268.276 179.391 268.276 178.896C268.276 178.406 268.37 177.932 268.557 177.479C268.745 177.026 269.01 176.625 269.359 176.281C269.708 175.932 270.104 175.667 270.563 175.479C271.016 175.286 271.484 175.193 271.979 175.193H319.073C319.563 175.193 320.037 175.286 320.49 175.479C320.943 175.667 321.344 175.932 321.693 176.281C322.037 176.625 322.307 177.026 322.495 177.479C322.682 177.932 322.776 178.406 322.776 178.896C322.776 179.391 322.682 179.859 322.495 180.318C322.307 180.771 322.037 181.172 321.693 181.516C321.344 181.865 320.943 182.13 320.49 182.318C320.037 182.505 319.563 182.599 319.073 182.604Z" fill="white"/>
<path d="M21.3646 199.385C20.0156 199.385 18.6823 199.255 17.3646 198.99C16.0417 198.729 14.7604 198.339 13.5156 197.823C12.2708 197.307 11.0885 196.677 9.96875 195.927C8.84896 195.182 7.81771 194.333 6.86458 193.38C5.91146 192.427 5.0625 191.391 4.3125 190.271C3.5625 189.151 2.93229 187.969 2.41667 186.729C1.90104 185.484 1.51563 184.203 1.25 182.88C0.989584 181.557 0.859375 180.224 0.859375 178.88C0.859375 177.531 0.989584 176.198 1.25 174.88C1.51563 173.557 1.90104 172.276 2.41667 171.031C2.93229 169.786 3.5625 168.609 4.3125 167.49C5.0625 166.37 5.91146 165.333 6.86458 164.38C7.81771 163.427 8.84896 162.578 9.96875 161.828C11.0885 161.083 12.2708 160.453 13.5156 159.938C14.7604 159.422 16.0417 159.031 17.3646 158.771C18.6823 158.505 20.0156 158.375 21.3646 158.375C22.7083 158.375 24.0417 158.505 25.3646 158.771C26.6823 159.031 27.9635 159.422 29.2083 159.938C30.4531 160.453 31.6354 161.083 32.7552 161.828C33.875 162.578 34.9115 163.427 35.8646 164.38C36.8125 165.333 37.6667 166.37 38.4115 167.49C39.1615 168.609 39.7917 169.786 40.3073 171.031C40.8229 172.276 41.2135 173.557 41.474 174.88C41.7344 176.198 41.8698 177.531 41.8698 178.88C41.8646 180.224 41.7344 181.557 41.4688 182.88C41.2083 184.198 40.8177 185.479 40.3021 186.724C39.7865 187.969 39.1562 189.151 38.4062 190.266C37.6562 191.385 36.8073 192.422 35.8542 193.375C34.9062 194.328 33.8698 195.177 32.75 195.922C31.6302 196.672 30.4479 197.302 29.2083 197.818C27.9635 198.333 26.6823 198.724 25.3594 198.99C24.0417 199.25 22.7083 199.385 21.3646 199.385ZM21.3646 165.786C20.5 165.786 19.651 165.87 18.8073 166.036C17.9635 166.203 17.1458 166.453 16.349 166.781C15.5573 167.109 14.8021 167.516 14.0833 167.995C13.3698 168.469 12.7083 169.016 12.099 169.62C11.4896 170.229 10.9479 170.891 10.4688 171.609C9.99479 172.323 9.58854 173.078 9.26042 173.87C8.93229 174.667 8.68229 175.484 8.51562 176.328C8.34896 177.172 8.26562 178.026 8.26562 178.885C8.26562 179.745 8.34896 180.599 8.51562 181.443C8.68229 182.281 8.93229 183.104 9.26042 183.896C9.58854 184.693 9.99479 185.448 10.474 186.161C10.9479 186.875 11.4948 187.536 12.1042 188.146C12.7083 188.755 13.3698 189.297 14.0885 189.776C14.8021 190.255 15.5573 190.656 16.3542 190.984C17.1458 191.312 17.9635 191.562 18.8073 191.729C19.651 191.901 20.5052 191.984 21.3646 191.984C22.224 191.984 23.0781 191.896 23.9219 191.729C24.7656 191.562 25.5833 191.312 26.3802 190.984C27.1719 190.656 27.9271 190.25 28.6406 189.771C29.3594 189.297 30.0208 188.75 30.625 188.146C31.2344 187.536 31.776 186.875 32.2552 186.156C32.7344 185.443 33.1354 184.688 33.4635 183.891C33.7969 183.099 34.0417 182.281 34.2083 181.438C34.3802 180.594 34.4635 179.74 34.4635 178.88C34.4583 178.021 34.375 177.167 34.2083 176.328C34.0365 175.484 33.7865 174.667 33.4583 173.87C33.1302 173.078 32.724 172.323 32.25 171.609C31.7708 170.896 31.2292 170.234 30.6198 169.625C30.0104 169.016 29.349 168.474 28.6354 167.995C27.9219 167.521 27.1667 167.115 26.3698 166.786C25.5781 166.458 24.7604 166.208 23.9167 166.036C23.0729 165.87 22.224 165.786 21.3646 165.786Z" fill="white"/>
<path d="M85.2656 182.604H38.1666C37.6718 182.599 37.2031 182.505 36.7448 182.318C36.2916 182.13 35.8906 181.865 35.5468 181.516C35.1979 181.172 34.9323 180.771 34.7448 180.318C34.5573 179.859 34.4635 179.391 34.4635 178.896C34.4635 178.406 34.5573 177.932 34.7448 177.479C34.9323 177.026 35.1979 176.625 35.5468 176.281C35.8906 175.932 36.2916 175.667 36.7448 175.479C37.2031 175.286 37.6718 175.193 38.1666 175.193H85.2656C85.7552 175.193 86.2291 175.286 86.6823 175.479C87.1354 175.667 87.5364 175.932 87.8802 176.281C88.2291 176.625 88.4948 177.026 88.6823 177.479C88.875 177.932 88.9687 178.406 88.9687 178.896C88.9687 179.391 88.875 179.859 88.6823 180.318C88.4948 180.771 88.2291 181.172 87.8802 181.516C87.5364 181.865 87.1354 182.13 86.6823 182.318C86.2291 182.505 85.7552 182.599 85.2656 182.604Z" fill="white"/>
<path d="M289.818 310.578C289.031 310.578 288.25 310.531 287.474 310.443C286.693 310.354 285.927 310.219 285.161 310.042C284.401 309.865 283.651 309.641 282.911 309.375C282.172 309.115 281.453 308.807 280.75 308.464C280.047 308.115 279.37 307.729 278.708 307.302C278.052 306.88 277.417 306.417 276.812 305.922C276.208 305.422 275.635 304.896 275.088 304.328C274.542 303.766 274.031 303.177 273.557 302.552C273.078 301.932 272.641 301.286 272.234 300.615C271.833 299.943 271.469 299.25 271.146 298.536C270.823 297.823 270.542 297.089 270.302 296.344C270.062 295.599 269.87 294.844 269.713 294.073C269.562 293.302 269.453 292.531 269.391 291.75C269.328 290.969 269.307 290.187 269.333 289.401C269.359 288.62 269.432 287.844 269.547 287.068C269.661 286.292 269.818 285.526 270.021 284.771C270.224 284.01 270.474 283.271 270.76 282.542C271.047 281.812 271.375 281.104 271.745 280.411C272.114 279.719 272.521 279.052 272.969 278.411C273.417 277.766 273.896 277.151 274.411 276.562C274.932 275.969 275.479 275.411 276.057 274.885C276.641 274.359 277.25 273.87 277.885 273.417C278.521 272.958 279.182 272.542 279.87 272.161C280.552 271.781 281.26 271.437 281.984 271.141C282.708 270.839 283.443 270.583 284.198 270.37C284.953 270.151 285.713 269.979 286.489 269.854C287.26 269.729 288.036 269.646 288.823 269.604C289.604 269.568 290.385 269.573 291.167 269.625C291.948 269.677 292.724 269.771 293.495 269.911C294.266 270.052 295.026 270.24 295.776 270.464C296.526 270.693 297.26 270.964 297.979 271.276C298.698 271.589 299.396 271.937 300.073 272.328C300.755 272.724 301.406 273.151 302.036 273.62C302.667 274.083 303.266 274.589 303.838 275.125C304.411 275.656 304.948 276.224 305.453 276.823C305.963 277.422 306.432 278.047 306.87 278.698C307.302 279.349 307.698 280.021 308.057 280.719C308.417 281.417 308.729 282.13 309.005 282.865C309.281 283.599 309.516 284.344 309.708 285.104C309.896 285.865 310.042 286.63 310.146 287.411C310.245 288.187 310.302 288.969 310.318 289.75C310.328 290.531 310.297 291.312 310.219 292.094C310.141 292.875 310.021 293.646 309.854 294.411C309.687 295.177 309.479 295.932 309.229 296.672C308.979 297.417 308.682 298.141 308.349 298.849C308.016 299.557 307.641 300.245 307.224 300.906C306.812 301.573 306.359 302.214 305.875 302.828C305.385 303.443 304.864 304.026 304.312 304.578C302.391 306.5 300.172 307.984 297.661 309.021C295.151 310.062 292.536 310.578 289.818 310.578ZM289.818 276.99C289.318 276.99 288.818 277.016 288.318 277.073C287.823 277.13 287.333 277.219 286.844 277.333C286.354 277.448 285.875 277.589 285.406 277.755C284.937 277.922 284.474 278.12 284.026 278.339C283.578 278.562 283.146 278.807 282.724 279.078C282.302 279.354 281.901 279.646 281.51 279.964C281.125 280.281 280.76 280.62 280.411 280.979C280.062 281.339 279.739 281.719 279.432 282.115C279.13 282.51 278.849 282.927 278.588 283.354C278.333 283.786 278.104 284.229 277.896 284.682C277.687 285.141 277.51 285.604 277.359 286.083C277.203 286.557 277.078 287.042 276.979 287.531C276.885 288.021 276.818 288.516 276.776 289.016C276.734 289.516 276.724 290.016 276.739 290.516C276.755 291.016 276.802 291.51 276.875 292.005C276.948 292.5 277.052 292.99 277.177 293.474C277.307 293.958 277.463 294.432 277.651 294.896C277.833 295.365 278.047 295.818 278.281 296.255C278.516 296.698 278.776 297.125 279.062 297.536C279.349 297.948 279.656 298.339 279.984 298.714C280.312 299.094 280.667 299.448 281.036 299.786C281.406 300.12 281.797 300.432 282.203 300.724C282.609 301.016 283.031 301.281 283.469 301.526C283.906 301.771 284.359 301.984 284.818 302.177C285.281 302.37 285.755 302.531 286.234 302.667C286.713 302.807 287.203 302.917 287.698 302.995C288.193 303.078 288.687 303.13 289.187 303.156C289.687 303.177 290.187 303.177 290.687 303.141C291.187 303.109 291.682 303.047 292.172 302.958C292.667 302.87 293.151 302.75 293.63 302.604C294.109 302.458 294.578 302.286 295.036 302.089C295.495 301.891 295.943 301.661 296.375 301.411C296.807 301.161 297.224 300.891 297.625 300.589C298.026 300.292 298.411 299.974 298.776 299.63C299.141 299.286 299.484 298.927 299.807 298.542C300.135 298.161 300.432 297.76 300.713 297.349C300.989 296.932 301.245 296.5 301.469 296.052C301.698 295.609 301.901 295.151 302.078 294.682C302.255 294.214 302.401 293.74 302.521 293.255C302.646 292.766 302.739 292.276 302.802 291.781C302.87 291.286 302.906 290.786 302.911 290.286C302.922 289.786 302.901 289.286 302.849 288.786C302.802 288.292 302.724 287.797 302.62 287.307C302.51 286.818 302.38 286.339 302.219 285.865C302.057 285.391 301.87 284.927 301.656 284.474C301.437 284.021 301.203 283.583 300.937 283.161C300.672 282.734 300.385 282.328 300.073 281.937C299.76 281.542 299.427 281.172 299.073 280.818C297.849 279.589 296.432 278.646 294.828 277.979C293.224 277.318 291.552 276.984 289.818 276.99Z" fill="white"/>
<path d="M277.927 281.911C276.901 281.911 276.026 281.552 275.307 280.823L242.005 247.526C241.667 247.177 241.406 246.776 241.229 246.323C241.047 245.875 240.958 245.406 240.964 244.922C240.969 244.432 241.063 243.969 241.25 243.521C241.438 243.073 241.703 242.677 242.047 242.333C242.391 241.99 242.787 241.724 243.234 241.536C243.682 241.349 244.151 241.255 244.635 241.25C245.12 241.245 245.589 241.333 246.037 241.51C246.49 241.693 246.891 241.953 247.24 242.286L280.542 275.589C281.073 276.12 281.412 276.75 281.557 277.484C281.703 278.219 281.63 278.932 281.344 279.625C281.057 280.318 280.604 280.87 279.984 281.286C279.359 281.703 278.672 281.911 277.927 281.911Z" fill="white"/>
<path d="M67.427 88.1823C66.6406 88.1823 65.8593 88.1354 65.0833 88.0469C64.302 87.9583 63.5312 87.8229 62.7708 87.6458C62.0104 87.4635 61.2604 87.2448 60.5208 86.9792C59.7812 86.7135 59.0624 86.4114 58.3593 86.0625C57.6614 85.7187 56.9791 85.3333 56.3229 84.9062C55.6614 84.4792 55.0312 84.0208 54.427 83.5208C53.8177 83.026 53.2447 82.4948 52.7031 81.9323C52.1562 81.3698 51.6458 80.776 51.1718 80.1562C50.6927 79.5364 50.2552 78.8854 49.8489 78.2135C49.4479 77.5417 49.0885 76.8489 48.7656 76.1354C48.4427 75.4219 48.1614 74.6927 47.9218 73.9479C47.6822 73.2031 47.4843 72.4427 47.3333 71.6771C47.1822 70.9062 47.0729 70.1354 47.0104 69.3542C46.9427 68.5729 46.927 67.7917 46.9531 67.0052C46.9791 66.2239 47.0468 65.4427 47.1614 64.6719C47.2812 63.8958 47.4374 63.1302 47.6406 62.375C47.8437 61.6146 48.0885 60.875 48.3802 60.1458C48.6666 59.4167 48.9947 58.7083 49.3645 58.0156C49.7343 57.3281 50.1406 56.6614 50.5885 56.0156C51.0364 55.3698 51.5156 54.7552 52.0312 54.1667C52.552 53.5781 53.0989 53.0208 53.677 52.4948C54.2604 51.9687 54.8697 51.4792 55.5052 51.0208C56.1406 50.5677 56.802 50.151 57.4895 49.7708C58.1718 49.3906 58.8749 49.0469 59.5989 48.75C60.3229 48.4479 61.0624 48.1927 61.8177 47.9792C62.5677 47.7656 63.3333 47.5937 64.1041 47.4635C64.8802 47.3385 65.6562 47.2552 66.4374 47.2187C67.2239 47.1771 68.0052 47.1875 68.7864 47.2396C69.5677 47.2917 70.3437 47.3854 71.1145 47.526C71.8854 47.6667 72.6458 47.8489 73.3958 48.0781C74.1406 48.3073 74.8749 48.5781 75.5937 48.8906C76.3124 49.1979 77.0104 49.5521 77.6927 49.9427C78.3697 50.3385 79.0208 50.7656 79.651 51.2344C80.2812 51.6979 80.8802 52.2031 81.4531 52.7344C82.0208 53.2708 82.5624 53.8385 83.0677 54.4375C83.5729 55.0312 84.0468 55.6562 84.4791 56.3073C84.9166 56.9635 85.3124 57.6354 85.6666 58.3333C86.026 59.0312 86.3437 59.7448 86.6197 60.4792C86.8958 61.2135 87.1249 61.9583 87.3177 62.7187C87.5052 63.4792 87.651 64.2448 87.7552 65.0208C87.8541 65.7969 87.9114 66.5781 87.927 67.3646C87.9374 68.1458 87.9062 68.9271 87.8281 69.7083C87.7499 70.4844 87.6302 71.2604 87.4635 72.026C87.2968 72.7917 87.0885 73.5417 86.8385 74.2864C86.5833 75.026 86.2916 75.75 85.9583 76.4583C85.6197 77.1667 85.2447 77.8542 84.8333 78.5156C84.4166 79.1823 83.9687 79.8229 83.4791 80.4375C82.9947 81.0469 82.4739 81.6302 81.9218 82.1875C79.9999 84.1094 77.7812 85.5885 75.2708 86.6302C72.7604 87.6667 70.1406 88.1875 67.427 88.1823ZM67.427 54.5937C66.9218 54.5937 66.427 54.6198 65.927 54.6771C65.4322 54.7344 64.9374 54.8229 64.4531 54.9375C63.9635 55.0521 63.4843 55.1927 63.0104 55.3594C62.5416 55.5312 62.0833 55.7239 61.6354 55.9479C61.1822 56.1667 60.7499 56.4114 60.3281 56.6823C59.9062 56.9583 59.5052 57.25 59.1197 57.5677C58.7291 57.8854 58.3645 58.2239 58.0156 58.5833C57.6666 58.9427 57.3437 59.3229 57.0364 59.7187C56.7343 60.1198 56.4531 60.5312 56.1927 60.9583C55.9374 61.3906 55.7083 61.8333 55.4999 62.2864C55.2916 62.7448 55.1145 63.2083 54.9583 63.6875C54.8072 64.1614 54.6822 64.6458 54.5833 65.1406C54.4895 65.6302 54.4166 66.125 54.3802 66.625C54.3385 67.1198 54.3229 67.6198 54.3437 68.1198C54.3593 68.6198 54.401 69.1198 54.4791 69.6146C54.552 70.1094 54.651 70.5989 54.7812 71.0833C54.9114 71.5677 55.0677 72.0417 55.2552 72.5052C55.4374 72.9739 55.6458 73.4271 55.8854 73.8646C56.1197 74.3073 56.3802 74.7344 56.6666 75.1458C56.9531 75.5573 57.2604 75.9479 57.5885 76.3281C57.9166 76.7031 58.2708 77.0573 58.6406 77.3958C59.0104 77.7292 59.401 78.0469 59.8072 78.3333C60.2135 78.625 60.6354 78.8958 61.0729 79.1354C61.5104 79.3802 61.9635 79.5989 62.427 79.7864C62.8854 79.9792 63.3593 80.1458 63.8385 80.2812C64.3229 80.4167 64.8072 80.526 65.302 80.6094C65.7968 80.6875 66.2916 80.7448 66.7916 80.7656C67.2916 80.7917 67.7916 80.7864 68.2916 80.7552C68.7916 80.7187 69.2864 80.6614 69.7812 80.5677C70.2708 80.4792 70.7604 80.3646 71.2395 80.2187C71.7187 80.0729 72.1874 79.901 72.6458 79.6979C73.1041 79.5 73.552 79.276 73.9843 79.026C74.4166 78.776 74.8333 78.5 75.2343 78.2031C75.6354 77.901 76.0208 77.5833 76.3854 77.2396C76.7499 76.8958 77.0937 76.5364 77.4218 76.151C77.7447 75.7708 78.0416 75.375 78.3229 74.9583C78.5989 74.5417 78.8541 74.1094 79.0833 73.6614C79.3072 73.2187 79.5104 72.7604 79.6874 72.2917C79.8645 71.8229 80.0104 71.3489 80.1354 70.8594C80.2552 70.375 80.3489 69.8854 80.4114 69.3906C80.4791 68.8906 80.5156 68.3958 80.5208 67.8958C80.5312 67.3906 80.5104 66.8958 80.4583 66.3958C80.4114 65.8958 80.3333 65.4062 80.2291 64.9167C80.1197 64.4271 79.9895 63.9427 79.8281 63.4687C79.6666 62.9948 79.4791 62.5312 79.2656 62.0833C79.0468 61.6302 78.8072 61.1927 78.5468 60.7656C78.2812 60.3385 77.9947 59.9323 77.6822 59.5417C77.3697 59.1458 77.0364 58.776 76.6822 58.4219C75.4531 57.1927 74.0416 56.25 72.4374 55.5833C70.8333 54.9219 69.1614 54.5885 67.427 54.5937Z" fill="white"/>
<path d="M112.594 116.583C111.573 116.583 110.698 116.219 109.974 115.5L76.6771 82.1979C76.3386 81.849 76.0782 81.4479 75.9011 80.9948C75.7188 80.5469 75.6303 80.0781 75.6355 79.5938C75.6407 79.1094 75.7344 78.6406 75.9219 78.1927C76.1094 77.7448 76.3751 77.349 76.7188 77.0052C77.0626 76.6615 77.4584 76.3958 77.9063 76.2083C78.3542 76.0208 78.823 75.9271 79.3073 75.9219C79.7917 75.9167 80.2605 76.0052 80.7136 76.1823C81.1615 76.3646 81.5626 76.625 81.9115 76.9583L115.214 110.26C115.74 110.792 116.078 111.422 116.224 112.156C116.37 112.891 116.302 113.604 116.016 114.297C115.729 114.99 115.276 115.542 114.651 115.958C114.026 116.375 113.344 116.583 112.594 116.583Z" fill="white"/>
<path d="M178.641 252.203C177.25 252.208 175.865 252.167 174.479 252.089C173.094 252.016 171.708 251.896 170.328 251.74C168.953 251.583 167.578 251.391 166.208 251.156C164.839 250.922 163.479 250.651 162.125 250.339C160.776 250.026 159.432 249.677 158.099 249.292C156.766 248.901 155.443 248.479 154.136 248.016C152.828 247.552 151.531 247.052 150.25 246.521C148.974 245.984 147.708 245.411 146.458 244.802C145.214 244.198 143.985 243.552 142.771 242.875C141.557 242.198 140.365 241.49 139.198 240.745C138.026 240 136.875 239.219 135.75 238.411C134.62 237.599 133.516 236.76 132.438 235.885C131.36 235.016 130.307 234.109 129.276 233.177C128.25 232.245 127.25 231.286 126.276 230.297C125.302 229.307 124.354 228.292 123.443 227.245C122.526 226.203 121.641 225.135 120.781 224.042C119.927 222.948 119.104 221.833 118.313 220.693C117.521 219.552 116.761 218.391 116.037 217.208C115.307 216.026 114.615 214.823 113.958 213.599C113.302 212.38 112.677 211.141 112.089 209.88C111.505 208.625 110.953 207.349 110.438 206.063C109.922 204.771 109.443 203.469 109 202.156C108.563 200.839 108.156 199.51 107.792 198.172C107.427 196.833 107.099 195.484 106.807 194.125C106.516 192.771 106.266 191.406 106.057 190.031C105.844 188.661 105.672 187.286 105.537 185.901C105.401 184.521 105.307 183.135 105.25 181.75C105.198 180.365 105.182 178.974 105.203 177.589C105.229 176.198 105.292 174.813 105.391 173.427C105.495 172.047 105.636 170.667 105.818 169.286C105.995 167.911 106.214 166.542 106.474 165.177C106.729 163.813 107.026 162.458 107.365 161.109C107.698 159.766 108.068 158.427 108.479 157.104C108.891 155.776 109.339 154.464 109.823 153.161C110.313 151.865 110.833 150.578 111.391 149.307C111.948 148.036 112.542 146.781 113.172 145.542C113.802 144.307 114.464 143.089 115.162 141.891C115.865 140.688 116.594 139.51 117.36 138.354C118.125 137.193 118.922 136.057 119.755 134.948C120.583 133.833 121.443 132.745 122.333 131.682C123.229 130.62 124.146 129.578 125.099 128.568C126.047 127.557 127.026 126.573 128.031 125.62C129.042 124.661 130.073 123.734 131.13 122.839C132.193 121.938 133.276 121.073 134.38 120.24C135.49 119.401 136.62 118.599 137.776 117.823C138.927 117.052 140.104 116.318 141.297 115.609C142.495 114.906 143.708 114.234 144.943 113.599C146.177 112.964 147.427 112.359 148.693 111.797C149.964 111.229 151.245 110.703 152.542 110.208C153.839 109.719 155.151 109.26 156.474 108.844C157.797 108.427 159.136 108.047 160.479 107.703C161.823 107.359 163.177 107.057 164.542 106.792C165.901 106.526 167.271 106.297 168.646 106.109C170.021 105.922 171.401 105.776 172.787 105.667C174.167 105.557 175.552 105.484 176.943 105.453C178.328 105.422 179.719 105.432 181.104 105.479C182.49 105.526 183.875 105.615 185.261 105.74C186.641 105.865 188.021 106.031 189.391 106.234C190.766 106.443 192.13 106.682 193.49 106.969C194.849 107.25 196.198 107.568 197.542 107.927C198.88 108.286 200.208 108.682 201.526 109.115C202.849 109.552 204.151 110.021 205.443 110.531C206.735 111.036 208.011 111.583 209.271 112.161C210.531 112.745 211.776 113.359 213.005 114.01C214.229 114.661 215.438 115.349 216.62 116.068C217.807 116.786 218.974 117.536 220.12 118.323C221.266 119.109 222.386 119.927 223.485 120.776C224.578 121.625 225.651 122.505 226.703 123.417C227.75 124.328 228.771 125.266 229.766 126.234C230.761 127.203 231.724 128.198 232.662 129.219C233.604 130.245 234.511 131.292 235.391 132.37C236.266 133.443 237.115 134.542 237.932 135.661C238.75 136.786 239.531 137.932 240.281 139.099C241.037 140.266 241.75 141.453 242.438 142.661C243.12 143.87 243.771 145.094 244.386 146.339C245 147.583 245.578 148.844 246.12 150.125C246.662 151.401 247.167 152.693 247.636 154C248.11 155.302 248.542 156.625 248.932 157.953C249.328 159.286 249.688 160.625 250.005 161.974C250.323 163.328 250.604 164.688 250.844 166.052C251.083 167.422 251.287 168.792 251.453 170.172C251.615 171.547 251.74 172.932 251.823 174.318C251.912 175.703 251.958 177.089 251.964 178.479C251.969 179.865 251.938 181.25 251.865 182.641C251.792 184.026 251.682 185.406 251.531 186.786C251.38 188.167 251.188 189.542 250.958 190.911C250.735 192.281 250.464 193.641 250.156 194.995C249.854 196.349 249.511 197.693 249.125 199.026C248.745 200.365 248.323 201.682 247.865 202.995C247.412 204.307 246.917 205.604 246.386 206.885C245.854 208.167 245.287 209.432 244.682 210.682C244.083 211.938 243.443 213.167 242.771 214.38C242.099 215.594 241.391 216.792 240.651 217.964C239.912 219.135 239.141 220.292 238.333 221.422C237.526 222.552 236.688 223.656 235.823 224.74C234.953 225.823 234.052 226.88 233.125 227.911C229.682 231.724 225.886 235.141 221.729 238.161C217.573 241.177 213.146 243.734 208.453 245.828C203.761 247.917 198.906 249.5 193.88 250.578C188.854 251.651 183.776 252.193 178.641 252.203ZM178.641 112.958C176.479 112.958 174.328 113.068 172.177 113.276C170.026 113.49 167.896 113.802 165.776 114.224C163.662 114.646 161.568 115.167 159.5 115.792C157.438 116.422 155.406 117.146 153.412 117.974C151.417 118.797 149.464 119.719 147.563 120.734C145.656 121.755 143.807 122.859 142.011 124.063C140.214 125.26 138.485 126.542 136.813 127.911C135.146 129.281 133.547 130.729 132.021 132.255C130.495 133.781 129.042 135.38 127.672 137.047C126.302 138.719 125.021 140.448 123.818 142.245C122.62 144.042 121.511 145.891 120.49 147.792C119.474 149.698 118.552 151.646 117.724 153.641C116.896 155.635 116.172 157.667 115.542 159.729C114.917 161.797 114.391 163.891 113.969 166.005C113.547 168.125 113.235 170.255 113.021 172.406C112.807 174.552 112.703 176.708 112.703 178.87C112.703 181.026 112.807 183.182 113.016 185.328C113.229 187.479 113.547 189.609 113.964 191.729C114.386 193.844 114.912 195.938 115.537 198.005C116.162 200.073 116.891 202.099 117.714 204.094C118.542 206.089 119.464 208.042 120.479 209.943C121.5 211.849 122.604 213.698 123.807 215.495C125.005 217.292 126.287 219.021 127.656 220.693C129.026 222.359 130.474 223.958 132 225.484C133.526 227.01 135.125 228.458 136.797 229.828C138.464 231.198 140.198 232.484 141.99 233.682C143.787 234.885 145.636 235.995 147.542 237.01C149.443 238.031 151.391 238.953 153.386 239.776C155.38 240.604 157.412 241.333 159.479 241.958C161.542 242.583 163.636 243.109 165.755 243.531C167.87 243.953 170.005 244.271 172.151 244.479C174.302 244.693 176.453 244.797 178.615 244.797C180.771 244.797 182.927 244.693 185.078 244.484C187.224 244.271 189.36 243.953 191.474 243.531C193.594 243.115 195.682 242.589 197.75 241.964C199.818 241.333 201.849 240.609 203.844 239.781C205.839 238.958 207.787 238.036 209.693 237.016C211.594 236 213.443 234.891 215.24 233.693C217.037 232.49 218.766 231.208 220.438 229.839C222.104 228.469 223.703 227.021 225.229 225.495C226.755 223.969 228.203 222.37 229.573 220.698C230.943 219.031 232.229 217.297 233.427 215.505C234.63 213.708 235.74 211.859 236.755 209.953C237.771 208.052 238.693 206.104 239.521 204.109C240.349 202.115 241.073 200.083 241.703 198.016C242.328 195.948 242.849 193.859 243.271 191.74C243.693 189.625 244.011 187.49 244.224 185.344C244.432 183.193 244.542 181.036 244.542 178.88C244.537 176.724 244.427 174.568 244.214 172.422C244 170.276 243.682 168.146 243.261 166.026C242.839 163.911 242.313 161.823 241.682 159.755C241.057 157.693 240.328 155.661 239.5 153.672C238.677 151.677 237.75 149.729 236.735 147.828C235.719 145.922 234.61 144.078 233.412 142.281C232.208 140.49 230.927 138.755 229.557 137.089C228.188 135.422 226.74 133.823 225.214 132.297C223.688 130.771 222.094 129.323 220.427 127.953C218.755 126.583 217.026 125.302 215.235 124.099C213.438 122.901 211.594 121.792 209.688 120.776C207.787 119.755 205.839 118.833 203.849 118.005C201.854 117.177 199.823 116.448 197.761 115.823C195.698 115.193 193.604 114.667 191.49 114.245C189.375 113.823 187.245 113.5 185.094 113.286C182.948 113.073 180.797 112.964 178.641 112.958Z" fill="white"/>
<path d="M178.62 197.943C177.568 197.943 176.516 197.896 175.469 197.792C174.417 197.688 173.38 197.536 172.344 197.328C171.313 197.125 170.292 196.87 169.281 196.562C168.276 196.26 167.281 195.906 166.307 195.505C165.333 195.099 164.385 194.651 163.453 194.156C162.526 193.656 161.625 193.12 160.745 192.531C159.87 191.948 159.026 191.323 158.208 190.656C157.396 189.984 156.615 189.281 155.87 188.536C155.125 187.792 154.417 187.01 153.75 186.198C153.078 185.385 152.453 184.542 151.865 183.661C151.281 182.786 150.74 181.885 150.24 180.958C149.745 180.026 149.292 179.078 148.891 178.104C148.484 177.13 148.13 176.141 147.823 175.13C147.521 174.125 147.26 173.104 147.057 172.073C146.849 171.036 146.698 169.995 146.594 168.948C146.49 167.901 146.438 166.849 146.432 165.797C146.432 164.745 146.484 163.693 146.589 162.641C146.693 161.594 146.844 160.552 147.047 159.521C147.255 158.484 147.51 157.464 147.813 156.458C148.12 155.448 148.474 154.458 148.875 153.484C149.281 152.51 149.729 151.557 150.224 150.63C150.719 149.703 151.26 148.797 151.844 147.922C152.432 147.047 153.057 146.198 153.724 145.385C154.391 144.573 155.099 143.792 155.844 143.047C156.589 142.302 157.365 141.594 158.182 140.922C158.995 140.255 159.839 139.625 160.714 139.042C161.589 138.458 162.495 137.917 163.422 137.417C164.349 136.922 165.302 136.469 166.276 136.068C167.25 135.661 168.24 135.307 169.245 135C170.255 134.693 171.276 134.438 172.307 134.234C173.344 134.026 174.38 133.87 175.432 133.766C176.479 133.661 177.531 133.609 178.583 133.609C179.636 133.609 180.688 133.661 181.734 133.766C182.787 133.865 183.828 134.021 184.859 134.224C185.891 134.432 186.912 134.682 187.922 134.99C188.932 135.297 189.922 135.651 190.896 136.052C191.87 136.453 192.818 136.906 193.75 137.401C194.677 137.896 195.583 138.438 196.458 139.021C197.333 139.604 198.177 140.234 198.995 140.901C199.807 141.568 200.589 142.276 201.333 143.021C202.078 143.766 202.787 144.542 203.453 145.354C204.125 146.172 204.75 147.016 205.339 147.891C205.922 148.766 206.464 149.667 206.964 150.599C207.458 151.526 207.912 152.479 208.313 153.448C208.719 154.422 209.073 155.417 209.38 156.422C209.682 157.432 209.943 158.453 210.146 159.484C210.354 160.516 210.511 161.557 210.615 162.604C210.714 163.656 210.771 164.703 210.771 165.76C210.766 166.812 210.714 167.865 210.609 168.911C210.505 169.958 210.354 171 210.146 172.031C209.938 173.062 209.682 174.083 209.375 175.094C209.073 176.099 208.719 177.089 208.313 178.062C207.912 179.036 207.458 179.984 206.964 180.917C206.469 181.844 205.927 182.745 205.344 183.62C204.755 184.495 204.13 185.344 203.464 186.156C202.797 186.969 202.089 187.75 201.344 188.495C200.599 189.24 199.823 189.948 199.011 190.615C198.193 191.286 197.349 191.911 196.474 192.495C195.599 193.083 194.698 193.625 193.771 194.12C192.844 194.62 191.891 195.073 190.922 195.474C189.948 195.88 188.958 196.234 187.953 196.542C186.943 196.849 185.922 197.109 184.891 197.312C183.859 197.521 182.818 197.677 181.771 197.781C180.724 197.891 179.672 197.943 178.62 197.943ZM178.62 141.016C177.807 141.016 177 141.057 176.193 141.135C175.386 141.214 174.583 141.333 173.787 141.49C172.995 141.646 172.208 141.844 171.432 142.078C170.651 142.312 169.891 142.583 169.141 142.896C168.391 143.208 167.656 143.552 166.943 143.932C166.229 144.318 165.531 144.734 164.859 145.182C164.182 145.63 163.531 146.115 162.906 146.63C162.276 147.146 161.677 147.688 161.104 148.26C160.526 148.833 159.984 149.432 159.469 150.062C158.953 150.688 158.469 151.339 158.021 152.01C157.568 152.688 157.151 153.38 156.771 154.099C156.385 154.812 156.042 155.542 155.729 156.292C155.417 157.042 155.146 157.807 154.912 158.583C154.672 159.359 154.479 160.146 154.318 160.938C154.162 161.734 154.042 162.536 153.964 163.344C153.88 164.151 153.844 164.958 153.844 165.771C153.844 166.583 153.88 167.391 153.958 168.198C154.042 169.005 154.156 169.807 154.318 170.604C154.474 171.401 154.672 172.188 154.906 172.964C155.141 173.74 155.417 174.5 155.724 175.25C156.037 176 156.38 176.734 156.766 177.448C157.146 178.161 157.563 178.859 158.016 179.531C158.464 180.208 158.948 180.859 159.464 181.484C159.974 182.109 160.521 182.714 161.094 183.286C161.667 183.859 162.266 184.401 162.896 184.917C163.521 185.432 164.172 185.917 164.849 186.365C165.521 186.818 166.219 187.234 166.932 187.615C167.646 188 168.38 188.344 169.13 188.656C169.88 188.964 170.641 189.24 171.417 189.474C172.193 189.708 172.979 189.906 173.776 190.062C174.573 190.219 175.375 190.339 176.182 190.417C176.99 190.5 177.797 190.536 178.609 190.536C179.417 190.536 180.229 190.5 181.037 190.417C181.844 190.339 182.646 190.219 183.438 190.062C184.234 189.901 185.021 189.703 185.797 189.469C186.573 189.234 187.339 188.958 188.083 188.651C188.833 188.339 189.568 187.99 190.281 187.609C191 187.229 191.693 186.807 192.365 186.359C193.042 185.906 193.693 185.427 194.318 184.911C194.948 184.396 195.547 183.849 196.12 183.276C196.693 182.703 197.234 182.104 197.75 181.474C198.266 180.849 198.745 180.198 199.198 179.521C199.646 178.849 200.063 178.151 200.448 177.438C200.828 176.719 201.172 175.99 201.484 175.24C201.792 174.49 202.068 173.724 202.302 172.948C202.537 172.172 202.734 171.385 202.891 170.594C203.047 169.797 203.167 168.995 203.245 168.188C203.323 167.38 203.365 166.568 203.365 165.76C203.359 164.948 203.323 164.141 203.24 163.333C203.162 162.526 203.042 161.729 202.88 160.932C202.724 160.141 202.526 159.354 202.292 158.578C202.057 157.802 201.781 157.042 201.474 156.297C201.162 155.547 200.818 154.812 200.432 154.099C200.052 153.385 199.636 152.693 199.182 152.021C198.734 151.344 198.25 150.698 197.74 150.068C197.224 149.443 196.682 148.844 196.109 148.271C195.537 147.698 194.938 147.156 194.307 146.641C193.682 146.125 193.031 145.646 192.359 145.193C191.688 144.745 190.995 144.328 190.276 143.948C189.563 143.562 188.833 143.219 188.083 142.906C187.339 142.599 186.573 142.323 185.802 142.089C185.026 141.854 184.24 141.656 183.448 141.495C182.651 141.339 181.849 141.219 181.047 141.141C180.24 141.057 179.432 141.016 178.62 141.016Z" fill="white"/>
<path d="M178.641 252.203C173.505 252.198 168.427 251.656 163.411 250.583C158.391 249.51 153.536 247.932 148.844 245.844C144.156 243.755 139.734 241.208 135.578 238.193C131.422 235.182 127.625 231.771 124.182 227.964C123.802 227.547 123.536 227.068 123.375 226.526C123.213 225.99 123.182 225.443 123.271 224.885C123.463 223.698 123.703 222.516 124 221.349C124.297 220.177 124.646 219.026 125.042 217.891C125.437 216.75 125.885 215.63 126.385 214.531C126.88 213.437 127.427 212.359 128.016 211.312C128.609 210.26 129.245 209.24 129.927 208.245C130.614 207.25 131.338 206.292 132.104 205.359C132.875 204.432 133.682 203.536 134.526 202.682C135.375 201.823 136.255 201.005 137.177 200.224C138.099 199.448 139.047 198.708 140.031 198.016C141.021 197.318 142.031 196.667 143.073 196.062C144.114 195.458 145.182 194.901 146.276 194.385C147.37 193.875 148.479 193.417 149.614 193.005C150.745 192.589 151.896 192.229 153.057 191.917C154.224 191.609 155.401 191.349 156.588 191.146C157.776 190.937 158.969 190.781 160.172 190.682C161.37 190.583 162.578 190.536 163.781 190.542H193.536C194.739 190.536 195.943 190.583 197.146 190.687C198.344 190.786 199.536 190.943 200.724 191.146C201.911 191.354 203.083 191.615 204.25 191.922C205.411 192.234 206.557 192.594 207.693 193.005C208.823 193.417 209.932 193.88 211.026 194.391C212.114 194.901 213.182 195.458 214.224 196.062C215.266 196.667 216.276 197.318 217.26 198.01C218.245 198.703 219.198 199.437 220.114 200.219C221.036 200.995 221.917 201.812 222.766 202.667C223.609 203.526 224.417 204.417 225.187 205.344C225.953 206.271 226.682 207.229 227.364 208.224C228.047 209.214 228.682 210.234 229.276 211.281C229.87 212.328 230.417 213.401 230.917 214.5C231.411 215.594 231.859 216.714 232.26 217.849C232.661 218.984 233.01 220.135 233.307 221.302C233.604 222.469 233.849 223.646 234.042 224.833C234.135 225.391 234.104 225.937 233.943 226.479C233.786 227.016 233.516 227.495 233.141 227.917C229.698 231.734 225.901 235.151 221.745 238.172C217.583 241.193 213.161 243.75 208.463 245.839C203.771 247.932 198.911 249.516 193.885 250.589C188.859 251.661 183.776 252.198 178.641 252.203ZM130.896 224.328C132.432 225.943 134.042 227.474 135.734 228.927C137.422 230.375 139.182 231.74 141.01 233.01C142.838 234.286 144.724 235.464 146.672 236.542C148.62 237.625 150.62 238.604 152.667 239.484C154.713 240.359 156.802 241.135 158.927 241.797C161.052 242.464 163.203 243.021 165.385 243.469C167.568 243.917 169.771 244.255 171.984 244.479C174.203 244.703 176.422 244.818 178.651 244.818C180.88 244.818 183.099 244.703 185.318 244.474C187.531 244.25 189.734 243.911 191.917 243.464C194.094 243.01 196.25 242.453 198.375 241.786C200.5 241.12 202.588 240.344 204.63 239.464C206.677 238.583 208.677 237.604 210.625 236.521C212.568 235.437 214.458 234.26 216.286 232.984C218.114 231.714 219.87 230.349 221.557 228.896C223.25 227.443 224.859 225.911 226.391 224.292C225.989 222.432 225.427 220.625 224.713 218.859C224 217.099 223.141 215.406 222.141 213.792C221.135 212.172 220.005 210.651 218.745 209.229C217.479 207.802 216.109 206.495 214.625 205.307C213.141 204.115 211.562 203.062 209.901 202.141C208.234 201.219 206.505 200.443 204.708 199.818C202.911 199.187 201.073 198.719 199.198 198.406C197.323 198.094 195.432 197.937 193.531 197.948H163.76C161.859 197.937 159.969 198.089 158.088 198.401C156.208 198.714 154.37 199.182 152.573 199.812C150.776 200.437 149.042 201.214 147.375 202.135C145.713 203.057 144.135 204.115 142.651 205.307C141.167 206.5 139.792 207.807 138.531 209.234C137.271 210.661 136.135 212.187 135.135 213.807C134.135 215.427 133.276 217.12 132.568 218.885C131.854 220.651 131.297 222.464 130.896 224.328Z" fill="white"/>
</svg>
