<svg width="392" height="413" viewBox="0 0 392 413" fill="none" xmlns="http://www.w3.org/2000/svg">
<mask id="mask0_2_670" style="mask-type:luminance" maskUnits="userSpaceOnUse" x="0" y="0" width="392" height="413">
<path d="M181.896 120.448C181.391 120.448 181.078 120.172 180.938 120.005C180.797 119.844 180.573 119.49 180.651 118.99L182.792 105.068H228.771L230.911 118.99C230.99 119.49 230.76 119.844 230.62 120.005C230.479 120.172 230.167 120.448 229.661 120.448H181.896ZM183.396 13.9583C183.396 11.0677 185.75 8.71354 188.646 8.71354H222.917C225.812 8.71354 228.167 11.0677 228.167 13.9583V96.5729H183.396V13.9583ZM174.901 53.4271H147.536V37.7448H174.901V53.4271ZM174.901 77.6042H147.536V61.9219H174.901V77.6042ZM139.036 53.4271H111.672V37.7448H139.036V53.4271ZM139.036 77.6042H111.672V61.9219H139.036V77.6042ZM103.177 53.4271H75.8073V37.7448H103.177V53.4271ZM103.177 77.6042H75.8073V61.9219H103.177V77.6042ZM236.661 61.9219H264.026V77.6042H236.661V61.9219ZM236.661 37.7448H264.026V53.4271H236.661V37.7448ZM272.521 61.9219H299.891V77.6042H272.521V61.9219ZM272.521 37.7448H299.891V53.4271H272.521V37.7448ZM308.385 61.9219H335.75V77.6042H308.385V61.9219ZM308.385 37.7448H335.75V53.4271H308.385V37.7448ZM237.068 125.536C238.927 123.375 239.74 120.516 239.307 117.703L236.661 100.5V86.0938H336.328C340.693 86.0938 344.25 82.5417 344.25 78.1771V37.1667C344.25 32.8021 340.693 29.25 336.328 29.25H236.661V13.9583C236.661 6.38542 230.495 0.21875 222.917 0.21875H188.646C181.068 0.21875 174.901 6.38542 174.901 13.9583V29.25H75.2344C70.8646 29.25 67.3125 32.8021 67.3125 37.1667V78.1771C67.3125 82.5417 70.8646 86.0938 75.2344 86.0938H174.901V100.5L172.25 117.703C171.818 120.516 172.635 123.375 174.49 125.536C176.349 127.698 179.047 128.943 181.896 128.943H201.531V138.078C201.531 140.422 203.432 142.323 205.781 142.323C208.125 142.323 210.026 140.422 210.026 138.078V128.943H229.661C232.516 128.943 235.214 127.698 237.068 125.536ZM322.115 222.958L222.875 148.594C221 147.188 220.62 144.526 222.026 142.646C223.432 140.771 226.094 140.391 227.974 141.797L327.208 216.161C329.089 217.568 329.469 220.234 328.057 222.109C327.224 223.224 325.953 223.807 324.656 223.807C323.771 223.807 322.875 223.531 322.115 222.958ZM383.25 277.021H301.526V267.443C301.526 264.776 303.521 262.536 306.167 262.229C314.766 261.229 328.026 260.042 342.385 260.042C356.698 260.042 369.984 261.234 378.604 262.229C381.255 262.536 383.25 264.781 383.25 267.443V277.021ZM383.25 371.562H301.526V285.516H383.25V371.562ZM383.25 398.448C383.25 401.339 380.896 403.693 378 403.693H306.776C303.88 403.693 301.526 401.339 301.526 398.448V380.057H383.25V398.448ZM351.792 230.479C351.797 230.281 351.917 230.109 352.104 230.026C353.734 229.323 356.255 228.49 359.005 228.49C361.797 228.49 364.302 229.318 365.911 230.016C366.094 230.094 366.214 230.266 366.214 230.427L366.766 252.552C361.974 252.172 356.672 251.854 351.078 251.688L351.792 230.479ZM379.583 253.792C378.26 253.641 376.812 253.484 375.286 253.323L374.708 230.182C374.594 226.724 372.464 223.604 369.292 222.224C366.943 221.208 363.255 219.995 359.005 219.995C354.802 219.995 351.104 221.208 348.74 222.229C345.552 223.604 343.417 226.734 343.302 230.193L342.578 251.547C342.516 251.547 342.453 251.547 342.385 251.547C327.62 251.547 314.005 252.766 305.188 253.792C298.255 254.594 293.031 260.464 293.031 267.443V398.448C293.031 406.021 299.198 412.188 306.776 412.188H378C385.578 412.188 391.745 406.021 391.745 398.448V267.443C391.745 260.469 386.516 254.599 379.583 253.792ZM308.859 356.625C308.859 354.276 310.76 352.375 313.104 352.375H332.396C334.74 352.375 336.646 354.276 336.646 356.625C336.646 358.969 334.74 360.87 332.396 360.87H313.104C310.76 360.87 308.859 358.969 308.859 356.625ZM346.635 327.63V328.505C346.635 330.849 344.734 332.75 342.385 332.75C340.042 332.75 338.141 330.849 338.141 328.505V327.63C338.141 325.286 340.042 323.385 342.385 323.385C344.734 323.385 346.635 325.286 346.635 327.63ZM352.38 352.375H371.672C374.016 352.375 375.917 354.276 375.917 356.625C375.917 358.969 374.016 360.87 371.672 360.87H352.38C350.036 360.87 348.13 358.969 348.13 356.625C348.13 354.276 350.036 352.375 352.38 352.375ZM350.427 316.979C349.599 317.807 348.51 318.224 347.422 318.224C346.339 318.224 345.25 317.807 344.422 316.979C343.302 315.859 341.474 315.859 340.354 316.979C338.698 318.635 336.005 318.635 334.349 316.979C332.688 315.318 332.688 312.63 334.349 310.974C338.781 306.542 345.995 306.542 350.427 310.974C352.089 312.63 352.089 315.318 350.427 316.979ZM327.021 304.083C325.359 302.427 325.359 299.734 327.021 298.078C335.495 289.604 349.281 289.604 357.755 298.078C359.417 299.734 359.417 302.427 357.755 304.083C356.927 304.911 355.839 305.328 354.75 305.328C353.667 305.328 352.578 304.911 351.75 304.083C346.589 298.922 338.188 298.922 333.026 304.083C331.37 305.745 328.677 305.745 327.021 304.083ZM34.7396 303.87C33.0781 302.208 33.0781 299.521 34.7396 297.865C43.2135 289.391 57 289.391 65.474 297.865C67.1302 299.521 67.1302 302.208 65.474 303.87C64.6458 304.698 63.5573 305.115 62.4688 305.115C61.3802 305.115 60.2969 304.698 59.4635 303.87C54.3021 298.708 45.9062 298.708 40.7448 303.87C39.0833 305.526 36.3958 305.526 34.7396 303.87ZM16.5729 356.406C16.5729 354.062 18.4792 352.161 20.8229 352.161H40.1146C42.4583 352.161 44.3594 354.062 44.3594 356.406C44.3594 358.75 42.4583 360.656 40.1146 360.656H20.8229C18.4792 360.656 16.5729 358.75 16.5729 356.406ZM60.099 352.161H79.3854C81.7344 352.161 83.6354 354.062 83.6354 356.406C83.6354 358.75 81.7344 360.656 79.3854 360.656H60.099C57.75 360.656 55.849 358.75 55.849 356.406C55.849 354.062 57.75 352.161 60.099 352.161ZM58.1458 316.766C57.3177 317.594 56.2292 318.005 55.1406 318.005C54.0521 318.005 52.9688 317.594 52.1354 316.766C51.0521 315.677 49.1615 315.677 48.0729 316.766C46.4167 318.422 43.724 318.422 42.0677 316.766C40.4063 315.104 40.4063 312.417 42.0677 310.755C46.5 306.323 53.7135 306.323 58.1458 310.755C59.8021 312.417 59.8021 315.104 58.1458 316.766ZM54.3542 327.417V328.286C54.3542 330.63 52.4531 332.531 50.1042 332.531C47.7604 332.531 45.8594 330.63 45.8594 328.286V327.417C45.8594 325.073 47.7604 323.172 50.1042 323.172C52.4531 323.172 54.3542 325.073 54.3542 327.417ZM189.161 142.469C190.667 144.266 190.432 146.943 188.63 148.453L99.8438 222.818C99.0469 223.484 98.0781 223.807 97.1146 223.807C95.901 223.807 94.6979 223.292 93.8594 222.286C92.349 220.49 92.5885 217.812 94.3854 216.307L183.177 141.943C184.974 140.432 187.651 140.667 189.161 142.469ZM90.9635 276.807H9.24479V267.224C9.24479 264.562 11.2396 262.318 13.8854 262.016C22.4792 261.016 35.7396 259.828 50.1042 259.828C64.4219 259.828 77.7031 261.016 86.3229 262.016C88.9688 262.323 90.9635 264.562 90.9635 267.229V276.807ZM90.9635 371.344H9.24479V285.297H90.9635V371.344ZM90.9635 398.229C90.9635 401.125 88.6094 403.479 85.7188 403.479H14.4948C11.599 403.479 9.24479 401.125 9.24479 398.229V379.839H90.9635V398.229ZM59.5104 230.266C59.5156 230.062 59.6302 229.896 59.8229 229.812C61.4531 229.109 63.9688 228.271 66.724 228.271C69.5156 228.271 72.0208 229.104 73.625 229.802C73.8125 229.88 73.9271 230.047 73.9323 230.214L74.4844 252.333C69.6927 251.958 64.3906 251.641 58.7969 251.469L59.5104 230.266ZM87.3021 253.578C85.9792 253.422 84.5312 253.266 83.0052 253.109L82.4271 229.964C82.3125 226.505 80.1823 223.385 77.0052 222.005C74.6615 220.99 70.974 219.776 66.724 219.776C62.5208 219.776 58.8177 220.995 56.4531 222.016C53.2656 223.391 51.1354 226.516 51.0156 229.979L50.2969 251.333C50.2344 251.333 50.1719 251.333 50.1042 251.333C35.3333 251.333 21.724 252.552 12.901 253.578C5.97396 254.38 0.75 260.25 0.75 267.224V398.229C0.75 405.807 6.91667 411.969 14.4948 411.969H85.7188C93.2969 411.969 99.4635 405.807 99.4635 398.229V267.229C99.4635 260.25 94.2344 254.38 87.3021 253.578Z" fill="white"/>
</mask>
<g mask="url(#mask0_2_670)">
<mask id="mask1_2_670" style="mask-type:luminance" maskUnits="userSpaceOnUse" x="-206" y="-196" width="804" height="804">
<path d="M196.245 -195.219L-205.292 206.203L196.245 607.625L597.786 206.203L196.245 -195.219Z" fill="white"/>
</mask>
<g mask="url(#mask1_2_670)">
<path d="M196.245 -195.219L-205.292 206.203L196.245 607.625L597.786 206.203L196.245 -195.219Z" fill="url(#paint0_linear_2_670)"/>
</g>
</g>
<defs>
<linearGradient id="paint0_linear_2_670" x1="-22.6889" y1="23.6539" x2="378.733" y2="425.194" gradientUnits="userSpaceOnUse">
<stop stop-color="#66FFEC"/>
<stop offset="0.0625" stop-color="#66FFEC"/>
<stop offset="0.0664062" stop-color="#65FEEC"/>
<stop offset="0.0703125" stop-color="#65FDEC"/>
<stop offset="0.0742188" stop-color="#64FCEC"/>
<stop offset="0.078125" stop-color="#64FCEC"/>
<stop offset="0.0820313" stop-color="#64FBEC"/>
<stop offset="0.0859375" stop-color="#64FAEC"/>
<stop offset="0.0898438" stop-color="#63F9EC"/>
<stop offset="0.09375" stop-color="#63F9EC"/>
<stop offset="0.101563" stop-color="#63F9EC"/>
<stop offset="0.105469" stop-color="#62F8EC"/>
<stop offset="0.109375" stop-color="#62F7EC"/>
<stop offset="0.117188" stop-color="#61F7EC"/>
<stop offset="0.121094" stop-color="#60F6EC"/>
<stop offset="0.125" stop-color="#60F5EC"/>
<stop offset="0.128906" stop-color="#60F4EB"/>
<stop offset="0.132812" stop-color="#60F3EB"/>
<stop offset="0.140625" stop-color="#5FF3EB"/>
<stop offset="0.144531" stop-color="#5FF2EB"/>
<stop offset="0.148438" stop-color="#5EF1EB"/>
<stop offset="0.15625" stop-color="#5EF0EB"/>
<stop offset="0.160156" stop-color="#5EEFEB"/>
<stop offset="0.164062" stop-color="#5DEFEB"/>
<stop offset="0.167969" stop-color="#5DEEEB"/>
<stop offset="0.171875" stop-color="#5DEDEB"/>
<stop offset="0.175781" stop-color="#5DECEB"/>
<stop offset="0.179688" stop-color="#5CECEB"/>
<stop offset="0.1875" stop-color="#5CECEB"/>
<stop offset="0.191406" stop-color="#5BEBEB"/>
<stop offset="0.195312" stop-color="#5BEAEB"/>
<stop offset="0.203125" stop-color="#5BEAEB"/>
<stop offset="0.207031" stop-color="#5AE8EB"/>
<stop offset="0.210938" stop-color="#59E7EB"/>
<stop offset="0.21875" stop-color="#59E7EB"/>
<stop offset="0.222656" stop-color="#58E6EB"/>
<stop offset="0.226562" stop-color="#58E5EB"/>
<stop offset="0.230469" stop-color="#57E5EB"/>
<stop offset="0.234375" stop-color="#57E4EB"/>
<stop offset="0.242188" stop-color="#57E3EB"/>
<stop offset="0.246094" stop-color="#56E2EB"/>
<stop offset="0.25" stop-color="#56E1EB"/>
<stop offset="0.257812" stop-color="#56E0EB"/>
<stop offset="0.261719" stop-color="#55E0EB"/>
<stop offset="0.265625" stop-color="#55DFEB"/>
<stop offset="0.269531" stop-color="#54DFEB"/>
<stop offset="0.273438" stop-color="#54DEEB"/>
<stop offset="0.28125" stop-color="#54DEEB"/>
<stop offset="0.285156" stop-color="#53DCEA"/>
<stop offset="0.289062" stop-color="#53DBEA"/>
<stop offset="0.296875" stop-color="#53DBEA"/>
<stop offset="0.304688" stop-color="#52DAEA"/>
<stop offset="0.308594" stop-color="#52D9EA"/>
<stop offset="0.3125" stop-color="#51D8EA"/>
<stop offset="0.316406" stop-color="#51D8EA"/>
<stop offset="0.320312" stop-color="#50D7EA"/>
<stop offset="0.328125" stop-color="#50D6EA"/>
<stop offset="0.332031" stop-color="#50D5EA"/>
<stop offset="0.335938" stop-color="#4FD4EA"/>
<stop offset="0.34375" stop-color="#4FD3EA"/>
<stop offset="0.347656" stop-color="#4FD3EA"/>
<stop offset="0.351562" stop-color="#4ED2EA"/>
<stop offset="0.355469" stop-color="#4ED2EA"/>
<stop offset="0.359375" stop-color="#4DD1EA"/>
<stop offset="0.367188" stop-color="#4DD1EA"/>
<stop offset="0.371094" stop-color="#4CCFEA"/>
<stop offset="0.375" stop-color="#4CCEEA"/>
<stop offset="0.382812" stop-color="#4CCEEA"/>
<stop offset="0.390625" stop-color="#4BCDEA"/>
<stop offset="0.394531" stop-color="#4ACCEA"/>
<stop offset="0.398438" stop-color="#4ACBEA"/>
<stop offset="0.402344" stop-color="#49CAEA"/>
<stop offset="0.40625" stop-color="#49CAEA"/>
<stop offset="0.410156" stop-color="#49C9EA"/>
<stop offset="0.414062" stop-color="#49C8EA"/>
<stop offset="0.417969" stop-color="#48C7EA"/>
<stop offset="0.421875" stop-color="#48C7E9"/>
<stop offset="0.429688" stop-color="#47C6E9"/>
<stop offset="0.4375" stop-color="#47C6E9"/>
<stop offset="0.441406" stop-color="#47C5E9"/>
<stop offset="0.445312" stop-color="#46C4E9"/>
<stop offset="0.449219" stop-color="#46C3E9"/>
<stop offset="0.453125" stop-color="#46C2E9"/>
<stop offset="0.457031" stop-color="#46C2E9"/>
<stop offset="0.460938" stop-color="#45C1E9"/>
<stop offset="0.46875" stop-color="#45C1E9"/>
<stop offset="0.472656" stop-color="#44C0E9"/>
<stop offset="0.476562" stop-color="#44BFE9"/>
<stop offset="0.480469" stop-color="#44BEE9"/>
<stop offset="0.484375" stop-color="#43BEE9"/>
<stop offset="0.488281" stop-color="#43BDE9"/>
<stop offset="0.492188" stop-color="#42BDE9"/>
<stop offset="0.496094" stop-color="#42BCE9"/>
<stop offset="0.5" stop-color="#42BBE9"/>
<stop offset="0.503906" stop-color="#42BAE9"/>
<stop offset="0.507812" stop-color="#41BAE9"/>
<stop offset="0.515625" stop-color="#41B9E9"/>
<stop offset="0.523438" stop-color="#40B9E9"/>
<stop offset="0.527344" stop-color="#3FB8E9"/>
<stop offset="0.53125" stop-color="#3FB7E9"/>
<stop offset="0.535156" stop-color="#3FB6E9"/>
<stop offset="0.539063" stop-color="#3FB5E9"/>
<stop offset="0.542969" stop-color="#3EB5E9"/>
<stop offset="0.546875" stop-color="#3EB4E9"/>
<stop offset="0.554688" stop-color="#3EB4E9"/>
<stop offset="0.558594" stop-color="#3DB3E9"/>
<stop offset="0.5625" stop-color="#3DB2E9"/>
<stop offset="0.566406" stop-color="#3CB1E9"/>
<stop offset="0.570312" stop-color="#3CB1E8"/>
<stop offset="0.574219" stop-color="#3BB0E8"/>
<stop offset="0.578125" stop-color="#3BAFE8"/>
<stop offset="0.585937" stop-color="#3BAEE8"/>
<stop offset="0.589844" stop-color="#3AADE8"/>
<stop offset="0.59375" stop-color="#3AADE8"/>
<stop offset="0.601562" stop-color="#3AADE8"/>
<stop offset="0.605469" stop-color="#39ACE8"/>
<stop offset="0.609375" stop-color="#39ABE8"/>
<stop offset="0.613281" stop-color="#39AAE8"/>
<stop offset="0.617188" stop-color="#38A9E8"/>
<stop offset="0.621094" stop-color="#38A9E8"/>
<stop offset="0.625" stop-color="#38A8E8"/>
<stop offset="0.628906" stop-color="#38A8E8"/>
<stop offset="0.632812" stop-color="#37A7E8"/>
<stop offset="0.636719" stop-color="#37A7E8"/>
<stop offset="0.640625" stop-color="#36A6E8"/>
<stop offset="0.644531" stop-color="#36A5E8"/>
<stop offset="0.648438" stop-color="#36A5E8"/>
<stop offset="0.652344" stop-color="#35A4E8"/>
<stop offset="0.65625" stop-color="#35A3E8"/>
<stop offset="0.660156" stop-color="#35A2E8"/>
<stop offset="0.664063" stop-color="#34A2E8"/>
<stop offset="0.671875" stop-color="#34A1E8"/>
<stop offset="0.675781" stop-color="#34A0E8"/>
<stop offset="0.679688" stop-color="#33A0E8"/>
<stop offset="0.6875" stop-color="#339FE8"/>
<stop offset="0.691406" stop-color="#329FE8"/>
<stop offset="0.695312" stop-color="#329EE8"/>
<stop offset="0.699219" stop-color="#319DE8"/>
<stop offset="0.703125" stop-color="#319CE8"/>
<stop offset="0.707031" stop-color="#319CE8"/>
<stop offset="0.710937" stop-color="#319BE7"/>
<stop offset="0.714844" stop-color="#309BE7"/>
<stop offset="0.71875" stop-color="#309AE7"/>
<stop offset="0.722656" stop-color="#2F9AE7"/>
<stop offset="0.726562" stop-color="#2F99E7"/>
<stop offset="0.730469" stop-color="#2F98E7"/>
<stop offset="0.734375" stop-color="#2F98E7"/>
<stop offset="0.738281" stop-color="#2E97E7"/>
<stop offset="0.742188" stop-color="#2E96E7"/>
<stop offset="0.746094" stop-color="#2D95E7"/>
<stop offset="0.75" stop-color="#2D95E7"/>
<stop offset="0.757812" stop-color="#2D94E7"/>
<stop offset="0.761719" stop-color="#2C93E7"/>
<stop offset="0.765625" stop-color="#2C93E7"/>
<stop offset="0.769531" stop-color="#2C92E7"/>
<stop offset="0.773438" stop-color="#2B92E7"/>
<stop offset="0.777344" stop-color="#2B91E7"/>
<stop offset="0.78125" stop-color="#2B90E7"/>
<stop offset="0.785156" stop-color="#2B90E7"/>
<stop offset="0.789063" stop-color="#2A8FE7"/>
<stop offset="0.796875" stop-color="#2A8FE7"/>
<stop offset="0.800781" stop-color="#298EE7"/>
<stop offset="0.804688" stop-color="#298DE7"/>
<stop offset="0.808594" stop-color="#298DE7"/>
<stop offset="0.8125" stop-color="#288CE7"/>
<stop offset="0.816406" stop-color="#288BE7"/>
<stop offset="0.820312" stop-color="#288AE7"/>
<stop offset="0.824219" stop-color="#2789E7"/>
<stop offset="0.828125" stop-color="#2789E7"/>
<stop offset="0.832031" stop-color="#2788E7"/>
<stop offset="0.835937" stop-color="#2688E7"/>
<stop offset="0.839844" stop-color="#2687E7"/>
<stop offset="0.84375" stop-color="#2687E7"/>
<stop offset="0.847656" stop-color="#2586E7"/>
<stop offset="0.851562" stop-color="#2586E7"/>
<stop offset="0.855469" stop-color="#2485E7"/>
<stop offset="0.859375" stop-color="#2484E6"/>
<stop offset="0.863281" stop-color="#2484E6"/>
<stop offset="0.867188" stop-color="#2483E6"/>
<stop offset="0.871094" stop-color="#2383E6"/>
<stop offset="0.875" stop-color="#2382E6"/>
<stop offset="0.878906" stop-color="#2282E6"/>
<stop offset="0.882812" stop-color="#2281E6"/>
<stop offset="0.886719" stop-color="#2281E6"/>
<stop offset="0.890625" stop-color="#2280E6"/>
<stop offset="0.894531" stop-color="#217FE6"/>
<stop offset="0.898438" stop-color="#217FE6"/>
<stop offset="0.902344" stop-color="#217EE6"/>
<stop offset="0.90625" stop-color="#217DE6"/>
<stop offset="0.910156" stop-color="#207CE6"/>
<stop offset="0.914063" stop-color="#207CE6"/>
<stop offset="0.917969" stop-color="#1F7BE6"/>
<stop offset="0.921875" stop-color="#1F7BE6"/>
<stop offset="0.925781" stop-color="#1F7AE6"/>
<stop offset="0.929688" stop-color="#1F7AE6"/>
<stop offset="0.933594" stop-color="#1F7AE6"/>
<stop offset="0.9375" stop-color="#1E79E6"/>
<stop offset="0.941406" stop-color="#1E78E6"/>
<stop offset="0.945312" stop-color="#1D77E6"/>
<stop offset="0.949219" stop-color="#1D77E6"/>
<stop offset="0.953125" stop-color="#1D76E6"/>
<stop offset="0.957031" stop-color="#1D76E6"/>
<stop offset="0.960937" stop-color="#1C75E6"/>
<stop offset="0.964844" stop-color="#1C75E6"/>
<stop offset="0.96875" stop-color="#1B74E6"/>
<stop offset="0.972656" stop-color="#1B74E6"/>
<stop offset="0.976562" stop-color="#1B73E6"/>
<stop offset="0.980469" stop-color="#1B72E6"/>
<stop offset="0.984375" stop-color="#1A71E6"/>
<stop offset="0.988281" stop-color="#1A70E6"/>
<stop offset="0.992188" stop-color="#1A70E6"/>
<stop offset="0.996094" stop-color="#196FE5"/>
<stop offset="1" stop-color="#196FE5"/>
</linearGradient>
</defs>
</svg>
