<svg width="375" height="375" viewBox="0 0 375 375" fill="none" xmlns="http://www.w3.org/2000/svg">
<mask id="mask0_2_651" style="mask-type:luminance" maskUnits="userSpaceOnUse" x="0" y="0" width="375" height="375">
<path d="M0.75 0.75H374.75V374.75H0.75V0.75Z" fill="white"/>
</mask>
<g mask="url(#mask0_2_651)">
<path d="M220.135 0.75C188.5 0.75 158.078 10.2396 132.167 28.1979C110.87 42.9583 93.8073 62.5417 82.224 85.3802H27.8959C18.6823 85.3802 10.5834 91.5938 8.19273 100.49L7.70836 102.297C7.70315 102.333 7.69273 102.37 7.68231 102.401C3.08856 120.167 0.760438 138.479 0.750022 156.828C0.723981 215.01 23.3594 269.724 64.4844 310.885C105.609 352.042 160.302 374.724 218.484 374.75C218.542 374.75 218.594 374.75 218.651 374.75C237.01 374.75 255.333 372.427 273.141 367.839L274.932 367.37C283.922 365.031 290.198 356.917 290.198 347.63V292.24C291.75 292.078 293.297 291.62 294.75 290.818C344.099 263.578 374.75 211.677 374.75 155.365C374.75 70.1094 305.391 0.75 220.135 0.75ZM320.563 239.109C314.411 233.677 307.901 228.792 301.089 224.458C306.125 206.807 309.208 187.443 310.083 167.292H350.344C347.906 193.953 337.365 218.943 320.563 239.109ZM232.031 255.812C232.036 255.63 232.057 255.453 232.057 255.271V225.109C245.984 226.536 259.417 230.156 271.969 235.797C268.141 245.24 263.635 253.771 258.521 261.047C258.422 261.182 258.344 261.323 258.255 261.464L232.031 255.812ZM118.974 72.4844C125.271 77.9531 131.938 82.8594 138.917 87.1875C134.016 104.635 131.036 123.677 130.182 143.443H124.323C122.766 143.443 121.286 143.75 119.927 144.292L110.703 101.484C109.922 97.8385 108.156 94.5938 105.734 91.9844C109.557 85.0833 113.99 78.5625 118.974 72.4844ZM122.406 233.964C120.911 232.099 119.448 230.203 118.052 228.24C122.229 227.156 125.979 224.76 128.76 221.318C132.651 216.495 134.135 210.26 132.833 204.208L124.88 167.292H130.125C130.792 187.214 133.167 206.224 137.453 223.391C132.26 226.599 127.234 230.12 122.406 233.964ZM145.75 47.8021C150.359 44.6042 155.141 41.7292 160.063 39.1771C158.078 42.2031 156.161 45.3802 154.323 48.7344C151.667 53.5677 149.219 58.6719 146.979 63.9948C143.109 61.3698 139.365 58.5313 135.76 55.474C138.958 52.776 142.281 50.2031 145.75 47.8021ZM175.229 60.2031C184.734 42.875 196.151 31.4271 208.208 26.849V85.7969C194.193 84.5417 180.656 81.0677 167.99 75.5625C170.167 70.1562 172.583 65.026 175.229 60.2031ZM208.208 109.724V143.443H154.052C154.797 127.625 157.016 112.411 160.594 98.349C175.615 104.615 191.646 108.474 208.208 109.724ZM154.052 167.292H208.208V200.891C191.411 201.974 175.151 205.74 159.901 211.969C156.786 197.88 154.755 182.578 154.052 167.292ZM232.057 167.292H286.208C285.427 183.245 283.094 198.734 279.417 213.01C264.49 206.599 248.552 202.589 232.057 201.156V167.292ZM232.057 143.443V109.724C248.625 108.474 264.651 104.615 279.677 98.349C283.25 112.411 285.474 127.625 286.214 143.443H232.057ZM232.057 85.7969V26.849C244.12 31.4271 255.531 42.875 265.042 60.2031C267.682 65.026 270.099 70.1562 272.281 75.5625C259.615 81.0677 246.073 84.5417 232.057 85.7969ZM285.948 48.7344C284.125 45.4115 282.224 42.2656 280.26 39.2656C288.943 43.7812 297.057 49.2396 304.464 55.5104C300.875 58.5521 297.146 61.3802 293.292 63.9948C291.047 58.6719 288.599 53.5677 285.948 48.7344ZM145.031 246.891C146.094 249.49 147.214 252.026 148.391 254.484C147.958 255.469 147.609 256.484 147.339 257.526C144.505 255.51 141.771 253.391 139.135 251.167C141.068 249.682 143.031 248.255 145.031 246.891ZM171.375 242.745C170.641 242.589 169.906 242.474 169.172 242.396C168.214 240.057 167.292 237.625 166.411 235.109C179.552 229.411 193.635 225.917 208.208 224.802V250.682L171.375 242.745ZM282.87 269.208C282.62 268.995 282.365 268.781 282.104 268.583C286.094 262.151 289.703 255.146 292.906 247.661C296.307 250.031 299.609 252.562 302.797 255.271C296.552 260.568 289.88 265.224 282.87 269.208ZM310.089 143.443C309.229 123.677 306.255 104.635 301.349 87.1875C308.313 82.875 314.964 77.9792 321.245 72.5312C337.396 92.2083 347.922 116.677 350.354 143.443H310.089ZM266.823 345.328C251.089 349.339 234.885 351.375 218.651 351.375C218.599 351.375 218.547 351.375 218.5 351.375C166.557 351.354 117.734 331.104 81.0209 294.365C44.3073 257.62 24.1042 208.776 24.125 156.833C24.1354 140.63 26.1719 124.458 30.1823 108.755H88.3594L109.276 205.844C103.234 206.932 97.9479 210.698 94.974 216.208C91.3854 222.859 91.7448 230.932 95.9167 237.276C107.073 254.24 121.339 268.505 138.302 279.661C144.646 283.833 152.719 284.193 159.37 280.604C164.885 277.63 168.651 272.344 169.734 266.302L266.823 287.219V345.328Z" fill="white"/>
</g>
</svg>
