<svg width="495" height="448" viewBox="0 0 495 448" fill="none" xmlns="http://www.w3.org/2000/svg">
<mask id="mask0_18_10" style="mask-type:luminance" maskUnits="userSpaceOnUse" x="0" y="0" width="495" height="448">
<path d="M0 0H495V447.786H0V0Z" fill="white"/>
</mask>
<g mask="url(#mask0_18_10)">
<mask id="mask1_18_10" style="mask-type:luminance" maskUnits="userSpaceOnUse" x="0" y="0" width="496" height="448">
<path d="M495 276.037V28.172C495 12.8282 482.51 0.338623 467.167 0.338623H27.8333C12.4896 0.338623 0 12.8282 0 28.172V319.511C0 334.854 12.4896 347.344 27.8333 347.344H206.224V386.193H172.484C141.693 386.193 116.641 411.245 116.641 442.042C116.641 445.146 119.161 447.667 122.266 447.667H372.755C375.865 447.667 378.38 445.146 378.38 442.042C378.38 411.245 353.328 386.193 322.536 386.193H288.786V347.344H467.177C482.521 347.344 495.01 334.854 495.01 319.511L495 276.037C495 276.047 495 276.047 495 276.037ZM27.8333 11.5886H467.177C476.323 11.5886 483.76 19.0261 483.76 28.172V270.412H136.01C140.286 262.297 143.401 253.693 145.292 244.682L166.667 244.693C169.771 244.693 172.292 242.172 172.292 239.068L172.318 208.781C172.318 205.672 169.797 203.156 166.693 203.156L145.302 203.13C142.76 191.073 137.969 179.469 131.255 169.13L146.385 154.011C148.578 151.818 148.589 148.25 146.396 146.057L125 124.625C122.802 122.432 119.24 122.417 117.047 124.615L101.901 139.734C91.5729 132.995 79.974 128.177 67.9271 125.615L67.9479 104.224C67.9479 102.729 67.3646 101.302 66.3073 100.245C65.25 99.1876 63.8229 98.5886 62.3333 98.5886L32.0521 98.5678C28.9479 98.5678 26.4271 101.089 26.4271 104.193L26.401 125.578C21.2396 126.672 16.1771 128.167 11.2604 130.047V28.172C11.25 19.0261 18.6875 11.5886 27.8333 11.5886ZM11.25 183.813C21.125 174.958 33.7604 170.099 47.0938 170.099C47.1042 170.099 47.1146 170.099 47.125 170.099C61.4792 170.109 74.9688 175.714 85.1042 185.859C95.2552 196.021 100.823 209.521 100.813 223.875C100.802 243.141 90.4948 260.823 73.8542 270.412H11.25V183.813ZM112.073 223.891C112.094 206.531 105.344 190.203 93.0833 177.917C80.8177 165.63 64.5052 158.859 47.1458 158.849C47.1354 158.849 47.1146 158.849 47.1042 158.849C34.1875 158.849 21.8125 162.62 11.2604 169.615V142.219C18.1771 139.172 25.4479 137.021 32.9167 135.818C35.6406 135.38 37.651 133.026 37.651 130.271L37.6771 109.839L56.7083 109.854L56.6875 130.281C56.6875 133.052 58.6927 135.401 61.4115 135.839C75.0156 138.047 88.1094 143.479 99.2917 151.568C101.531 153.188 104.615 152.943 106.557 150.995L121.026 136.552L134.484 150.016L120.026 164.464C118.068 166.412 117.823 169.49 119.443 171.729C127.505 182.912 132.927 196.021 135.115 209.636C135.552 212.359 137.901 214.37 140.656 214.37L161.089 214.391L161.078 233.427H140.625C137.87 233.427 135.505 235.432 135.068 238.156C133.208 249.677 129.161 260.5 123.052 270.412H92.4167C104.802 258.349 112.063 241.667 112.073 223.891ZM366.771 436.417H128.229C131.005 414.464 149.781 397.443 172.474 397.443H322.516C345.208 397.432 363.995 414.464 366.771 436.417ZM277.526 386.182H217.474V347.333H277.526V386.182ZM467.167 336.094H283.208C283.182 336.094 283.172 336.078 283.151 336.078C283.13 336.078 283.115 336.078 283.094 336.094H211.906C211.88 336.094 211.87 336.078 211.849 336.078C211.828 336.078 211.813 336.078 211.792 336.094H27.8333C18.6875 336.094 11.25 328.656 11.25 319.511V281.662H483.75V319.511C483.75 328.646 476.313 336.094 467.167 336.094ZM225.089 245.208H430.99C434.094 245.208 436.615 242.688 436.615 239.583V126.662C436.615 123.557 434.094 121.037 430.99 121.037H390.677V74.9272C390.677 74.8959 390.667 74.849 390.667 74.8178C390.656 74.4792 390.635 74.1407 390.568 73.8178C390.552 73.7709 390.542 73.724 390.531 73.6824C390.464 73.4115 390.385 73.1407 390.286 72.8803C390.24 72.7813 390.193 72.6772 390.151 72.5782C390.047 72.3751 389.948 72.172 389.823 71.9688C389.766 71.8803 389.724 71.7918 389.656 71.7136C389.474 71.4636 389.281 71.2188 389.057 70.9897C389.047 70.9792 389.036 70.9688 389.026 70.9584L356.521 38.4428C356.286 38.2084 356.026 38.0053 355.76 37.8126C355.677 37.7553 355.599 37.7136 355.521 37.6667C355.318 37.5417 355.104 37.4324 354.891 37.3282C354.792 37.2865 354.703 37.2397 354.599 37.2084C354.328 37.1042 354.057 37.0157 353.792 36.9584C353.745 36.948 353.698 36.9376 353.656 36.9272C353.328 36.8595 352.99 36.8334 352.651 36.823C352.62 36.823 352.573 36.8126 352.542 36.8126H242.078C238.974 36.8126 236.453 39.3334 236.453 42.4376V100.807H225.099C221.995 100.807 219.474 103.328 219.474 106.432V239.604C219.464 242.688 221.984 245.208 225.089 245.208ZM230.714 233.958V224.271H425.365V233.958H230.714ZM358.156 55.9949L371.464 69.3022H358.156V55.9949ZM247.693 48.0417H346.906V74.9272C346.906 78.0365 349.427 80.5574 352.531 80.5574H379.417V121.047H319.052L298.922 102.292C297.891 101.323 296.516 100.781 295.089 100.781H247.693V48.0417ZM292.88 112.037L313.01 130.792C314.042 131.755 315.417 132.297 316.844 132.297H425.365V213.031H230.714V112.037H292.88ZM274.906 173C274.906 171.261 275.714 169.615 277.099 168.547L297.776 152.594C300.24 150.693 303.771 151.151 305.661 153.615C307.563 156.083 307.104 159.615 304.651 161.505L289.745 173L304.651 184.5C307.115 186.401 307.563 189.932 305.661 192.386C304.557 193.828 302.885 194.578 301.208 194.578C300.005 194.578 298.802 194.198 297.776 193.412L277.099 177.458C275.714 176.391 274.906 174.745 274.906 173ZM350.401 153.604C352.302 151.141 355.839 150.693 358.292 152.583L378.969 168.537C380.349 169.604 381.161 171.245 381.161 172.99C381.161 174.734 380.349 176.375 378.969 177.448L358.292 193.401C357.266 194.188 356.063 194.568 354.859 194.568C353.172 194.568 351.505 193.818 350.401 192.375C348.5 189.912 348.964 186.38 351.427 184.49L366.333 172.99L351.427 161.495C348.964 159.604 348.516 156.068 350.401 153.604ZM315.078 199.646L330.141 143.438C330.953 140.432 334.036 138.651 337.026 139.453C340.031 140.25 341.807 143.344 341.01 146.339L325.948 202.547C325.271 205.057 323 206.719 320.51 206.719C320.026 206.719 319.547 206.651 319.052 206.531C316.047 205.729 314.271 202.646 315.078 199.646ZM260.292 65.323C260.292 62.2188 262.813 59.698 265.917 59.698H328.792C331.896 59.698 334.417 62.2188 334.417 65.323C334.417 68.4272 331.896 70.948 328.792 70.948H265.917C262.813 70.948 260.292 68.4272 260.292 65.323ZM328.792 90.198H265.917C262.813 90.198 260.292 87.6772 260.292 84.573C260.292 81.4688 262.813 78.948 265.917 78.948H328.792C331.896 78.948 334.417 81.4688 334.417 84.573C334.417 87.6772 331.896 90.198 328.792 90.198Z" fill="white"/>
</mask>
<g mask="url(#mask1_18_10)">
<path d="M0 0.338623V447.667H495V0.338623H0Z" fill="white"/>
</g>
</g>
</svg>
