<svg width="626" height="566" viewBox="0 0 626 566" fill="none" xmlns="http://www.w3.org/2000/svg">
<mask id="mask0_2_668" style="mask-type:luminance" maskUnits="userSpaceOnUse" x="0" y="0" width="626" height="566">
<path d="M0.723999 0.213501H626V565.85H0.723999V0.213501Z" fill="white"/>
</mask>
<g mask="url(#mask0_2_668)">
<mask id="mask1_2_668" style="mask-type:luminance" maskUnits="userSpaceOnUse" x="0" y="0" width="627" height="566">
<path d="M626 348.898V35.7997C626 16.4178 610.223 0.641113 590.841 0.641113H35.8826C16.5006 0.641113 0.723999 16.4178 0.723999 35.7997V403.814C0.723999 423.196 16.5006 438.973 35.8826 438.973H261.223V488.046H218.603C179.708 488.046 148.063 519.691 148.063 558.593C148.063 562.515 151.247 565.699 155.168 565.699H471.582C475.51 565.699 478.688 562.515 478.688 558.593C478.688 519.691 447.042 488.046 408.147 488.046H365.514V438.973H590.855C610.237 438.973 626.013 423.196 626.013 403.814L626 348.898C626 348.911 626 348.911 626 348.898ZM35.8826 14.8519H590.855C602.407 14.8519 611.802 24.2469 611.802 35.7997V341.793H172.53C177.932 331.543 181.866 320.674 184.254 309.292L211.255 309.305C215.176 309.305 218.36 306.121 218.36 302.2L218.393 263.943C218.393 260.015 215.209 256.837 211.288 256.837L184.267 256.804C181.057 241.574 175.004 226.916 166.523 213.856L185.636 194.757C188.405 191.987 188.419 187.48 185.649 184.711L158.622 157.638C155.846 154.868 151.346 154.848 148.576 157.625L129.444 176.724C116.397 168.21 101.746 162.125 86.5284 158.888L86.5547 131.868C86.5547 129.979 85.8179 128.177 84.4823 126.841C83.1467 125.506 81.3441 124.749 79.4625 124.749L41.2117 124.723C37.2905 124.723 34.1063 127.907 34.1063 131.828L34.0734 158.842C27.5535 160.223 21.1586 162.112 14.948 164.487V35.7997C14.9348 24.2469 24.3297 14.8519 35.8826 14.8519ZM14.9348 232.402C27.4088 221.218 43.3696 215.08 60.2121 215.08C60.2252 215.08 60.2384 215.08 60.2515 215.08C78.3835 215.093 95.4233 222.172 108.226 234.988C121.049 247.824 128.082 264.877 128.069 283.009C128.056 307.345 115.036 329.681 94.0154 341.793H14.9348V232.402ZM142.293 283.029C142.319 261.1 133.793 240.475 118.305 224.955C102.812 209.435 82.2059 200.882 60.2779 200.869C60.2647 200.869 60.2384 200.869 60.2252 200.869C43.9091 200.869 28.2772 205.632 14.948 214.468V179.862C23.685 176.013 32.8694 173.296 42.3038 171.776C45.7447 171.224 48.2842 168.25 48.2842 164.769L48.3171 138.96L72.3571 138.979L72.3307 164.783C72.3307 168.283 74.8637 171.25 78.298 171.803C95.4825 174.592 112.022 181.454 126.148 191.671C128.977 193.717 132.871 193.408 135.325 190.948L153.602 172.704L170.602 189.711L152.339 207.961C149.865 210.422 149.556 214.31 151.602 217.139C161.787 231.264 168.635 247.824 171.399 265.022C171.951 268.462 174.918 271.002 178.399 271.002L204.208 271.028L204.195 295.075H178.359C174.879 295.075 171.892 297.608 171.339 301.049C168.991 315.602 163.879 329.273 156.161 341.793H117.463C133.108 326.556 142.28 305.483 142.293 283.029ZM464.023 551.488H162.701C166.208 523.757 189.925 502.257 218.59 502.257H408.121C436.786 502.244 460.516 523.757 464.023 551.488ZM351.29 488.033H275.434V438.959H351.29V488.033ZM590.841 424.762H358.468C358.435 424.762 358.422 424.742 358.396 424.742C358.37 424.742 358.35 424.742 358.323 424.762H268.401C268.368 424.762 268.355 424.742 268.328 424.742C268.302 424.742 268.282 424.742 268.256 424.762H35.8826C24.3297 424.762 14.9348 415.367 14.9348 403.814V356.004H611.789V403.814C611.789 415.354 602.394 424.762 590.841 424.762ZM285.052 309.957H545.143C549.064 309.957 552.249 306.772 552.249 302.851V160.21C552.249 156.289 549.064 153.105 545.143 153.105H494.221V94.8602C494.221 94.8207 494.208 94.7615 494.208 94.722C494.195 94.2944 494.168 93.8667 494.083 93.4588C494.063 93.3996 494.05 93.3404 494.037 93.2878C493.951 92.9456 493.853 92.6035 493.728 92.2746C493.668 92.1496 493.609 92.018 493.557 91.893C493.425 91.6364 493.3 91.3798 493.142 91.1232C493.07 91.0114 493.017 90.8996 492.932 90.8009C492.701 90.4851 492.458 90.1759 492.175 89.8864C492.162 89.8732 492.149 89.8601 492.135 89.8469L451.075 48.7737C450.779 48.4776 450.45 48.221 450.115 47.9776C450.01 47.9052 449.911 47.8526 449.812 47.7934C449.556 47.6355 449.286 47.4973 449.016 47.3658C448.891 47.3131 448.779 47.2539 448.648 47.2144C448.306 47.0829 447.963 46.971 447.628 46.8986C447.569 46.8855 447.51 46.8723 447.457 46.8592C447.042 46.7736 446.615 46.7407 446.187 46.7276C446.148 46.7276 446.088 46.7144 446.049 46.7144H306.513C302.592 46.7144 299.408 49.8987 299.408 53.8198V127.552H285.065C281.144 127.552 277.96 130.736 277.96 134.657V302.878C277.947 306.772 281.131 309.957 285.052 309.957ZM292.158 295.746V283.509H538.038V295.746H292.158ZM453.141 70.9452L469.951 87.7548H453.141V70.9452ZM313.605 60.8989H438.93V94.8602C438.93 98.7879 442.115 101.972 446.036 101.972H479.997V153.118H403.745L378.317 129.427C377.015 128.203 375.278 127.519 373.475 127.519H313.605V60.8989ZM370.686 141.736L396.114 165.427C397.416 166.645 399.153 167.329 400.956 167.329H538.038V269.311H292.158V141.736H370.686ZM347.981 218.744C347.981 216.547 349.001 214.468 350.751 213.119L376.87 192.967C379.982 190.566 384.442 191.145 386.831 194.257C389.232 197.375 388.653 201.836 385.554 204.224L366.725 218.744L385.554 233.271C388.666 235.672 389.232 240.133 386.831 243.232C385.436 245.054 383.324 246.001 381.206 246.001C379.686 246.001 378.166 245.521 376.87 244.528L350.751 224.376C349.001 223.027 347.981 220.948 347.981 218.744ZM443.345 194.244C445.746 191.132 450.214 190.566 453.312 192.954L479.431 213.106C481.175 214.455 482.201 216.527 482.201 218.731C482.201 220.935 481.175 223.008 479.431 224.363L453.312 244.515C452.016 245.508 450.496 245.988 448.977 245.988C446.845 245.988 444.74 245.041 443.345 243.218C440.944 240.107 441.529 235.646 444.641 233.258L463.47 218.731L444.641 204.211C441.529 201.823 440.963 197.356 443.345 194.244ZM398.726 252.403L417.752 181.401C418.779 177.605 422.673 175.355 426.45 176.368C430.246 177.375 432.489 181.283 431.483 185.066L412.456 256.067C411.601 259.239 408.732 261.337 405.588 261.337C404.976 261.337 404.37 261.252 403.745 261.1C399.949 260.087 397.706 256.192 398.726 252.403ZM329.52 82.7283C329.52 78.8072 332.705 75.6229 336.626 75.6229H416.048C419.969 75.6229 423.154 78.8072 423.154 82.7283C423.154 86.6495 419.969 89.8337 416.048 89.8337H336.626C332.705 89.8337 329.52 86.6495 329.52 82.7283ZM416.048 114.15H336.626C332.705 114.15 329.52 110.966 329.52 107.045C329.52 103.123 332.705 99.9392 336.626 99.9392H416.048C419.969 99.9392 423.154 103.123 423.154 107.045C423.154 110.966 419.969 114.15 416.048 114.15Z" fill="white"/>
</mask>
<g mask="url(#mask1_2_668)">
<path d="M0.723999 0.641113V565.699H626V0.641113H0.723999Z" fill="url(#paint0_linear_2_668)"/>
</g>
</g>
<defs>
<linearGradient id="paint0_linear_2_668" x1="47.4679" y1="-46.1072" x2="642.653" y2="549.043" gradientUnits="userSpaceOnUse">
<stop stop-color="#009FFF"/>
<stop offset="0.015625" stop-color="#009FFF"/>
<stop offset="0.0195313" stop-color="#019FFE"/>
<stop offset="0.0234375" stop-color="#029EFE"/>
<stop offset="0.0273438" stop-color="#039EFD"/>
<stop offset="0.03125" stop-color="#049DFC"/>
<stop offset="0.0351562" stop-color="#059DFB"/>
<stop offset="0.0390625" stop-color="#069CFA"/>
<stop offset="0.0429688" stop-color="#079CFA"/>
<stop offset="0.046875" stop-color="#089BF9"/>
<stop offset="0.0507813" stop-color="#099BF8"/>
<stop offset="0.0546875" stop-color="#0A9AF7"/>
<stop offset="0.0585938" stop-color="#0B9AF6"/>
<stop offset="0.0625" stop-color="#0C99F6"/>
<stop offset="0.0664063" stop-color="#0D99F5"/>
<stop offset="0.0703125" stop-color="#0F98F4"/>
<stop offset="0.0742188" stop-color="#1098F3"/>
<stop offset="0.078125" stop-color="#1197F2"/>
<stop offset="0.0820313" stop-color="#1297F1"/>
<stop offset="0.0859375" stop-color="#1396F1"/>
<stop offset="0.0898438" stop-color="#1496F0"/>
<stop offset="0.09375" stop-color="#1595EF"/>
<stop offset="0.0976563" stop-color="#1695EE"/>
<stop offset="0.101563" stop-color="#1794ED"/>
<stop offset="0.105469" stop-color="#1894ED"/>
<stop offset="0.109375" stop-color="#1993EC"/>
<stop offset="0.113281" stop-color="#1A93EB"/>
<stop offset="0.117188" stop-color="#1B92EA"/>
<stop offset="0.121094" stop-color="#1C92E9"/>
<stop offset="0.125" stop-color="#1E91E8"/>
<stop offset="0.128906" stop-color="#1F91E8"/>
<stop offset="0.132813" stop-color="#2090E7"/>
<stop offset="0.136719" stop-color="#2190E6"/>
<stop offset="0.140625" stop-color="#228FE5"/>
<stop offset="0.144531" stop-color="#238EE4"/>
<stop offset="0.148438" stop-color="#248EE4"/>
<stop offset="0.152344" stop-color="#258DE3"/>
<stop offset="0.15625" stop-color="#268DE2"/>
<stop offset="0.160156" stop-color="#278CE1"/>
<stop offset="0.164063" stop-color="#288CE0"/>
<stop offset="0.167969" stop-color="#298BDF"/>
<stop offset="0.171875" stop-color="#2A8BDF"/>
<stop offset="0.175781" stop-color="#2C8ADE"/>
<stop offset="0.179688" stop-color="#2D8ADD"/>
<stop offset="0.183594" stop-color="#2E89DC"/>
<stop offset="0.1875" stop-color="#2F89DB"/>
<stop offset="0.191406" stop-color="#3088DB"/>
<stop offset="0.195313" stop-color="#3188DA"/>
<stop offset="0.199219" stop-color="#3287D9"/>
<stop offset="0.203125" stop-color="#3387D8"/>
<stop offset="0.207031" stop-color="#3486D7"/>
<stop offset="0.210938" stop-color="#3586D6"/>
<stop offset="0.214844" stop-color="#3685D6"/>
<stop offset="0.21875" stop-color="#3785D5"/>
<stop offset="0.222656" stop-color="#3884D4"/>
<stop offset="0.226563" stop-color="#3984D3"/>
<stop offset="0.230469" stop-color="#3B83D2"/>
<stop offset="0.234375" stop-color="#3C83D2"/>
<stop offset="0.238281" stop-color="#3D82D1"/>
<stop offset="0.242188" stop-color="#3E82D0"/>
<stop offset="0.246094" stop-color="#3F81CF"/>
<stop offset="0.25" stop-color="#4081CE"/>
<stop offset="0.253906" stop-color="#4180CD"/>
<stop offset="0.257812" stop-color="#4280CD"/>
<stop offset="0.261719" stop-color="#437FCC"/>
<stop offset="0.265625" stop-color="#447FCB"/>
<stop offset="0.269531" stop-color="#457ECA"/>
<stop offset="0.273438" stop-color="#467EC9"/>
<stop offset="0.277344" stop-color="#477DC8"/>
<stop offset="0.28125" stop-color="#487DC8"/>
<stop offset="0.285156" stop-color="#4A7CC7"/>
<stop offset="0.289063" stop-color="#4B7CC6"/>
<stop offset="0.292969" stop-color="#4C7BC5"/>
<stop offset="0.296875" stop-color="#4D7BC4"/>
<stop offset="0.300781" stop-color="#4E7AC4"/>
<stop offset="0.304688" stop-color="#4F7AC3"/>
<stop offset="0.308594" stop-color="#5079C2"/>
<stop offset="0.3125" stop-color="#5179C1"/>
<stop offset="0.316406" stop-color="#5278C0"/>
<stop offset="0.320313" stop-color="#5378BF"/>
<stop offset="0.324219" stop-color="#5477BF"/>
<stop offset="0.328125" stop-color="#5577BE"/>
<stop offset="0.332031" stop-color="#5676BD"/>
<stop offset="0.335938" stop-color="#5775BC"/>
<stop offset="0.339844" stop-color="#5975BB"/>
<stop offset="0.34375" stop-color="#5A74BB"/>
<stop offset="0.347656" stop-color="#5B74BA"/>
<stop offset="0.351563" stop-color="#5C73B9"/>
<stop offset="0.355469" stop-color="#5D73B8"/>
<stop offset="0.359375" stop-color="#5E72B7"/>
<stop offset="0.363281" stop-color="#5F72B6"/>
<stop offset="0.367188" stop-color="#6071B6"/>
<stop offset="0.371094" stop-color="#6171B5"/>
<stop offset="0.375" stop-color="#6270B4"/>
<stop offset="0.378906" stop-color="#6370B3"/>
<stop offset="0.382813" stop-color="#646FB2"/>
<stop offset="0.386719" stop-color="#656FB2"/>
<stop offset="0.390625" stop-color="#676EB1"/>
<stop offset="0.394531" stop-color="#686EB0"/>
<stop offset="0.398438" stop-color="#696DAF"/>
<stop offset="0.402344" stop-color="#6A6DAE"/>
<stop offset="0.40625" stop-color="#6B6CAD"/>
<stop offset="0.410156" stop-color="#6C6CAD"/>
<stop offset="0.414063" stop-color="#6D6BAC"/>
<stop offset="0.417969" stop-color="#6E6BAB"/>
<stop offset="0.421875" stop-color="#6F6AAA"/>
<stop offset="0.425781" stop-color="#706AA9"/>
<stop offset="0.429688" stop-color="#7169A9"/>
<stop offset="0.433594" stop-color="#7269A8"/>
<stop offset="0.4375" stop-color="#7368A7"/>
<stop offset="0.441406" stop-color="#7468A6"/>
<stop offset="0.445313" stop-color="#7667A5"/>
<stop offset="0.449219" stop-color="#7767A4"/>
<stop offset="0.453125" stop-color="#7866A4"/>
<stop offset="0.457031" stop-color="#7966A3"/>
<stop offset="0.460938" stop-color="#7A65A2"/>
<stop offset="0.464844" stop-color="#7B65A1"/>
<stop offset="0.46875" stop-color="#7C64A0"/>
<stop offset="0.472656" stop-color="#7D64A0"/>
<stop offset="0.476563" stop-color="#7E639F"/>
<stop offset="0.480469" stop-color="#7F639E"/>
<stop offset="0.484375" stop-color="#80629D"/>
<stop offset="0.488281" stop-color="#81629C"/>
<stop offset="0.492188" stop-color="#82619B"/>
<stop offset="0.496094" stop-color="#83619B"/>
<stop offset="0.5" stop-color="#85609A"/>
<stop offset="0.503906" stop-color="#866099"/>
<stop offset="0.507813" stop-color="#875F98"/>
<stop offset="0.511719" stop-color="#885F97"/>
<stop offset="0.515625" stop-color="#895E97"/>
<stop offset="0.519531" stop-color="#8A5E96"/>
<stop offset="0.523438" stop-color="#8B5D95"/>
<stop offset="0.527344" stop-color="#8C5C94"/>
<stop offset="0.53125" stop-color="#8D5C93"/>
<stop offset="0.535156" stop-color="#8E5B92"/>
<stop offset="0.539063" stop-color="#8F5B92"/>
<stop offset="0.542969" stop-color="#905A91"/>
<stop offset="0.546875" stop-color="#915A90"/>
<stop offset="0.550781" stop-color="#92598F"/>
<stop offset="0.554688" stop-color="#94598E"/>
<stop offset="0.558594" stop-color="#95588E"/>
<stop offset="0.5625" stop-color="#96588D"/>
<stop offset="0.566406" stop-color="#97578C"/>
<stop offset="0.570313" stop-color="#98578B"/>
<stop offset="0.574219" stop-color="#99568A"/>
<stop offset="0.578125" stop-color="#9A5689"/>
<stop offset="0.582031" stop-color="#9B5589"/>
<stop offset="0.585938" stop-color="#9C5588"/>
<stop offset="0.589844" stop-color="#9D5487"/>
<stop offset="0.59375" stop-color="#9E5486"/>
<stop offset="0.597656" stop-color="#9F5385"/>
<stop offset="0.601563" stop-color="#A05385"/>
<stop offset="0.605469" stop-color="#A25284"/>
<stop offset="0.609375" stop-color="#A35283"/>
<stop offset="0.613281" stop-color="#A45182"/>
<stop offset="0.617188" stop-color="#A55181"/>
<stop offset="0.621094" stop-color="#A65080"/>
<stop offset="0.625" stop-color="#A75080"/>
<stop offset="0.628906" stop-color="#A84F7F"/>
<stop offset="0.632813" stop-color="#A94F7E"/>
<stop offset="0.636719" stop-color="#AA4E7D"/>
<stop offset="0.640625" stop-color="#AB4E7C"/>
<stop offset="0.644531" stop-color="#AC4D7C"/>
<stop offset="0.648438" stop-color="#AD4D7B"/>
<stop offset="0.652344" stop-color="#AE4C7A"/>
<stop offset="0.65625" stop-color="#AF4C79"/>
<stop offset="0.660156" stop-color="#B14B78"/>
<stop offset="0.664063" stop-color="#B24B77"/>
<stop offset="0.667969" stop-color="#B34A77"/>
<stop offset="0.671875" stop-color="#B44A76"/>
<stop offset="0.675781" stop-color="#B54975"/>
<stop offset="0.679688" stop-color="#B64974"/>
<stop offset="0.683594" stop-color="#B74873"/>
<stop offset="0.6875" stop-color="#B84873"/>
<stop offset="0.691406" stop-color="#B94772"/>
<stop offset="0.695313" stop-color="#BA4771"/>
<stop offset="0.699219" stop-color="#BB4670"/>
<stop offset="0.703125" stop-color="#BC466F"/>
<stop offset="0.707031" stop-color="#BD456E"/>
<stop offset="0.710938" stop-color="#BE456E"/>
<stop offset="0.714844" stop-color="#C0446D"/>
<stop offset="0.71875" stop-color="#C1436C"/>
<stop offset="0.722656" stop-color="#C2436B"/>
<stop offset="0.726563" stop-color="#C3426A"/>
<stop offset="0.730469" stop-color="#C4426A"/>
<stop offset="0.734375" stop-color="#C54169"/>
<stop offset="0.738281" stop-color="#C64168"/>
<stop offset="0.742188" stop-color="#C74067"/>
<stop offset="0.746094" stop-color="#C84066"/>
<stop offset="0.75" stop-color="#C93F65"/>
<stop offset="0.753906" stop-color="#CA3F65"/>
<stop offset="0.757813" stop-color="#CB3E64"/>
<stop offset="0.761719" stop-color="#CC3E63"/>
<stop offset="0.765625" stop-color="#CE3D62"/>
<stop offset="0.769531" stop-color="#CF3D61"/>
<stop offset="0.773438" stop-color="#D03C61"/>
<stop offset="0.777344" stop-color="#D13C60"/>
<stop offset="0.78125" stop-color="#D23B5F"/>
<stop offset="0.785156" stop-color="#D33B5E"/>
<stop offset="0.789063" stop-color="#D43A5D"/>
<stop offset="0.792969" stop-color="#D53A5C"/>
<stop offset="0.796875" stop-color="#D6395C"/>
<stop offset="0.800781" stop-color="#D7395B"/>
<stop offset="0.804688" stop-color="#D8385A"/>
<stop offset="0.808594" stop-color="#D93859"/>
<stop offset="0.8125" stop-color="#DA3758"/>
<stop offset="0.816406" stop-color="#DB3758"/>
<stop offset="0.820313" stop-color="#DD3657"/>
<stop offset="0.824219" stop-color="#DE3656"/>
<stop offset="0.828125" stop-color="#DF3555"/>
<stop offset="0.832031" stop-color="#E03554"/>
<stop offset="0.835938" stop-color="#E13453"/>
<stop offset="0.839844" stop-color="#E23453"/>
<stop offset="0.84375" stop-color="#E33352"/>
<stop offset="0.847656" stop-color="#E43351"/>
<stop offset="0.851563" stop-color="#E53250"/>
<stop offset="0.855469" stop-color="#E6324F"/>
<stop offset="0.859375" stop-color="#E7314E"/>
<stop offset="0.863281" stop-color="#E8314E"/>
<stop offset="0.867188" stop-color="#E9304D"/>
<stop offset="0.871094" stop-color="#EA304C"/>
<stop offset="0.875" stop-color="#EC2F4B"/>
<stop offset="1" stop-color="#EC2F4B"/>
</linearGradient>
</defs>
</svg>
